/* XPM */
static const char * drum_mode_xpm[] = {
"32 32 212 2",
"  	c None",
". 	c #000000",
"+ 	c #262626",
"@ 	c #010101",
"# 	c #2B2B2B",
"$ 	c #282828",
"% 	c #1D1D1D",
"& 	c #1C1C1C",
"* 	c #1E1E1E",
"= 	c #0D0D0D",
"- 	c #292929",
"; 	c #A6A6A6",
"> 	c #DCDCDC",
", 	c #D2D2D2",
"' 	c #606060",
") 	c #191919",
"! 	c #424242",
"~ 	c #2C2C2C",
"{ 	c #393939",
"] 	c #363636",
"^ 	c #6E6E6E",
"/ 	c #FDFDFD",
"( 	c #FFFFFF",
"_ 	c #535353",
": 	c #3D3D3D",
"< 	c #3C3C3C",
"[ 	c #3F3F3F",
"} 	c #434343",
"| 	c #464646",
"1 	c #323232",
"2 	c #252525",
"3 	c #686868",
"4 	c #E3E3E3",
"5 	c #EAEAEA",
"6 	c #E0E0E0",
"7 	c #DFDFDF",
"8 	c #F1F1F1",
"9 	c #A9A9A9",
"0 	c #151515",
"a 	c #969696",
"b 	c #F0F0F0",
"c 	c #E6E6E6",
"d 	c #E7E7E7",
"e 	c #EDEDED",
"f 	c #5F5F5F",
"g 	c #747474",
"h 	c #B9B9B9",
"i 	c #525252",
"j 	c #E4E4E4",
"k 	c #FCFCFC",
"l 	c #B6B6B6",
"m 	c #B3B3B3",
"n 	c #ACACAC",
"o 	c #757575",
"p 	c #FBFBFB",
"q 	c #FAFAFA",
"r 	c #B4B4B4",
"s 	c #141414",
"t 	c #040404",
"u 	c #767777",
"v 	c #FEFEFE",
"w 	c #999999",
"x 	c #5C5C5C",
"y 	c #6A6A6A",
"z 	c #494949",
"A 	c #949494",
"B 	c #989898",
"C 	c #666666",
"D 	c #0E0E0E",
"E 	c #051010",
"F 	c #767474",
"G 	c #080808",
"H 	c #0F0F0F",
"I 	c #131313",
"J 	c #AAAAAA",
"K 	c #C5C5C5",
"L 	c #1C1B1B",
"M 	c #3FBFC0",
"N 	c #1C6A6B",
"O 	c #776868",
"P 	c #C2C2C2",
"Q 	c #A0A0A0",
"R 	c #A4A4A4",
"S 	c #B0B0B0",
"T 	c #ABABAB",
"U 	c #B2B2B2",
"V 	c #F3F3F3",
"W 	c #D1CECE",
"X 	c #190E0E",
"Y 	c #68EA11",
"Z 	c #2D9798",
"` 	c #0A2F30",
" .	c #656C6C",
"..	c #D5D2D1",
"+.	c #D8D3D3",
"@.	c #D8D5D5",
"#.	c #F8F7F7",
"$.	c #ECEAEA",
"%.	c #D0CDCD",
"&.	c #DED9D9",
"*.	c #A0A5A5",
"=.	c #233D3D",
"-.	c #001919",
";.	c #0B2121",
">.	c #216566",
",.	c #3A8889",
"'.	c #261919",
").	c #140202",
"!.	c #403737",
"~.	c #D9D6D6",
"{.	c #827B7B",
"].	c #190C0C",
"^.	c #1D0808",
"/.	c #2E4A4B",
"(.	c #42BDBF",
"_.	c #102F30",
":.	c #39ABAC",
"<.	c #288A8B",
"[.	c #073C3C",
"}.	c #002A2B",
"|.	c #174141",
"1.	c #858C8C",
"2.	c #BAB0B0",
"3.	c #AFA9A8",
"4.	c #ADA7A7",
"5.	c #B7AEAE",
"6.	c #AAA5A5",
"7.	c #456060",
"8.	c #002E2F",
"9.	c #003031",
"0.	c #155C5D",
"a.	c #41BFC1",
"b.	c #020606",
"c.	c #257273",
"d.	c #41C1C3",
"e.	c #1A3838",
"f.	c #080000",
"g.	c #0C0404",
"h.	c #0C0606",
"i.	c #090000",
"j.	c #0D0A0A",
"k.	c #308889",
"l.	c #39ACAE",
"m.	c #0C2525",
"n.	c #000101",
"o.	c #103132",
"p.	c #309192",
"q.	c #268D8E",
"r.	c #135D5E",
"s.	c #176667",
"t.	c #176869",
"u.	c #115758",
"v.	c #145D5E",
"w.	c #3FCBCD",
"x.	c #3EB9BB",
"y.	c #1E5C5C",
"z.	c #2F8E8F",
"A.	c #62ED4F",
"B.	c #43CACC",
"C.	c #113333",
"D.	c #319495",
"E.	c #2E8A8C",
"F.	c #1E5B5C",
"G.	c #216364",
"H.	c #216465",
"I.	c #1F5F60",
"J.	c #3AAFB1",
"K.	c #36A2A4",
"L.	c #174546",
"M.	c #020707",
"N.	c #010404",
"O.	c #35A1A2",
"P.	c #113434",
"Q.	c #267273",
"R.	c #1F5C5D",
"S.	c #35A0A1",
"T.	c #133939",
"U.	c #277576",
"V.	c #206061",
"W.	c #090909",
"X.	c #143E3E",
"Y.	c #28787A",
"Z.	c #313131",
"`.	c #1F1F1F",
" +	c #2A2A2A",
".+	c #171717",
"++	c #060000",
"@+	c #349FA0",
"#+	c #060606",
"$+	c #343434",
"%+	c #181010",
"&+	c #010303",
"*+	c #339D9F",
"=+	c #2D2D2D",
"-+	c #383838",
";+	c #0F0202",
">+	c #329A9B",
",+	c #153E3E",
"'+	c #287B7C",
")+	c #339899",
"!+	c #020000",
"~+	c #030303",
"{+	c #287677",
"]+	c #216565",
"^+	c #222121",
"/+	c #242424",
"(+	c #232323",
"_+	c #232121",
":+	c #2E5253",
"<+	c #373737",
"[+	c #363737",
"}+	c #342A2A",
"                                                  . .           ",
"                                                . . .           ",
"                                          . . . . . .           ",
"                                          . . . . .             ",
"                                        . . . . .               ",
"                + . . . . @       . . . . .                     ",
"              # $ % & * = .     . . . . .                       ",
"        . . . . - ; > , ' . . . . . . . . ) !             . . . ",
"      ~ { { ] - ^ / ( , _ . * : < [ } | } 1 2           . . . . ",
"    . 3 4 5 6 7 8 ( 9 0 . . a b c d b ( e f . . . . . . . .     ",
"  . . g ( ( ( ( ( ( h i } ^ j ( ( k l m n { . . . . @ . . .     ",
". . . o ( ( ( ( ( ( / p q p ( ( ( r s . t . . . . . .           ",
". . . u ( ( ( ( ( v ( ( ( ( w x y < . . . z A B C D .           ",
"E . . F ( ( ( ( ( ( ( ( ( b i . . G H @ I J ( ( K L .           ",
"M N . O ( ( ( ( v ( ( ( ( q P Q R 9 S T U V ( ( W X .           ",
"Y Z `  ...+.@.#.( ( ( ( ( ( ( ( ( ( ( ( ( $.%.&.*.=.-.          ",
";.>.Y ,.'.).!.~.( ( ( ( ( ( ( ( ( ( ( ( ( {.].^./.(.Y           ",
". _.:.<.[.}.|.1.2.3.4.4.4.4.4.4.4.4.4.5.6.7.8.9.0.Y a.          ",
". . b.c.Y Y d.e.f.g.h.h.h.h.h.h.h.h.h.i.j.k.Y Y l.m..           ",
"n.. . o.p.Y Y q.r.s.t.t.t.t.t.t.t.t.t.u.v.w.Y x.y.. .           ",
". . . . n.z.Y Y Y Y Y Y Y Y Y Y Y Y Y Y Y A.B.C.. . .           ",
". . . . . D.Y E.F.G.H.H.H.H.H.H.H.I.I.J.Y K.L.M.. . n.          ",
". . . . N.O.Y P.. . . . . . . . . . . Q.Y R.. . n.. .           ",
". . . . N.S.Y T.. . . . . . . . . . . U.Y V.. . . . .           ",
"D W.. . N.S.Y X.. . . . . . . . . . . Y.Y H.. . . . .           ",
"Z.`.. . N.S.Y X.. . . . . . . . . . . Y.Y H.. . . . .           ",
":  +.+++N.@+Y X.. . . . . . . . . . . Y.Y H.. . #+I .+          ",
"    $+%+&+*+Y X.. . . . . . . . . . . Y.Y H.. . = =+-+          ",
"      ;+N.>+Y ,+. . . . . . . . . . . '+Y H.. . G =+            ",
"        N.)+Y X.. !+~+~+~+~+~+~+~+. . {+Y ]+. . .               ",
"            Y     ^+/+(+(+(+(+(+(+_+_+:+Y                       ",
"                  <+] ] ] ] ] ] ] [+[+}+                        "};
