/* XPM */
static const char * expandgrid_xpm[] = {
"33 11 3 1",
" 	c None",
".	c #000000",
"+	c #FFFFFF",
"                                 ",
" ...................       +++   ",
" .++.++.++.++.++.++.       +.++  ",
" ................... +++++++..++ ",
" .++.++.++.++.++.++. +.........++",
" ................... +..........+",
" .++.++.++.++.++.++. +.........++",
" ................... +++++++..++ ",
" .++.++.++.++.++.++.       +.++  ",
" ...................       +++   ",
"                                 "};
