/* XPM */
static const char * filter_off_xpm[] = {
"12 20 2 1",
" 	c None",
".	c #000000",
"            ",
"       ...  ",
"       . .  ",
"       . .  ",
"       . .  ",
"       . .  ",
"       . .  ",
"       . .  ",
"       . .  ",
"       . .  ",
"       . .  ",
"       . .  ",
"   ..... .  ",
"  ..     .  ",
"  .      .  ",
"  .      .  ",
"  ..    ..  ",
"   ......   ",
"            ",
"            "};
