/* XPM */
static const char * finger_xpm[] = {
"16 18 11 1",
" 	c #000000",
".	c #FFFFFF",
"+	c #F6F6F6",
"@	c #F7F7F7",
"#	c #F8F8F8",
"$	c #F1F1F1",
"%	c #ECECEC",
"&	c #EDEDED",
"*	c #F3F3F3",
"=	c #F0F0F0",
"-	c #F4F4F4",
"    .+          ",
"   .  +         ",
"   @  +         ",
"   @  +         ",
"   +  +..       ",
"   +  +  #..    ",
"   +  +  .  ... ",
"   +  +  .  .  .",
" ..$  +  .  .  +",
".  %     .  .  +",
".  &           +",
".  .           +",
"&              +",
"*              +",
"*              +",
"=              -",
"..            ..",
"  ------------  "};
