/* XPM */
static const char * length_short_inv_xpm[] = {
"19 11 2 1",
" 	c None",
".	c #FFFFFF",
"...................",
"...................",
"                   ",
"................   ",
"................   ",
"                   ",
"........           ",
"........           ",
"                   ",
"....               ",
"....               "};
