/* XPM */
static const char * menu_empty_inv_xpm[] = {
"10 10 2 1",
" 	c None",
".	c #FFFFFF",
"..........",
".        .",
".        .",
".        .",
".        .",
".        .",
".        .",
".        .",
".        .",
".........."};
