/* XPM */
static char * metro_xpm[] = {
"40 48 205 2",
"  	c None",
". 	c #989898",
"+ 	c #2F2F2F",
"@ 	c #484848",
"# 	c #929292",
"$ 	c #A4A4A4",
"% 	c #7E7E7E",
"& 	c #272727",
"* 	c #676767",
"= 	c #747474",
"- 	c #464646",
"; 	c #D5D5D5",
"> 	c #F8F8F8",
", 	c #F7F7F7",
"' 	c #F1F1F1",
") 	c #B4B4B4",
"! 	c #000000",
"~ 	c #707070",
"{ 	c #606060",
"] 	c #3F3F3F",
"^ 	c #F6F6F6",
"/ 	c #D7D7D7",
"( 	c #4F4F4F",
"_ 	c #6B6B6B",
": 	c #666666",
"< 	c #646464",
"[ 	c #6A6A6A",
"} 	c #626262",
"| 	c #696969",
"1 	c #050505",
"2 	c #737373",
"3 	c #505050",
"4 	c #BCBCBC",
"5 	c #CBCBCB",
"6 	c #F9F9F9",
"7 	c #ACACAC",
"8 	c #767676",
"9 	c #FAFAFA",
"0 	c #FFFFFF",
"a 	c #EAEAEA",
"b 	c #ECECEC",
"c 	c #EFEFEF",
"d 	c #818181",
"e 	c #3C3C3C",
"f 	c #F0F0F0",
"g 	c #888888",
"h 	c #AAAAAA",
"i 	c #2E2E2E",
"j 	c #727272",
"k 	c #CECECE",
"l 	c #FEFEFE",
"m 	c #E8E8E8",
"n 	c #F3F3F3",
"o 	c #D6D6D6",
"p 	c #ABABAB",
"q 	c #AEAEAE",
"r 	c #111111",
"s 	c #FBFBFB",
"t 	c #E1E1E1",
"u 	c #616161",
"v 	c #E9E9E9",
"w 	c #1C1C1C",
"x 	c #434343",
"y 	c #909090",
"z 	c #E2E2E2",
"A 	c #F5F5F5",
"B 	c #B8B8B8",
"C 	c #4C4C4C",
"D 	c #C7C7C7",
"E 	c #C6C6C6",
"F 	c #494949",
"G 	c #0C0C0C",
"H 	c #3E3E3E",
"I 	c #C8C8C8",
"J 	c #EEEEEE",
"K 	c #595959",
"L 	c #797979",
"M 	c #757575",
"N 	c #E0E0E0",
"O 	c #6F6F6F",
"P 	c #D9D9D9",
"Q 	c #EDEDED",
"R 	c #2B2B2B",
"S 	c #555555",
"T 	c #292929",
"U 	c #8C8C8C",
"V 	c #FDFDFD",
"W 	c #B5B5B5",
"X 	c #F4F4F4",
"Y 	c #B3B3B3",
"Z 	c #D3D3D3",
"` 	c #3D3D3D",
" .	c #181818",
"..	c #A2A2A2",
"+.	c #8D8D8D",
"@.	c #535353",
"#.	c #242424",
"$.	c #C3C3C3",
"%.	c #919191",
"&.	c #848484",
"*.	c #404040",
"=.	c #5A5A5A",
"-.	c #373737",
";.	c #BABABA",
">.	c #C2C2C2",
",.	c #6E6E6E",
"'.	c #DBDBDB",
").	c #191919",
"!.	c #CFCFCF",
"~.	c #969696",
"{.	c #808080",
"].	c #F2F2F2",
"^.	c #DCDCDC",
"/.	c #575757",
"(.	c #343434",
"_.	c #6D6D6D",
":.	c #E3E3E3",
"<.	c #BDBDBD",
"[.	c #5D5D5D",
"}.	c #A9A9A9",
"|.	c #010101",
"1.	c #B0B0B0",
"2.	c #D1D1D1",
"3.	c #8B8B8B",
"4.	c #3B3B3B",
"5.	c #BBBBBB",
"6.	c #BFBFBF",
"7.	c #FCFCFC",
"8.	c #9C9C9C",
"9.	c #878787",
"0.	c #0A0A0A",
"a.	c #D8D8D8",
"b.	c #DEDEDE",
"c.	c #C1C1C1",
"d.	c #222222",
"e.	c #060606",
"f.	c #949494",
"g.	c #686868",
"h.	c #4A4A4A",
"i.	c #C5C5C5",
"j.	c #636363",
"k.	c #9F9F9F",
"l.	c #5B5B5B",
"m.	c #4D4D4D",
"n.	c #B7B7B7",
"o.	c #717171",
"p.	c #A6A6A6",
"q.	c #565656",
"r.	c #7C7C7C",
"s.	c #EBEBEB",
"t.	c #CCCCCC",
"u.	c #303030",
"v.	c #777777",
"w.	c #DDDDDD",
"x.	c #898989",
"y.	c #D4D4D4",
"z.	c #939393",
"A.	c #8A8A8A",
"B.	c #363636",
"C.	c #101010",
"D.	c #838383",
"E.	c #D2D2D2",
"F.	c #5E5E5E",
"G.	c #131313",
"H.	c #525252",
"I.	c #B6B6B6",
"J.	c #E4E4E4",
"K.	c #AFAFAF",
"L.	c #E5E5E5",
"M.	c #393939",
"N.	c #8E8E8E",
"O.	c #9A9A9A",
"P.	c #C0C0C0",
"Q.	c #B9B9B9",
"R.	c #999999",
"S.	c #383838",
"T.	c #3A3A3A",
"U.	c #979797",
"V.	c #1D1D1D",
"W.	c #656565",
"X.	c #E6E6E6",
"Y.	c #2A2A2A",
"Z.	c #CDCDCD",
"`.	c #CACACA",
" +	c #424242",
".+	c #B2B2B2",
"++	c #080808",
"@+	c #202020",
"#+	c #454545",
"$+	c #9E9E9E",
"%+	c #858585",
"&+	c #C9C9C9",
"*+	c #9D9D9D",
"=+	c #ADADAD",
"-+	c #828282",
";+	c #212121",
">+	c #313131",
",+	c #A8A8A8",
"'+	c #868686",
")+	c #A7A7A7",
"!+	c #A3A3A3",
"~+	c #030303",
"{+	c #0B0B0B",
"]+	c #040404",
"^+	c #090909",
"                                    . + @ # $ % & *                             ",
"                                  = - ; > , , , ' ) ! ~                         ",
"                                { ] ' ^ ^ ^ ^ ^ ^ , / !                         ",
"                                ! ( _ : < [ [ _ } | [ 1 2                       ",
"                            3 4 5 & 6 7 8 9 > 0 ! a b ! c d e                   ",
"                            ! f < g > h i j k l ! m n ! o p =                   ",
"                          q r s ! t > h u k v l ! m 6 @ . ; w                   ",
"                          x y z ! , , h 2 A A l ! m > B ! 0 ! o                 ",
"                          C D E F , , h G H I l ! m , J ! J K L                 ",
"M                         r N . O , , h * P Q l ! m , , R ; 7 S                 ",
"T U                     ; ! V ! W , , h j ' X l ! m , , { Y Z `                 ",
"   ...                  +.@.b ! b , , h ! #.$.l ! m , , %.u J !                 ",
"    ! &.*.=.            -.;.>.& V , , h ,.m ' l ! m , , '.! 0 ! ;.              ",
"    ).-.!.< j           ! v ~.{.6 , , h ~ J ].l ! m , , 9 ! ^.%./.              ",
"  (._.f > :.! <.        ! n [.}., , , h |.(.>.0 ! m , , s } 1.2.!               ",
"  3.4.:.> 6 5.!       6.R 7.! o , , , h ,.].A l ! m , , , 8.9.Q !               ",
"    +.0.'.6 N ! U     _ 3.a.! ^ , , , h : b.Q l ! m , , , c.d.6 e.              ",
"      8 i h ! S       ! / f.g.7., , , h ).h.i.l ! m , , , f ! c j.k.            ",
"        l.m.  !       ! ^ u n.> , , , h o.^ , l ! m , , , l ! ) <.*.            ",
"              p.(.    3 , & Z , , , , h [.5 m l ! m , , , s # M A !             ",
"                L q.g r.b ! s., , , , h R O t.l ! m , , , , D h., u.            ",
"                  v.! B W ! 7., , , , h = V > l ! m , , , , w.! A } p.          ",
"                    ! x.u ~.9 , , , , h S 5.z l ! m , , , , X ! y.z.~           ",
"                  A.B.` C.^., , , , , h -.D.E.l ! m , , , , s j.9./ !           ",
"                  F.+.^.! E 6 , , , , h M 0 9 0 ! m , , , , 6 6.C.7.! 6.        ",
"                  _.q !.G.! / > , , , h H.I.) 4 ! m , , , , , J.! ' : j.        ",
"                  ! '.x.j.K.C.L., , , h M.N.3.y ! m , , , , , f ! m O.{.        ",
"                k ! 0 ! P.7.y q.]., , h = V 9 0 ! m , , , , , , 4.Q.>.x         ",
"                < _.s.! f , ^ O o.9 , h j 9 , l ! m , , , , , > R.S ' !         ",
"                =.) 2.S., , , J T.U., h j 9 , l ! m , , , , , , L.! 9 V...      ",
"                (.o 1.W., , , > X.! ;.1.j 9 , l ! m , , , , , , , ! b.. Y.      ",
"                ! Z.=.{.y.y.y.y.; 1.! O u / y.'.! `.y.y.y.y.y.y.y. +p 7 @       ",
"              .+++W.< j.u u u u u j.< j.< u u u W.u u u u u u u u < } { @+      ",
"              #+$+X ' ' ' ' ' ' ' ' ' ' ' ' ' ' ' ' ' ' ' ' ' ' ' ' ' X !       ",
"              ! ^., , , , , , , , , , , , , , , , , , , , , , , , , , s _ %+    ",
"              ! s., , , , , , , , , , , , , , , , , , , , , , , , , , > D Y.    ",
"              ! A , , , , , , , , , , , , , , , , , , , , , , , , , , , m !     ",
"            3._.> , , , , , , , , , , , , , , , , , , , , , , , , , , , c !     ",
"            Y.&+> , , , , , , , , , , , , , , , , , , , , , , , , , , , > & W   ",
"            ! ^ , , , , , , , , , , , , , , , , , , , , , , , , , , , , > *+l.  ",
"            S., , , , , , , , , , , , , , , , , , , , , , , , , , , , , , w.!   ",
"          =+} , , , , , , , , , , , , , , , , , , , , , , , , , , , , , , , !   ",
"          j.$+, , , , , , , , , , , , , , , , , , , , , , , , , , , , , , , @.-+",
"          ! w., , , , , , , , , , , , , , , , , , , , , , , , , , , , , , , -+g ",
"        q } 9 , , , , , , , , , , , , , , , , , , , , , , , , , , , , , , , a.;+",
"        >+[ ,+,+,+,+,+,+,+,+,+,+,+,+,+,+,+,+,+,+,+,+,+,+,+,+,+,+,+,+,+,+,+,+7 ! ",
"        '+  @.{ )+[ F.  ! ! ! ! ! ! ! ! ! ! ! ! ! ! ! ! ! ! ! ! !   ! U.!+! ! 3 ",
"            = ~+{+]+&.                                              G.^+0.!     "};
