/* XPM */
static const char * metro_xpm[] = {
"40 48 160 2",
"  	c None",
". 	c #989898",
"+ 	c #000000",
"@ 	c #676767",
"# 	c #747474",
"$ 	c #707070",
"% 	c #606060",
"& 	c #3F3F3F",
"* 	c #F6F6F6",
"= 	c #F7F7F7",
"- 	c #D7D7D7",
"; 	c #6B6B6B",
"> 	c #666666",
", 	c #6A6A6A",
"' 	c #626262",
") 	c #696969",
"! 	c #050505",
"~ 	c #F9F9F9",
"{ 	c #ACACAC",
"] 	c #FAFAFA",
"^ 	c #F8F8F8",
"/ 	c #FFFFFF",
"( 	c #EAEAEA",
"_ 	c #ECECEC",
": 	c #EFEFEF",
"< 	c #3C3C3C",
"[ 	c #F0F0F0",
"} 	c #646464",
"| 	c #AAAAAA",
"1 	c #FEFEFE",
"2 	c #E8E8E8",
"3 	c #F3F3F3",
"4 	c #D6D6D6",
"5 	c #AEAEAE",
"6 	c #FBFBFB",
"7 	c #E1E1E1",
"8 	c #CECECE",
"9 	c #E9E9E9",
"0 	c #1C1C1C",
"a 	c #434343",
"b 	c #E2E2E2",
"c 	c #F5F5F5",
"d 	c #C7C7C7",
"e 	c #C6C6C6",
"f 	c #3E3E3E",
"g 	c #EEEEEE",
"h 	c #797979",
"i 	c #757575",
"j 	c #E0E0E0",
"k 	c #D9D9D9",
"l 	c #EDEDED",
"m 	c #D5D5D5",
"n 	c #555555",
"o 	c #292929",
"p 	c #8C8C8C",
"q 	c #FDFDFD",
"r 	c #B5B5B5",
"s 	c #F1F1F1",
"t 	c #F4F4F4",
"u 	c #B3B3B3",
"v 	c #3D3D3D",
"w 	c #181818",
"x 	c #A2A2A2",
"y 	c #8D8D8D",
"z 	c #242424",
"A 	c #616161",
"B 	c #848484",
"C 	c #404040",
"D 	c #5A5A5A",
"E 	c #BABABA",
"F 	c #C2C2C2",
"G 	c #DBDBDB",
"H 	c #191919",
"I 	c #727272",
"J 	c #969696",
"K 	c #F2F2F2",
"L 	c #DCDCDC",
"M 	c #575757",
"N 	c #6D6D6D",
"O 	c #E3E3E3",
"P 	c #BDBDBD",
"Q 	c #A9A9A9",
"R 	c #343434",
"S 	c #B0B0B0",
"T 	c #8B8B8B",
"U 	c #BBBBBB",
"V 	c #BFBFBF",
"W 	c #FCFCFC",
"X 	c #878787",
"Y 	c #0A0A0A",
"Z 	c #D8D8D8",
"` 	c #DEDEDE",
" .	c #C1C1C1",
"..	c #767676",
"+.	c #2E2E2E",
"@.	c #949494",
"#.	c #4A4A4A",
"$.	c #9F9F9F",
"%.	c #5B5B5B",
"&.	c #4D4D4D",
"*.	c #B7B7B7",
"=.	c #B4B4B4",
"-.	c #A6A6A6",
";.	c #D3D3D3",
">.	c #CBCBCB",
",.	c #929292",
"'.	c #7C7C7C",
").	c #EBEBEB",
"!.	c #777777",
"~.	c #B8B8B8",
"{.	c #DDDDDD",
"].	c #898989",
"^.	c #D4D4D4",
"/.	c #939393",
"(.	c #8A8A8A",
"_.	c #636363",
":.	c #CFCFCF",
"<.	c #B6B6B6",
"[.	c #BCBCBC",
"}.	c #E4E4E4",
"|.	c #AFAFAF",
"1.	c #E5E5E5",
"2.	c #8E8E8E",
"3.	c #909090",
"4.	c #9A9A9A",
"5.	c #C0C0C0",
"6.	c #3B3B3B",
"7.	c #717171",
"8.	c #999999",
"9.	c #D1D1D1",
"0.	c #383838",
"a.	c #979797",
"b.	c #1D1D1D",
"c.	c #656565",
"d.	c #E6E6E6",
"e.	c #2A2A2A",
"f.	c #CDCDCD",
"g.	c #808080",
"h.	c #6F6F6F",
"i.	c #CACACA",
"j.	c #424242",
"k.	c #ABABAB",
"l.	c #484848",
"m.	c #B2B2B2",
"n.	c #202020",
"o.	c #454545",
"p.	c #858585",
"q.	c #C9C9C9",
"r.	c #272727",
"s.	c #9D9D9D",
"t.	c #9E9E9E",
"u.	c #828282",
"v.	c #888888",
"w.	c #868686",
"x.	c #505050",
"y.	c #030303",
"z.	c #0B0B0B",
"A.	c #040404",
"B.	c #131313",
"C.	c #090909",
"                                    . + + + + + + @                             ",
"                                  # + + + + + + + + + $                         ",
"                                % & + * * * * * * = - +                         ",
"                                + + ; > + , , ; ' ) , ! +                       ",
"                            + +   + ~ { + ] ^ / + ( _ + : + <                   ",
"                            + [ } + ^ | + + + 1 + 2 3 + 4 + #                   ",
"                          5 + 6 + 7 ^ | + 8 9 1 + 2 ~ + . + 0                   ",
"                          a + b + = = | + c c 1 + 2 ^ + + / + 4                 ",
"                          + d e + = = | + f + 1 + 2 = g + g + h                 ",
"i                         + j . + = = | + k l 1 + 2 = = + m + n                 ",
"o p                     m + q + r = = | + s t 1 + 2 = = + u + v                 ",
"  w x                   y + _ + _ = = | + z + 1 + 2 = = + A g +                 ",
"    + B C D             + E F + q = = | + 2 s 1 + 2 = = G + / + E               ",
"    H + + + I           + 9 J + ~ = = | + g K 1 + 2 = = ] + L + M               ",
"  + N [ ^ O + P         + 3 + Q = = = | + R + / + 2 = = 6 + S + +               ",
"  T + O ^ ~ U +       V + W + 4 = = = | + K c 1 + 2 = = = + X l +               ",
"    y Y G ~ j + p     + T Z + * = = = | + ` l 1 + 2 = = =  .+ ~ +               ",
"      ..+.+ + n       + - @.+ W = = = | + #.+ 1 + 2 = = = [ + : + $.            ",
"        %.&.  +       + * + *.^ = = = | + * = 1 + 2 = = = 1 + =.P +             ",
"              -.+     + = + ;.= = = = | + >.2 1 + 2 = = = 6 ,.+ c +             ",
"                h + + '._ + ).= = = = | + + + 1 + 2 = = = = d + = +             ",
"                  !.+ ~.r + W = = = = | + q ^ 1 + 2 = = = = {.+ c + -.          ",
"                    + ].+ J ] = = = = | + U b 1 + 2 = = = = t + ^./.+           ",
"                  (.+ + + L = = = = = | + + + 1 + 2 = = = = 6 _.+ - +           ",
"                  + y L + e ~ = = = = | + / ] / + 2 = = = = ~ V + W + V         ",
"                  + 5 :.+ + - ^ = = = | + <.=.[.+ 2 = = = = = }.+ s + _.        ",
"                  + G + _.|.+ 1.= = = | + 2.T 3.+ 2 = = = = = [ + 2 4.+         ",
"                8 + / + 5.W 3.+ K = = | + q ] / + 2 = = = = = = 6.+ F +         ",
"                + N ).+ [ = * + 7.] = | + ] = 1 + 2 = = = = = ^ 8.+ s +         ",
"                + =.9.0.= = = g + a.= | + ] = 1 + 2 = = = = = = 1.+ ] b.x       ",
"                R 4 S c.= = = ^ d.+ E S + ] = 1 + 2 = = = = = = = + ` . e.      ",
"                + f.D g.^.^.^.^.m S + h.+ - ^.G + i.^.^.^.^.^.^.^.j.k.{ l.      ",
"              m.+ + + + + + + + + + + + + + + + + + + + + + + + + + + + n.      ",
"              o.+ + + + + + + + + + + + + + + + + + + + + + + + + + + + +       ",
"              + L = = = = = = = = = = = = = = = = = = = = = = = = = = 6 + p.    ",
"              + ).= = = = = = = = = = = = = = = = = = = = = = = = = = ^ d e.    ",
"              + c = = = = = = = = = = = = = = = = = = = = = = = = = = = 2 +     ",
"            T + ^ = = = = = = = = = = = = = = = = = = = = = = = = = = = : +     ",
"            + q.^ = = = = = = = = = = = = = = = = = = = = = = = = = = = ^ r.r   ",
"            + * = = = = = = = = = = = = = = = = = = = = = = = = = = = = ^ s.+   ",
"            0.= = = = = = = = = = = = = = = = = = = = = = = = = = = = = = {.+   ",
"          + ' = = = = = = = = = = = = = = = = = = = = = = = = = = = = = = = +   ",
"        + _.t.= = = = = = = = = = = = = = = = = = = = = = = = = = = = = = = + u.",
"          + {.= = = = = = = = = = = = = = = = = = = = = = = = = = = = = = = + v.",
"        + ' ] = = = = = = = = = = = = = = = = = = = = = = = = = = = = = = = Z + ",
"        + + + + + + + + + + + + + + + + + + + + + + + + + + + + + + + + + + + + ",
"        w.  + + + + + + + + + + + + + + + + + + + + + + + + + + + + + + + + + x.",
"            # y.z.A.B                                               B.C.Y +     "};
