/* XPM */
static const char * metro_on_xpm[] = {
"40 48 148 2",
"  	c None",
". 	c #34939B",
"+ 	c #000000",
"@ 	c #65C4CC",
"# 	c #38A0A8",
"$ 	c #3AA6AE",
"% 	c #C3E8EB",
"& 	c #F3FAFB",
"* 	c #F2FAFB",
"= 	c #205A5F",
"- 	c #308990",
"; 	c #030708",
"> 	c #35979F",
", 	c #35969E",
"' 	c #318C93",
") 	c #3699A1",
"! 	c #339299",
"~ 	c #1E565A",
"{ 	c #E7F6F7",
"] 	c #E3F4F6",
"^ 	c #7DC0EF",
"/ 	c #FFFFFF",
"( 	c #F5FBFC",
"_ 	c #F8FCFD",
": 	c #83CFD6",
"< 	c #F6FCFC",
"[ 	c #C2E7EB",
"} 	c #FEFEFF",
"| 	c #80CED5",
"1 	c #328F96",
"2 	c #E9F6F8",
"3 	c #0E282A",
"4 	c #DEF2F4",
"5 	c #B6E3E7",
"6 	c #F9FDFD",
"7 	c #86D1D7",
"8 	c #F0F9FA",
"9 	c #D4EEF1",
"0 	c #226065",
"a 	c #3DADB6",
"b 	c #E6F5F7",
"c 	c #1F585D",
"d 	c #AADEE3",
"e 	c #ABDFE3",
"f 	c #2B7980",
"g 	c #C0E7EA",
"h 	c #E4F5F6",
"i 	c #C6E9EC",
"j 	c #D1EDF0",
"k 	c #3BA7B0",
"l 	c #1F575C",
"m 	c #8DD3D9",
"n 	c #EFF9FA",
"o 	c #EAF7F8",
"p 	c #90D5DA",
"q 	c #FCFEFE",
"r 	c #53BDC6",
"s 	c #153A3E",
"t 	c #318A92",
"u 	c #123336",
"v 	c #54BEC6",
"w 	c #74CAD1",
"x 	c #0C2224",
"y 	c #98D7DD",
"z 	c #DDF2F4",
"A 	c #A4DCE1",
"B 	c #2D8087",
"C 	c #205B60",
"D 	c #47B8C2",
"E 	c #2C7C83",
"F 	c #CBEBEE",
"G 	c #ECF8F9",
"H 	c #62C3CB",
"I 	c #39A3AB",
"J 	c #0D2426",
"K 	c #89D2D8",
"L 	c #1A4A4E",
"M 	c #7ECED4",
"N 	c #EDF8F9",
"O 	c #9CD9DE",
"P 	c #379CA4",
"Q 	c #4BBAC3",
"R 	c #FBFDFE",
"S 	c #9FDADF",
"T 	c #51BDC5",
"U 	c #A2DBE0",
"V 	c #CEECEF",
"W 	c #C5E9EC",
"X 	c #050E0F",
"Y 	c #6FC8CF",
"Z 	c #256A6F",
"` 	c #5FC2CA",
" .	c #174245",
"..	c #3BA8B1",
"+.	c #8FD4DA",
"@.	c #93D6DB",
"#.	c #276E74",
"$.	c #2E8289",
"%.	c #5CC1C9",
"&.	c #B1E1E5",
"*.	c #7ACCD3",
"=.	c #3EB1BA",
"-.	c #95D6DC",
";.	c #3CAAB3",
">.	c #5DC1C9",
",.	c #BFE6EA",
"'.	c #99D8DD",
").	c #4EBBC4",
"!.	c #328D95",
"~.	c #50BCC5",
"{.	c #9BD9DE",
"].	c #92D5DB",
"^.	c #B7E3E7",
"/.	c #68C5CD",
"(.	c #59BFC8",
"_.	c #56BEC7",
":.	c #87D1D7",
"<.	c #C9EAED",
"[.	c #1E5459",
"}.	c #A1DBE0",
"|.	c #66C5CC",
"1.	c #39A1AA",
"2.	c #E1F4F5",
"3.	c #0F292C",
"4.	c #63C3CB",
"5.	c #1C5054",
"6.	c #BAE5E8",
"7.	c #153C3F",
"8.	c #339098",
"9.	c #24676C",
"0.	c #81CFD5",
"a.	c #215E63",
"b.	c #B0E1E5",
"c.	c #389EA7",
"d.	c #41B6C0",
"e.	c #B4E2E6",
"f.	c #102E30",
"g.	c #8CD3D9",
"h.	c #48B9C2",
"i.	c #44B7C1",
"j.	c #6EC7CF",
"k.	c #287278",
"l.	c #4ABAC3",
"m.	c #050D0E",
"n.	c #0A1B1D",
"o.	c #020606",
"p.	c #061011",
"q.	c #020405",
"                            . + + + + + + @                                     ",
"                        # + + + + + + + + + $                                   ",
"                        + % & * * * * * * + = -                                 ",
"                      + ; > , ' ) > > + ! ) + +                                 ",
"                  ~ + { + ] ^ + / ( _ + : < +   + +                             ",
"                  $ + [ + ^ ^ + } + + + | ^ + 1 2 +                             ",
"                  3 + @ + ^ ^ + } 4 5 + | ^ ^ + 6 + 7                           ",
"                [ + / + + ^ ^ + } 8 8 + | ^ ^ + 9 + 0                           ",
"                a + b + ^ ^ ^ + } + c + | ^ ^ + d e +                           ",
"                f + g + ^ ^ ^ + } h i + | ^ ^ + @ j +                         k ",
"                l + m + ^ ^ ^ + } n o + | ^ ^ p + q + g                     r s ",
"                + b t + ^ ^ ^ + } + u + | ^ ^ ^ + ] + v                   w x   ",
"              y + / + ^ ^ ^ ^ + } o z + | ^ ^ ^ + A y +             B C D +     ",
"              E + F + ^ ^ ^ ^ + } G b + | ^ ^ ^ + H 4 +           I + + + J     ",
"              + + K + ^ ^ ^ ^ + / + L + | ^ ^ ^ M + N +         O + ^ ^ ^ P +   ",
"              + h Q + ^ ^ ^ ^ + } 8 G + | ^ ^ ^ ^ + R + S       + ^ ^ ^ ^ + T   ",
"              + < + U ^ ^ ^ ^ + } h V + | ^ ^ ^ ^ + W T +     r + ^ ^ ^ X v     ",
"            Y + { + ^ ^ ^ ^ ^ + } + Z + | ^ ^ ^ ^ + ` % +       f + +  ...      ",
"            + O +.+ ^ ^ ^ ^ ^ + } & * + | ^ ^ ^ ^ @.+ * +       +   #.$.        ",
"            + 8 + %.^ ^ ^ ^ ^ + } z &.+ | ^ ^ ^ ^ ^ + & +     + *.              ",
"            + & + ^ ^ ^ ^ ^ ^ + } + + + | ^ ^ ^ ^ ^ + ] =.+ + a                 ",
"          *.+ 8 + ^ ^ ^ ^ ^ ^ + } ( q + | ^ ^ ^ ^ ^ + p -.+ ;.                  ",
"          + >.,.+ ^ ^ ^ ^ ^ ^ + } 9 '.+ | ^ ^ ^ ^ ^ H + ).+                     ",
"          + % + !.^ ^ ^ ^ ^ ^ + } + + + | ^ ^ ^ ^ ^ ^ + + + ~.                  ",
"        S + R + ^ ^ ^ ^ ^ ^ ^ + / _ / + | ^ ^ ^ ^ ^ ^ + F v +                   ",
"        !.+ o + ^ ^ ^ ^ ^ ^ ^ + {.+.].+ | ^ ^ ^ ^ ^ + + ^.7 +                   ",
"        + /.z + ^ ^ ^ ^ ^ ^ ^ + (.T _.+ | ^ ^ ^ ^ + :.!.+ <.+                   ",
"        + A + [.^ ^ ^ ^ ^ ^ ^ + / _ q + | ^ ^ ^ + (.^ }.+ / + 5                 ",
"        + o + |.^ ^ ^ ^ ^ ^ ^ + } & _ + | ^ ^ 1.+ ^ ^ ^ + 2.P +                 ",
"      w 3._ + ^ ^ ^ ^ ^ ^ ^ ^ + } & _ + | ^ 4.+ ^ ^ ^ ^ 5.6.+.+                 ",
"      7.@ V + ^ ^ ^ ^ ^ ^ ^ ^ + } & _ + K y + ^ ^ ^ ^ ^ 8.K [ L                 ",
"      9.: 0.a.,.,.,.,.,.,.,.b.+ <.,.% + c.+ K g ,.,.,.,.d.B e.+                 ",
"      f.+ + + + + + + + + + + + + + + + + + + + + + + + + + + + g.              ",
"      + + + + + + + + + + + + + + + + + + + + + + + + + + + + + +               ",
"    h.+ ^ ^ ^ ^ ^ ^ ^ ^ ^ ^ ^ ^ ^ ^ ^ ^ ^ ^ ^ ^ ^ ^ ^ ^ ^ ^ ^ ^ +               ",
"    + + ^ ^ ^ ^ ^ ^ ^ ^ ^ ^ ^ ^ ^ ^ ^ ^ ^ ^ ^ ^ ^ ^ ^ ^ ^ ^ ^ ^ +               ",
"    + + ^ ^ ^ ^ ^ ^ ^ ^ ^ ^ ^ ^ ^ ^ ^ ^ ^ ^ ^ ^ ^ ^ ^ ^ ^ ^ ^ ^ +               ",
"    + ^ ^ ^ ^ ^ ^ ^ ^ ^ ^ ^ ^ ^ ^ ^ ^ ^ ^ ^ ^ ^ ^ ^ ^ ^ ^ ^ ^ ^ + T             ",
"  p + ^ ^ ^ ^ ^ ^ ^ ^ ^ ^ ^ ^ ^ ^ ^ ^ ^ ^ ^ ^ ^ ^ ^ ^ ^ ^ ^ ^ ^ + +             ",
"  + + ^ ^ ^ ^ ^ ^ ^ ^ ^ ^ ^ ^ ^ ^ ^ ^ ^ ^ ^ ^ ^ ^ ^ ^ ^ ^ ^ ^ ^ ^ +             ",
"  + ^ ^ ^ ^ ^ ^ ^ ^ ^ ^ ^ ^ ^ ^ ^ ^ ^ ^ ^ ^ ^ ^ ^ ^ ^ ^ ^ ^ ^ ^ ^ 5.+           ",
"  + ^ ^ ^ ^ ^ ^ ^ ^ ^ ^ ^ ^ ^ ^ ^ ^ ^ ^ ^ ^ ^ ^ ^ ^ ^ ^ ^ ^ ^ ^ ^ ' +           ",
"i.+ ^ ^ ^ ^ ^ ^ ^ ^ ^ ^ ^ ^ ^ ^ ^ ^ ^ ^ ^ ^ ^ ^ ^ ^ ^ ^ ^ ^ ^ ^ ^ j.+ +         ",
"+ + ^ ^ ^ ^ ^ ^ ^ ^ ^ ^ ^ ^ ^ ^ ^ ^ ^ ^ ^ ^ ^ ^ ^ ^ ^ ^ ^ ^ ^ ^ ^ ^ + +         ",
"+ + ^ ^ ^ ^ ^ ^ ^ ^ ^ ^ ^ ^ ^ ^ ^ ^ ^ ^ ^ ^ ^ ^ ^ ^ ^ ^ ^ ^ ^ ^ ^ ^ + +         ",
"+ + + + + + + + + + + + + + + + + + + + + + + + + + + + + + + + + + + +         ",
"k.+ + + + + + + + + + + + + + + + + + + + + + + + + + + + + + + + +   l.        ",
"    + X m.n.                                              D o.p.q.$             "};
