/* XPM */
static const char * note_length_inv_xpm[] = {
"32 16 2 1",
" 	c None",
".	c #FFFFFF",
"                                ",
"                                ",
"       .     .     ...   ...    ",
"       .     .     ...   ...    ",
"       .     .     .     .      ",
"       .     .     .     ...    ",
"       .     .     .     ...    ",
"       .     .     .     .      ",
"       .     .     .     .      ",
"    ....  ....  ....  ....      ",
"    .  .  ....  ....  ....      ",
"    ....  ....  ....  ....      ",
"                                ",
"                                ",
"                                ",
"                                "};
