/* XPM */
static const char * panic2_xpm[] = {
"15 11 6 1",
" 	c None",
".	c #000000",
"+	c #D4506B",
"@	c #FF0000",
"#	c #FFFFFF",
"$	c #784848",
"  ...........  ",
"  .+++++++++.  ",
"  .+@@##@@@$.  ",
"  .+@@##@@@$.  ",
"  .+@@##@@@$.  ",
"  .+@@##@@@$.  ",
"  .+@@@@@@@$.  ",
"  .+@@##@@@$.  ",
"  .+@@##@@@$.  ",
"  .$$$$$$$$$.  ",
"  ...........  "};
