/* XPM */
static const char * play_on_xpm[] = {
"36 14 10 1",
" 	c None",
".	c #000000",
"+	c #96F996",
"@	c #FFFFFF",
"#	c #00F100",
"$	c #0C850C",
"%	c #9E9E9E",
"&	c #CDFFBC",
"*	c #37FF00",
"=	c #379319",
"..........                ......    ",
".++++++++.              ...@..@...  ",
".+######$.      .      ..@@@%%@@@.. ",
".+######$.      ..     .@@@@@@@@@@. ",
".+######$.      .&.   ..@@@@@@@@@@..",
".+######$. ......&*.  .@@@@@@@@@@@@.",
".+######$. .&&&&&***. .@..@@@@@@..@.",
".+######$. .*******=. .@%.@@@@@@.%@.",
".+######$. ......*=.  .@@@@@@@@@@@@.",
".+######$.      .=.   ..@..@@@@..@..",
".+######$.      ..     .@%.@..@.%@. ",
".+######$.      .      ..@@@..@@@.. ",
".$$$$$$$$.              ...@@@@...  ",
"..........                ......    "};
