/* XPM */
static const char * q_rec_on_xpm[] = {
"36 14 8 1",
" 	c None",
".	c #000000",
"+	c #FFFFFF",
"@	c #FF0000",
"#	c #9E9E9E",
"$	c #FFBABA",
"%	c #FF5454",
"&	c #B51E1E",
"    ......                          ",
"  ...+..+...                @@@@@   ",
" ..+++##+++..       .      @@   @@@ ",
" .++++++++++.       ..    @@@    @@ ",
"..++++++++++..      .$.   @@     @@@",
".++++++++++++. ......$%.  @@     @@@",
".+..++++++..+. .$$$$$%%%. @@     @@@",
".+#.++++++.#+. .%%%%%%%&. @@     @@@",
".++++++++++++. ......%&.  @@@    @@ ",
"..+..++++..+..      .&.    @@@  @@@ ",
" .+#.+..+.#+.       ..       @@@@   ",
" ..+++..+++..       .         @@    ",
"  ...++++...                  @@@   ",
"    ......                      @@@ "};
