/* XPM */
static const char * rec_ex_normal_xpm[] = {
"9 9 25 1",
" 	c None",
".	c #280509",
"+	c #4E090E",
"@	c #330004",
"#	c #280005",
"$	c #3B0006",
"%	c #610E16",
"&	c #D9252F",
"*	c #FF2037",
"=	c #5E000A",
"-	c #48070D",
";	c #E8041B",
">	c #60000A",
",	c #78000D",
"'	c #DE1B27",
")	c #DA222D",
"!	c #62000B",
"~	c #450005",
"{	c #4F0008",
"]	c #3F0006",
"^	c #BC0013",
"/	c #4B0008",
"(	c #1C0002",
"_	c #240004",
":	c #1E0003",
"  .+@#$  ",
" %&*&&&= ",
"-&&&&&;&>",
",&&'&&&),",
">&&&&&&&,",
"!&&&&&&&,",
"~&&&&&&&{",
" ]^&&&&/ ",
"  (___:  "};
