/* XPM */
static const char * rec_ex_buss_xpm[] = {
"9 9 22 1",
" 	c None",
".	c #0A0D18",
"+	c #161C36",
"@	c #090D1F",
"#	c #050917",
"$	c #0A1026",
"%	c #1F2747",
"&	c #00FF00",
"*	c #0E1A46",
"=	c #131931",
"-	c #0F1B47",
";	c #172557",
">	c #051551",
",	c #051653",
"'	c #0A1130",
")	c #01F04B",
"!	c #031041",
"~	c #020C32",
"{	c #010E3F",
"]	c #000310",
"^	c #000518",
"/	c #000412",
"  .+@#$  ",
" %&&&&&* ",
"=&&&&&&&-",
";&&&&&&&;",
">&&&&&&&;",
",&&&&&&&;",
"'&&&&&&)!",
" ~&&&&&{ ",
"  ]^^^/  "};
