/* XPM */
static const char * right_xpm[] = {
"16 11 3 1",
" 	c None",
".	c #000000",
"+	c #7B935E",
"  ...           ",
"  .....         ",
"  .......       ",
"  .........     ",
"  ...........   ",
"  .........++.  ",
"  .......++..   ",
"  .....++..     ",
"  ...++..       ",
"  .++..         ",
"  ...           "};
