/* XPM */
static const char * route66rwb_32x32_xpm[] = {
"32 32 394 2",
"  	c None",
". 	c #373637",
"+ 	c #000303",
"@ 	c #0E1818",
"# 	c #121111",
"$ 	c #0A1111",
"% 	c #191C1C",
"& 	c #152020",
"* 	c #414040",
"= 	c #362626",
"- 	c #CB1C1C",
"; 	c #4B2323",
"> 	c #000E0E",
", 	c #282D2D",
"' 	c #000000",
") 	c #191F1F",
"! 	c #000D0C",
"~ 	c #392020",
"{ 	c #B82929",
"] 	c #F31A1A",
"^ 	c #921313",
"/ 	c #1D2222",
"( 	c #091313",
"_ 	c #0C1616",
": 	c #000708",
"< 	c #2F2C2B",
"[ 	c #911F20",
"} 	c #E23434",
"| 	c #181414",
"1 	c #252627",
"2 	c #431314",
"3 	c #FA1717",
"4 	c #F10D0D",
"5 	c #F60A0A",
"6 	c #FD2222",
"7 	c #C92323",
"8 	c #B23635",
"9 	c #B33232",
"0 	c #BF1C1C",
"a 	c #FB1C1C",
"b 	c #F80A0A",
"c 	c #EA0606",
"d 	c #EB0707",
"e 	c #FB0505",
"f 	c #F12E2E",
"g 	c #BB1F1F",
"h 	c #BB3F3F",
"i 	c #C30E0F",
"j 	c #F72D2C",
"k 	c #F10C0C",
"l 	c #ED2222",
"m 	c #1B1818",
"n 	c #4F4D4D",
"o 	c #212425",
"p 	c #641D1D",
"q 	c #FA1010",
"r 	c #F20D0D",
"s 	c #CB3333",
"t 	c #DDCDCD",
"u 	c #DCC5C5",
"v 	c #DACCCC",
"w 	c #EE2D2D",
"x 	c #CC1717",
"y 	c #DFD0D0",
"z 	c #DBCBCB",
"A 	c #EF2424",
"B 	c #CD3737",
"C 	c #DECACA",
"D 	c #DACBCC",
"E 	c #ED3535",
"F 	c #F00C0C",
"G 	c #F31616",
"H 	c #201213",
"I 	c #2F2F2F",
"J 	c #060909",
"K 	c #983434",
"L 	c #F70B0B",
"M 	c #C93737",
"N 	c #F6FFFF",
"O 	c #F78989",
"P 	c #F78F8F",
"Q 	c #F22222",
"R 	c #C51515",
"S 	c #FFFFFF",
"T 	c #F19595",
"U 	c #F68E8E",
"V 	c #F21D1D",
"W 	c #CC3C3C",
"X 	c #D78888",
"Y 	c #F5F9F9",
"Z 	c #F43E3E",
"` 	c #F00D0D",
" .	c #F71111",
"..	c #351919",
"+.	c #313030",
"@.	c #323030",
"#.	c #522525",
"$.	c #C93738",
"%.	c #F9FFFF",
"&.	c #D6A8A8",
"*.	c #D5ADAE",
"=.	c #ED2828",
"-.	c #D6ADAD",
";.	c #D7ADAE",
">.	c #EE2020",
",.	c #CD3C3D",
"'.	c #C90F0F",
").	c #F0F0F0",
"!.	c #F43F3F",
"~.	c #E91919",
"{.	c #171616",
"].	c #0B1010",
"^.	c #B72525",
"/.	c #DD2121",
"(.	c #FB8B8B",
"_.	c #FA7D7D",
":.	c #E9FCFC",
"<.	c #F33434",
"[.	c #F1BBBC",
"}.	c #F4BABA",
"|.	c #F12222",
"1.	c #C60202",
"2.	c #EFF0F0",
"3.	c #F60707",
"4.	c #632829",
"5.	c #2E2E2F",
"6.	c #180E0E",
"7.	c #FA0E0E",
"8.	c #D62727",
"9.	c #FEB4B4",
"0.	c #FBA7A7",
"a.	c #F0FFFF",
"b.	c #C41515",
"c.	c #F8AFAF",
"d.	c #FBA9A9",
"e.	c #F21F1F",
"f.	c #EDAEAE",
"g.	c #FAFFFF",
"h.	c #E81F1F",
"i.	c #0B1414",
"j.	c #182121",
"k.	c #AD1D1D",
"l.	c #F71010",
"m.	c #F61111",
"n.	c #D64142",
"o.	c #F6F7F7",
"p.	c #F2EDED",
"q.	c #F3F7F7",
"r.	c #F53535",
"s.	c #D52323",
"t.	c #F7FAFA",
"u.	c #F3F3F3",
"v.	c #F52B2B",
"w.	c #D84646",
"x.	c #F5F2F2",
"y.	c #F4EFEF",
"z.	c #F94444",
"A.	c #F90F0F",
"B.	c #842020",
"C.	c #141414",
"D.	c #170B0A",
"E.	c #422C1B",
"F.	c #412B1B",
"G.	c #412B1A",
"H.	c #442615",
"I.	c #431706",
"J.	c #431807",
"K.	c #412917",
"L.	c #432918",
"M.	c #421605",
"N.	c #431806",
"O.	c #412918",
"P.	c #432614",
"Q.	c #421806",
"R.	c #431A09",
"S.	c #43402F",
"T.	c #403B29",
"U.	c #422C1A",
"V.	c #412C1B",
"W.	c #422C1C",
"X.	c #090202",
"Y.	c #151421",
"Z.	c #2423E6",
"`.	c #2322E3",
" +	c #2222E3",
".+	c #2323E4",
"++	c #1C1CDC",
"@+	c #2221E3",
"#+	c #1716EA",
"$+	c #1313E8",
"%+	c #1413E9",
"&+	c #2221E4",
"*+	c #3635EA",
"=+	c #171618",
"-+	c #2C2B13",
";+	c #2222F0",
">+	c #1D1DEF",
",+	c #1515EC",
"'+	c #A7A7DF",
")+	c #CECDE0",
"!+	c #1919ED",
"~+	c #0A090C",
"{+	c #1D1C29",
"]+	c #1F1FF2",
"^+	c #1616F0",
"/+	c #9595D7",
"(+	c #4D4CCD",
"_+	c #1C1CF0",
":+	c #202023",
"<+	c #141456",
"[+	c #1E1EF4",
"}+	c #1616F1",
"|+	c #9292DB",
"1+	c #9A9ADD",
"2+	c #1414F0",
"3+	c #111014",
"4+	c #181814",
"5+	c #3030D2",
"6+	c #1C1CEF",
"7+	c #201FDB",
"8+	c #F9F9F4",
"9+	c #BBBBDF",
"0+	c #1313F0",
"a+	c #2C2E74",
"b+	c #2E2E2E",
"c+	c #202050",
"d+	c #1919F9",
"e+	c #B0AFE2",
"f+	c #FEFDF9",
"g+	c #2323E8",
"h+	c #1717F0",
"i+	c #1A1AF0",
"j+	c #2F2FF2",
"k+	c #100F0B",
"l+	c #050500",
"m+	c #2D2DEF",
"n+	c #1F1FE9",
"o+	c #F2F2EB",
"p+	c #CCCCE2",
"q+	c #9E9EEE",
"r+	c #A4A4EF",
"s+	c #9090EB",
"t+	c #1818E2",
"u+	c #1E1EEF",
"v+	c #1B1BEF",
"w+	c #3838A2",
"x+	c #2A2961",
"y+	c #1919F2",
"z+	c #5B5BE2",
"A+	c #FEFEF5",
"B+	c #3333E0",
"C+	c #1E1EF5",
"D+	c #1A1A2D",
"E+	c #3D3DD2",
"F+	c #1919EF",
"G+	c #B0B0EA",
"H+	c #FFFFFD",
"I+	c #E6E6F1",
"J+	c #DDDDEC",
"K+	c #FFFFF8",
"L+	c #FEFEFF",
"M+	c #F1F1EA",
"N+	c #2222E8",
"O+	c #1213F1",
"P+	c #1A1AF1",
"Q+	c #34338B",
"R+	c #1C1A16",
"S+	c #181812",
"T+	c #1D1DEE",
"U+	c #1A1AF4",
"V+	c #A9A9CD",
"W+	c #4B4BE0",
"X+	c #1B1BE8",
"Y+	c #1818E5",
"Z+	c #4242DD",
"`+	c #EBEBEF",
" @	c #8281E1",
".@	c #413CD4",
"+@	c #1C1CEE",
"@@	c #2425BE",
"#@	c #2B2B22",
"$@	c #161629",
"%@	c #1E1EF0",
"&@	c #1414EE",
"*@	c #DBDBFF",
"=@	c #B0B1E2",
"-@	c #1616F3",
";@	c #1314F0",
">@	c #C1BFF4",
",@	c #CCCCE6",
"'@	c #4A45D2",
")@	c #3736D6",
"!@	c #1A1A10",
"~@	c #1C1D2C",
"{@	c #1919F3",
"]@	c #AFAFD7",
"^@	c #B8B8DB",
"/@	c #0E0EF6",
"(@	c #1010EE",
"_@	c #C6C6ED",
":@	c #C6C6E6",
"<@	c #1D19D4",
"[@	c #2626C9",
"}@	c #242419",
"|@	c #161608",
"1@	c #2727ED",
"2@	c #7878D2",
"3@	c #8E8DDC",
"4@	c #2626DB",
"5@	c #2021D8",
"6@	c #8F8FE3",
"7@	c #FCFBF9",
"8@	c #6E6DD8",
"9@	c #1919F0",
"0@	c #31329D",
"a@	c #2D2D29",
"b@	c #1D1C1E",
"c@	c #242479",
"d@	c #1B1BF1",
"e@	c #1E1EEC",
"f@	c #E9E8E9",
"g@	c #C4C4E4",
"h@	c #2121F6",
"i@	c #20202F",
"j@	c #090900",
"k@	c #2626C8",
"l@	c #1A1AF3",
"m@	c #1D1DF0",
"n@	c #2D2DE8",
"o@	c #C9C9ED",
"p@	c #FFFFFA",
"q@	c #F5F4EF",
"r@	c #9595E1",
"s@	c #1414EB",
"t@	c #1C1CF8",
"u@	c #2C2C81",
"v@	c #1E1E1B",
"w@	c #0F0F0C",
"x@	c #3D3CA0",
"y@	c #1919FE",
"z@	c #1E1EEE",
"A@	c #1717EC",
"B@	c #3333EC",
"C@	c #5E5EE2",
"D@	c #5F5FEB",
"E@	c #201FE2",
"F@	c #1919F1",
"G@	c #2A2A63",
"H@	c #14150E",
"I@	c #1B1A19",
"J@	c #282826",
"K@	c #262597",
"L@	c #2E2ED0",
"M@	c #4747F1",
"N@	c #1B1BF6",
"O@	c #1D1DF5",
"P@	c #1C1CF2",
"Q@	c #1C1CF1",
"R@	c #1D1DF4",
"S@	c #1C1CF5",
"T@	c #2C2CF5",
"U@	c #2423C5",
"V@	c #3131AA",
"W@	c #25256C",
"X@	c #141408",
"Y@	c #2E2D2D",
"Z@	c #161717",
"`@	c #27251B",
" #	c #212006",
".#	c #181725",
"+#	c #34336B",
"@#	c #2323B7",
"##	c #2929F4",
"$#	c #1B1BF3",
"%#	c #1F1FF9",
"&#	c #2E2EDF",
"*#	c #292A81",
"=#	c #19193B",
"-#	c #262615",
";#	c #0C0C00",
">#	c #222114",
",#	c #201F13",
"'#	c #1A1A1B",
")#	c #191978",
"!#	c #2D2DF4",
"~#	c #1818FD",
"{#	c #2A2AC5",
"]#	c #161646",
"^#	c #0D0E08",
"/#	c #282726",
"(#	c #1D1D1B",
"_#	c #0F0E06",
":#	c #1F1F26",
"<#	c #12110E",
"                                                                ",
"          . +                 @ # $               % &           ",
"        * = - ; > , ' ' ) ! ~ { ] ^ / ( ' ' _ : < [ } |         ",
"      1 2 3 4 5 6 7 8 9 0 a b c d d e f g h i j e k k l m n     ",
"    o p q 4 4 4 r s t u v w x y u z A B C u D E 4 4 4 F G H I   ",
"  J K L 4 4 4 4 r M N O P Q R S T U V W S X Y Z 4 4 4 4 `  ...+.",
"  @.#.b 4 4 4 4 r $.%.&.*.=.R S -.;.>.,.S '.).!.4 4 4 4 4 ~.{.  ",
"    ].^.k 4 4 4 4 /.(._.:.<.R S [.}.|.W S 1.2.!.4 4 4 4 3.4.5.  ",
"      6.7.4 4 4 r 8.9.0.a.<.b.S c.d.e.W S f.g.!.4 4 4 4 h.i.    ",
"      j.k.l.m.m. .n.o.p.q.r.s.t.p.u.v.w.x.y.S z.m.m.m.A.B.C.    ",
"        D.E.F.G.F.H.I.J.I.K.L.M.N.I.O.P.Q.R.S.T.E.U.V.W.X.      ",
"        Y.Z.`.`. +`..+++ +`. +`.`.`.`. +`.@+#+$+%+&+`.*+=+      ",
"        -+;+>+>+>+,+'+)+!+>+>+>+>+>+>+>+,+'+)+!+>+>+>+>+~+      ",
"        {+]+>+>+^+/+S S (+_+>+>+>+>+>+^+/+S S (+_+>+>+>+:+      ",
"        <+[+>+}+|+S S 1+2+>+>+>+>+>+}+|+S S 1+2+>+>+>+>+3+      ",
"      4+5+6+>+7+8+S 9+0+>+>+>+>+>+>+7+8+S 9+0+>+>+>+>+>+a+b+    ",
"      c+d+>+}+e+S f+g+h+i+>+>+>+>+}+e+S f+g+h+i+>+>+>+>+j+k+    ",
"    l+m+>+>+n+o+S p+q+r+s+t+u+>+>+n+o+S p+q+r+s+t+u+>+>+v+w+#   ",
"    x+y+>+>+z+S S S S S S A+B+>+>+z+S S S S S S A+B+>+>+>+C+D+  ",
"  ' E+>+>+F+G+S S H+I+J+K+L+M+N+O+G+S S H+I+J+K+L+M+N+O+>+P+Q+R+",
"  S+T+>+>+U+V+S S W+X+Y+Z+`+S  @.@V+S S W+X+Y+Z+`+S  @.@>++@@@#@",
"  $@%@>+>+&@*@S =@-@>+>+;@>@S ,@'@*@S =@-@>+>+;@>@S ,@'@>+>+)@!@",
"  ~@%@>+>+{@]@S ^@/@>+>+(@_@S :@<@]@S ^@/@>+>+(@_@S :@<@>+T+[@}@",
"  |@1@>+>+6+2@S H+3@4@5@6@7@S 8@9@2@S H+3@4@5@6@7@S 8@9@>+i+0@a@",
"  b@c@d@>+>+e@f@S S S S S S g@d@>+e@f@S S S S S S g@d@>+>+h@i@  ",
"    j@k@l@>+m@n@o@p@S S q@r@s@>+>+m@n@o@p@S S q@r@s@>+>+t@u@v@  ",
"      w@x@y@z@>+A@B@C@D@E@F@>+>+>+z@>+A@B@C@D@E@F@>+>+>+G@H@    ",
"        I@J@K@L@M@N@O@P@>+>+>+>+>+>+>+>+Q@R@S@T@U@V@W@X@Y@      ",
"            Z@`@'  #.#+#@###$#>+>+T+%#&#*#=#-#;#>#'             ",
"                        ,#'#)#!#~#{#]#^#/#                      ",
"                            (#_#:#<#                            ",
"                                                                "};
