/* XPM */
static const char * scale_xpm[] = {
"18 12 3 1",
" 	c None",
".	c #000000",
"+	c #FFFFFF",
"             .... ",
"             .... ",
"             .+++ ",
"         .....    ",
"         .....    ",
"         .+++     ",
"     .....        ",
"     .....        ",
"     .+++         ",
" .....            ",
" .....            ",
" ++++             "};
