/* XPM */
static const char * sequencer66_xpm[] = {
"32 32 7 1",
" 	c None",
".	c #8E8E8E",
"+	c #8F8F8F",
"@	c #F2F2F2",
"#	c #585858",
"$	c #6C6C6C",
"%	c #808080",
"     ......................     ",
"   ..........................   ",
"  ............................  ",
" .............................. ",
" .............................. ",
"+...............................",
"................................",
"................................",
"................................",
"................................",
"..@@@@@@@@@@@@@@@@@@@@@@@@@@....",
"..@@@@@@@@@@@@@@@@@@@@@@@@@@....",
"..@@##############@@######@@##..",
"..@@##############@@######@@##..",
"....@@$$$$@@@@$$$$@@##$$$$@@##$$",
"....@@$$$$@@@@$$$$@@##$$$$@@##$$",
"......@@%%%%####%%@@##@@%%@@##$$",
"......@@%%%%####%%@@##@@%%@@##$$",
"@@@@@@@@@@@@@@@@@@@@@@@@@@@@##$$",
"@@@@@@@@@@@@@@@@@@@@@@@@@@@@##$$",
"..####################@@######$$",
"..####################@@######$$",
"....$$$$$$$$$$$$$$$$$$$$##$$$$$$",
"....$$$$$$$$$$$$$$$$$$$$##$$$$$$",
"......%%%%%%%%%%%%%%%%%%%%$$%%%%",
"......%%%%%%%%%%%%%%%%%%%%$$%%%%",
"............................%%..",
" ...........................%%. ",
" .............................. ",
"  ............................  ",
"   ..........................   ",
"     ......................     "};
