/* XPM */
static const char * seq66_32_xpm[] = {
"32 32 3 1",
" 	c None",
".	c #A5A5A5",
"+	c #000000",
"................................",
"................................",
".+++++++++..+++++++++.+++++++++.",
".+++++++++..+++++++++.+++++++++.",
".+++++++++..+++++++++.+++++++++.",
".+++........+++.......+++...+++.",
".+++........+++.......+++...+++.",
".+++........+++.......+++...+++.",
".+++++++++..++++++....+++...+++.",
".+++++++++..++++++....+++...+++.",
".+++++++++..++++++....+++...+++.",
".......+++..+++.......+++...+++.",
".......+++..+++.......+++...+++.",
".......+++..+++.......+++...+++.",
".+++++++++..+++++++++.+++++++++.",
".+++++++++..+++++++++.+++++++++.",
".+++++++++..+++++++++.+++++++++.",
"...........................+++..",
"...++++++++++++.++++++++++++++..",
"...++++++++++++.++++++++++++....",
"...++++++++++++.++++++++++++....",
"...+++++........+++++...........",
"...+++++........+++++...........",
"...++++++++++++.++++++++++++....",
"...++++++++++++.++++++++++++....",
"...++++++++++++.++++++++++++....",
"...+++++...++++.+++++...++++....",
"...+++++...++++.+++++...++++....",
"...++++++++++++.++++++++++++....",
"...++++++++++++.++++++++++++....",
"...++++++++++++.++++++++++++....",
"................................"};
