/* XPM */
static const char * show_bars_off_xpm[] = {
"12 20 2 1",
" 	c None",
".	c #000000",
"            ",
"            ",
" .......... ",
" .        . ",
" .        . ",
" .......... ",
"            ",
"            ",
" .......... ",
" .        . ",
" .        . ",
" .......... ",
"            ",
"            ",
" .......... ",
" .        . ",
" .        . ",
" .......... ",
"            ",
"            "};
