/* XPM */
static const char * song_rec_no_snap_xpm[] = {
"15 9 52 1",
" 	c None",
".	c #0A0D18",
"+	c #161C36",
"@	c #090D1F",
"#	c #050917",
"$	c #0A1026",
"%	c #1F2747",
"&	c #5272E8",
"*	c #3A5DE0",
"=	c #3255DA",
"-	c #2E53DC",
";	c #2C4DCA",
">	c #0E1A46",
",	c #000000",
"'	c #131931",
")	c #3A57C2",
"!	c #3256DA",
"~	c #2D51D5",
"{	c #2449D4",
"]	c #183FD2",
"^	c #0F39D3",
"/	c #1137C5",
"(	c #0F1B47",
"_	c #172557",
":	c #294ED7",
"<	c #1B42D3",
"[	c #0E37D0",
"}	c #0630CE",
"|	c #032ECD",
"1	c #002BCC",
"2	c #0632D6",
"3	c #051551",
"4	c #0832CE",
"5	c #0531D5",
"6	c #051653",
"7	c #022ED0",
"8	c #032FD5",
"9	c #0A1130",
"0	c #082DB6",
"a	c #002CD2",
"b	c #002CCE",
"c	c #042CC0",
"d	c #031041",
"e	c #020C32",
"f	c #0026B4",
"g	c #002DD6",
"h	c #002DD4",
"i	c #0028BE",
"j	c #010E3F",
"k	c #000310",
"l	c #000518",
"m	c #000412",
"     .+@#$     ",
"    %&*=-;>    ",
",  ')!~{]^/(  ,",
",  _:<[}|12_  ,",
", ,34|11115_, ,",
",  67111118_  ,",
",  90a1bbacd  ,",
"    efghhij    ",
"     klllm     "};
