/* XPM */
static const char * t_rec_on_xpm[] = {
"36 14 8 1",
" 	c None",
".	c #000000",
"+	c #FFFFFF",
"@	c #9E9E9E",
"#	c #F11313",
"$	c #FFBABA",
"%	c #FF5454",
"&	c #B51E1E",
"    ......                          ",
"  ...+..+...                        ",
" ..+++@@+++..       .     ......... ",
" .++++++++++.       ..   .########. ",
"..++++++++++..      .$.  .########. ",
".++++++++++++. ......$%.  ...##. #. ",
".+..++++++..+. .$$$$$%%%.   .##.    ",
".+@.++++++.@+. .%%%%%%%&.   .##.    ",
".++++++++++++. ......%&.    .##.    ",
"..+..++++..+..      .&.     .##.    ",
" .+@.+..+.@+.       ..      .##.    ",
" ..+++..+++..       .       .###.   ",
"  ...++++...                ....    ",
"    ......                          "};
