/* XPM */
static const char * tools_xpm[] = {
"13 14 5 1",
" 	c None",
".	c #2C2C2C",
"+	c #9E9E9E",
"@	c #DEB571",
"#	c #C69641",
" ......... ..",
"....+++++...+",
".  ..........",
"   ....... ..",
"     .@@.    ",
"     .@@.    ",
"     .@@.    ",
"     .@@.    ",
"     .##.    ",
"     .##.    ",
"     .##.    ",
"     .##.    ",
"     .##.    ",
"     ....    "};
