/* XPM */
static const char * up_xpm[] = {
"7 14 2 1",
" 	c None",
".	c #000000",
"       ",
"       ",
"       ",
"   .   ",
"  ...  ",
" ..... ",
".......",
"  ...  ",
"  ...  ",
"  ...  ",
"       ",
"       ",
"       ",
"       "};
