MThd 1 19 192
MTrk
0 SeqNr 0
0 Meta SeqName "Europe Endless by Kraftwerk"
0 PrCh ch=2 p=50
0 TimeSig 4/4 24 8
0 PrCh ch=7 p=91
0 PrCh ch=6 p=87
0 PrCh ch=5 p=65
0 PrCh ch=4 p=39
0 PrCh ch=3 p=52
0 PrCh ch=1 p=6
0 Tempo 545455
0 KeySig 0 major
0 Par ch=1 c=7 v=120
0 Par ch=2 c=7 v=100
0 Par ch=3 c=7 v=100
0 Par ch=5 c=7 v=100
0 Par ch=6 c=7 v=110
0 Par ch=8 c=7 v=120
0 Par ch=4 c=7 v=100
0 SeqSpec 24 24 00 20 00 00 00 00 00 00 02 ff 00 00 03 00 00
0 SeqSpec 24 24 00 01 05
0 SeqSpec 24 24 00 06 04 04
0 SeqSpec 24 24 00 02 80
0 SeqSpec 24 24 00 14 01
768 Meta TrkEnd
TrkEnd
MTrk
0 SeqNr 1
0 Meta TrkName "Arp 1"
0 On ch=1 n=62 v=64
0 On ch=1 n=67 v=64
30 Off ch=1 n=62 v=64
30 Off ch=1 n=67 v=0
48 On ch=1 n=67 v=50
78 Off ch=1 n=67 v=0
96 On ch=1 n=62 v=52
96 On ch=1 n=71 v=54
126 Off ch=1 n=62 v=0
126 Off ch=1 n=71 v=0
144 On ch=1 n=67 v=33
174 Off ch=1 n=67 v=0
192 On ch=1 n=67 v=50
192 On ch=1 n=71 v=54
222 Off ch=1 n=67 v=0
222 Off ch=1 n=71 v=0
240 On ch=1 n=62 v=34
270 Off ch=1 n=62 v=0
288 On ch=1 n=67 v=35
288 On ch=1 n=67 v=56
318 Off ch=1 n=67 v=0
318 Off ch=1 n=67 v=0
336 On ch=1 n=71 v=35
366 Off ch=1 n=71 v=0
384 On ch=1 n=62 v=36
384 On ch=1 n=67 v=58
414 Off ch=1 n=62 v=0
414 Off ch=1 n=67 v=0
432 On ch=1 n=67 v=37
462 Off ch=1 n=67 v=0
480 On ch=1 n=62 v=60
480 On ch=1 n=71 v=37
510 Off ch=1 n=62 v=0
510 Off ch=1 n=71 v=0
528 On ch=1 n=67 v=38
558 Off ch=1 n=67 v=0
576 On ch=1 n=67 v=39
576 On ch=1 n=71 v=62
606 Off ch=1 n=67 v=0
606 Off ch=1 n=71 v=0
624 On ch=1 n=62 v=39
654 Off ch=1 n=62 v=0
672 On ch=1 n=67 v=64
672 On ch=1 n=67 v=30
702 Off ch=1 n=67 v=0
702 Off ch=1 n=67 v=0
720 On ch=1 n=71 v=40
750 Off ch=1 n=71 v=0
750 SeqSpec 24 24 00 20 00 00 03 00 00 00 05 ff 00 00 03 00 00 00 01 08 00 00 01 1f ff 00 00 03 00 00 00 01 20 00 00 01 4f ff 00 00 03 00 44 00 01 50 00 00 01 c7 ff 00 00 03 00 3f 00 01 c8 00 00 02 0f ff 00 00 03 00 44 00 02 10 00 00 02 3f ff 00 00 03 00 00 00 02 40 00 00 02 6f ff 00 00 03 00 44 00 02 70 00 00 03 05 ff 00 00 03 00 3f
750 SeqSpec 24 24 00 01 05
750 SeqSpec 24 24 00 06 04 04
750 SeqSpec 24 24 00 02 00
750 SeqSpec 24 24 00 14 01
750 SeqSpec 24 24 00 1b 02
768 Meta TrkEnd
TrkEnd
MTrk
0 SeqNr 2
0 Meta TrkName "Arp 2"
0 On ch=1 n=67 v=83
0 On ch=1 n=74 v=39
30 Off ch=1 n=67 v=0
30 Off ch=1 n=74 v=0
48 On ch=1 n=79 v=52
78 Off ch=1 n=79 v=0
96 On ch=1 n=74 v=85
96 On ch=1 n=83 v=39
126 Off ch=1 n=74 v=0
126 Off ch=1 n=83 v=0
144 On ch=1 n=67 v=54
174 Off ch=1 n=67 v=0
192 On ch=1 n=79 v=40
192 On ch=1 n=83 v=87
222 Off ch=1 n=79 v=0
222 Off ch=1 n=83 v=0
240 On ch=1 n=74 v=55
270 Off ch=1 n=74 v=0
288 On ch=1 n=67 v=41
288 On ch=1 n=79 v=89
318 Off ch=1 n=67 v=0
318 Off ch=1 n=79 v=0
336 On ch=1 n=83 v=56
366 Off ch=1 n=83 v=0
384 On ch=1 n=67 v=91
384 On ch=1 n=74 v=42
414 Off ch=1 n=67 v=0
414 Off ch=1 n=74 v=0
432 On ch=1 n=79 v=57
462 Off ch=1 n=79 v=0
480 On ch=1 n=74 v=93
480 On ch=1 n=83 v=43
510 Off ch=1 n=74 v=0
510 Off ch=1 n=83 v=0
528 On ch=1 n=67 v=59
558 Off ch=1 n=67 v=0
576 On ch=1 n=79 v=44
576 On ch=1 n=83 v=95
606 Off ch=1 n=79 v=0
606 Off ch=1 n=83 v=0
624 On ch=1 n=74 v=60
654 Off ch=1 n=74 v=0
672 On ch=1 n=67 v=45
672 On ch=1 n=79 v=97
702 Off ch=1 n=67 v=0
702 Off ch=1 n=79 v=0
720 On ch=1 n=83 v=61
750 Off ch=1 n=83 v=0
750 SeqSpec 24 24 00 20 00 00 06 00 00 00 0b ff 00 00 03 00 00
750 SeqSpec 24 24 00 01 05
750 SeqSpec 24 24 00 06 04 04
750 SeqSpec 24 24 00 02 00
750 SeqSpec 24 24 00 14 01
750 SeqSpec 24 24 00 1b 02
768 Meta TrkEnd
TrkEnd
MTrk
0 SeqNr 3
0 Meta TrkName "Arp 3"
0 On ch=1 n=67 v=100
0 On ch=1 n=74 v=47
30 Off ch=1 n=67 v=0
30 Off ch=1 n=74 v=0
48 On ch=1 n=79 v=63
78 Off ch=1 n=79 v=0
96 On ch=1 n=62 v=100
96 On ch=1 n=83 v=47
126 Off ch=1 n=62 v=0
126 Off ch=1 n=83 v=0
144 On ch=1 n=67 v=63
174 Off ch=1 n=67 v=0
192 On ch=1 n=71 v=100
192 On ch=1 n=79 v=47
222 Off ch=1 n=71 v=0
222 Off ch=1 n=79 v=0
240 On ch=1 n=62 v=63
270 Off ch=1 n=62 v=0
288 On ch=1 n=67 v=100
288 On ch=1 n=67 v=47
318 Off ch=1 n=67 v=0
318 Off ch=1 n=67 v=0
336 On ch=1 n=71 v=63
366 Off ch=1 n=71 v=0
384 On ch=1 n=62 v=47
384 On ch=1 n=67 v=100
414 Off ch=1 n=62 v=0
414 Off ch=1 n=67 v=0
432 On ch=1 n=67 v=63
462 Off ch=1 n=67 v=0
480 On ch=1 n=71 v=47
480 On ch=1 n=74 v=100
510 Off ch=1 n=71 v=0
510 Off ch=1 n=74 v=0
528 On ch=1 n=67 v=63
558 Off ch=1 n=67 v=0
576 On ch=1 n=67 v=47
576 On ch=1 n=83 v=100
606 Off ch=1 n=67 v=0
606 Off ch=1 n=83 v=0
624 On ch=1 n=74 v=63
654 Off ch=1 n=74 v=0
672 On ch=1 n=67 v=47
672 On ch=1 n=79 v=100
702 Off ch=1 n=67 v=0
702 Off ch=1 n=79 v=0
720 On ch=1 n=83 v=63
750 Off ch=1 n=83 v=0
750 SeqSpec 24 24 00 20 00 00 0c 00 00 00 23 ff 00 00 03 00 00 00 00 24 00 00 00 35 ff 00 00 03 00 4c 00 00 36 00 00 00 53 ff 00 00 03 00 00 00 00 54 00 00 00 5f ff 00 00 03 00 34 00 00 60 00 00 00 bf ff 00 00 03 00 00 00 00 c0 00 00 00 ef ff 00 00 03 00 44 00 00 f0 00 00 01 07 ff 00 00 03 00 00
750 SeqSpec 24 24 00 01 05
750 SeqSpec 24 24 00 06 04 04
750 SeqSpec 24 24 00 02 00
750 SeqSpec 24 24 00 14 01
750 SeqSpec 24 24 00 1b 02
768 Meta TrkEnd
TrkEnd
MTrk
0 SeqNr 4
0 Meta TrkName "Drums 1"
384 On ch=10 n=33 v=55
384 On ch=10 n=40 v=100
384 On ch=10 n=46 v=55
384 On ch=10 n=53 v=100
408 Off ch=10 n=33 v=0
408 Off ch=10 n=40 v=0
408 Off ch=10 n=53 v=0
576 On ch=10 n=40 v=100
576 Off ch=10 n=46 v=0
600 Off ch=10 n=40 v=0
624 On ch=10 n=40 v=100
648 Off ch=10 n=40 v=0
672 On ch=10 n=40 v=100
696 Off ch=10 n=40 v=0
696 SeqSpec 24 24 00 20 00 00 8d 00 00 00 8f ff 00 00 03 00 00
696 SeqSpec 24 24 00 01 05
696 SeqSpec 24 24 00 06 04 04
696 SeqSpec 24 24 00 02 09
696 SeqSpec 24 24 00 14 00
696 SeqSpec 24 24 00 1b 11
768 Meta TrkEnd
TrkEnd
MTrk
0 SeqNr 5
0 Meta TrkName "Drums 2"
0 On ch=10 n=33 v=115
24 Off ch=10 n=33 v=0
96 On ch=10 n=46 v=87
192 On ch=10 n=40 v=116
192 Off ch=10 n=46 v=0
216 Off ch=10 n=40 v=0
288 On ch=10 n=46 v=94
384 On ch=10 n=33 v=113
384 Off ch=10 n=46 v=0
408 Off ch=10 n=33 v=0
480 On ch=10 n=46 v=95
576 On ch=10 n=40 v=109
576 Off ch=10 n=46 v=0
600 Off ch=10 n=40 v=0
672 On ch=10 n=46 v=77
768 Off ch=10 n=46 v=0
768 SeqSpec 24 24 00 20 00 00 90 00 00 00 bf ff 00 00 03 00 00 00 00 c0 00 00 01 07 ff 00 00 03 00 00 00 01 08 00 00 01 4f ff 00 00 03 00 00 00 01 50 00 00 01 c7 ff 00 00 03 00 00 00 01 c8 00 00 02 0f ff 00 00 03 00 00 00 02 10 00 00 02 3f ff 00 00 03 00 00 00 02 40 00 00 02 6f ff 00 00 03 00 00 00 02 70 00 00 03 05 ff 00 00 03 00 00
768 SeqSpec 24 24 00 01 05
768 SeqSpec 24 24 00 06 04 04
768 SeqSpec 24 24 00 02 09
768 SeqSpec 24 24 00 14 00
768 SeqSpec 24 24 00 1b 11
768 Meta TrkEnd
TrkEnd
MTrk
0 SeqNr 6
0 Meta TrkName "Bass 1"
672 On ch=4 n=43 v=106
710 Off ch=4 n=43 v=0
720 On ch=4 n=43 v=106
760 Off ch=4 n=43 v=0
760 SeqSpec 24 24 00 20 00 00 75 00 00 00 77 ff 00 00 03 00 00
760 SeqSpec 24 24 00 01 05
760 SeqSpec 24 24 00 06 04 04
760 SeqSpec 24 24 00 02 03
760 SeqSpec 24 24 00 14 01
760 SeqSpec 24 24 00 1b 04
768 Meta TrkEnd
TrkEnd
MTrk
0 SeqNr 7
0 Meta TrkName "Bass 2"
0 On ch=4 n=31 v=106
48 Off ch=4 n=31 v=0
96 On ch=4 n=43 v=106
144 Off ch=4 n=43 v=0
192 On ch=4 n=31 v=106
240 Off ch=4 n=31 v=0
288 On ch=4 n=43 v=106
336 Off ch=4 n=43 v=0
384 On ch=4 n=31 v=106
432 Off ch=4 n=31 v=0
480 On ch=4 n=43 v=106
528 Off ch=4 n=43 v=0
576 On ch=4 n=31 v=106
624 Off ch=4 n=31 v=0
672 On ch=4 n=43 v=106
708 Off ch=4 n=43 v=0
720 On ch=4 n=43 v=106
758 Off ch=4 n=43 v=0
758 SeqSpec 24 24 00 20 00 00 78 00 00 00 bf ff 00 00 03 00 00 00 00 c0 00 00 00 ef ff 00 00 03 00 44 00 00 f0 00 00 01 1f ff 00 00 03 00 00 00 01 20 00 00 01 4f ff 00 00 03 00 44 00 01 50 00 00 01 c7 ff 00 00 03 00 3f 00 01 c8 00 00 02 0f ff 00 00 03 00 44 00 02 10 00 00 02 3f ff 00 00 03 00 00 00 02 40 00 00 02 6f ff 00 00 03 00 44 00 02 70 00 00 03 05 ff 00 00 03 00 3f
758 SeqSpec 24 24 00 01 05
758 SeqSpec 24 24 00 06 04 04
758 SeqSpec 24 24 00 02 03
758 SeqSpec 24 24 00 14 01
758 SeqSpec 24 24 00 1b 04
768 Meta TrkEnd
TrkEnd
MTrk
0 SeqNr 8
0 Meta TrkName "Voice 1 \"EE\""
672 On ch=6 n=62 v=100
768 On ch=6 n=67 v=100
768 Off ch=6 n=62 v=0
944 Off ch=6 n=67 v=0
960 On ch=6 n=67 v=100
1131 Off ch=6 n=67 v=0
1537 On ch=6 n=64 v=100
1713 Off ch=6 n=64 v=0
1729 On ch=6 n=62 v=100
1900 Off ch=6 n=62 v=0
1900 SeqSpec 24 24 00 20 00 00 a5 00 00 00 ad ff 00 00 03 00 00 00 00 b1 00 00 00 b9 ff 00 00 06 00 00 00 01 05 00 00 01 0d ff 00 00 09 00 00 00 01 11 00 00 01 19 ff 00 00 03 00 00 00 02 25 00 00 02 2d ff 00 00 09 00 00 00 02 31 00 00 02 39 ff 00 00 03 00 00
1900 SeqSpec 24 24 00 01 05
1900 SeqSpec 24 24 00 06 04 04
1900 SeqSpec 24 24 00 02 05
1900 SeqSpec 24 24 00 14 01
1900 SeqSpec 24 24 00 1b 18
2304 Meta TrkEnd
TrkEnd
MTrk
0 SeqNr 9
0 Meta TrkName "Voice 2"
0 On ch=6 n=66 v=100
174 Off ch=6 n=66 v=0
192 On ch=6 n=66 v=100
267 Off ch=6 n=66 v=0
288 On ch=6 n=66 v=100
603 Off ch=6 n=66 v=0
672 On ch=6 n=66 v=100
768 On ch=6 n=68 v=100
768 Off ch=6 n=66 v=0
960 On ch=6 n=66 v=100
960 Off ch=6 n=68 v=0
1046 Off ch=6 n=66 v=0
1056 On ch=6 n=66 v=100
1296 Off ch=6 n=66 v=0
1296 SeqSpec 24 24 00 20 00 00 d8 00 00 00 dd ff 00 00 06 00 00 00 00 e4 00 00 00 e9 ff 00 00 06 00 00 00 01 38 00 00 01 3d ff 00 00 06 00 00 00 01 44 00 00 01 49 ff 00 00 06 00 00 00 01 e0 00 00 01 e5 ff 00 00 06 00 00 00 01 ec 00 00 01 f1 ff 00 00 06 00 00 00 01 f8 00 00 01 fd ff 00 00 06 00 00 00 02 04 00 00 02 09 ff 00 00 06 00 00 00 02 58 00 00 02 5d ff 00 00 06 00 00 00 02 64 00 00 02 69 ff 00 00 06 00
1296 Off ch=6 n=0 v=255
1423 Off ch=6 n=5 v=36
1459 Off ch=6 n=0 v=1
1464 Off ch=6 n=0 v=255
1591 Off ch=6 n=6 v=36
1627 Off ch=6 n=0 v=6
1631 Off ch=6 n=4 v=0
18014 Off ch=6 n=5 v=36
18050 Off ch=6 n=0 v=2
18055 Off ch=6 n=0 v=255
18182 Off ch=6 n=5 v=36
18218 Off ch=6 n=0 v=20
18219 Off ch=6 n=0 v=255
18346 Off ch=6 n=5 v=36
18382 Off ch=6 n=0 v=27
18406 Off ch=2 n=112 v=255
18453 Off ch=2 n=0 v=77
TrkEnd
MTrk
