/* XPM */
static const char * route66[] = {
/* columns rows colors chars-per-pixel */
"64 64 99 2 ",
"   c black",
".  c #020202",
"X  c gray2",
"o  c #060606",
"O  c #00030B",
"+  c gray5",
"@  c gray8",
"#  c #161616",
"$  c #1D1D1D",
"%  c #252525",
"&  c gray15",
"*  c #282828",
"=  c #2A2A2A",
"-  c gray18",
";  c #323232",
":  c #353535",
">  c gray22",
",  c gray24",
"<  c gray26",
"1  c gray27",
"2  c #494949",
"3  c #4B4B4B",
"4  c gray30",
"5  c #555555",
"6  c #5A5A5A",
"7  c gray36",
"8  c gray39",
"9  c #656565",
"0  c gray40",
"q  c #686868",
"w  c #6A6A6A",
"e  c #6C6C6C",
"r  c gray44",
"t  c #717171",
"y  c #767676",
"u  c #777777",
"i  c gray49",
"p  c #808080",
"a  c #838383",
"s  c #888888",
"d  c gray55",
"f  c #8E8E8E",
"g  c #909090",
"h  c gray57",
"j  c #939393",
"k  c gray58",
"l  c #989898",
"z  c gray60",
"x  c #9A9A9A",
"c  c gray61",
"v  c #A0A0A0",
"b  c #A9A9A9",
"n  c #ACACAC",
"m  c #B1B1B1",
"M  c #B2B2B2",
"N  c gray74",
"B  c #C0C0C0",
"V  c #C1C1C1",
"C  c gray77",
"Z  c #C5C5C5",
"A  c #C8C8C8",
"S  c #CACACA",
"D  c gray80",
"F  c gray81",
"G  c gray82",
"H  c gray83",
"J  c #D5D5D5",
"K  c gray84",
"L  c #D7D7D7",
"P  c #D8D8D8",
"I  c gainsboro",
"U  c #DDDDDD",
"Y  c gray87",
"T  c #DFDFDF",
"R  c #E2E2E2",
"E  c #E4E4E4",
"W  c gray90",
"Q  c #E6E6E6",
"!  c #E9E9E9",
"~  c #EAEAEA",
"^  c gray92",
"/  c #ECECEC",
"(  c gray93",
")  c #EEEEEE",
"_  c #EFEFEF",
"`  c gray94",
"'  c #F1F1F1",
"]  c gray95",
"[  c #F4F4F4",
"{  c gray97",
"}  c #F8F8F8",
"|  c #F9F9F9",
" . c gray98",
".. c #FBFBFB",
"X. c gray99",
"o. c #FDFDFD",
"O. c #FEFEFE",
"+. c white",
"@. c None",
/* pixels */
"@.@.@.@.@.@.@.@.@.@.@.@.@.@.@.@.@.@.@.@.@.@.@.@.@.@.@.@.@.@.@.@.@.@.@.@.@.@.@.@.@.@.@.@.@.@.@.@.@.@.@.@.@.@.@.@.@.@.@.@.@.@.@.@.",
"@.@.@.@.@.@.@.@.@.@.@.@.@.@.@.@.@.@.@.@.@.@.@.@.@.@.@.@.@.@.@.@.@.@.@.@.@.@.@.@.@.@.@.@.@.@.@.@.@.@.@.@.@.@.@.@.@.@.@.@.@.@.@.@.",
"@.@.@.@.@.@.@.@.@.@.@.$   @.@.@.@.@.@.@.@.@.@.@.@.@.@.@.@.@.@.      @.@.@.@.@.@.@.@.@.@.@.@.@.@.@.@.@.      @.@.@.@.@.@.@.@.@.@.",
"@.@.@.@.@.@.@.@.@.@.            @.@.@.@.@.@.@.@.@.@.@.@.                  @.@.@.@.@.@.@.@.@.@.@.@.            @.@.@.@.@.@.@.@.@.",
"@.@.@.@.@.@.@.@.@.                      @.@.@.@.@.@             +.+.            @.@.@.@.@.              +.      @.@.@.@.@.@.@.@.",
"@.@.@.@.@.@.@.@.      +.+.+.+.                            +.+.+.+.+.+.+.+..                       +.+.+.+.+.$     @.@.@.@.@.@.@.",
"@.@.@.@.@.@.@.      +.+.+.+.+.+.+.+.+.            +.+.+.+.+.+.+.+.+.+.+.+.+.+.+.+.          +.+.+.+.+.+.+.+.+.@       @.@.@.@.@.",
"@.@.@.@.@.@.      +.+.+.+.+.+.+.+.+.+.+.+.+.+.+.+.+.+.+.+.+.+.+.+.+.+.+.+.+.+.+.+.+.+.+.+.+.+.+.+.+.+.+.+.+.+.+.        @.@.@.@.",
"@.@.@.@.@.      +.+.+.+.+.+.+.+.+.+.+.                +.+.+.              +.+.+.                +.+.+.+.+.+.+.+.+.+.      @.@.@.",
"@.@.@.@.      +.+.+.+.+.+.+.+.+.+.+.+.    O O O O O   +.+.+.O O O O O O   +.+.+.O O O O O O O   +.+.+.+.+.+.+.+.+.+.+.      @.@.",
"@.@.@.      +.+.+.+.+.+.+.+.+.+.+.+.+.    O O O O O   +.+.+.O O O O O O   +.+.+.O O O O O O O   +.+.+.+.+.+.+.+.+.+.+.+.      @.",
"@.@.      +.+.+.+.+.+.+.+.+.+.+.+.+.+.  O O +.+.+.+.+.+.+.+.O     +.+.+.+.+.+.+.O O   +.+.O O   +.+.+.+.+.+.+.+.+.+.+.+.      @.",
"@.@.      +.+.+.+.+.+.+.+.+.+.+.+.+.+.  O O +.+.+.+.+.+.+.+.O     +.+.+.+.+.+.+.O O   +.+.O O   +.+.+.+.+.+.+.+.+.+.+.+.    @.@.",
"@.@.@.    * +.+.+.+.+.+.+.+.+.+.+.+.+.  O O O O O O   +.+.+.O O   O O O +.+.+.+.O O   +.+.O O   +.+.+.+.+.+.+.+.+.+.+.+.    @.@.",
"@.@.@.@.    ..+.+.+.+.+.+.+.+.+.+.+.+.  O O O O O O   +.+.+.O O   O O O +.+.+.+.O O   +.+.O O   +.+.+.+.+.+.+.+.+.+.+.    @.@.@.",
"@.@.@.@.@.    +.+.+.+.+.+.+.+.+.+.+.+.+.+.+.+.+.O O   +.+.+.O O   +.+.+. .+.+.+.O O   +.+.O O   +.+.+.+.+.+.+.+.+.+...    @.@.@.",
"@.@.@.@.@.      +.+.+.+.+.+.+.+.+.+.+.+.+.+.+.+.O O   +.+.+.O O   +.+.+.+.+.+.+.O O   +.{ O O   +.+.+.+.+.+.+.+.+.+.    @.@.@.@.",
"@.@.@.@.@.@.    +.+.+.+.+.+.+.+.+.+.+.  O O O O O O   +.+.+.O O   O O O   +.+.+.O O O O O O O   +.+.+.+.+.+.+.+.+.      @.@.@.@.",
"@.@.@.@.@.@.%     +.+.+.+.+.+.+.+.+.+.  O O O O O O   +.+.+.O O O O O O   +.+.+.O O O O O O O       +.+.+.+.+.+.+.    @.@.@.@.@.",
"@.@.@.@.@.@.@.    +.+.+.+.+.+.+.+.+.+.                +.+. .              +.+.+.            O       +.+.+.+.+.+.+.    @.@.@.@.@.",
"@.@.@.@.@.@.@.o   +.+.+.+.+.+.+.+.+.+.+.+.+.+.+.+.+.+.+.+.+.+.+.+.+.+.+.+.+.+.+.+.+.+.+.+.+.+.      +.+.+.+.+.+.+.    @.@.@.@.@.",
"@.@.@.@.@.@.@.@.                                                                              +.+.+.                @.@.@.@.@.@.",
"@.@.@.@.@.@.@.@.    O O O O O O O O O O O O O O O O O O O O O O O O O O O O O O O O O O O O O O O O O O O O O O     @.@.@.@.@.@.",
"@.@.@.@.@.@.@.@.                                                                                                    @.@.@.@.@.@.",
"@.@.@.@.@.@.@.@.    +.+.+.+.+.+.+.+.+.+.+.+.+.+.+.+.+.+.+.+.+.+.+.+.+.+.+.+.+.+.+.+.+.+.+.+.+.+.+.+.+.+.+.+.+.+.    @.@.@.@.@.@.",
"@.@.@.@.@.@.@.@.    +.+.+.+.+.+.+.+.+.+.+.+.+.+.+.+.+.+.+.+.+.+.+.+.+.+.+.+.+.+.+.+.+.+.+.+.+.+.+.+.+.+.+.+.+.+.    @.@.@.@.@.@.",
"@.@.@.@.@.@.@.@.    +.+.+.+.+.+.+.+.+.+.+.+.+.+.+.+.+.+.+.+.+.+.+.+.+.+.+.+.+.+.+.+.+.+.+.+.+.+.+.+.+.+.+.+.+.+.    @.@.@.@.@.@.",
"@.@.@.@.@.@.@.@.    +.+.+.+.+.+.+.+.+.+.+.+.+.+.+.+.+.+.+.+.+.+.+.+.+.+.+.+.+.+.+.+.+.+.+.+.+.+.+.+.+.+.+.+.+.+.    @.@.@.@.@.@.",
"@.@.@.@.@.@.@.      +.+.+.+.+.+.+.+.+.o.G z 0 > ; 7 g A  .+.+.+.+.+.+.+.+.+.o.G z 0 > ; 7 g A  .+.+.+.+.+.+.+.+.    @.@.@.@.@.@.",
"@.@.@.@.@.@.@.    ] +.+.+.+.+.+.+.+.Q t                 6 E +.+.+.+.+.+.+.Q t                 6 E +.+.+.+.+.+.+.    @.@.@.@.@.@.",
"@.@.@.@.@.@.      +.+.+.+.+.+.+.+.E ,                     < ) +.+.+.+.+.E ,                     < ) +.+.+.+.+.+.+.    @.@.@.@.@.",
"@.@.@.@.@.@.    +.+.+.+.+.+.+.+.} 5       : V ! R c         k +.+.+.+.} 5       : V ! R c         k +.+.+.+.+.+.+.    @.@.@.@.@.",
"@.@.@.@.@.      +.+.+.+.+.+.+.+.M       + U +.+.+.+.s     # 8 { +.+.+.M       + U +.+.+.+.s     # 8 { +.+.+.+.+.+.+.    @.@.@.@.",
"@.@.@.@.@.    +.+.+.+.+.+.+.+.X.1       x +.+.+.+.+.( I ) o.+.+.+.+.X.1       x +.+.+.+.+.( I ) o.+.+.+.+.+.+.+.+.+.      @.@.@.",
"@.@.@.@.    +.+.+.+.+.+.+.+.+.L         K +.+.+.+.+.+.+.+.+.+.+.+.+.L         K +.+.+.+.+.+.+.+.+.+.+.+.+.+.+.+.+.+.+.    @.@.@.",
"@.@.@.@.    +.+.+.+.+.+.+.+.+.M         [ +.+.+.+.+.+.+.+.+.+.+.+.+.M         [ +.+.+.+.+.+.+.+.+.+.+.+.+.+.+.+.+.+.+.+.    @.@.",
"@.@.@.    +.+.+.+.+.+.+.+.+.+.f       ; +._ m r , > e b ~ +.+.+.+.+.f       ; +._ m r , > e b ~ +.+.+.+.+.+.+.+.+.+.+.+.    @.@.",
"@.@.@.    +.+.+.+.+.+.+.+.+.+.9       5 H :             + N +.+.+.+.9       5 H :             + N +.+.+.+.+.+.+.+.+.+.+.      @.",
"@.@.@.    +.+.+.+.+.+.+.+.+.+.4       ; &                   C +.+.+.4       ; &                   C +.+.+.+.+.+.+.+.+.+.+.    @.",
"@.@.o   +.+.+.+.+.+.+.+.+.+.+.=           y L / U d         - [ +.+.=           y L / U d         - [ +.+.+.+.+.+.+.+.+.[     @.",
"@.@.    +.+.+.+.+.+.+.+.+.+.+.=         6 | +.+.+.o.i         B +.+.=         6 | +.+.+.o.i         B +.+.+.+.+.+.+.+.+.+.    @.",
"@.      +.+.+.+.+.+.+.+.+.+.+.4         C +.+.+.+.+.P         j +.+.4         C +.+.+.+.+.P         j +.+.+.+.+.+.+.+.+.+.      ",
"@.      +.+.+.+.+.+.+.+.+.+.+.w         Y +.+.+.+.+.'         y +.+.w         Y +.+.+.+.+.'         y +.+.+.+.+.+.+.+.+.+.      ",
"@.      +.+.+.+.+.+.+.+.+.+.+.l         Y +.+.+.+.+...        e +.+.l         Y +.+.+.+.+...        e +.+.+.+.+.+.+.+.+.+.      ",
"@.      +.+.+.+.+.+.+.+.+.+.+.N         D +.+.+.+.+.`         a +.+.N         D +.+.+.+.+.`         a +.+.+.+.+.+.+.+.+.+.      ",
"@.      +.+.+.+.+.+.+.+.+.+.+.^         g +.+.+.+.+.J         n +.+.^         g +.+.+.+.+.J         n +.+.+.+.+.+.+.+.+.+.      ",
"@.@.    +.+.+.+.+.+.+.+.+.+.+.+.p         E +.+.+.O.i         I +.+.+.p         E +.+.+.O.i         I +.+.+.+.+.+.+.+.+.[     @.",
"@.@.    +.+.+.+.+.+.+.+.+.+.+.+.W #       2 S ^ T h         i +.+.+.+.W #       2 S ^ T h         i +.+.+.+.+.+.+.+.+.+.+.    @.",
"@.@.@.    +.+.+.+.+.+.+.+.+.+.+.+.C                       3 ) +.+.+.+.+.C                       3 ) +.+.+.+.+.+.+.+.+.+.      @.",
"@.@.@.    +.+.+.+.+.+.+.+.+.+.+.+.+.F 2                 u ) +.+.+.+.+.+.+.F 2                 u ) +.+.+.+.+.+.+.+.+.+.+.    @.@.",
"@.@.@.@.    +.+.+.+.+.+.+.+.+.+.+.+.+.{ Z d 7 - , q v L O.+.+.+.+.+.+.+.+.+.{ Z d 7 - , q v L O.+.+.+.+.+.+.+.+.+.+.+.      @.@.",
"@.@.@.@.      +.+.+.+.+.+.+.+.+.+.+.+.+.+.+.+.+.+.+.+.+.+.+.+.+.+.+.+.+.+.+.+.+.+.+.+.+.+.+.+.+.+.+.+.+.+.+.+.+.+.+.      @.@.@.",
"@.@.@.@.@.      +.+.+.+.+.+.+.+.+.+.+.+.+.+.+.+.+.+.+.+.+.+.+.+.+.+.+.+.+.+.+.+.+.+.+.+.+.+.+.+.+.+.+.+.+.+.+.+.+.      @.@.@.@.",
"@.@.@.@.@.@.      ] +.+.+.+.+.+.+.+.+.+.+.+.+.+.+.+.+.+.+.+.+.+.+.+.+.+.+.+.+.+.+.+.+.+.+.+.+.+.+.+.+.+.+.+.+.+.X     @.@.@.@.@.",
"@.@.@.@.@.@.@.@.      +.+.+.+.+.+.+.+.+.+.+.+.+.+.+.+.+.+.+.+.+.+.+.+.+.+.+.+.+.+.+.+.+.+.+.+.+.+.+.+.+.+.+.      X @.@.@.@.@.@.",
"@.@.@.@.@.@.@.@.@.            +.+.+.+.+.+.+.+.+.+.+.+.+.+.+.+.+.+.+.+.+.+.+.+.+.+.+.+.+.+.+.+.+.+.                @.@.@.@.@.@.@.",
"@.@.@.@.@.@.@.@.@.@.@.                      +.+.+.+.+.+.+.+.+.+.+.+.+.+.+.+.+.+.+.+.                        @.@.@.@.@.@.@.@.@.@.",
"@.@.@.@.@.@.@.@.@.@.@.@.@.@.                        +.+.+.+.+.+.+.+.+.+.+.+.+.                    @.@.@.@.@.@.@.@.@.@.@.@.@.@.@.",
"@.@.@.@.@.@.@.@.@.@.@.@.@.@.@.@.@.@.@.@.@.@.        X     +.+.+.+.+.+.+.+.            @.@.@.@.@.@.@.@.@.@.@.@.@.@.@.@.@.@.@.@.@.",
"@.@.@.@.@.@.@.@.@.@.@.@.@.@.@.@.@.@.@.@.@.@.@.@.@.          +.[ +.+.+.          @.@.@.@.@.@.@.@.@.@.@.@.@.@.@.@.@.@.@.@.@.@.@.@.",
"@.@.@.@.@.@.@.@.@.@.@.@.@.@.@.@.@.@.@.@.@.@.@.@.@.@.@.@..                   @.@.@.@.@.@.@.@.@.@.@.@.@.@.@.@.@.@.@.@.@.@.@.@.@.@.",
"@.@.@.@.@.@.@.@.@.@.@.@.@.@.@.@.@.@.@.@.@.@.@.@.@.@.@.@.@.@.            @.@.@.@.@.@.@.@.@.@.@.@.@.@.@.@.@.@.@.@.@.@.@.@.@.@.@.@.",
"@.@.@.@.@.@.@.@.@.@.@.@.@.@.@.@.@.@.@.@.@.@.@.@.@.@.@.@.@.@.@.@.@.@.@.@.@.@.@.@.@.@.@.@.@.@.@.@.@.@.@.@.@.@.@.@.@.@.@.@.@.@.@.@.",
"@.@.@.@.@.@.@.@.@.@.@.@.@.@.@.@.@.@.@.@.@.@.@.@.@.@.@.@.@.@.@.@.@.@.@.@.@.@.@.@.@.@.@.@.@.@.@.@.@.@.@.@.@.@.@.@.@.@.@.@.@.@.@.@."
};
