00000000: 4d 54 68 64 00 00 00 06 00 00 00 01 00 f0 4d 54  MThd..........MT
00000010: 72 6b 00 00 0a fa 00 ff 59 02 00 00 00 ff 54 05  rk......Y.....T.
00000020: 60 00 00 00 00 00 ff 7f 18 00 00 00 6a 00 01 00  `...........j...
00000030: 00 00 00 00 00 00 00 00 00 00 00 00 00 00 00 1d  ................
00000040: 1d 00 ff 51 03 07 c2 3a 00 ff 58 04 04 02 18 08  ...Q...:..X.....
00000050: 00 ff 05 0b 52 69 64 65 20 63 79 6d 62 61 6c 00  ....Ride cymbal.
00000060: ff 05 0a 43 6c 6f 73 65 64 20 68 61 74 00 99 2a  ...Closed hat..*
00000070: 40 00 ff 05 08 4f 70 65 6e 20 68 61 74 00 ff 05  @....Open hat...
00000080: 08 48 69 67 68 20 74 6f 6d 00 ff 05 07 4d 69 64  .High tom....Mid
00000090: 20 74 6f 6d 00 ff 05 07 4c 6f 77 20 74 6f 6d 00   tom....Low tom.
000000a0: ff 05 0a 53 6e 61 72 65 20 64 72 75 6d 00 ff 05  ...Snare drum...
000000b0: 09 42 61 73 73 20 64 72 75 6d 00 24 40 00 ff 05  .Bass drum.$@...
000000c0: 15 28 63 29 20 31 39 39 31 20 6a 6f 65 6c 20 53  .(c) 1991 joel S
000000d0: 61 6d 70 73 6f 6e 00 a0 3c 40 3c 99 2a 00 00 24  ampson..<@<.*..$
000000e0: 00 81 34 2a 6e 00 26 40 3c 2a 00 00 26 00 3c 24  ..4*n.&@<*..&.<$
000000f0: 40 3c 24 00 3c 2a 40 00 24 40 3c 2a 00 00 24 00  @<$.<*@.$@<*..$.
00000100: 81 34 2a 40 00 26 40 3c 2a 00 00 26 00 81 34 2a  .4*@.&@<*..&..4*
00000110: 40 00 24 40 3c 2a 00 00 24 00 81 34 2a 6e 00 26  @.$@<*..$..4*n.&
00000120: 40 3c 2a 00 00 26 00 3c 24 40 3c 24 00 3c 2a 40  @<*..&.<$@<$.<*@
00000130: 00 24 40 3c 2a 00 00 24 00 81 34 2a 40 00 26 40  .$@<*..$..4*@.&@
00000140: 3c 2a 00 00 26 00 81 34 2a 40 00 24 40 3c 2a 00  <*..&..4*@.$@<*.
00000150: 00 24 00 81 34 2a 40 00 26 40 3c 2a 00 00 26 00  .$..4*@.&@<*..&.
00000160: 3c 24 40 3c 24 00 3c 2a 40 00 24 40 3c 2a 00 00  <$@<$.<*@.$@<*..
00000170: 24 00 3c 24 40 3c 24 00 3c 2a 40 00 26 40 3c 2a  $.<$@<$.<*@.&@<*
00000180: 00 00 26 00 3c 24 40 3c 24 00 3c 2a 40 00 24 40  ..&.<$@<$.<*@.$@
00000190: 3c 2a 00 00 24 00 81 34 2a 40 00 26 40 3c 2a 00  <*..$..4*@.&@<*.
000001a0: 00 26 00 3c 24 40 3c 24 00 3c 2a 40 00 24 40 3c  .&.<$@<$.<*@.$@<
000001b0: 2a 00 00 24 00 3c 24 40 3c 24 00 3c 2a 40 00 26  *..$.<$@<$.<*@.&
000001c0: 40 3c 2a 00 00 26 00 3c 24 40 3c 24 00 3c 2a 7f  @<*..&.<$@<$.<*.
000001d0: 00 24 6e 3c 2a 00 00 24 00 3c 26 40 3c 26 00 00  .$n<*..$.<&@<&..
000001e0: 32 40 3c 32 00 00 32 40 3c 32 00 3c 26 40 3c 26  2@<2..2@<2.<&@<&
000001f0: 00 00 32 40 3c 32 00 00 32 40 3c 32 00 3c 26 40  ..2@<2..2@<2.<&@
00000200: 3c 26 00 00 32 40 3c 32 00 00 26 6e 3c 26 00 00  <&..2@<2..&n<&..
00000210: 26 40 3c 26 40 01 26 00 3b 26 6e 01 26 00 3b 26  &@<&@.&.;&n.&.;&
00000220: 00 00 2a 7f 00 24 6e 3c 2a 00 00 24 00 3c 26 40  ..*..$n<*..$.<&@
00000230: 3c 26 00 00 32 40 3c 32 00 00 32 40 3c 32 00 3c  <&..2@<2..2@<2.<
00000240: 26 40 3c 26 00 00 32 40 3c 32 00 00 32 40 3c 32  &@<&..2@<2..2@<2
00000250: 00 3c 26 40 3c 26 00 00 32 40 3c 32 00 00 26 6e  .<&@<&..2@<2..&n
00000260: 3c 26 00 00 26 40 3c 26 40 01 26 00 3b 26 6e 01  <&..&@<&@.&.;&n.
00000270: 26 00 3b 26 00 00 2a 7f 00 24 40 3c 2a 00 00 24  &.;&..*..$@<*..$
00000280: 00 00 2a 40 3c 2a 7f 00 24 40 01 2a 00 3b 24 00  ..*@<*..$@.*.;$.
00000290: 00 2a 40 01 2a 00 3b 2a 7f 00 26 40 01 2a 00 3b  .*@.*.;*..&@.*.;
000002a0: 26 00 00 2a 40 00 24 40 01 2a 00 3b 24 00 00 2a  &..*@.$@.*.;$..*
000002b0: 7f 01 2a 00 3b 2a 40 01 2a 00 3b 2a 7f 00 24 40  ..*.;*@.*.;*..$@
000002c0: 01 2a 00 3b 24 00 00 2a 40 01 2a 00 3b 2a 7f 01  .*.;$..*@.*.;*..
000002d0: 2a 00 3b 2a 40 01 2a 00 3b 2a 7f 00 26 40 01 2a  *.;*@.*.;*..&@.*
000002e0: 00 3b 26 00 00 2a 40 01 2a 00 3b 2a 7f 01 2a 00  .;&..*@.*.;*..*.
000002f0: 3b 2a 00 00 2c 40 00 24 40 3c 2c 00 00 24 00 00  ;*..,@.$@<,..$..
00000300: 2a 7f 00 24 40 3c 2a 00 00 24 00 00 2a 40 3c 2a  *..$@<*..$..*@<*
00000310: 7f 00 24 40 01 2a 00 3b 24 00 00 2a 40 01 2a 00  ..$@.*.;$..*@.*.
00000320: 3b 2a 7f 00 26 40 01 2a 00 3b 26 00 00 2a 40 00  ;*..&@.*.;&..*@.
00000330: 24 40 01 2a 00 3b 24 00 00 2a 7f 01 2a 00 3b 2a  $@.*.;$..*..*.;*
00000340: 40 01 2a 00 3b 2a 7f 00 24 40 01 2a 00 3b 24 00  @.*.;*..$@.*.;$.
00000350: 00 2a 40 01 2a 00 3b 2a 7f 01 2a 00 3b 2a 40 01  .*@.*.;*..*.;*@.
00000360: 2a 00 3b 2a 7f 00 26 40 01 2a 00 3b 26 00 00 2a  *.;*..&@.*.;&..*
00000370: 40 01 2a 00 3b 2a 7f 01 2a 00 3b 2a 00 00 2c 40  @.*.;*..*.;*..,@
00000380: 00 24 40 3c 2c 00 00 2a 7f 00 24 40 01 24 00 3b  .$@<,..*..$@.$.;
00000390: 2a 00 00 24 00 00 2a 40 3c 2a 7f 00 24 40 01 2a  *..$..*@<*..$@.*
000003a0: 00 3b 24 00 00 2a 40 01 2a 00 3b 2a 7f 00 26 40  .;$..*@.*.;*..&@
000003b0: 01 2a 00 3b 26 00 00 2a 40 00 24 40 01 2a 00 3b  .*.;&..*@.$@.*.;
000003c0: 24 00 00 2a 7f 01 2a 00 3b 2a 00 00 2c 6e 3c 2c  $..*..*.;*..,n<,
000003d0: 00 00 2a 7f 00 24 40 3c 2a 00 00 24 00 00 2a 40  ..*..$@<*..$..*@
000003e0: 3c 2a 7f 01 2a 00 3b 2a 40 01 2a 00 3b 2a 7f 00  <*..*.;*@.*.;*..
000003f0: 26 40 01 2a 00 3b 26 00 00 2a 40 01 2a 00 3b 2a  &@.*.;&..*@.*.;*
00000400: 7f 00 26 40 01 2a 00 3b 2a 00 00 26 00 00 2c 6e  ..&@.*.;*..&..,n
00000410: 00 24 58 3c 2c 00 00 24 00 00 2a 7f 00 24 40 3c  .$X<,..$..*..$@<
00000420: 2a 00 00 24 00 00 2a 40 3c 2a 7f 00 24 40 01 2a  *..$..*@<*..$@.*
00000430: 00 3b 24 00 00 2a 40 01 2a 00 3b 2a 7f 00 26 40  .;$..*@.*.;*..&@
00000440: 01 2a 00 3b 26 00 00 2a 40 00 24 40 01 2a 00 3b  .*.;&..*@.$@.*.;
00000450: 24 00 00 2a 7f 01 2a 00 3b 2a 00 00 2c 6e 3c 2c  $..*..*.;*..,n<,
00000460: 00 00 2a 7f 00 24 40 3c 2a 00 00 24 00 00 2a 40  ..*..$@<*..$..*@
00000470: 3c 2a 7f 01 2a 00 3b 2a 40 01 2a 00 3b 2a 7f 00  <*..*.;*@.*.;*..
00000480: 26 40 01 2a 00 3b 26 00 00 2a 40 01 2a 00 3b 2a  &@.*.;&..*@.*.;*
00000490: 7f 00 26 40 01 2a 00 3b 2a 00 00 26 00 00 2c 6e  ..&@.*.;*..&..,n
000004a0: 00 24 58 3c 2c 00 00 26 40 00 24 58 01 24 00 3b  .$X<,..&@.$X.$.;
000004b0: 26 00 00 24 00 00 26 40 3c 26 40 00 24 40 01 26  &..$..&@<&@.$@.&
000004c0: 00 3b 24 00 00 26 40 01 26 00 3b 26 00 00 2f 40  .;$..&@.&.;&../@
000004d0: 3c 2f 00 00 2f 40 00 24 40 3c 24 00 00 2f 40 01  </../@.$@<$../@.
000004e0: 2f 00 3b 2f 40 01 2f 00 3b 2f 00 00 2b 40 00 24  /.;/@./.;/..+@.$
000004f0: 58 3c 2b 00 00 24 00 00 2b 40 3c 2b 40 00 24 40  X<+..$..+@<+@.$@
00000500: 01 2b 00 3b 24 00 00 2b 40 01 2b 00 3b 2b 00 00  .+.;$..+@.+.;+..
00000510: 33 58 00 24 40 3c 33 00 00 24 00 3c 33 58 00 24  3X.$@<3..$.<3X.$
00000520: 40 3c 33 00 00 24 00 3c 26 40 00 24 58 3c 26 00  @<3..$.<&@.$X<&.
00000530: 00 24 00 00 26 40 3c 26 40 00 24 40 01 26 00 3b  .$..&@<&@.$@.&.;
00000540: 24 00 00 26 40 01 26 00 3b 26 00 00 2f 40 3c 2f  $..&@.&.;&../@</
00000550: 00 00 2f 40 00 24 40 3c 24 00 00 2f 40 01 2f 00  ../@.$@<$../@./.
00000560: 3b 2f 40 01 2f 00 3b 2f 00 00 2b 40 00 24 58 3c  ;/@./.;/..+@.$X<
00000570: 2b 00 00 24 00 00 2b 40 3c 2b 40 00 24 40 01 2b  +..$..+@<+@.$@.+
00000580: 00 3b 24 00 00 2b 40 01 2b 00 3b 2b 00 00 33 58  .;$..+@.+.;+..3X
00000590: 00 24 40 3c 33 00 00 24 00 3c 33 58 00 24 40 3c  .$@<3..$.<3X.$@<
000005a0: 33 00 00 24 00 3c 2a 40 00 24 40 3c 2a 00 00 24  3..$.<*@.$@<*..$
000005b0: 00 3c 2a 40 3c 2a 00 3c 2a 40 00 26 40 3c 2a 00  .<*@<*.<*@.&@<*.
000005c0: 00 26 00 3c 2a 40 3c 2a 00 3c 2a 40 3c 2a 00 3c  .&.<*@<*.<*@<*.<
000005d0: 2a 40 00 24 40 3c 2a 00 00 24 00 3c 2a 40 00 26  *@.$@<*..$.<*@.&
000005e0: 40 3c 2a 00 00 26 00 3c 2a 40 3c 2a 00 00 24 40  @<*..&.<*@<*..$@
000005f0: 3c 24 00 00 2a 40 00 24 40 3c 2a 00 00 24 00 3c  <$..*@.$@<*..$.<
00000600: 2a 40 3c 2a 00 3c 2a 40 00 26 40 3c 2a 00 00 26  *@<*.<*@.&@<*..&
00000610: 00 3c 2a 40 3c 2a 00 3c 2a 40 3c 2a 00 3c 2a 40  .<*@<*.<*@<*.<*@
00000620: 00 24 40 3c 2a 00 00 24 00 3c 2a 40 00 26 40 3c  .$@<*..$.<*@.&@<
00000630: 2a 00 00 26 00 3c 2a 40 3c 2a 00 00 24 40 3c 2a  *..&.<*@<*..$@<*
00000640: 40 00 24 40 01 24 00 3b 2a 00 00 24 00 3c 2a 40  @.$@.$.;*..$.<*@
00000650: 3c 2a 00 3c 2a 40 00 26 40 3c 2a 00 00 26 00 3c  <*.<*@.&@<*..&.<
00000660: 2a 40 3c 2a 00 3c 2a 40 00 24 40 3c 2a 00 00 24  *@<*.<*@.$@<*..$
00000670: 00 3c 2a 40 00 24 40 3c 2a 00 00 24 00 3c 2a 40  .<*@.$@<*..$.<*@
00000680: 00 26 40 3c 2a 00 00 26 00 3c 2a 40 3c 2a 00 3c  .&@<*..&.<*@<*.<
00000690: 2a 40 00 24 40 3c 2a 00 00 24 00 3c 2a 40 3c 2a  *@.$@<*..$.<*@<*
000006a0: 00 3c 2a 40 00 26 40 3c 2a 00 00 26 00 3c 2a 40  .<*@.&@<*..&.<*@
000006b0: 3c 2a 00 3c 2a 40 00 24 40 3c 2a 00 00 24 00 3c  <*.<*@.$@<*..$.<
000006c0: 2a 40 00 24 40 3c 2a 00 00 24 00 3c 2a 40 00 26  *@.$@<*..$.<*@.&
000006d0: 40 3c 2a 00 00 26 00 3c 2a 40 3c 2a 00 3c 2a 40  @<*..&.<*@<*.<*@
000006e0: 00 24 40 3c 2a 00 00 24 00 3c 2c 40 00 26 40 3c  .$@<*..$.<,@.&@<
000006f0: 2c 00 00 26 00 3c 2a 40 3c 2a 00 3c 2c 40 00 26  ,..&.<*@<*.<,@.&
00000700: 40 3c 2c 00 00 26 00 3c 2a 40 00 24 40 3c 2a 00  @<,..&.<*@.$@<*.
00000710: 00 24 00 3c 2c 40 00 24 40 3c 2c 00 00 24 00 3c  .$.<,@.$@<,..$.<
00000720: 2a 40 00 26 40 3c 2a 00 00 26 00 3c 2c 40 3c 2c  *@.&@<*..&.<,@<,
00000730: 00 3c 2a 40 00 24 40 3c 2a 00 00 24 00 3c 2c 40  .<*@.$@<*..$.<,@
00000740: 00 26 40 3c 2c 00 00 26 00 3c 2a 40 3c 2a 00 3c  .&@<,..&.<*@<*.<
00000750: 2c 40 00 26 40 3c 2c 00 00 26 00 3c 2a 40 00 24  ,@.&@<,..&.<*@.$
00000760: 40 3c 2a 00 00 24 00 3c 2c 40 00 24 40 3c 2c 00  @<*..$.<,@.$@<,.
00000770: 00 24 00 3c 2a 40 00 26 40 3c 2a 00 00 26 00 3c  .$.<*@.&@<*..&.<
00000780: 2c 40 3c 2c 00 3c 2a 40 00 24 40 3c 2a 00 00 24  ,@<,.<*@.$@<*..$
00000790: 00 3c 2a 40 3c 2a 00 3c 2a 40 00 26 40 00 24 40  .<*@<*.<*@.&@.$@
000007a0: 3c 2a 00 00 26 00 00 24 00 3c 2a 40 3c 2a 00 3c  <*..&..$.<*@<*.<
000007b0: 2a 40 00 24 40 3c 2a 00 00 24 00 3c 2a 40 3c 2a  *@.$@<*..$.<*@<*
000007c0: 00 3c 2a 40 00 26 40 00 24 40 3c 2a 00 00 26 00  .<*@.&@.$@<*..&.
000007d0: 00 24 00 3c 2a 40 3c 2a 00 3c 2a 40 00 24 40 3c  .$.<*@<*.<*@.$@<
000007e0: 2a 00 00 24 00 3c 2a 40 3c 2a 00 3c 2a 40 00 26  *..$.<*@<*.<*@.&
000007f0: 40 00 24 40 3c 2a 00 00 26 00 00 24 00 3c 2a 40  @.$@<*..&..$.<*@
00000800: 3c 2a 00 3c 2a 40 00 24 40 3c 2a 00 00 24 00 3c  <*.<*@.$@<*..$.<
00000810: 2a 40 3c 2a 00 3c 2a 40 00 26 40 00 24 40 3c 2a  *@<*.<*@.&@.$@<*
00000820: 00 00 26 00 00 24 00 3c 2a 40 3c 2a 00 3c 2a 40  ..&..$.<*@<*.<*@
00000830: 00 26 40 00 24 40 3c 2a 00 00 26 00 00 24 00 3c  .&@.$@<*..&..$.<
00000840: 2a 40 3c 2a 00 3c 2a 6e 00 26 40 00 24 40 3c 2a  *@<*.<*n.&@.$@<*
00000850: 00 00 26 00 00 24 00 3c 2a 40 3c 2a 00 3c 2a 40  ..&..$.<*@<*.<*@
00000860: 00 26 40 00 24 40 3c 2a 00 00 26 00 00 24 00 3c  .&@.$@<*..&..$.<
00000870: 2a 40 3c 2a 00 3c 2a 6e 00 26 40 00 24 40 3c 2a  *@<*.<*n.&@.$@<*
00000880: 00 00 26 00 00 24 00 3c 2a 40 3c 2a 00 3c 2a 40  ..&..$.<*@<*.<*@
00000890: 00 26 40 00 24 40 3c 2a 00 00 26 00 00 24 00 3c  .&@.$@<*..&..$.<
000008a0: 2a 40 3c 2a 00 3c 2a 6e 00 26 40 00 24 40 3c 2a  *@<*.<*n.&@.$@<*
000008b0: 00 00 26 00 00 24 00 3c 2a 40 3c 2a 00 3c 2a 40  ..&..$.<*@<*.<*@
000008c0: 00 26 40 00 24 40 3c 2a 00 00 26 00 00 24 00 3c  .&@.$@<*..&..$.<
000008d0: 2a 40 3c 2a 00 3c 2a 6e 00 26 40 00 24 40 3c 2a  *@<*.<*n.&@.$@<*
000008e0: 00 00 26 00 00 24 00 3c 2a 40 3c 2a 00 3c 26 6e  ..&..$.<*@<*.<&n
000008f0: 00 24 40 3c 26 00 00 24 00 00 26 40 3c 26 40 01  .$@<&..$..&@<&@.
00000900: 26 00 3b 26 6e 01 26 00 3b 26 6e 00 24 40 01 26  &.;&n.&.;&n.$@.&
00000910: 00 3b 24 00 00 26 40 01 26 00 3b 26 40 01 26 00  .;$..&@.&.;&@.&.
00000920: 3b 26 6e 01 26 00 3b 26 6e 00 24 40 01 26 00 3b  ;&n.&.;&n.$@.&.;
00000930: 24 00 00 26 40 01 26 00 3b 26 40 01 26 00 3b 26  $..&@.&.;&@.&.;&
00000940: 6e 01 26 00 3b 26 6e 00 24 40 01 26 00 3b 24 00  n.&.;&n.$@.&.;$.
00000950: 00 26 40 01 26 00 3b 26 40 01 26 00 3b 26 6e 01  .&@.&.;&@.&.;&n.
00000960: 26 00 3b 26 6e 00 24 40 01 26 00 3b 24 00 00 26  &.;&n.$@.&.;$..&
00000970: 40 01 26 00 3b 26 40 01 26 00 3b 26 6e 01 26 00  @.&.;&@.&.;&n.&.
00000980: 3b 26 6e 00 24 40 01 26 00 3b 24 00 00 26 40 01  ;&n.$@.&.;$..&@.
00000990: 26 00 3b 26 40 01 26 00 3b 26 6e 01 26 00 3b 26  &.;&@.&.;&n.&.;&
000009a0: 6e 00 24 40 01 26 00 3b 24 00 00 26 40 01 26 00  n.$@.&.;$..&@.&.
000009b0: 3b 26 40 01 26 00 3b 26 6e 01 26 00 3b 26 6e 00  ;&@.&.;&n.&.;&n.
000009c0: 24 40 01 26 00 3b 24 00 00 26 40 01 26 00 3b 26  $@.&.;$..&@.&.;&
000009d0: 40 01 26 00 3b 26 6e 01 26 00 3b 26 00 00 2a 40  @.&.;&n.&.;&..*@
000009e0: 00 24 40 3c 2a 00 00 24 00 81 34 2a 40 00 26 40  .$@<*..$..4*@.&@
000009f0: 3c 2a 00 00 26 00 81 34 2a 40 00 24 40 3c 2a 00  <*..&..4*@.$@<*.
00000a00: 00 24 00 3c 24 40 3c 24 00 3c 2a 40 00 26 40 3c  .$.<$@<$.<*@.&@<
00000a10: 2a 00 00 26 00 81 34 2a 40 00 24 40 3c 2a 00 00  *..&..4*@.$@<*..
00000a20: 24 00 81 34 2a 40 00 26 40 3c 2a 00 00 26 00 81  $..4*@.&@<*..&..
00000a30: 34 2a 40 00 24 40 3c 2a 00 00 24 00 3c 24 40 3c  4*@.$@<*..$.<$@<
00000a40: 24 00 3c 2a 40 00 26 40 3c 2a 00 00 26 00 81 34  $.<*@.&@<*..&..4
00000a50: 2a 40 00 24 40 3c 2a 00 00 24 00 81 34 2a 40 00  *@.$@<*..$..4*@.
00000a60: 26 40 3c 2a 00 00 26 00 3c 24 40 3c 24 00 3c 2a  &@<*..&.<$@<$.<*
00000a70: 40 00 24 40 3c 2a 00 00 24 00 81 34 2a 40 00 26  @.$@<*..$..4*@.&
00000a80: 40 3c 2a 00 00 26 00 81 34 2a 40 00 24 40 3c 2a  @<*..&..4*@.$@<*
00000a90: 00 00 24 00 81 34 2a 40 00 26 40 3c 2a 00 00 26  ..$..4*@.&@<*..&
00000aa0: 00 3c 24 40 3c 24 00 3c 2a 40 00 24 40 3c 2a 00  .<$@<$.<*@.$@<*.
00000ab0: 00 24 00 81 34 2a 40 00 26 40 3c 2a 00 00 26 00  .$..4*@.&@<*..&.
00000ac0: 81 34 2a 40 00 24 40 3c 2a 00 00 24 00 81 34 26  .4*@.$@<*..$..4&
00000ad0: 40 3c 26 00 78 26 58 3c 26 00 78 26 58 3c 26 00  @<&.x&X<&.x&X<&.
00000ae0: 3c 26 58 3c 26 00 81 34 2a 40 00 24 40 3c 2a 00  <&X<&..4*@.$@<*.
00000af0: 00 24 00 81 34 26 40 3c 26 00 78 26 58 3c 26 00  .$..4&@<&.x&X<&.
00000b00: 78 26 58 3c 26 00 3c 26 58 3c 26 00 00 ff 2f 00  x&X<&.<&X<&.../.
00000b10: 0a                                               .
