MThd 1 19 120
MTrk
0 Meta SeqName "Renaissance/Carpet Of The Sun By.Yusaku Kawata"
0 Meta Text "yuyuyu"
0 Meta Text " \n"
0 SysEx f0 41 10 42 12 40 00 7f 00 41 f7
0 TimeSig 4/4 24 8
0 KeySig 0 major
0 Tempo 387097
45600 Tempo 392157
45610 Tempo 394737
45618 Tempo 397351
45626 Tempo 400000
45634 Tempo 402685
45642 Tempo 405405
45650 Tempo 408163
45658 Tempo 410959
45666 Tempo 413793
45674 Tempo 416667
45684 Tempo 419580
45692 Tempo 422535
45700 Tempo 425532
45708 Tempo 428571
45716 Tempo 431655
45724 Tempo 434783
45732 Tempo 437956
45740 Tempo 441176
45748 Tempo 444444
45758 Tempo 447761
45766 Tempo 451128
45774 Tempo 454545
45782 Tempo 458015
45790 Tempo 461538
45798 Tempo 465116
45806 Tempo 468750
45814 Tempo 472441
45822 Tempo 476190
45832 Tempo 480000
45840 Tempo 483871
45848 Tempo 487805
45856 Tempo 491803
45864 Tempo 495868
45872 Tempo 500000
45880 Tempo 504202
45888 Tempo 508475
45896 Tempo 512821
45906 Tempo 517241
45914 Tempo 521739
45922 Tempo 526316
45930 Tempo 530973
45938 Tempo 535714
45946 Tempo 540541
45954 Tempo 545455
45962 Tempo 550459
45970 Tempo 555556
45980 Tempo 560748
45988 Tempo 566038
45996 Tempo 571429
46004 Tempo 576923
46012 Tempo 582524
46020 Tempo 588235
46028 Tempo 594059
46036 Tempo 600000
46044 Tempo 606061
46054 Tempo 612245
46062 Tempo 618557
46070 Tempo 625000
46078 Tempo 631579
46080 TimeSig 13/8 12 8
46086 Tempo 638298
46094 Tempo 645161
46102 Tempo 652174
46110 Tempo 659341
46118 Tempo 666667
46128 Tempo 674157
46136 Tempo 681818
46144 Tempo 689655
46152 Tempo 697674
46160 Tempo 705882
46168 Tempo 714286
46176 Tempo 722892
46184 Tempo 731707
46192 Tempo 740741
46198 Tempo 731707
46200 Tempo 722892
46202 Tempo 714286
46204 Tempo 705882
46206 Tempo 697674
46208 Tempo 689655
46210 Tempo 674157
46212 Tempo 666667
46214 Tempo 659341
46216 Tempo 652174
46218 Tempo 645161
46220 Tempo 638298
46222 Tempo 625000
46224 Tempo 618557
46226 Tempo 612245
46228 Tempo 606061
46230 Tempo 600000
46232 Tempo 588235
46234 Tempo 582524
46236 Tempo 576923
46238 Tempo 571429
46240 Tempo 566038
46242 Tempo 560748
46244 Tempo 550459
46246 Tempo 545455
46248 Tempo 540541
46250 Tempo 535714
46252 Tempo 530973
46254 Tempo 521739
46256 Tempo 517241
46258 Tempo 512821
46260 Tempo 508475
46262 Tempo 504202
46264 Tempo 500000
46266 Tempo 491803
46268 Tempo 487805
46270 Tempo 483871
46272 Tempo 480000
46274 Tempo 476190
46276 Tempo 468750
46278 Tempo 465116
46280 Tempo 461538
46282 Tempo 458015
46284 Tempo 454545
46286 Tempo 451128
46288 Tempo 444444
46290 Tempo 441176
46292 Tempo 437956
46294 Tempo 434783
46296 Tempo 431655
46298 Tempo 425532
46300 Tempo 422535
46302 Tempo 419580
46304 Tempo 416667
46306 Tempo 413793
46308 Tempo 410959
46310 Tempo 405405
46312 Tempo 402685
46314 Tempo 400000
46316 Tempo 397351
46318 Tempo 394737
46320 Tempo 389610
46860 TimeSig 4/4 24 8
46860 Meta TrkEnd
TrkEnd
MTrk
0 Meta TrkName "Soft karaoke"
0 Meta Text "@KMIDI KARAOKE FILE"
0 Meta TrkEnd
TrkEnd
MTrk
0 Meta TrkName "Words"
0 Meta Text "@LENGL"
0 Meta Text "@TRenaissance - Carpet Of The Sun"
0 Meta Text "@TKar by B\xe1rbara (Turma do cante!)"
6360 Meta Text "\\Come"
6420 Meta Text " a"
6480 Meta Text "long"
6600 Meta Text " with"
6660 Meta Text " me"
7320 Meta Text "/Down"
7380 Meta Text " in"
7440 Meta Text "to"
7560 Meta Text " the"
7620 Meta Text " world"
7740 Meta Text " of"
7860 Meta Text " see"
7980 Meta Text "ing"
8280 Meta Text "/Come"
8340 Meta Text " and"
8400 Meta Text " you'll"
8520 Meta Text " be"
8580 Meta Text " free"
9240 Meta Text "/Ta"
9300 Meta Text "ke the"
9360 Meta Text " time"
9480 Meta Text " to"
9540 Meta Text " find"
9660 Meta Text " the"
9780 Meta Text " fee"
9900 Meta Text "ling"
10200 Meta Text "\\See e"
10260 Meta Text "ve"
10380 Meta Text "ry"
10440 Meta Text "thing"
10560 Meta Text " on"
10620 Meta Text " it's"
10740 Meta Text " own"
11160 Meta Text "/And"
11220 Meta Text " you'll"
11340 Meta Text " find,"
11460 Meta Text " you"
11520 Meta Text " know"
11640 Meta Text " the"
11700 Meta Text " way"
12120 Meta Text "/And"
12180 Meta Text " you'll"
12300 Meta Text " know"
12420 Meta Text " the"
12480 Meta Text " things"
12600 Meta Text " you're"
12660 Meta Text " shown"
13080 Meta Text "/Owe e"
13140 Meta Text "very"
13260 Meta Text "thing"
13440 Meta Text " to"
13620 Meta Text " the"
13920 Meta Text " day"
15840 Meta Text "\\See"
16020 Meta Text " the"
16080 Meta Text " car"
16200 Meta Text "pet"
16260 Meta Text " of"
16380 Meta Text " the"
16500 Meta Text " sun"
16980 Meta Text "/The"
17040 Meta Text " green"
17160 Meta Text " grass"
17280 Meta Text " soft"
17400 Meta Text " and"
17520 Meta Text " sweet"
17760 Meta Text "/Sands"
17940 Meta Text " u"
18000 Meta Text "pon"
18120 Meta Text " the"
18180 Meta Text " shores"
18300 Meta Text " of"
18420 Meta Text " time"
18900 Meta Text "/Of"
18960 Meta Text " o"
19080 Meta Text "ceans"
19200 Meta Text " moun"
19320 Meta Text "tains"
19440 Meta Text " deep"
19860 Meta Text "/Part"
19980 Meta Text " of"
20100 Meta Text " the"
20160 Meta Text " world"
20460 Meta Text " that"
20580 Meta Text " you"
20640 Meta Text " li"
20760 Meta Text "ve in"
21600 Meta Text "/You"
21780 Meta Text " are"
21960 Meta Text " the"
22080 Meta Text " part"
22260 Meta Text " that"
22440 Meta Text " you're"
22560 Meta Text " gi"
22680 Meta Text "ving"
24600 Meta Text "\\Come"
24660 Meta Text " in"
24720 Meta Text "to"
24840 Meta Text " the"
24900 Meta Text " day"
25560 Meta Text "/Feel"
25620 Meta Text " the"
25680 Meta Text " sun"
25740 Meta Text "shine"
25860 Meta Text " warmth"
25980 Meta Text " a"
26100 Meta Text "round"
26220 Meta Text " you"
26520 Meta Text "/Sounds"
26580 Meta Text " from"
26640 Meta Text " far"
26760 Meta Text " a"
26820 Meta Text "way"
27480 Meta Text "/Mu"
27540 Meta Text "sic"
27600 Meta Text " of"
27660 Meta Text " the"
27780 Meta Text " love"
27900 Meta Text " that"
28020 Meta Text " found"
28140 Meta Text " you"
28440 Meta Text "/The"
28500 Meta Text " seed"
28620 Meta Text " that"
28740 Meta Text " you"
28800 Meta Text " plant"
28920 Meta Text " to"
28980 Meta Text "day"
29400 Meta Text "/To"
29460 Meta Text "mo"
29580 Meta Text "rrow"
29700 Meta Text " will"
29760 Meta Text " be"
29880 Meta Text " a"
29940 Meta Text " tree"
30360 Meta Text "/and"
30420 Meta Text " li"
30540 Meta Text "ving"
30660 Meta Text " goes"
30720 Meta Text " on"
30840 Meta Text " this"
30900 Meta Text " way"
31320 Meta Text "/it's"
31380 Meta Text " all"
31500 Meta Text " part"
31620 Meta Text " of"
31680 Meta Text " you"
31860 Meta Text " and"
32160 Meta Text " me"
34080 Meta Text "\\See"
34260 Meta Text " the"
34320 Meta Text " car"
34440 Meta Text "pet"
34500 Meta Text " of"
34620 Meta Text " the"
34740 Meta Text " sun"
35220 Meta Text "/The"
35280 Meta Text " green"
35400 Meta Text " grass"
35520 Meta Text " soft"
35640 Meta Text " and"
35760 Meta Text " sweet"
36000 Meta Text "/Sands"
36180 Meta Text " u"
36240 Meta Text "pon"
36360 Meta Text " the"
36420 Meta Text " shores"
36540 Meta Text " of"
36660 Meta Text " time"
37140 Meta Text "/Of"
37200 Meta Text " o"
37320 Meta Text "ceans"
37440 Meta Text " moun"
37560 Meta Text "tains"
37680 Meta Text " deep"
38100 Meta Text "/Part"
38220 Meta Text " of"
38340 Meta Text " the"
38400 Meta Text " world"
38700 Meta Text " that"
38820 Meta Text " you"
38880 Meta Text " li"
39000 Meta Text "ve in"
39840 Meta Text "/You"
40020 Meta Text " are"
40200 Meta Text " the"
40320 Meta Text " part"
40500 Meta Text " that"
40680 Meta Text " you're"
40800 Meta Text " gi"
40920 Meta Text "ving"
46860 Meta Text "\\See"
47040 Meta Text " the"
47100 Meta Text " car"
47220 Meta Text "pet"
47280 Meta Text " of"
47400 Meta Text " the"
47520 Meta Text " sun"
48000 Meta Text "/The"
48060 Meta Text " green"
48180 Meta Text " grass"
48300 Meta Text " soft"
48420 Meta Text " and"
48540 Meta Text " sweet"
48780 Meta Text "/Sands"
48960 Meta Text " u"
49020 Meta Text "pon"
49140 Meta Text " the"
49200 Meta Text " shores"
49320 Meta Text " of"
49440 Meta Text " time"
49920 Meta Text "/Of"
49980 Meta Text " o"
50100 Meta Text "ceans"
50220 Meta Text " moun"
50340 Meta Text "tains"
50460 Meta Text " deep"
50880 Meta Text "/Part"
51000 Meta Text " of"
51120 Meta Text " the"
51180 Meta Text " world"
51480 Meta Text " that"
51600 Meta Text " you"
51660 Meta Text " li"
51780 Meta Text "ve in"
52620 Meta Text "/You"
52800 Meta Text " are"
52980 Meta Text " the"
53100 Meta Text " part"
53280 Meta Text " that"
53460 Meta Text " you're"
53580 Meta Text " gi"
53700 Meta Text "ving"
55500 Meta Text "\\See"
55680 Meta Text " the"
55740 Meta Text " car"
55860 Meta Text "pet"
55920 Meta Text " of"
56040 Meta Text " the"
56160 Meta Text " sun"
57420 Meta Text "/See"
57600 Meta Text " the"
57660 Meta Text " car"
57780 Meta Text "pet"
57840 Meta Text " of"
57960 Meta Text " the"
58080 Meta Text " sun"
59340 Meta Text "/See"
59520 Meta Text " the"
59580 Meta Text " car"
59700 Meta Text "pet"
59760 Meta Text " of"
59880 Meta Text " the"
60000 Meta Text " sun"
61260 Meta Text "/See"
61440 Meta Text " the"
61500 Meta Text " car"
61620 Meta Text "pet"
61680 Meta Text " of"
61800 Meta Text " the"
61860 Meta Text " sun"
61860 Meta TrkEnd
TrkEnd
MTrk
0 Par ch=1 c=93 v=0
0 Par ch=1 c=91 v=40
122 PrCh ch=1 p=25
123 Par ch=1 c=7 v=100
123 Par ch=1 c=10 v=64
123 Meta TrkEnd
TrkEnd
MTrk
0 Par ch=2 c=91 v=126
0 Par ch=2 c=93 v=0
125 Par ch=2 c=0 v=0
126 Par ch=2 c=32 v=0
127 PrCh ch=2 p=25
128 Par ch=2 c=7 v=100
128 Par ch=2 c=10 v=64
480 Par ch=2 c=7 v=49
480 Par ch=2 c=10 v=53
480 Par ch=2 c=91 v=124
486 On ch=2 n=47 v=92
489 On ch=2 n=54 v=92
491 On ch=2 n=59 v=95
496 On ch=2 n=63 v=98
590 On ch=2 n=59 v=0
593 On ch=2 n=54 v=0
597 On ch=2 n=63 v=0
599 On ch=2 n=47 v=0
600 On ch=2 n=63 v=70
600 On ch=2 n=59 v=70
600 On ch=2 n=54 v=70
600 On ch=2 n=47 v=70
615 On ch=2 n=47 v=0
615 On ch=2 n=63 v=0
615 On ch=2 n=59 v=0
615 On ch=2 n=54 v=0
660 On ch=2 n=63 v=68
661 On ch=2 n=59 v=68
662 On ch=2 n=54 v=68
663 On ch=2 n=47 v=68
675 On ch=2 n=63 v=0
676 On ch=2 n=59 v=0
677 On ch=2 n=54 v=0
678 On ch=2 n=47 v=0
723 On ch=2 n=47 v=87
724 On ch=2 n=54 v=87
725 On ch=2 n=59 v=87
726 On ch=2 n=63 v=87
770 On ch=2 n=63 v=0
773 On ch=2 n=47 v=0
773 On ch=2 n=54 v=0
773 On ch=2 n=59 v=0
780 On ch=2 n=63 v=85
781 On ch=2 n=59 v=85
782 On ch=2 n=54 v=85
783 On ch=2 n=47 v=85
830 On ch=2 n=63 v=0
833 On ch=2 n=59 v=0
833 On ch=2 n=54 v=0
833 On ch=2 n=47 v=0
900 On ch=2 n=64 v=101
902 On ch=2 n=59 v=101
904 On ch=2 n=54 v=107
905 On ch=2 n=47 v=107
1008 On ch=2 n=47 v=0
1011 On ch=2 n=59 v=0
1013 On ch=2 n=64 v=0
1015 On ch=2 n=54 v=0
1020 On ch=2 n=64 v=84
1022 On ch=2 n=59 v=84
1024 On ch=2 n=54 v=84
1026 On ch=2 n=47 v=84
1065 On ch=2 n=64 v=0
1067 On ch=2 n=59 v=0
1069 On ch=2 n=54 v=0
1071 On ch=2 n=47 v=0
1080 On ch=2 n=47 v=99
1082 On ch=2 n=54 v=99
1084 On ch=2 n=59 v=99
1086 On ch=2 n=64 v=99
1186 On ch=2 n=54 v=0
1190 On ch=2 n=47 v=0
1190 On ch=2 n=59 v=0
1190 On ch=2 n=64 v=0
1200 On ch=2 n=47 v=98
1201 On ch=2 n=54 v=98
1202 On ch=2 n=59 v=98
1203 On ch=2 n=64 v=98
1250 On ch=2 n=47 v=0
1253 On ch=2 n=54 v=0
1253 On ch=2 n=59 v=0
1253 On ch=2 n=64 v=0
1260 On ch=2 n=64 v=96
1261 On ch=2 n=59 v=96
1262 On ch=2 n=54 v=96
1263 On ch=2 n=47 v=96
1370 On ch=2 n=64 v=0
1373 On ch=2 n=59 v=0
1373 On ch=2 n=47 v=0
1380 On ch=2 n=54 v=0
1383 On ch=2 n=64 v=103
1386 On ch=2 n=59 v=100
1388 On ch=2 n=47 v=98
1390 On ch=2 n=54 v=96
1428 On ch=2 n=64 v=0
1431 On ch=2 n=59 v=0
1433 On ch=2 n=47 v=0
1433 On ch=2 n=54 v=0
1445 On ch=2 n=54 v=92
1446 On ch=2 n=47 v=92
1447 On ch=2 n=59 v=95
1449 On ch=2 n=63 v=98
1546 On ch=2 n=59 v=0
1549 On ch=2 n=54 v=0
1550 On ch=2 n=63 v=0
1559 On ch=2 n=47 v=0
1563 On ch=2 n=63 v=70
1563 On ch=2 n=59 v=70
1563 On ch=2 n=54 v=70
1563 On ch=2 n=47 v=70
1578 On ch=2 n=47 v=0
1578 On ch=2 n=63 v=0
1578 On ch=2 n=59 v=0
1578 On ch=2 n=54 v=0
1623 On ch=2 n=63 v=68
1624 On ch=2 n=59 v=68
1625 On ch=2 n=54 v=68
1626 On ch=2 n=47 v=68
1638 On ch=2 n=63 v=0
1639 On ch=2 n=59 v=0
1640 On ch=2 n=54 v=0
1641 On ch=2 n=47 v=0
1686 On ch=2 n=47 v=87
1687 On ch=2 n=54 v=87
1688 On ch=2 n=59 v=87
1689 On ch=2 n=63 v=87
1733 On ch=2 n=63 v=0
1736 On ch=2 n=47 v=0
1736 On ch=2 n=54 v=0
1736 On ch=2 n=59 v=0
1743 On ch=2 n=63 v=85
1744 On ch=2 n=59 v=85
1745 On ch=2 n=54 v=85
1746 On ch=2 n=47 v=85
1793 On ch=2 n=63 v=0
1796 On ch=2 n=59 v=0
1796 On ch=2 n=54 v=0
1796 On ch=2 n=47 v=0
1863 On ch=2 n=64 v=101
1865 On ch=2 n=59 v=101
1867 On ch=2 n=54 v=107
1868 On ch=2 n=47 v=107
1971 On ch=2 n=47 v=0
1974 On ch=2 n=59 v=0
1976 On ch=2 n=64 v=0
1978 On ch=2 n=54 v=0
1983 On ch=2 n=64 v=84
1985 On ch=2 n=59 v=84
1987 On ch=2 n=54 v=84
1989 On ch=2 n=47 v=84
2028 On ch=2 n=64 v=0
2030 On ch=2 n=59 v=0
2032 On ch=2 n=54 v=0
2034 On ch=2 n=47 v=0
2043 On ch=2 n=47 v=99
2045 On ch=2 n=54 v=99
2047 On ch=2 n=59 v=99
2049 On ch=2 n=64 v=99
2149 On ch=2 n=54 v=0
2153 On ch=2 n=47 v=0
2153 On ch=2 n=59 v=0
2153 On ch=2 n=64 v=0
2163 On ch=2 n=47 v=98
2164 On ch=2 n=54 v=98
2165 On ch=2 n=59 v=98
2166 On ch=2 n=64 v=98
2213 On ch=2 n=47 v=0
2216 On ch=2 n=54 v=0
2216 On ch=2 n=59 v=0
2216 On ch=2 n=64 v=0
2223 On ch=2 n=64 v=96
2224 On ch=2 n=59 v=96
2225 On ch=2 n=54 v=96
2226 On ch=2 n=47 v=96
2333 On ch=2 n=64 v=0
2336 On ch=2 n=59 v=0
2336 On ch=2 n=47 v=0
2343 On ch=2 n=54 v=0
2346 On ch=2 n=64 v=103
2349 On ch=2 n=59 v=100
2351 On ch=2 n=47 v=98
2353 On ch=2 n=54 v=96
2386 On ch=2 n=64 v=0
2393 On ch=2 n=59 v=0
2396 On ch=2 n=47 v=0
2396 On ch=2 n=54 v=0
2405 On ch=2 n=47 v=92
2405 On ch=2 n=54 v=92
2411 On ch=2 n=59 v=95
2416 On ch=2 n=63 v=98
2509 On ch=2 n=54 v=0
2510 On ch=2 n=59 v=0
2517 On ch=2 n=63 v=0
2518 On ch=2 n=47 v=0
2520 On ch=2 n=63 v=70
2520 On ch=2 n=59 v=70
2520 On ch=2 n=54 v=70
2520 On ch=2 n=47 v=70
2535 On ch=2 n=47 v=0
2535 On ch=2 n=63 v=0
2535 On ch=2 n=59 v=0
2535 On ch=2 n=54 v=0
2580 On ch=2 n=63 v=68
2581 On ch=2 n=59 v=68
2582 On ch=2 n=54 v=68
2583 On ch=2 n=47 v=68
2595 On ch=2 n=63 v=0
2596 On ch=2 n=59 v=0
2597 On ch=2 n=54 v=0
2598 On ch=2 n=47 v=0
2643 On ch=2 n=47 v=87
2644 On ch=2 n=54 v=87
2645 On ch=2 n=59 v=87
2646 On ch=2 n=63 v=87
2690 On ch=2 n=63 v=0
2693 On ch=2 n=47 v=0
2693 On ch=2 n=54 v=0
2693 On ch=2 n=59 v=0
2700 On ch=2 n=63 v=85
2701 On ch=2 n=59 v=85
2702 On ch=2 n=54 v=85
2703 On ch=2 n=47 v=85
2750 On ch=2 n=63 v=0
2753 On ch=2 n=59 v=0
2753 On ch=2 n=54 v=0
2753 On ch=2 n=47 v=0
2820 On ch=2 n=64 v=101
2822 On ch=2 n=59 v=101
2824 On ch=2 n=54 v=107
2825 On ch=2 n=47 v=107
2928 On ch=2 n=47 v=0
2931 On ch=2 n=59 v=0
2933 On ch=2 n=64 v=0
2935 On ch=2 n=54 v=0
2940 On ch=2 n=64 v=84
2942 On ch=2 n=59 v=84
2944 On ch=2 n=54 v=84
2946 On ch=2 n=47 v=84
2985 On ch=2 n=64 v=0
2987 On ch=2 n=59 v=0
2989 On ch=2 n=54 v=0
2991 On ch=2 n=47 v=0
3000 On ch=2 n=47 v=99
3002 On ch=2 n=54 v=99
3004 On ch=2 n=59 v=99
3006 On ch=2 n=64 v=99
3106 On ch=2 n=54 v=0
3110 On ch=2 n=47 v=0
3110 On ch=2 n=59 v=0
3110 On ch=2 n=64 v=0
3120 On ch=2 n=47 v=98
3121 On ch=2 n=54 v=98
3122 On ch=2 n=59 v=98
3123 On ch=2 n=64 v=98
3170 On ch=2 n=47 v=0
3173 On ch=2 n=54 v=0
3173 On ch=2 n=59 v=0
3173 On ch=2 n=64 v=0
3180 On ch=2 n=64 v=96
3181 On ch=2 n=59 v=96
3182 On ch=2 n=54 v=96
3183 On ch=2 n=47 v=96
3290 On ch=2 n=64 v=0
3293 On ch=2 n=59 v=0
3293 On ch=2 n=47 v=0
3300 On ch=2 n=54 v=0
3303 On ch=2 n=64 v=103
3306 On ch=2 n=59 v=100
3308 On ch=2 n=47 v=98
3310 On ch=2 n=54 v=96
3353 On ch=2 n=54 v=0
3353 On ch=2 n=47 v=0
3353 On ch=2 n=59 v=0
3356 On ch=2 n=64 v=0
3366 On ch=2 n=47 v=92
3367 On ch=2 n=59 v=95
3368 On ch=2 n=54 v=92
3368 On ch=2 n=63 v=98
3466 On ch=2 n=59 v=0
3469 On ch=2 n=63 v=0
3472 On ch=2 n=54 v=0
3479 On ch=2 n=47 v=0
3483 On ch=2 n=63 v=70
3483 On ch=2 n=59 v=70
3483 On ch=2 n=54 v=70
3483 On ch=2 n=47 v=70
3498 On ch=2 n=47 v=0
3498 On ch=2 n=63 v=0
3498 On ch=2 n=59 v=0
3498 On ch=2 n=54 v=0
3543 On ch=2 n=63 v=68
3544 On ch=2 n=59 v=68
3545 On ch=2 n=54 v=68
3546 On ch=2 n=47 v=68
3558 On ch=2 n=63 v=0
3559 On ch=2 n=59 v=0
3560 On ch=2 n=54 v=0
3561 On ch=2 n=47 v=0
3606 On ch=2 n=47 v=87
3607 On ch=2 n=54 v=87
3608 On ch=2 n=59 v=87
3609 On ch=2 n=63 v=87
3653 On ch=2 n=63 v=0
3656 On ch=2 n=47 v=0
3656 On ch=2 n=54 v=0
3656 On ch=2 n=59 v=0
3663 On ch=2 n=63 v=85
3664 On ch=2 n=59 v=85
3665 On ch=2 n=54 v=85
3666 On ch=2 n=47 v=85
3713 On ch=2 n=63 v=0
3716 On ch=2 n=59 v=0
3716 On ch=2 n=54 v=0
3716 On ch=2 n=47 v=0
3783 On ch=2 n=64 v=101
3785 On ch=2 n=59 v=101
3787 On ch=2 n=54 v=107
3788 On ch=2 n=47 v=107
3891 On ch=2 n=47 v=0
3894 On ch=2 n=59 v=0
3896 On ch=2 n=64 v=0
3898 On ch=2 n=54 v=0
3903 On ch=2 n=64 v=84
3905 On ch=2 n=59 v=84
3907 On ch=2 n=54 v=84
3909 On ch=2 n=47 v=84
3948 On ch=2 n=64 v=0
3950 On ch=2 n=59 v=0
3952 On ch=2 n=54 v=0
3954 On ch=2 n=47 v=0
3963 On ch=2 n=47 v=99
3965 On ch=2 n=54 v=99
3967 On ch=2 n=59 v=99
3969 On ch=2 n=64 v=99
4069 On ch=2 n=54 v=0
4073 On ch=2 n=47 v=0
4073 On ch=2 n=59 v=0
4073 On ch=2 n=64 v=0
4083 On ch=2 n=47 v=98
4084 On ch=2 n=54 v=98
4085 On ch=2 n=59 v=98
4086 On ch=2 n=64 v=98
4133 On ch=2 n=47 v=0
4136 On ch=2 n=54 v=0
4136 On ch=2 n=59 v=0
4136 On ch=2 n=64 v=0
4143 On ch=2 n=64 v=96
4144 On ch=2 n=59 v=96
4145 On ch=2 n=54 v=96
4146 On ch=2 n=47 v=96
4253 On ch=2 n=64 v=0
4256 On ch=2 n=59 v=0
4256 On ch=2 n=47 v=0
4263 On ch=2 n=54 v=0
4266 On ch=2 n=64 v=103
4269 On ch=2 n=59 v=100
4271 On ch=2 n=47 v=98
4273 On ch=2 n=54 v=96
4306 On ch=2 n=64 v=0
4313 On ch=2 n=59 v=0
4316 On ch=2 n=47 v=0
4316 On ch=2 n=54 v=0
4325 On ch=2 n=54 v=92
4326 On ch=2 n=47 v=92
4327 On ch=2 n=59 v=95
4332 On ch=2 n=63 v=98
4426 On ch=2 n=59 v=0
4429 On ch=2 n=54 v=0
4433 On ch=2 n=63 v=0
4439 On ch=2 n=47 v=0
4443 On ch=2 n=63 v=70
4443 On ch=2 n=59 v=70
4443 On ch=2 n=54 v=70
4443 On ch=2 n=47 v=70
4458 On ch=2 n=47 v=0
4458 On ch=2 n=63 v=0
4458 On ch=2 n=59 v=0
4458 On ch=2 n=54 v=0
4503 On ch=2 n=63 v=68
4504 On ch=2 n=59 v=68
4505 On ch=2 n=54 v=68
4506 On ch=2 n=47 v=68
4518 On ch=2 n=63 v=0
4519 On ch=2 n=59 v=0
4520 On ch=2 n=54 v=0
4521 On ch=2 n=47 v=0
4566 On ch=2 n=47 v=87
4567 On ch=2 n=54 v=87
4568 On ch=2 n=59 v=87
4569 On ch=2 n=63 v=87
4613 On ch=2 n=63 v=0
4616 On ch=2 n=47 v=0
4616 On ch=2 n=54 v=0
4616 On ch=2 n=59 v=0
4623 On ch=2 n=63 v=85
4624 On ch=2 n=59 v=85
4625 On ch=2 n=54 v=85
4626 On ch=2 n=47 v=85
4673 On ch=2 n=63 v=0
4676 On ch=2 n=59 v=0
4676 On ch=2 n=54 v=0
4676 On ch=2 n=47 v=0
4743 On ch=2 n=64 v=101
4745 On ch=2 n=59 v=101
4747 On ch=2 n=54 v=107
4748 On ch=2 n=47 v=107
4851 On ch=2 n=47 v=0
4854 On ch=2 n=59 v=0
4856 On ch=2 n=64 v=0
4858 On ch=2 n=54 v=0
4863 On ch=2 n=64 v=84
4865 On ch=2 n=59 v=84
4867 On ch=2 n=54 v=84
4869 On ch=2 n=47 v=84
4908 On ch=2 n=64 v=0
4910 On ch=2 n=59 v=0
4912 On ch=2 n=54 v=0
4914 On ch=2 n=47 v=0
4923 On ch=2 n=47 v=99
4925 On ch=2 n=54 v=99
4927 On ch=2 n=59 v=99
4929 On ch=2 n=64 v=99
5029 On ch=2 n=54 v=0
5033 On ch=2 n=47 v=0
5033 On ch=2 n=59 v=0
5033 On ch=2 n=64 v=0
5043 On ch=2 n=47 v=98
5044 On ch=2 n=54 v=98
5045 On ch=2 n=59 v=98
5046 On ch=2 n=64 v=98
5093 On ch=2 n=47 v=0
5096 On ch=2 n=54 v=0
5096 On ch=2 n=59 v=0
5096 On ch=2 n=64 v=0
5103 On ch=2 n=64 v=96
5104 On ch=2 n=59 v=96
5105 On ch=2 n=54 v=96
5106 On ch=2 n=47 v=96
5213 On ch=2 n=64 v=0
5216 On ch=2 n=59 v=0
5216 On ch=2 n=47 v=0
5223 On ch=2 n=54 v=0
5226 On ch=2 n=64 v=103
5229 On ch=2 n=59 v=100
5231 On ch=2 n=47 v=98
5233 On ch=2 n=54 v=96
5266 On ch=2 n=64 v=0
5273 On ch=2 n=59 v=0
5276 On ch=2 n=47 v=0
5276 On ch=2 n=54 v=0
5285 On ch=2 n=47 v=92
5285 On ch=2 n=54 v=92
5290 On ch=2 n=63 v=98
5291 On ch=2 n=59 v=95
5389 On ch=2 n=54 v=0
5390 On ch=2 n=59 v=0
5391 On ch=2 n=63 v=0
5398 On ch=2 n=47 v=0
5400 On ch=2 n=63 v=70
5400 On ch=2 n=59 v=70
5400 On ch=2 n=54 v=70
5400 On ch=2 n=47 v=70
5415 On ch=2 n=47 v=0
5415 On ch=2 n=63 v=0
5415 On ch=2 n=59 v=0
5415 On ch=2 n=54 v=0
5460 On ch=2 n=63 v=68
5461 On ch=2 n=59 v=68
5462 On ch=2 n=54 v=68
5463 On ch=2 n=47 v=68
5475 On ch=2 n=63 v=0
5476 On ch=2 n=59 v=0
5477 On ch=2 n=54 v=0
5478 On ch=2 n=47 v=0
5523 On ch=2 n=47 v=87
5524 On ch=2 n=54 v=87
5525 On ch=2 n=59 v=87
5526 On ch=2 n=63 v=87
5570 On ch=2 n=63 v=0
5573 On ch=2 n=47 v=0
5573 On ch=2 n=54 v=0
5573 On ch=2 n=59 v=0
5580 On ch=2 n=63 v=85
5581 On ch=2 n=59 v=85
5582 On ch=2 n=54 v=85
5583 On ch=2 n=47 v=85
5630 On ch=2 n=63 v=0
5633 On ch=2 n=59 v=0
5633 On ch=2 n=54 v=0
5633 On ch=2 n=47 v=0
5700 On ch=2 n=64 v=101
5702 On ch=2 n=59 v=101
5704 On ch=2 n=54 v=107
5705 On ch=2 n=47 v=107
5808 On ch=2 n=47 v=0
5811 On ch=2 n=59 v=0
5813 On ch=2 n=64 v=0
5815 On ch=2 n=54 v=0
5820 On ch=2 n=64 v=84
5822 On ch=2 n=59 v=84
5824 On ch=2 n=54 v=84
5826 On ch=2 n=47 v=84
5865 On ch=2 n=64 v=0
5867 On ch=2 n=59 v=0
5869 On ch=2 n=54 v=0
5871 On ch=2 n=47 v=0
5880 On ch=2 n=47 v=99
5882 On ch=2 n=54 v=99
5884 On ch=2 n=59 v=99
5886 On ch=2 n=64 v=99
5986 On ch=2 n=54 v=0
5990 On ch=2 n=47 v=0
5990 On ch=2 n=59 v=0
5990 On ch=2 n=64 v=0
6000 On ch=2 n=47 v=98
6001 On ch=2 n=54 v=98
6002 On ch=2 n=59 v=98
6003 On ch=2 n=64 v=98
6050 On ch=2 n=47 v=0
6053 On ch=2 n=54 v=0
6053 On ch=2 n=59 v=0
6053 On ch=2 n=64 v=0
6060 On ch=2 n=64 v=96
6061 On ch=2 n=59 v=96
6062 On ch=2 n=54 v=96
6063 On ch=2 n=47 v=96
6170 On ch=2 n=64 v=0
6173 On ch=2 n=59 v=0
6173 On ch=2 n=47 v=0
6180 On ch=2 n=54 v=0
6183 On ch=2 n=64 v=103
6186 On ch=2 n=59 v=100
6188 On ch=2 n=47 v=98
6190 On ch=2 n=54 v=96
6223 On ch=2 n=64 v=0
6230 On ch=2 n=59 v=0
6233 On ch=2 n=47 v=0
6233 On ch=2 n=54 v=0
6246 On ch=2 n=47 v=92
6248 On ch=2 n=54 v=92
6251 On ch=2 n=59 v=95
6255 On ch=2 n=63 v=98
6350 On ch=2 n=59 v=0
6352 On ch=2 n=54 v=0
6356 On ch=2 n=63 v=0
6359 On ch=2 n=47 v=0
6363 On ch=2 n=63 v=70
6363 On ch=2 n=59 v=70
6363 On ch=2 n=54 v=70
6363 On ch=2 n=47 v=70
6378 On ch=2 n=47 v=0
6378 On ch=2 n=63 v=0
6378 On ch=2 n=59 v=0
6378 On ch=2 n=54 v=0
6423 On ch=2 n=63 v=68
6424 On ch=2 n=59 v=68
6425 On ch=2 n=54 v=68
6426 On ch=2 n=47 v=68
6438 On ch=2 n=63 v=0
6439 On ch=2 n=59 v=0
6440 On ch=2 n=54 v=0
6441 On ch=2 n=47 v=0
6486 On ch=2 n=47 v=87
6487 On ch=2 n=54 v=87
6488 On ch=2 n=59 v=87
6489 On ch=2 n=63 v=87
6533 On ch=2 n=63 v=0
6536 On ch=2 n=47 v=0
6536 On ch=2 n=54 v=0
6536 On ch=2 n=59 v=0
6543 On ch=2 n=63 v=85
6544 On ch=2 n=59 v=85
6545 On ch=2 n=54 v=85
6546 On ch=2 n=47 v=85
6593 On ch=2 n=63 v=0
6596 On ch=2 n=59 v=0
6596 On ch=2 n=54 v=0
6596 On ch=2 n=47 v=0
6663 On ch=2 n=64 v=101
6665 On ch=2 n=59 v=101
6667 On ch=2 n=54 v=107
6668 On ch=2 n=47 v=107
6771 On ch=2 n=47 v=0
6774 On ch=2 n=59 v=0
6776 On ch=2 n=64 v=0
6778 On ch=2 n=54 v=0
6783 On ch=2 n=64 v=84
6785 On ch=2 n=59 v=84
6787 On ch=2 n=54 v=84
6789 On ch=2 n=47 v=84
6828 On ch=2 n=64 v=0
6830 On ch=2 n=59 v=0
6832 On ch=2 n=54 v=0
6834 On ch=2 n=47 v=0
6843 On ch=2 n=47 v=99
6845 On ch=2 n=54 v=99
6847 On ch=2 n=59 v=99
6849 On ch=2 n=64 v=99
6949 On ch=2 n=54 v=0
6953 On ch=2 n=47 v=0
6953 On ch=2 n=59 v=0
6953 On ch=2 n=64 v=0
6963 On ch=2 n=47 v=98
6964 On ch=2 n=54 v=98
6965 On ch=2 n=59 v=98
6966 On ch=2 n=64 v=98
7013 On ch=2 n=47 v=0
7016 On ch=2 n=54 v=0
7016 On ch=2 n=59 v=0
7016 On ch=2 n=64 v=0
7023 On ch=2 n=64 v=96
7024 On ch=2 n=59 v=96
7025 On ch=2 n=54 v=96
7026 On ch=2 n=47 v=96
7133 On ch=2 n=64 v=0
7136 On ch=2 n=59 v=0
7136 On ch=2 n=47 v=0
7143 On ch=2 n=54 v=0
7146 On ch=2 n=64 v=103
7149 On ch=2 n=59 v=100
7151 On ch=2 n=47 v=98
7153 On ch=2 n=54 v=96
7186 On ch=2 n=64 v=0
7193 On ch=2 n=59 v=0
7196 On ch=2 n=47 v=0
7196 On ch=2 n=54 v=0
7205 On ch=2 n=54 v=92
7206 On ch=2 n=47 v=92
7207 On ch=2 n=59 v=95
7212 On ch=2 n=63 v=98
7306 On ch=2 n=59 v=0
7309 On ch=2 n=54 v=0
7313 On ch=2 n=63 v=0
7319 On ch=2 n=47 v=0
7323 On ch=2 n=63 v=70
7323 On ch=2 n=59 v=70
7323 On ch=2 n=54 v=70
7323 On ch=2 n=47 v=70
7338 On ch=2 n=47 v=0
7338 On ch=2 n=63 v=0
7338 On ch=2 n=59 v=0
7338 On ch=2 n=54 v=0
7383 On ch=2 n=63 v=68
7384 On ch=2 n=59 v=68
7385 On ch=2 n=54 v=68
7386 On ch=2 n=47 v=68
7398 On ch=2 n=63 v=0
7399 On ch=2 n=59 v=0
7400 On ch=2 n=54 v=0
7401 On ch=2 n=47 v=0
7446 On ch=2 n=47 v=87
7447 On ch=2 n=54 v=87
7448 On ch=2 n=59 v=87
7449 On ch=2 n=63 v=87
7493 On ch=2 n=63 v=0
7496 On ch=2 n=47 v=0
7496 On ch=2 n=54 v=0
7496 On ch=2 n=59 v=0
7503 On ch=2 n=63 v=85
7504 On ch=2 n=59 v=85
7505 On ch=2 n=54 v=85
7506 On ch=2 n=47 v=85
7553 On ch=2 n=63 v=0
7556 On ch=2 n=59 v=0
7556 On ch=2 n=54 v=0
7556 On ch=2 n=47 v=0
7623 On ch=2 n=64 v=101
7625 On ch=2 n=59 v=101
7627 On ch=2 n=54 v=107
7628 On ch=2 n=47 v=107
7731 On ch=2 n=47 v=0
7734 On ch=2 n=59 v=0
7736 On ch=2 n=64 v=0
7738 On ch=2 n=54 v=0
7743 On ch=2 n=64 v=84
7745 On ch=2 n=59 v=84
7747 On ch=2 n=54 v=84
7749 On ch=2 n=47 v=84
7788 On ch=2 n=64 v=0
7790 On ch=2 n=59 v=0
7792 On ch=2 n=54 v=0
7794 On ch=2 n=47 v=0
7803 On ch=2 n=47 v=99
7805 On ch=2 n=54 v=99
7807 On ch=2 n=59 v=99
7809 On ch=2 n=64 v=99
7909 On ch=2 n=54 v=0
7913 On ch=2 n=47 v=0
7913 On ch=2 n=59 v=0
7913 On ch=2 n=64 v=0
7923 On ch=2 n=47 v=98
7924 On ch=2 n=54 v=98
7925 On ch=2 n=59 v=98
7926 On ch=2 n=64 v=98
7973 On ch=2 n=47 v=0
7976 On ch=2 n=54 v=0
7976 On ch=2 n=59 v=0
7976 On ch=2 n=64 v=0
7983 On ch=2 n=64 v=96
7984 On ch=2 n=59 v=96
7985 On ch=2 n=54 v=96
7986 On ch=2 n=47 v=96
8093 On ch=2 n=64 v=0
8096 On ch=2 n=59 v=0
8096 On ch=2 n=47 v=0
8103 On ch=2 n=54 v=0
8106 On ch=2 n=64 v=103
8109 On ch=2 n=59 v=100
8111 On ch=2 n=47 v=98
8113 On ch=2 n=54 v=96
8146 On ch=2 n=64 v=0
8153 On ch=2 n=59 v=0
8156 On ch=2 n=47 v=0
8156 On ch=2 n=54 v=0
8165 On ch=2 n=47 v=92
8165 On ch=2 n=54 v=92
8171 On ch=2 n=59 v=95
8176 On ch=2 n=63 v=98
8269 On ch=2 n=54 v=0
8270 On ch=2 n=59 v=0
8277 On ch=2 n=63 v=0
8278 On ch=2 n=47 v=0
8280 On ch=2 n=63 v=70
8280 On ch=2 n=59 v=70
8280 On ch=2 n=54 v=70
8280 On ch=2 n=47 v=70
8295 On ch=2 n=47 v=0
8295 On ch=2 n=63 v=0
8295 On ch=2 n=59 v=0
8295 On ch=2 n=54 v=0
8340 On ch=2 n=63 v=68
8341 On ch=2 n=59 v=68
8342 On ch=2 n=54 v=68
8343 On ch=2 n=47 v=68
8355 On ch=2 n=63 v=0
8356 On ch=2 n=59 v=0
8357 On ch=2 n=54 v=0
8358 On ch=2 n=47 v=0
8403 On ch=2 n=47 v=87
8404 On ch=2 n=54 v=87
8405 On ch=2 n=59 v=87
8406 On ch=2 n=63 v=87
8450 On ch=2 n=63 v=0
8453 On ch=2 n=47 v=0
8453 On ch=2 n=54 v=0
8453 On ch=2 n=59 v=0
8460 On ch=2 n=63 v=85
8461 On ch=2 n=59 v=85
8462 On ch=2 n=54 v=85
8463 On ch=2 n=47 v=85
8510 On ch=2 n=63 v=0
8513 On ch=2 n=59 v=0
8513 On ch=2 n=54 v=0
8513 On ch=2 n=47 v=0
8580 On ch=2 n=64 v=101
8582 On ch=2 n=59 v=101
8584 On ch=2 n=54 v=107
8585 On ch=2 n=47 v=107
8688 On ch=2 n=47 v=0
8691 On ch=2 n=59 v=0
8693 On ch=2 n=64 v=0
8695 On ch=2 n=54 v=0
8700 On ch=2 n=64 v=84
8702 On ch=2 n=59 v=84
8704 On ch=2 n=54 v=84
8706 On ch=2 n=47 v=84
8745 On ch=2 n=64 v=0
8747 On ch=2 n=59 v=0
8749 On ch=2 n=54 v=0
8751 On ch=2 n=47 v=0
8760 On ch=2 n=47 v=99
8762 On ch=2 n=54 v=99
8764 On ch=2 n=59 v=99
8766 On ch=2 n=64 v=99
8866 On ch=2 n=54 v=0
8870 On ch=2 n=47 v=0
8870 On ch=2 n=59 v=0
8870 On ch=2 n=64 v=0
8880 On ch=2 n=47 v=98
8881 On ch=2 n=54 v=98
8882 On ch=2 n=59 v=98
8883 On ch=2 n=64 v=98
8930 On ch=2 n=47 v=0
8933 On ch=2 n=54 v=0
8933 On ch=2 n=59 v=0
8933 On ch=2 n=64 v=0
8940 On ch=2 n=64 v=96
8941 On ch=2 n=59 v=96
8942 On ch=2 n=54 v=96
8943 On ch=2 n=47 v=96
9050 On ch=2 n=64 v=0
9053 On ch=2 n=59 v=0
9053 On ch=2 n=47 v=0
9060 On ch=2 n=54 v=0
9063 On ch=2 n=64 v=103
9066 On ch=2 n=59 v=100
9068 On ch=2 n=47 v=98
9070 On ch=2 n=54 v=96
9110 On ch=2 n=59 v=0
9113 On ch=2 n=64 v=0
9113 On ch=2 n=47 v=0
9113 On ch=2 n=54 v=0
9126 On ch=2 n=47 v=92
9128 On ch=2 n=54 v=92
9131 On ch=2 n=59 v=95
9135 On ch=2 n=63 v=98
9230 On ch=2 n=59 v=0
9232 On ch=2 n=54 v=0
9236 On ch=2 n=63 v=0
9239 On ch=2 n=47 v=0
9243 On ch=2 n=63 v=70
9243 On ch=2 n=59 v=70
9243 On ch=2 n=54 v=70
9243 On ch=2 n=47 v=70
9258 On ch=2 n=47 v=0
9258 On ch=2 n=63 v=0
9258 On ch=2 n=59 v=0
9258 On ch=2 n=54 v=0
9303 On ch=2 n=63 v=68
9304 On ch=2 n=59 v=68
9305 On ch=2 n=54 v=68
9306 On ch=2 n=47 v=68
9318 On ch=2 n=63 v=0
9319 On ch=2 n=59 v=0
9320 On ch=2 n=54 v=0
9321 On ch=2 n=47 v=0
9366 On ch=2 n=47 v=87
9367 On ch=2 n=54 v=87
9368 On ch=2 n=59 v=87
9369 On ch=2 n=63 v=87
9413 On ch=2 n=63 v=0
9416 On ch=2 n=47 v=0
9416 On ch=2 n=54 v=0
9416 On ch=2 n=59 v=0
9423 On ch=2 n=63 v=85
9424 On ch=2 n=59 v=85
9425 On ch=2 n=54 v=85
9426 On ch=2 n=47 v=85
9473 On ch=2 n=63 v=0
9476 On ch=2 n=59 v=0
9476 On ch=2 n=54 v=0
9476 On ch=2 n=47 v=0
9543 On ch=2 n=64 v=101
9545 On ch=2 n=59 v=101
9547 On ch=2 n=54 v=107
9548 On ch=2 n=47 v=107
9651 On ch=2 n=47 v=0
9654 On ch=2 n=59 v=0
9656 On ch=2 n=64 v=0
9658 On ch=2 n=54 v=0
9663 On ch=2 n=64 v=84
9665 On ch=2 n=59 v=84
9667 On ch=2 n=54 v=84
9669 On ch=2 n=47 v=84
9708 On ch=2 n=64 v=0
9710 On ch=2 n=59 v=0
9712 On ch=2 n=54 v=0
9714 On ch=2 n=47 v=0
9723 On ch=2 n=47 v=99
9725 On ch=2 n=54 v=99
9727 On ch=2 n=59 v=99
9729 On ch=2 n=64 v=99
9829 On ch=2 n=54 v=0
9833 On ch=2 n=47 v=0
9833 On ch=2 n=59 v=0
9833 On ch=2 n=64 v=0
9843 On ch=2 n=47 v=98
9844 On ch=2 n=54 v=98
9845 On ch=2 n=59 v=98
9846 On ch=2 n=64 v=98
9893 On ch=2 n=47 v=0
9896 On ch=2 n=54 v=0
9896 On ch=2 n=59 v=0
9896 On ch=2 n=64 v=0
9903 On ch=2 n=64 v=96
9904 On ch=2 n=59 v=96
9905 On ch=2 n=54 v=96
9906 On ch=2 n=47 v=96
10013 On ch=2 n=64 v=0
10016 On ch=2 n=59 v=0
10016 On ch=2 n=47 v=0
10023 On ch=2 n=54 v=0
10026 On ch=2 n=64 v=103
10029 On ch=2 n=59 v=100
10031 On ch=2 n=47 v=98
10033 On ch=2 n=54 v=96
10066 On ch=2 n=64 v=0
10073 On ch=2 n=59 v=0
10076 On ch=2 n=47 v=0
10076 On ch=2 n=54 v=0
10080 On ch=2 n=50 v=89
10085 On ch=2 n=57 v=89
10088 On ch=2 n=62 v=90
10091 On ch=2 n=66 v=90
10243 On ch=2 n=50 v=0
10245 On ch=2 n=57 v=0
10245 On ch=2 n=66 v=0
10246 On ch=2 n=62 v=0
10260 On ch=2 n=66 v=100
10262 On ch=2 n=62 v=100
10264 On ch=2 n=57 v=99
10265 On ch=2 n=50 v=99
10366 On ch=2 n=66 v=0
10368 On ch=2 n=50 v=0
10369 On ch=2 n=57 v=0
10370 On ch=2 n=62 v=0
10380 On ch=2 n=66 v=95
10382 On ch=2 n=62 v=95
10384 On ch=2 n=57 v=90
10386 On ch=2 n=50 v=90
10425 On ch=2 n=66 v=0
10427 On ch=2 n=62 v=0
10429 On ch=2 n=57 v=0
10431 On ch=2 n=50 v=0
10440 On ch=2 n=50 v=87
10442 On ch=2 n=57 v=87
10445 On ch=2 n=62 v=87
10446 On ch=2 n=66 v=87
10546 On ch=2 n=50 v=0
10550 On ch=2 n=57 v=0
10550 On ch=2 n=66 v=0
10553 On ch=2 n=62 v=0
10560 On ch=2 n=52 v=78
10564 On ch=2 n=61 v=79
10565 On ch=2 n=57 v=79
10566 On ch=2 n=64 v=79
10723 On ch=2 n=61 v=0
10726 On ch=2 n=64 v=0
10729 On ch=2 n=57 v=0
10733 On ch=2 n=52 v=0
10740 On ch=2 n=64 v=100
10742 On ch=2 n=61 v=100
10744 On ch=2 n=57 v=100
10746 On ch=2 n=52 v=100
10840 On ch=2 n=64 v=0
10843 On ch=2 n=52 v=0
10850 On ch=2 n=61 v=0
10853 On ch=2 n=57 v=0
10860 On ch=2 n=64 v=90
10862 On ch=2 n=61 v=90
10864 On ch=2 n=57 v=90
10866 On ch=2 n=52 v=90
10906 On ch=2 n=52 v=0
10906 On ch=2 n=64 v=0
10910 On ch=2 n=57 v=0
10913 On ch=2 n=61 v=0
10920 On ch=2 n=52 v=98
10922 On ch=2 n=57 v=98
10924 On ch=2 n=61 v=99
10926 On ch=2 n=64 v=99
11023 On ch=2 n=52 v=0
11030 On ch=2 n=57 v=0
11030 On ch=2 n=61 v=0
11033 On ch=2 n=64 v=0
11040 On ch=2 n=54 v=82
11044 On ch=2 n=62 v=82
11045 On ch=2 n=59 v=82
11046 On ch=2 n=66 v=82
11203 On ch=2 n=62 v=0
11206 On ch=2 n=66 v=0
11209 On ch=2 n=59 v=0
11213 On ch=2 n=54 v=0
11220 On ch=2 n=66 v=100
11222 On ch=2 n=62 v=100
11224 On ch=2 n=59 v=100
11226 On ch=2 n=54 v=100
11320 On ch=2 n=66 v=0
11323 On ch=2 n=54 v=0
11330 On ch=2 n=62 v=0
11333 On ch=2 n=59 v=0
11340 On ch=2 n=66 v=92
11342 On ch=2 n=62 v=92
11344 On ch=2 n=59 v=91
11346 On ch=2 n=54 v=91
11386 On ch=2 n=54 v=0
11386 On ch=2 n=66 v=0
11390 On ch=2 n=59 v=0
11393 On ch=2 n=62 v=0
11400 On ch=2 n=54 v=89
11402 On ch=2 n=59 v=89
11404 On ch=2 n=62 v=89
11406 On ch=2 n=66 v=89
11492 On ch=2 n=59 v=0
11494 On ch=2 n=62 v=0
11496 On ch=2 n=66 v=0
11503 On ch=2 n=54 v=0
11520 On ch=2 n=43 v=90
11522 On ch=2 n=50 v=90
11524 On ch=2 n=55 v=90
11526 On ch=2 n=59 v=90
11528 On ch=2 n=62 v=90
11530 On ch=2 n=67 v=90
11674 On ch=2 n=43 v=0
11676 On ch=2 n=50 v=0
11678 On ch=2 n=55 v=0
11680 On ch=2 n=59 v=0
11682 On ch=2 n=62 v=0
11684 On ch=2 n=67 v=0
11700 On ch=2 n=67 v=90
11702 On ch=2 n=62 v=90
11704 On ch=2 n=59 v=90
11706 On ch=2 n=55 v=90
11708 On ch=2 n=50 v=90
11710 On ch=2 n=43 v=90
11798 On ch=2 n=50 v=0
11800 On ch=2 n=43 v=0
11805 On ch=2 n=67 v=0
11807 On ch=2 n=62 v=0
11809 On ch=2 n=59 v=0
11811 On ch=2 n=55 v=0
11820 On ch=2 n=67 v=90
11822 On ch=2 n=62 v=90
11824 On ch=2 n=59 v=90
11826 On ch=2 n=55 v=90
11828 On ch=2 n=50 v=90
11830 On ch=2 n=43 v=90
11865 On ch=2 n=67 v=0
11867 On ch=2 n=62 v=0
11869 On ch=2 n=59 v=0
11871 On ch=2 n=55 v=0
11873 On ch=2 n=50 v=0
11875 On ch=2 n=43 v=0
11880 On ch=2 n=43 v=90
11882 On ch=2 n=50 v=90
11884 On ch=2 n=55 v=90
11886 On ch=2 n=59 v=90
11888 On ch=2 n=62 v=90
11890 On ch=2 n=67 v=90
11974 On ch=2 n=55 v=0
11976 On ch=2 n=59 v=0
11978 On ch=2 n=62 v=0
11980 On ch=2 n=67 v=0
11985 On ch=2 n=43 v=0
11987 On ch=2 n=50 v=0
12000 On ch=2 n=50 v=89
12005 On ch=2 n=57 v=89
12008 On ch=2 n=62 v=90
12011 On ch=2 n=66 v=90
12163 On ch=2 n=50 v=0
12165 On ch=2 n=57 v=0
12165 On ch=2 n=66 v=0
12166 On ch=2 n=62 v=0
12180 On ch=2 n=66 v=100
12182 On ch=2 n=62 v=100
12184 On ch=2 n=57 v=99
12185 On ch=2 n=50 v=99
12286 On ch=2 n=66 v=0
12288 On ch=2 n=50 v=0
12289 On ch=2 n=57 v=0
12290 On ch=2 n=62 v=0
12300 On ch=2 n=66 v=95
12302 On ch=2 n=62 v=95
12304 On ch=2 n=57 v=90
12306 On ch=2 n=50 v=90
12345 On ch=2 n=66 v=0
12347 On ch=2 n=62 v=0
12349 On ch=2 n=57 v=0
12351 On ch=2 n=50 v=0
12360 On ch=2 n=50 v=87
12362 On ch=2 n=57 v=87
12365 On ch=2 n=62 v=87
12366 On ch=2 n=66 v=87
12466 On ch=2 n=50 v=0
12470 On ch=2 n=57 v=0
12470 On ch=2 n=66 v=0
12473 On ch=2 n=62 v=0
12480 On ch=2 n=52 v=78
12484 On ch=2 n=61 v=79
12485 On ch=2 n=57 v=79
12486 On ch=2 n=64 v=79
12643 On ch=2 n=61 v=0
12646 On ch=2 n=64 v=0
12649 On ch=2 n=57 v=0
12653 On ch=2 n=52 v=0
12660 On ch=2 n=64 v=100
12662 On ch=2 n=61 v=100
12664 On ch=2 n=57 v=100
12666 On ch=2 n=52 v=100
12760 On ch=2 n=64 v=0
12763 On ch=2 n=52 v=0
12770 On ch=2 n=61 v=0
12773 On ch=2 n=57 v=0
12780 On ch=2 n=64 v=90
12782 On ch=2 n=61 v=90
12784 On ch=2 n=57 v=90
12786 On ch=2 n=52 v=90
12826 On ch=2 n=52 v=0
12826 On ch=2 n=64 v=0
12830 On ch=2 n=57 v=0
12833 On ch=2 n=61 v=0
12840 On ch=2 n=52 v=98
12842 On ch=2 n=57 v=98
12844 On ch=2 n=61 v=99
12846 On ch=2 n=64 v=99
12943 On ch=2 n=52 v=0
12950 On ch=2 n=57 v=0
12950 On ch=2 n=61 v=0
12953 On ch=2 n=64 v=0
12960 On ch=2 n=54 v=82
12964 On ch=2 n=62 v=82
12965 On ch=2 n=59 v=82
12966 On ch=2 n=66 v=82
13123 On ch=2 n=62 v=0
13126 On ch=2 n=66 v=0
13129 On ch=2 n=59 v=0
13133 On ch=2 n=54 v=0
13140 On ch=2 n=66 v=100
13142 On ch=2 n=62 v=100
13144 On ch=2 n=59 v=100
13146 On ch=2 n=54 v=100
13240 On ch=2 n=66 v=0
13243 On ch=2 n=54 v=0
13250 On ch=2 n=62 v=0
13253 On ch=2 n=59 v=0
13260 On ch=2 n=66 v=92
13262 On ch=2 n=62 v=92
13264 On ch=2 n=59 v=91
13266 On ch=2 n=54 v=91
13306 On ch=2 n=54 v=0
13306 On ch=2 n=66 v=0
13310 On ch=2 n=59 v=0
13313 On ch=2 n=62 v=0
13320 On ch=2 n=54 v=89
13322 On ch=2 n=59 v=89
13324 On ch=2 n=62 v=89
13326 On ch=2 n=66 v=89
13412 On ch=2 n=59 v=0
13414 On ch=2 n=62 v=0
13416 On ch=2 n=66 v=0
13423 On ch=2 n=54 v=0
13440 On ch=2 n=43 v=90
13442 On ch=2 n=50 v=90
13444 On ch=2 n=55 v=90
13446 On ch=2 n=59 v=90
13448 On ch=2 n=62 v=90
13450 On ch=2 n=67 v=90
13594 On ch=2 n=43 v=0
13596 On ch=2 n=50 v=0
13598 On ch=2 n=55 v=0
13600 On ch=2 n=59 v=0
13602 On ch=2 n=62 v=0
13604 On ch=2 n=67 v=0
13620 On ch=2 n=67 v=90
13622 On ch=2 n=62 v=90
13624 On ch=2 n=59 v=90
13626 On ch=2 n=55 v=90
13628 On ch=2 n=50 v=90
13630 On ch=2 n=43 v=90
13718 On ch=2 n=50 v=0
13720 On ch=2 n=43 v=0
13725 On ch=2 n=67 v=0
13727 On ch=2 n=62 v=0
13729 On ch=2 n=59 v=0
13731 On ch=2 n=55 v=0
13740 On ch=2 n=67 v=90
13742 On ch=2 n=62 v=90
13744 On ch=2 n=59 v=90
13746 On ch=2 n=55 v=90
13748 On ch=2 n=50 v=90
13750 On ch=2 n=43 v=90
13785 On ch=2 n=67 v=0
13787 On ch=2 n=62 v=0
13789 On ch=2 n=59 v=0
13791 On ch=2 n=55 v=0
13793 On ch=2 n=50 v=0
13795 On ch=2 n=43 v=0
13800 On ch=2 n=43 v=90
13802 On ch=2 n=50 v=90
13804 On ch=2 n=55 v=90
13806 On ch=2 n=59 v=90
13808 On ch=2 n=62 v=90
13810 On ch=2 n=67 v=90
13894 On ch=2 n=55 v=0
13896 On ch=2 n=59 v=0
13898 On ch=2 n=62 v=0
13900 On ch=2 n=67 v=0
13905 On ch=2 n=43 v=0
13907 On ch=2 n=50 v=0
13926 On ch=2 n=47 v=92
13928 On ch=2 n=54 v=92
13931 On ch=2 n=59 v=95
13935 On ch=2 n=63 v=98
14030 On ch=2 n=59 v=0
14032 On ch=2 n=54 v=0
14036 On ch=2 n=63 v=0
14039 On ch=2 n=47 v=0
14043 On ch=2 n=63 v=70
14043 On ch=2 n=47 v=70
14043 On ch=2 n=54 v=70
14043 On ch=2 n=59 v=70
14058 On ch=2 n=59 v=0
14058 On ch=2 n=63 v=0
14058 On ch=2 n=47 v=0
14058 On ch=2 n=54 v=0
14103 On ch=2 n=63 v=68
14104 On ch=2 n=59 v=68
14105 On ch=2 n=54 v=68
14106 On ch=2 n=47 v=68
14118 On ch=2 n=63 v=0
14119 On ch=2 n=59 v=0
14120 On ch=2 n=54 v=0
14121 On ch=2 n=47 v=0
14166 On ch=2 n=47 v=87
14167 On ch=2 n=54 v=87
14168 On ch=2 n=59 v=87
14169 On ch=2 n=63 v=87
14213 On ch=2 n=63 v=0
14216 On ch=2 n=47 v=0
14216 On ch=2 n=54 v=0
14216 On ch=2 n=59 v=0
14223 On ch=2 n=63 v=85
14224 On ch=2 n=59 v=85
14225 On ch=2 n=54 v=85
14226 On ch=2 n=47 v=85
14273 On ch=2 n=63 v=0
14276 On ch=2 n=59 v=0
14276 On ch=2 n=54 v=0
14276 On ch=2 n=47 v=0
14343 On ch=2 n=64 v=101
14345 On ch=2 n=59 v=101
14347 On ch=2 n=54 v=107
14348 On ch=2 n=47 v=107
14451 On ch=2 n=47 v=0
14454 On ch=2 n=59 v=0
14456 On ch=2 n=64 v=0
14458 On ch=2 n=54 v=0
14463 On ch=2 n=64 v=84
14465 On ch=2 n=59 v=84
14467 On ch=2 n=54 v=84
14469 On ch=2 n=47 v=84
14508 On ch=2 n=64 v=0
14510 On ch=2 n=59 v=0
14512 On ch=2 n=54 v=0
14514 On ch=2 n=47 v=0
14523 On ch=2 n=47 v=99
14525 On ch=2 n=54 v=99
14527 On ch=2 n=59 v=99
14529 On ch=2 n=64 v=99
14629 On ch=2 n=54 v=0
14633 On ch=2 n=47 v=0
14633 On ch=2 n=59 v=0
14633 On ch=2 n=64 v=0
14643 On ch=2 n=47 v=98
14644 On ch=2 n=54 v=98
14645 On ch=2 n=59 v=98
14646 On ch=2 n=64 v=98
14693 On ch=2 n=47 v=0
14696 On ch=2 n=54 v=0
14696 On ch=2 n=59 v=0
14696 On ch=2 n=64 v=0
14703 On ch=2 n=64 v=96
14704 On ch=2 n=59 v=96
14705 On ch=2 n=54 v=96
14706 On ch=2 n=47 v=96
14813 On ch=2 n=64 v=0
14816 On ch=2 n=59 v=0
14816 On ch=2 n=47 v=0
14823 On ch=2 n=54 v=0
14826 On ch=2 n=64 v=103
14829 On ch=2 n=59 v=100
14831 On ch=2 n=47 v=98
14833 On ch=2 n=54 v=96
14866 On ch=2 n=64 v=0
14873 On ch=2 n=59 v=0
14876 On ch=2 n=47 v=0
14876 On ch=2 n=54 v=0
14886 On ch=2 n=47 v=92
14888 On ch=2 n=54 v=92
14891 On ch=2 n=59 v=95
14895 On ch=2 n=63 v=98
14990 On ch=2 n=59 v=0
14992 On ch=2 n=54 v=0
14996 On ch=2 n=63 v=0
14999 On ch=2 n=47 v=0
15003 On ch=2 n=63 v=70
15003 On ch=2 n=47 v=70
15003 On ch=2 n=54 v=70
15003 On ch=2 n=59 v=70
15018 On ch=2 n=59 v=0
15018 On ch=2 n=63 v=0
15018 On ch=2 n=47 v=0
15018 On ch=2 n=54 v=0
15063 On ch=2 n=63 v=68
15064 On ch=2 n=59 v=68
15065 On ch=2 n=54 v=68
15066 On ch=2 n=47 v=68
15078 On ch=2 n=63 v=0
15079 On ch=2 n=59 v=0
15080 On ch=2 n=54 v=0
15081 On ch=2 n=47 v=0
15126 On ch=2 n=47 v=87
15127 On ch=2 n=54 v=87
15128 On ch=2 n=59 v=87
15129 On ch=2 n=63 v=87
15173 On ch=2 n=63 v=0
15176 On ch=2 n=47 v=0
15176 On ch=2 n=54 v=0
15176 On ch=2 n=59 v=0
15183 On ch=2 n=63 v=85
15184 On ch=2 n=59 v=85
15185 On ch=2 n=54 v=85
15186 On ch=2 n=47 v=85
15233 On ch=2 n=63 v=0
15236 On ch=2 n=59 v=0
15236 On ch=2 n=54 v=0
15236 On ch=2 n=47 v=0
15303 On ch=2 n=64 v=101
15305 On ch=2 n=59 v=101
15307 On ch=2 n=54 v=107
15308 On ch=2 n=47 v=107
15411 On ch=2 n=47 v=0
15414 On ch=2 n=59 v=0
15416 On ch=2 n=64 v=0
15418 On ch=2 n=54 v=0
15423 On ch=2 n=64 v=84
15425 On ch=2 n=59 v=84
15427 On ch=2 n=54 v=84
15429 On ch=2 n=47 v=84
15468 On ch=2 n=64 v=0
15470 On ch=2 n=59 v=0
15472 On ch=2 n=54 v=0
15474 On ch=2 n=47 v=0
15483 On ch=2 n=47 v=99
15485 On ch=2 n=54 v=99
15487 On ch=2 n=59 v=99
15489 On ch=2 n=64 v=99
15589 On ch=2 n=54 v=0
15593 On ch=2 n=47 v=0
15593 On ch=2 n=59 v=0
15593 On ch=2 n=64 v=0
15603 On ch=2 n=47 v=98
15604 On ch=2 n=54 v=98
15605 On ch=2 n=59 v=98
15606 On ch=2 n=64 v=98
15653 On ch=2 n=47 v=0
15656 On ch=2 n=54 v=0
15656 On ch=2 n=59 v=0
15656 On ch=2 n=64 v=0
15663 On ch=2 n=64 v=96
15664 On ch=2 n=59 v=96
15665 On ch=2 n=54 v=96
15666 On ch=2 n=47 v=96
15773 On ch=2 n=64 v=0
15776 On ch=2 n=59 v=0
15776 On ch=2 n=47 v=0
15783 On ch=2 n=54 v=0
15786 On ch=2 n=64 v=103
15789 On ch=2 n=59 v=100
15791 On ch=2 n=47 v=98
15793 On ch=2 n=54 v=96
15826 On ch=2 n=64 v=0
15833 On ch=2 n=59 v=0
15836 On ch=2 n=47 v=0
15836 On ch=2 n=54 v=0
15846 On ch=2 n=47 v=92
15848 On ch=2 n=54 v=92
15851 On ch=2 n=59 v=95
15855 On ch=2 n=63 v=98
15950 On ch=2 n=59 v=0
15952 On ch=2 n=54 v=0
15956 On ch=2 n=63 v=0
15959 On ch=2 n=47 v=0
15963 On ch=2 n=63 v=70
15963 On ch=2 n=47 v=70
15963 On ch=2 n=54 v=70
15963 On ch=2 n=59 v=70
15978 On ch=2 n=59 v=0
15978 On ch=2 n=63 v=0
15978 On ch=2 n=47 v=0
15978 On ch=2 n=54 v=0
16023 On ch=2 n=63 v=68
16024 On ch=2 n=59 v=68
16025 On ch=2 n=54 v=68
16026 On ch=2 n=47 v=68
16038 On ch=2 n=63 v=0
16039 On ch=2 n=59 v=0
16040 On ch=2 n=54 v=0
16041 On ch=2 n=47 v=0
16086 On ch=2 n=47 v=87
16087 On ch=2 n=54 v=87
16088 On ch=2 n=59 v=87
16089 On ch=2 n=63 v=87
16133 On ch=2 n=63 v=0
16136 On ch=2 n=47 v=0
16136 On ch=2 n=54 v=0
16136 On ch=2 n=59 v=0
16143 On ch=2 n=63 v=85
16144 On ch=2 n=59 v=85
16145 On ch=2 n=54 v=85
16146 On ch=2 n=47 v=85
16193 On ch=2 n=63 v=0
16196 On ch=2 n=59 v=0
16196 On ch=2 n=54 v=0
16196 On ch=2 n=47 v=0
16263 On ch=2 n=64 v=101
16265 On ch=2 n=59 v=101
16267 On ch=2 n=54 v=107
16268 On ch=2 n=47 v=107
16371 On ch=2 n=47 v=0
16374 On ch=2 n=59 v=0
16376 On ch=2 n=64 v=0
16378 On ch=2 n=54 v=0
16383 On ch=2 n=64 v=84
16385 On ch=2 n=59 v=84
16387 On ch=2 n=54 v=84
16389 On ch=2 n=47 v=84
16428 On ch=2 n=64 v=0
16430 On ch=2 n=59 v=0
16432 On ch=2 n=54 v=0
16434 On ch=2 n=47 v=0
16443 On ch=2 n=47 v=99
16445 On ch=2 n=54 v=99
16447 On ch=2 n=59 v=99
16449 On ch=2 n=64 v=99
16549 On ch=2 n=54 v=0
16553 On ch=2 n=47 v=0
16553 On ch=2 n=59 v=0
16553 On ch=2 n=64 v=0
16563 On ch=2 n=47 v=98
16564 On ch=2 n=54 v=98
16565 On ch=2 n=59 v=98
16566 On ch=2 n=64 v=98
16613 On ch=2 n=47 v=0
16616 On ch=2 n=54 v=0
16616 On ch=2 n=59 v=0
16616 On ch=2 n=64 v=0
16623 On ch=2 n=64 v=96
16624 On ch=2 n=59 v=96
16625 On ch=2 n=54 v=96
16626 On ch=2 n=47 v=96
16733 On ch=2 n=64 v=0
16736 On ch=2 n=59 v=0
16736 On ch=2 n=47 v=0
16743 On ch=2 n=54 v=0
16746 On ch=2 n=64 v=103
16749 On ch=2 n=59 v=100
16751 On ch=2 n=47 v=98
16753 On ch=2 n=54 v=96
16786 On ch=2 n=64 v=0
16793 On ch=2 n=59 v=0
16796 On ch=2 n=47 v=0
16796 On ch=2 n=54 v=0
16806 On ch=2 n=47 v=92
16808 On ch=2 n=54 v=92
16811 On ch=2 n=59 v=95
16815 On ch=2 n=63 v=98
16910 On ch=2 n=59 v=0
16912 On ch=2 n=54 v=0
16916 On ch=2 n=63 v=0
16919 On ch=2 n=47 v=0
16923 On ch=2 n=63 v=70
16923 On ch=2 n=47 v=70
16923 On ch=2 n=54 v=70
16923 On ch=2 n=59 v=70
16938 On ch=2 n=59 v=0
16938 On ch=2 n=63 v=0
16938 On ch=2 n=47 v=0
16938 On ch=2 n=54 v=0
16983 On ch=2 n=63 v=68
16984 On ch=2 n=59 v=68
16985 On ch=2 n=54 v=68
16986 On ch=2 n=47 v=68
16998 On ch=2 n=63 v=0
16999 On ch=2 n=59 v=0
17000 On ch=2 n=54 v=0
17001 On ch=2 n=47 v=0
17046 On ch=2 n=47 v=87
17047 On ch=2 n=54 v=87
17048 On ch=2 n=59 v=87
17049 On ch=2 n=63 v=87
17093 On ch=2 n=63 v=0
17096 On ch=2 n=47 v=0
17096 On ch=2 n=54 v=0
17096 On ch=2 n=59 v=0
17103 On ch=2 n=63 v=85
17104 On ch=2 n=59 v=85
17105 On ch=2 n=54 v=85
17106 On ch=2 n=47 v=85
17153 On ch=2 n=63 v=0
17156 On ch=2 n=59 v=0
17156 On ch=2 n=54 v=0
17156 On ch=2 n=47 v=0
17223 On ch=2 n=64 v=101
17225 On ch=2 n=59 v=101
17227 On ch=2 n=54 v=107
17228 On ch=2 n=47 v=107
17331 On ch=2 n=47 v=0
17334 On ch=2 n=59 v=0
17336 On ch=2 n=64 v=0
17338 On ch=2 n=54 v=0
17343 On ch=2 n=64 v=84
17345 On ch=2 n=59 v=84
17347 On ch=2 n=54 v=84
17349 On ch=2 n=47 v=84
17388 On ch=2 n=64 v=0
17390 On ch=2 n=59 v=0
17392 On ch=2 n=54 v=0
17394 On ch=2 n=47 v=0
17403 On ch=2 n=47 v=99
17405 On ch=2 n=54 v=99
17407 On ch=2 n=59 v=99
17409 On ch=2 n=64 v=99
17509 On ch=2 n=54 v=0
17513 On ch=2 n=47 v=0
17513 On ch=2 n=59 v=0
17513 On ch=2 n=64 v=0
17523 On ch=2 n=47 v=98
17524 On ch=2 n=54 v=98
17525 On ch=2 n=59 v=98
17526 On ch=2 n=64 v=98
17573 On ch=2 n=47 v=0
17576 On ch=2 n=54 v=0
17576 On ch=2 n=59 v=0
17576 On ch=2 n=64 v=0
17583 On ch=2 n=64 v=96
17584 On ch=2 n=59 v=96
17585 On ch=2 n=54 v=96
17586 On ch=2 n=47 v=96
17693 On ch=2 n=64 v=0
17696 On ch=2 n=59 v=0
17696 On ch=2 n=47 v=0
17703 On ch=2 n=54 v=0
17706 On ch=2 n=64 v=103
17709 On ch=2 n=59 v=100
17711 On ch=2 n=47 v=98
17713 On ch=2 n=54 v=96
17746 On ch=2 n=64 v=0
17753 On ch=2 n=59 v=0
17756 On ch=2 n=47 v=0
17756 On ch=2 n=54 v=0
17766 On ch=2 n=47 v=92
17768 On ch=2 n=54 v=92
17771 On ch=2 n=59 v=95
17775 On ch=2 n=63 v=98
17870 On ch=2 n=59 v=0
17872 On ch=2 n=54 v=0
17876 On ch=2 n=63 v=0
17879 On ch=2 n=47 v=0
17883 On ch=2 n=63 v=70
17883 On ch=2 n=47 v=70
17883 On ch=2 n=54 v=70
17883 On ch=2 n=59 v=70
17898 On ch=2 n=59 v=0
17898 On ch=2 n=63 v=0
17898 On ch=2 n=47 v=0
17898 On ch=2 n=54 v=0
17943 On ch=2 n=63 v=68
17944 On ch=2 n=59 v=68
17945 On ch=2 n=54 v=68
17946 On ch=2 n=47 v=68
17958 On ch=2 n=63 v=0
17959 On ch=2 n=59 v=0
17960 On ch=2 n=54 v=0
17961 On ch=2 n=47 v=0
18006 On ch=2 n=47 v=87
18007 On ch=2 n=54 v=87
18008 On ch=2 n=59 v=87
18009 On ch=2 n=63 v=87
18053 On ch=2 n=63 v=0
18056 On ch=2 n=47 v=0
18056 On ch=2 n=54 v=0
18056 On ch=2 n=59 v=0
18063 On ch=2 n=63 v=85
18064 On ch=2 n=59 v=85
18065 On ch=2 n=54 v=85
18066 On ch=2 n=47 v=85
18113 On ch=2 n=63 v=0
18116 On ch=2 n=59 v=0
18116 On ch=2 n=54 v=0
18116 On ch=2 n=47 v=0
18183 On ch=2 n=64 v=101
18185 On ch=2 n=59 v=101
18187 On ch=2 n=54 v=107
18188 On ch=2 n=47 v=107
18291 On ch=2 n=47 v=0
18294 On ch=2 n=59 v=0
18296 On ch=2 n=64 v=0
18298 On ch=2 n=54 v=0
18303 On ch=2 n=64 v=84
18305 On ch=2 n=59 v=84
18307 On ch=2 n=54 v=84
18309 On ch=2 n=47 v=84
18348 On ch=2 n=64 v=0
18350 On ch=2 n=59 v=0
18352 On ch=2 n=54 v=0
18354 On ch=2 n=47 v=0
18363 On ch=2 n=47 v=99
18365 On ch=2 n=54 v=99
18367 On ch=2 n=59 v=99
18369 On ch=2 n=64 v=99
18469 On ch=2 n=54 v=0
18473 On ch=2 n=47 v=0
18473 On ch=2 n=59 v=0
18473 On ch=2 n=64 v=0
18483 On ch=2 n=47 v=98
18484 On ch=2 n=54 v=98
18485 On ch=2 n=59 v=98
18486 On ch=2 n=64 v=98
18533 On ch=2 n=47 v=0
18536 On ch=2 n=54 v=0
18536 On ch=2 n=59 v=0
18536 On ch=2 n=64 v=0
18543 On ch=2 n=64 v=96
18544 On ch=2 n=59 v=96
18545 On ch=2 n=54 v=96
18546 On ch=2 n=47 v=96
18653 On ch=2 n=64 v=0
18656 On ch=2 n=59 v=0
18656 On ch=2 n=47 v=0
18663 On ch=2 n=54 v=0
18666 On ch=2 n=64 v=103
18669 On ch=2 n=59 v=100
18671 On ch=2 n=47 v=98
18673 On ch=2 n=54 v=96
18706 On ch=2 n=64 v=0
18713 On ch=2 n=59 v=0
18716 On ch=2 n=47 v=0
18716 On ch=2 n=54 v=0
18726 On ch=2 n=47 v=92
18728 On ch=2 n=54 v=92
18731 On ch=2 n=59 v=95
18735 On ch=2 n=63 v=98
18830 On ch=2 n=59 v=0
18832 On ch=2 n=54 v=0
18836 On ch=2 n=63 v=0
18839 On ch=2 n=47 v=0
18843 On ch=2 n=63 v=70
18843 On ch=2 n=47 v=70
18843 On ch=2 n=54 v=70
18843 On ch=2 n=59 v=70
18858 On ch=2 n=59 v=0
18858 On ch=2 n=63 v=0
18858 On ch=2 n=47 v=0
18858 On ch=2 n=54 v=0
18903 On ch=2 n=63 v=68
18904 On ch=2 n=59 v=68
18905 On ch=2 n=54 v=68
18906 On ch=2 n=47 v=68
18918 On ch=2 n=63 v=0
18919 On ch=2 n=59 v=0
18920 On ch=2 n=54 v=0
18921 On ch=2 n=47 v=0
18966 On ch=2 n=47 v=87
18967 On ch=2 n=54 v=87
18968 On ch=2 n=59 v=87
18969 On ch=2 n=63 v=87
19013 On ch=2 n=63 v=0
19016 On ch=2 n=47 v=0
19016 On ch=2 n=54 v=0
19016 On ch=2 n=59 v=0
19023 On ch=2 n=63 v=85
19024 On ch=2 n=59 v=85
19025 On ch=2 n=54 v=85
19026 On ch=2 n=47 v=85
19073 On ch=2 n=63 v=0
19076 On ch=2 n=59 v=0
19076 On ch=2 n=54 v=0
19076 On ch=2 n=47 v=0
19143 On ch=2 n=64 v=101
19145 On ch=2 n=59 v=101
19147 On ch=2 n=54 v=107
19148 On ch=2 n=47 v=107
19251 On ch=2 n=47 v=0
19254 On ch=2 n=59 v=0
19256 On ch=2 n=64 v=0
19258 On ch=2 n=54 v=0
19263 On ch=2 n=64 v=84
19265 On ch=2 n=59 v=84
19267 On ch=2 n=54 v=84
19269 On ch=2 n=47 v=84
19308 On ch=2 n=64 v=0
19310 On ch=2 n=59 v=0
19312 On ch=2 n=54 v=0
19314 On ch=2 n=47 v=0
19323 On ch=2 n=47 v=99
19325 On ch=2 n=54 v=99
19327 On ch=2 n=59 v=99
19329 On ch=2 n=64 v=99
19429 On ch=2 n=54 v=0
19433 On ch=2 n=47 v=0
19433 On ch=2 n=59 v=0
19433 On ch=2 n=64 v=0
19443 On ch=2 n=47 v=98
19444 On ch=2 n=54 v=98
19445 On ch=2 n=59 v=98
19446 On ch=2 n=64 v=98
19493 On ch=2 n=47 v=0
19496 On ch=2 n=54 v=0
19496 On ch=2 n=59 v=0
19496 On ch=2 n=64 v=0
19503 On ch=2 n=64 v=96
19504 On ch=2 n=59 v=96
19505 On ch=2 n=54 v=96
19506 On ch=2 n=47 v=96
19613 On ch=2 n=64 v=0
19616 On ch=2 n=59 v=0
19616 On ch=2 n=47 v=0
19623 On ch=2 n=54 v=0
19626 On ch=2 n=64 v=103
19629 On ch=2 n=59 v=100
19631 On ch=2 n=47 v=98
19633 On ch=2 n=54 v=96
19666 On ch=2 n=64 v=0
19673 On ch=2 n=59 v=0
19676 On ch=2 n=47 v=0
19676 On ch=2 n=54 v=0
19680 On ch=2 n=43 v=90
19682 On ch=2 n=50 v=90
19684 On ch=2 n=55 v=90
19686 On ch=2 n=59 v=90
19688 On ch=2 n=62 v=90
19690 On ch=2 n=67 v=90
19834 On ch=2 n=43 v=0
19836 On ch=2 n=50 v=0
19838 On ch=2 n=55 v=0
19840 On ch=2 n=59 v=0
19842 On ch=2 n=62 v=0
19844 On ch=2 n=67 v=0
19860 On ch=2 n=67 v=90
19862 On ch=2 n=62 v=90
19864 On ch=2 n=59 v=90
19866 On ch=2 n=55 v=90
19868 On ch=2 n=50 v=90
19870 On ch=2 n=43 v=90
19958 On ch=2 n=50 v=0
19960 On ch=2 n=43 v=0
19965 On ch=2 n=67 v=0
19967 On ch=2 n=62 v=0
19969 On ch=2 n=59 v=0
19971 On ch=2 n=55 v=0
19980 On ch=2 n=67 v=90
19982 On ch=2 n=62 v=90
19984 On ch=2 n=59 v=90
19986 On ch=2 n=55 v=90
19988 On ch=2 n=50 v=90
19990 On ch=2 n=43 v=90
20025 On ch=2 n=67 v=0
20027 On ch=2 n=62 v=0
20029 On ch=2 n=59 v=0
20031 On ch=2 n=55 v=0
20033 On ch=2 n=50 v=0
20035 On ch=2 n=43 v=0
20040 On ch=2 n=43 v=90
20042 On ch=2 n=50 v=90
20044 On ch=2 n=55 v=90
20046 On ch=2 n=59 v=90
20048 On ch=2 n=62 v=90
20050 On ch=2 n=67 v=90
20146 On ch=2 n=62 v=0
20150 On ch=2 n=59 v=0
20150 On ch=2 n=50 v=0
20150 On ch=2 n=43 v=0
20153 On ch=2 n=67 v=0
20153 On ch=2 n=55 v=0
20160 On ch=2 n=52 v=90
20163 On ch=2 n=59 v=90
20166 On ch=2 n=64 v=90
20168 On ch=2 n=68 v=90
20171 On ch=2 n=71 v=90
20310 On ch=2 n=68 v=0
20310 On ch=2 n=52 v=0
20313 On ch=2 n=59 v=0
20313 On ch=2 n=64 v=0
20313 On ch=2 n=71 v=0
20340 On ch=2 n=71 v=90
20343 On ch=2 n=68 v=90
20345 On ch=2 n=64 v=90
20346 On ch=2 n=59 v=90
20349 On ch=2 n=52 v=90
20450 On ch=2 n=71 v=0
20453 On ch=2 n=68 v=0
20455 On ch=2 n=64 v=0
20456 On ch=2 n=59 v=0
20459 On ch=2 n=52 v=0
20460 On ch=2 n=71 v=90
20462 On ch=2 n=68 v=90
20464 On ch=2 n=64 v=90
20466 On ch=2 n=59 v=90
20468 On ch=2 n=52 v=90
20506 On ch=2 n=68 v=0
20506 On ch=2 n=71 v=0
20510 On ch=2 n=59 v=0
20510 On ch=2 n=64 v=0
20510 On ch=2 n=52 v=0
20520 On ch=2 n=52 v=90
20522 On ch=2 n=59 v=90
20524 On ch=2 n=64 v=90
20526 On ch=2 n=68 v=90
20528 On ch=2 n=71 v=90
20623 On ch=2 n=52 v=0
20626 On ch=2 n=64 v=0
20630 On ch=2 n=59 v=0
20630 On ch=2 n=68 v=0
20630 On ch=2 n=71 v=0
20646 On ch=2 n=47 v=92
20648 On ch=2 n=54 v=92
20651 On ch=2 n=59 v=95
20655 On ch=2 n=63 v=98
20750 On ch=2 n=59 v=0
20752 On ch=2 n=54 v=0
20756 On ch=2 n=63 v=0
20759 On ch=2 n=47 v=0
20763 On ch=2 n=63 v=70
20763 On ch=2 n=47 v=70
20763 On ch=2 n=54 v=70
20763 On ch=2 n=59 v=70
20778 On ch=2 n=59 v=0
20778 On ch=2 n=63 v=0
20778 On ch=2 n=47 v=0
20778 On ch=2 n=54 v=0
20823 On ch=2 n=63 v=68
20824 On ch=2 n=59 v=68
20825 On ch=2 n=54 v=68
20826 On ch=2 n=47 v=68
20838 On ch=2 n=63 v=0
20839 On ch=2 n=59 v=0
20840 On ch=2 n=54 v=0
20841 On ch=2 n=47 v=0
20886 On ch=2 n=47 v=87
20887 On ch=2 n=54 v=87
20888 On ch=2 n=59 v=87
20889 On ch=2 n=63 v=87
20933 On ch=2 n=63 v=0
20936 On ch=2 n=47 v=0
20936 On ch=2 n=54 v=0
20936 On ch=2 n=59 v=0
20943 On ch=2 n=63 v=85
20944 On ch=2 n=59 v=85
20945 On ch=2 n=54 v=85
20946 On ch=2 n=47 v=85
20993 On ch=2 n=63 v=0
20996 On ch=2 n=59 v=0
20996 On ch=2 n=54 v=0
20996 On ch=2 n=47 v=0
21063 On ch=2 n=64 v=101
21065 On ch=2 n=59 v=101
21067 On ch=2 n=54 v=107
21068 On ch=2 n=47 v=107
21171 On ch=2 n=47 v=0
21174 On ch=2 n=59 v=0
21176 On ch=2 n=64 v=0
21178 On ch=2 n=54 v=0
21183 On ch=2 n=64 v=84
21185 On ch=2 n=59 v=84
21187 On ch=2 n=54 v=84
21189 On ch=2 n=47 v=84
21228 On ch=2 n=64 v=0
21230 On ch=2 n=59 v=0
21232 On ch=2 n=54 v=0
21234 On ch=2 n=47 v=0
21243 On ch=2 n=47 v=99
21245 On ch=2 n=54 v=99
21247 On ch=2 n=59 v=99
21249 On ch=2 n=64 v=99
21349 On ch=2 n=54 v=0
21353 On ch=2 n=47 v=0
21353 On ch=2 n=59 v=0
21353 On ch=2 n=64 v=0
21363 On ch=2 n=47 v=98
21364 On ch=2 n=54 v=98
21365 On ch=2 n=59 v=98
21366 On ch=2 n=64 v=98
21413 On ch=2 n=47 v=0
21416 On ch=2 n=54 v=0
21416 On ch=2 n=59 v=0
21416 On ch=2 n=64 v=0
21423 On ch=2 n=64 v=96
21424 On ch=2 n=59 v=96
21425 On ch=2 n=54 v=96
21426 On ch=2 n=47 v=96
21533 On ch=2 n=64 v=0
21536 On ch=2 n=59 v=0
21536 On ch=2 n=47 v=0
21543 On ch=2 n=54 v=0
21546 On ch=2 n=64 v=103
21549 On ch=2 n=59 v=100
21551 On ch=2 n=47 v=98
21553 On ch=2 n=54 v=96
21586 On ch=2 n=64 v=0
21593 On ch=2 n=59 v=0
21596 On ch=2 n=47 v=0
21596 On ch=2 n=54 v=0
21600 On ch=2 n=43 v=90
21602 On ch=2 n=50 v=90
21604 On ch=2 n=55 v=90
21606 On ch=2 n=59 v=90
21608 On ch=2 n=62 v=90
21610 On ch=2 n=67 v=90
21754 On ch=2 n=43 v=0
21756 On ch=2 n=50 v=0
21758 On ch=2 n=55 v=0
21760 On ch=2 n=59 v=0
21762 On ch=2 n=62 v=0
21764 On ch=2 n=67 v=0
21780 On ch=2 n=67 v=90
21782 On ch=2 n=62 v=90
21784 On ch=2 n=59 v=90
21786 On ch=2 n=55 v=90
21788 On ch=2 n=50 v=90
21790 On ch=2 n=43 v=90
21878 On ch=2 n=50 v=0
21880 On ch=2 n=43 v=0
21885 On ch=2 n=67 v=0
21887 On ch=2 n=62 v=0
21889 On ch=2 n=59 v=0
21891 On ch=2 n=55 v=0
21900 On ch=2 n=67 v=90
21902 On ch=2 n=62 v=90
21904 On ch=2 n=59 v=90
21906 On ch=2 n=55 v=90
21908 On ch=2 n=50 v=90
21910 On ch=2 n=43 v=90
21945 On ch=2 n=67 v=0
21947 On ch=2 n=62 v=0
21949 On ch=2 n=59 v=0
21951 On ch=2 n=55 v=0
21953 On ch=2 n=50 v=0
21955 On ch=2 n=43 v=0
21960 On ch=2 n=43 v=90
21962 On ch=2 n=50 v=90
21964 On ch=2 n=55 v=90
21966 On ch=2 n=59 v=90
21968 On ch=2 n=62 v=90
21970 On ch=2 n=67 v=90
22066 On ch=2 n=62 v=0
22070 On ch=2 n=59 v=0
22070 On ch=2 n=50 v=0
22070 On ch=2 n=43 v=0
22073 On ch=2 n=67 v=0
22073 On ch=2 n=55 v=0
22080 On ch=2 n=52 v=90
22083 On ch=2 n=59 v=90
22086 On ch=2 n=64 v=90
22088 On ch=2 n=68 v=90
22091 On ch=2 n=71 v=90
22230 On ch=2 n=68 v=0
22230 On ch=2 n=52 v=0
22233 On ch=2 n=59 v=0
22233 On ch=2 n=64 v=0
22233 On ch=2 n=71 v=0
22260 On ch=2 n=71 v=90
22263 On ch=2 n=68 v=90
22265 On ch=2 n=64 v=90
22266 On ch=2 n=59 v=90
22269 On ch=2 n=52 v=90
22370 On ch=2 n=71 v=0
22373 On ch=2 n=68 v=0
22375 On ch=2 n=64 v=0
22376 On ch=2 n=59 v=0
22379 On ch=2 n=52 v=0
22380 On ch=2 n=71 v=90
22382 On ch=2 n=68 v=90
22384 On ch=2 n=64 v=90
22386 On ch=2 n=59 v=90
22388 On ch=2 n=52 v=90
22426 On ch=2 n=68 v=0
22426 On ch=2 n=71 v=0
22430 On ch=2 n=59 v=0
22430 On ch=2 n=64 v=0
22430 On ch=2 n=52 v=0
22440 On ch=2 n=52 v=90
22442 On ch=2 n=59 v=90
22444 On ch=2 n=64 v=90
22446 On ch=2 n=68 v=90
22448 On ch=2 n=71 v=90
22543 On ch=2 n=52 v=0
22546 On ch=2 n=64 v=0
22550 On ch=2 n=59 v=0
22550 On ch=2 n=68 v=0
22550 On ch=2 n=71 v=0
22566 On ch=2 n=47 v=92
22568 On ch=2 n=54 v=92
22571 On ch=2 n=59 v=95
22575 On ch=2 n=63 v=98
22670 On ch=2 n=59 v=0
22672 On ch=2 n=54 v=0
22676 On ch=2 n=63 v=0
22679 On ch=2 n=47 v=0
22683 On ch=2 n=63 v=70
22683 On ch=2 n=47 v=70
22683 On ch=2 n=54 v=70
22683 On ch=2 n=59 v=70
22698 On ch=2 n=59 v=0
22698 On ch=2 n=63 v=0
22698 On ch=2 n=47 v=0
22698 On ch=2 n=54 v=0
22743 On ch=2 n=63 v=68
22744 On ch=2 n=59 v=68
22745 On ch=2 n=54 v=68
22746 On ch=2 n=47 v=68
22758 On ch=2 n=63 v=0
22759 On ch=2 n=59 v=0
22760 On ch=2 n=54 v=0
22761 On ch=2 n=47 v=0
22806 On ch=2 n=47 v=87
22807 On ch=2 n=54 v=87
22808 On ch=2 n=59 v=87
22809 On ch=2 n=63 v=87
22853 On ch=2 n=63 v=0
22856 On ch=2 n=47 v=0
22856 On ch=2 n=54 v=0
22856 On ch=2 n=59 v=0
22863 On ch=2 n=63 v=85
22864 On ch=2 n=59 v=85
22865 On ch=2 n=54 v=85
22866 On ch=2 n=47 v=85
22913 On ch=2 n=63 v=0
22916 On ch=2 n=59 v=0
22916 On ch=2 n=54 v=0
22916 On ch=2 n=47 v=0
22983 On ch=2 n=64 v=101
22985 On ch=2 n=59 v=101
22987 On ch=2 n=54 v=107
22988 On ch=2 n=47 v=107
23091 On ch=2 n=47 v=0
23094 On ch=2 n=59 v=0
23096 On ch=2 n=64 v=0
23098 On ch=2 n=54 v=0
23103 On ch=2 n=64 v=84
23105 On ch=2 n=59 v=84
23107 On ch=2 n=54 v=84
23109 On ch=2 n=47 v=84
23148 On ch=2 n=64 v=0
23150 On ch=2 n=59 v=0
23152 On ch=2 n=54 v=0
23154 On ch=2 n=47 v=0
23163 On ch=2 n=47 v=99
23165 On ch=2 n=54 v=99
23167 On ch=2 n=59 v=99
23169 On ch=2 n=64 v=99
23269 On ch=2 n=54 v=0
23273 On ch=2 n=47 v=0
23273 On ch=2 n=59 v=0
23273 On ch=2 n=64 v=0
23283 On ch=2 n=47 v=98
23284 On ch=2 n=54 v=98
23285 On ch=2 n=59 v=98
23286 On ch=2 n=64 v=98
23333 On ch=2 n=47 v=0
23336 On ch=2 n=54 v=0
23336 On ch=2 n=59 v=0
23336 On ch=2 n=64 v=0
23343 On ch=2 n=64 v=96
23344 On ch=2 n=59 v=96
23345 On ch=2 n=54 v=96
23346 On ch=2 n=47 v=96
23453 On ch=2 n=64 v=0
23456 On ch=2 n=59 v=0
23456 On ch=2 n=47 v=0
23463 On ch=2 n=54 v=0
23466 On ch=2 n=64 v=103
23469 On ch=2 n=59 v=100
23471 On ch=2 n=47 v=98
23473 On ch=2 n=54 v=96
23506 On ch=2 n=64 v=0
23513 On ch=2 n=59 v=0
23516 On ch=2 n=47 v=0
23516 On ch=2 n=54 v=0
23526 On ch=2 n=47 v=92
23528 On ch=2 n=54 v=92
23531 On ch=2 n=59 v=95
23535 On ch=2 n=63 v=98
23630 On ch=2 n=59 v=0
23632 On ch=2 n=54 v=0
23636 On ch=2 n=63 v=0
23639 On ch=2 n=47 v=0
23643 On ch=2 n=63 v=70
23643 On ch=2 n=47 v=70
23643 On ch=2 n=54 v=70
23643 On ch=2 n=59 v=70
23658 On ch=2 n=59 v=0
23658 On ch=2 n=63 v=0
23658 On ch=2 n=47 v=0
23658 On ch=2 n=54 v=0
23703 On ch=2 n=63 v=68
23704 On ch=2 n=59 v=68
23705 On ch=2 n=54 v=68
23706 On ch=2 n=47 v=68
23718 On ch=2 n=63 v=0
23719 On ch=2 n=59 v=0
23720 On ch=2 n=54 v=0
23721 On ch=2 n=47 v=0
23766 On ch=2 n=47 v=87
23767 On ch=2 n=54 v=87
23768 On ch=2 n=59 v=87
23769 On ch=2 n=63 v=87
23813 On ch=2 n=63 v=0
23816 On ch=2 n=47 v=0
23816 On ch=2 n=54 v=0
23816 On ch=2 n=59 v=0
23823 On ch=2 n=63 v=85
23824 On ch=2 n=59 v=85
23825 On ch=2 n=54 v=85
23826 On ch=2 n=47 v=85
23873 On ch=2 n=63 v=0
23876 On ch=2 n=59 v=0
23876 On ch=2 n=54 v=0
23876 On ch=2 n=47 v=0
23943 On ch=2 n=64 v=101
23945 On ch=2 n=59 v=101
23947 On ch=2 n=54 v=107
23948 On ch=2 n=47 v=107
24051 On ch=2 n=47 v=0
24054 On ch=2 n=59 v=0
24056 On ch=2 n=64 v=0
24058 On ch=2 n=54 v=0
24063 On ch=2 n=64 v=84
24065 On ch=2 n=59 v=84
24067 On ch=2 n=54 v=84
24069 On ch=2 n=47 v=84
24108 On ch=2 n=64 v=0
24110 On ch=2 n=59 v=0
24112 On ch=2 n=54 v=0
24114 On ch=2 n=47 v=0
24123 On ch=2 n=47 v=99
24125 On ch=2 n=54 v=99
24127 On ch=2 n=59 v=99
24129 On ch=2 n=64 v=99
24229 On ch=2 n=54 v=0
24233 On ch=2 n=47 v=0
24233 On ch=2 n=59 v=0
24233 On ch=2 n=64 v=0
24243 On ch=2 n=47 v=98
24244 On ch=2 n=54 v=98
24245 On ch=2 n=59 v=98
24246 On ch=2 n=64 v=98
24293 On ch=2 n=47 v=0
24296 On ch=2 n=54 v=0
24296 On ch=2 n=59 v=0
24296 On ch=2 n=64 v=0
24303 On ch=2 n=64 v=96
24304 On ch=2 n=59 v=96
24305 On ch=2 n=54 v=96
24306 On ch=2 n=47 v=96
24413 On ch=2 n=64 v=0
24416 On ch=2 n=59 v=0
24416 On ch=2 n=47 v=0
24423 On ch=2 n=54 v=0
24426 On ch=2 n=64 v=103
24429 On ch=2 n=59 v=100
24431 On ch=2 n=47 v=98
24433 On ch=2 n=54 v=96
24466 On ch=2 n=64 v=0
24473 On ch=2 n=59 v=0
24476 On ch=2 n=47 v=0
24476 On ch=2 n=54 v=0
24486 On ch=2 n=47 v=92
24488 On ch=2 n=54 v=92
24491 On ch=2 n=59 v=95
24495 On ch=2 n=63 v=98
24590 On ch=2 n=59 v=0
24592 On ch=2 n=54 v=0
24596 On ch=2 n=63 v=0
24599 On ch=2 n=47 v=0
24603 On ch=2 n=63 v=70
24603 On ch=2 n=59 v=70
24603 On ch=2 n=54 v=70
24603 On ch=2 n=47 v=70
24618 On ch=2 n=47 v=0
24618 On ch=2 n=63 v=0
24618 On ch=2 n=59 v=0
24618 On ch=2 n=54 v=0
24663 On ch=2 n=63 v=68
24664 On ch=2 n=59 v=68
24665 On ch=2 n=54 v=68
24666 On ch=2 n=47 v=68
24678 On ch=2 n=63 v=0
24679 On ch=2 n=59 v=0
24680 On ch=2 n=54 v=0
24681 On ch=2 n=47 v=0
24726 On ch=2 n=47 v=87
24727 On ch=2 n=54 v=87
24728 On ch=2 n=59 v=87
24729 On ch=2 n=63 v=87
24773 On ch=2 n=63 v=0
24776 On ch=2 n=47 v=0
24776 On ch=2 n=54 v=0
24776 On ch=2 n=59 v=0
24783 On ch=2 n=63 v=85
24784 On ch=2 n=59 v=85
24785 On ch=2 n=54 v=85
24786 On ch=2 n=47 v=85
24833 On ch=2 n=63 v=0
24836 On ch=2 n=59 v=0
24836 On ch=2 n=54 v=0
24836 On ch=2 n=47 v=0
24903 On ch=2 n=64 v=101
24905 On ch=2 n=59 v=101
24907 On ch=2 n=54 v=107
24908 On ch=2 n=47 v=107
25011 On ch=2 n=47 v=0
25014 On ch=2 n=59 v=0
25016 On ch=2 n=64 v=0
25018 On ch=2 n=54 v=0
25023 On ch=2 n=64 v=84
25025 On ch=2 n=59 v=84
25027 On ch=2 n=54 v=84
25029 On ch=2 n=47 v=84
25068 On ch=2 n=64 v=0
25070 On ch=2 n=59 v=0
25072 On ch=2 n=54 v=0
25074 On ch=2 n=47 v=0
25083 On ch=2 n=47 v=99
25085 On ch=2 n=54 v=99
25087 On ch=2 n=59 v=99
25089 On ch=2 n=64 v=99
25189 On ch=2 n=54 v=0
25193 On ch=2 n=47 v=0
25193 On ch=2 n=59 v=0
25193 On ch=2 n=64 v=0
25203 On ch=2 n=47 v=98
25204 On ch=2 n=54 v=98
25205 On ch=2 n=59 v=98
25206 On ch=2 n=64 v=98
25253 On ch=2 n=47 v=0
25256 On ch=2 n=54 v=0
25256 On ch=2 n=59 v=0
25256 On ch=2 n=64 v=0
25263 On ch=2 n=64 v=96
25264 On ch=2 n=59 v=96
25265 On ch=2 n=54 v=96
25266 On ch=2 n=47 v=96
25373 On ch=2 n=64 v=0
25376 On ch=2 n=59 v=0
25376 On ch=2 n=47 v=0
25383 On ch=2 n=54 v=0
25386 On ch=2 n=64 v=103
25389 On ch=2 n=59 v=100
25391 On ch=2 n=47 v=98
25393 On ch=2 n=54 v=96
25426 On ch=2 n=64 v=0
25433 On ch=2 n=59 v=0
25436 On ch=2 n=47 v=0
25436 On ch=2 n=54 v=0
25445 On ch=2 n=54 v=92
25446 On ch=2 n=47 v=92
25447 On ch=2 n=59 v=95
25452 On ch=2 n=63 v=98
25546 On ch=2 n=59 v=0
25549 On ch=2 n=54 v=0
25553 On ch=2 n=63 v=0
25559 On ch=2 n=47 v=0
25563 On ch=2 n=63 v=70
25563 On ch=2 n=59 v=70
25563 On ch=2 n=54 v=70
25563 On ch=2 n=47 v=70
25578 On ch=2 n=47 v=0
25578 On ch=2 n=63 v=0
25578 On ch=2 n=59 v=0
25578 On ch=2 n=54 v=0
25623 On ch=2 n=63 v=68
25624 On ch=2 n=59 v=68
25625 On ch=2 n=54 v=68
25626 On ch=2 n=47 v=68
25638 On ch=2 n=63 v=0
25639 On ch=2 n=59 v=0
25640 On ch=2 n=54 v=0
25641 On ch=2 n=47 v=0
25686 On ch=2 n=47 v=87
25687 On ch=2 n=54 v=87
25688 On ch=2 n=59 v=87
25689 On ch=2 n=63 v=87
25733 On ch=2 n=63 v=0
25736 On ch=2 n=47 v=0
25736 On ch=2 n=54 v=0
25736 On ch=2 n=59 v=0
25743 On ch=2 n=63 v=85
25744 On ch=2 n=59 v=85
25745 On ch=2 n=54 v=85
25746 On ch=2 n=47 v=85
25793 On ch=2 n=63 v=0
25796 On ch=2 n=59 v=0
25796 On ch=2 n=54 v=0
25796 On ch=2 n=47 v=0
25863 On ch=2 n=64 v=101
25865 On ch=2 n=59 v=101
25867 On ch=2 n=54 v=107
25868 On ch=2 n=47 v=107
25971 On ch=2 n=47 v=0
25974 On ch=2 n=59 v=0
25976 On ch=2 n=64 v=0
25978 On ch=2 n=54 v=0
25983 On ch=2 n=64 v=84
25985 On ch=2 n=59 v=84
25987 On ch=2 n=54 v=84
25989 On ch=2 n=47 v=84
26028 On ch=2 n=64 v=0
26030 On ch=2 n=59 v=0
26032 On ch=2 n=54 v=0
26034 On ch=2 n=47 v=0
26043 On ch=2 n=47 v=99
26045 On ch=2 n=54 v=99
26047 On ch=2 n=59 v=99
26049 On ch=2 n=64 v=99
26149 On ch=2 n=54 v=0
26153 On ch=2 n=47 v=0
26153 On ch=2 n=59 v=0
26153 On ch=2 n=64 v=0
26163 On ch=2 n=47 v=98
26164 On ch=2 n=54 v=98
26165 On ch=2 n=59 v=98
26166 On ch=2 n=64 v=98
26213 On ch=2 n=47 v=0
26216 On ch=2 n=54 v=0
26216 On ch=2 n=59 v=0
26216 On ch=2 n=64 v=0
26223 On ch=2 n=64 v=96
26224 On ch=2 n=59 v=96
26225 On ch=2 n=54 v=96
26226 On ch=2 n=47 v=96
26333 On ch=2 n=64 v=0
26336 On ch=2 n=59 v=0
26336 On ch=2 n=47 v=0
26343 On ch=2 n=54 v=0
26346 On ch=2 n=64 v=103
26349 On ch=2 n=59 v=100
26351 On ch=2 n=47 v=98
26353 On ch=2 n=54 v=96
26386 On ch=2 n=64 v=0
26393 On ch=2 n=59 v=0
26396 On ch=2 n=47 v=0
26396 On ch=2 n=54 v=0
26405 On ch=2 n=47 v=92
26405 On ch=2 n=54 v=92
26411 On ch=2 n=59 v=95
26416 On ch=2 n=63 v=98
26509 On ch=2 n=54 v=0
26510 On ch=2 n=59 v=0
26517 On ch=2 n=63 v=0
26518 On ch=2 n=47 v=0
26520 On ch=2 n=63 v=70
26520 On ch=2 n=59 v=70
26520 On ch=2 n=54 v=70
26520 On ch=2 n=47 v=70
26535 On ch=2 n=47 v=0
26535 On ch=2 n=63 v=0
26535 On ch=2 n=59 v=0
26535 On ch=2 n=54 v=0
26580 On ch=2 n=63 v=68
26581 On ch=2 n=59 v=68
26582 On ch=2 n=54 v=68
26583 On ch=2 n=47 v=68
26595 On ch=2 n=63 v=0
26596 On ch=2 n=59 v=0
26597 On ch=2 n=54 v=0
26598 On ch=2 n=47 v=0
26643 On ch=2 n=47 v=87
26644 On ch=2 n=54 v=87
26645 On ch=2 n=59 v=87
26646 On ch=2 n=63 v=87
26690 On ch=2 n=63 v=0
26693 On ch=2 n=47 v=0
26693 On ch=2 n=54 v=0
26693 On ch=2 n=59 v=0
26700 On ch=2 n=63 v=85
26701 On ch=2 n=59 v=85
26702 On ch=2 n=54 v=85
26703 On ch=2 n=47 v=85
26750 On ch=2 n=63 v=0
26753 On ch=2 n=59 v=0
26753 On ch=2 n=54 v=0
26753 On ch=2 n=47 v=0
26820 On ch=2 n=64 v=101
26822 On ch=2 n=59 v=101
26824 On ch=2 n=54 v=107
26825 On ch=2 n=47 v=107
26928 On ch=2 n=47 v=0
26931 On ch=2 n=59 v=0
26933 On ch=2 n=64 v=0
26935 On ch=2 n=54 v=0
26940 On ch=2 n=64 v=84
26942 On ch=2 n=59 v=84
26944 On ch=2 n=54 v=84
26946 On ch=2 n=47 v=84
26985 On ch=2 n=64 v=0
26987 On ch=2 n=59 v=0
26989 On ch=2 n=54 v=0
26991 On ch=2 n=47 v=0
27000 On ch=2 n=47 v=99
27002 On ch=2 n=54 v=99
27004 On ch=2 n=59 v=99
27006 On ch=2 n=64 v=99
27106 On ch=2 n=54 v=0
27110 On ch=2 n=47 v=0
27110 On ch=2 n=59 v=0
27110 On ch=2 n=64 v=0
27120 On ch=2 n=47 v=98
27121 On ch=2 n=54 v=98
27122 On ch=2 n=59 v=98
27123 On ch=2 n=64 v=98
27170 On ch=2 n=47 v=0
27173 On ch=2 n=54 v=0
27173 On ch=2 n=59 v=0
27173 On ch=2 n=64 v=0
27180 On ch=2 n=64 v=96
27181 On ch=2 n=59 v=96
27182 On ch=2 n=54 v=96
27183 On ch=2 n=47 v=96
27290 On ch=2 n=64 v=0
27293 On ch=2 n=59 v=0
27293 On ch=2 n=47 v=0
27300 On ch=2 n=54 v=0
27303 On ch=2 n=64 v=103
27306 On ch=2 n=59 v=100
27308 On ch=2 n=47 v=98
27310 On ch=2 n=54 v=96
27350 On ch=2 n=59 v=0
27353 On ch=2 n=64 v=0
27353 On ch=2 n=47 v=0
27353 On ch=2 n=54 v=0
27366 On ch=2 n=47 v=92
27368 On ch=2 n=54 v=92
27371 On ch=2 n=59 v=95
27375 On ch=2 n=63 v=98
27470 On ch=2 n=59 v=0
27472 On ch=2 n=54 v=0
27476 On ch=2 n=63 v=0
27479 On ch=2 n=47 v=0
27483 On ch=2 n=63 v=70
27483 On ch=2 n=59 v=70
27483 On ch=2 n=54 v=70
27483 On ch=2 n=47 v=70
27498 On ch=2 n=47 v=0
27498 On ch=2 n=63 v=0
27498 On ch=2 n=59 v=0
27498 On ch=2 n=54 v=0
27543 On ch=2 n=63 v=68
27544 On ch=2 n=59 v=68
27545 On ch=2 n=54 v=68
27546 On ch=2 n=47 v=68
27558 On ch=2 n=63 v=0
27559 On ch=2 n=59 v=0
27560 On ch=2 n=54 v=0
27561 On ch=2 n=47 v=0
27606 On ch=2 n=47 v=87
27607 On ch=2 n=54 v=87
27608 On ch=2 n=59 v=87
27609 On ch=2 n=63 v=87
27653 On ch=2 n=63 v=0
27656 On ch=2 n=47 v=0
27656 On ch=2 n=54 v=0
27656 On ch=2 n=59 v=0
27663 On ch=2 n=63 v=85
27664 On ch=2 n=59 v=85
27665 On ch=2 n=54 v=85
27666 On ch=2 n=47 v=85
27713 On ch=2 n=63 v=0
27716 On ch=2 n=59 v=0
27716 On ch=2 n=54 v=0
27716 On ch=2 n=47 v=0
27783 On ch=2 n=64 v=101
27785 On ch=2 n=59 v=101
27787 On ch=2 n=54 v=107
27788 On ch=2 n=47 v=107
27891 On ch=2 n=47 v=0
27894 On ch=2 n=59 v=0
27896 On ch=2 n=64 v=0
27898 On ch=2 n=54 v=0
27903 On ch=2 n=64 v=84
27905 On ch=2 n=59 v=84
27907 On ch=2 n=54 v=84
27909 On ch=2 n=47 v=84
27948 On ch=2 n=64 v=0
27950 On ch=2 n=59 v=0
27952 On ch=2 n=54 v=0
27954 On ch=2 n=47 v=0
27963 On ch=2 n=47 v=99
27965 On ch=2 n=54 v=99
27967 On ch=2 n=59 v=99
27969 On ch=2 n=64 v=99
28069 On ch=2 n=54 v=0
28073 On ch=2 n=47 v=0
28073 On ch=2 n=59 v=0
28073 On ch=2 n=64 v=0
28083 On ch=2 n=47 v=98
28084 On ch=2 n=54 v=98
28085 On ch=2 n=59 v=98
28086 On ch=2 n=64 v=98
28133 On ch=2 n=47 v=0
28136 On ch=2 n=54 v=0
28136 On ch=2 n=59 v=0
28136 On ch=2 n=64 v=0
28143 On ch=2 n=64 v=96
28144 On ch=2 n=59 v=96
28145 On ch=2 n=54 v=96
28146 On ch=2 n=47 v=96
28253 On ch=2 n=64 v=0
28256 On ch=2 n=59 v=0
28256 On ch=2 n=47 v=0
28263 On ch=2 n=54 v=0
28266 On ch=2 n=64 v=103
28269 On ch=2 n=59 v=100
28271 On ch=2 n=47 v=98
28273 On ch=2 n=54 v=96
28306 On ch=2 n=64 v=0
28313 On ch=2 n=59 v=0
28316 On ch=2 n=47 v=0
28316 On ch=2 n=54 v=0
28320 On ch=2 n=50 v=89
28325 On ch=2 n=57 v=89
28328 On ch=2 n=62 v=90
28331 On ch=2 n=66 v=90
28483 On ch=2 n=50 v=0
28485 On ch=2 n=57 v=0
28485 On ch=2 n=66 v=0
28486 On ch=2 n=62 v=0
28500 On ch=2 n=66 v=100
28502 On ch=2 n=62 v=100
28504 On ch=2 n=57 v=99
28505 On ch=2 n=50 v=99
28606 On ch=2 n=66 v=0
28608 On ch=2 n=50 v=0
28609 On ch=2 n=57 v=0
28610 On ch=2 n=62 v=0
28620 On ch=2 n=66 v=95
28622 On ch=2 n=62 v=95
28624 On ch=2 n=57 v=90
28626 On ch=2 n=50 v=90
28665 On ch=2 n=66 v=0
28667 On ch=2 n=62 v=0
28669 On ch=2 n=57 v=0
28671 On ch=2 n=50 v=0
28680 On ch=2 n=50 v=87
28682 On ch=2 n=57 v=87
28685 On ch=2 n=62 v=87
28686 On ch=2 n=66 v=87
28786 On ch=2 n=50 v=0
28790 On ch=2 n=57 v=0
28790 On ch=2 n=66 v=0
28793 On ch=2 n=62 v=0
28800 On ch=2 n=52 v=78
28804 On ch=2 n=61 v=79
28805 On ch=2 n=57 v=79
28806 On ch=2 n=64 v=79
28963 On ch=2 n=61 v=0
28966 On ch=2 n=64 v=0
28969 On ch=2 n=57 v=0
28973 On ch=2 n=52 v=0
28980 On ch=2 n=64 v=100
28982 On ch=2 n=61 v=100
28984 On ch=2 n=57 v=100
28986 On ch=2 n=52 v=100
29080 On ch=2 n=64 v=0
29083 On ch=2 n=52 v=0
29090 On ch=2 n=61 v=0
29093 On ch=2 n=57 v=0
29100 On ch=2 n=64 v=90
29102 On ch=2 n=61 v=90
29104 On ch=2 n=57 v=90
29106 On ch=2 n=52 v=90
29146 On ch=2 n=52 v=0
29146 On ch=2 n=64 v=0
29150 On ch=2 n=57 v=0
29153 On ch=2 n=61 v=0
29160 On ch=2 n=52 v=98
29162 On ch=2 n=57 v=98
29164 On ch=2 n=61 v=99
29166 On ch=2 n=64 v=99
29263 On ch=2 n=52 v=0
29270 On ch=2 n=57 v=0
29270 On ch=2 n=61 v=0
29273 On ch=2 n=64 v=0
29280 On ch=2 n=54 v=82
29284 On ch=2 n=62 v=82
29285 On ch=2 n=59 v=82
29286 On ch=2 n=66 v=82
29443 On ch=2 n=62 v=0
29446 On ch=2 n=66 v=0
29449 On ch=2 n=59 v=0
29453 On ch=2 n=54 v=0
29460 On ch=2 n=66 v=100
29462 On ch=2 n=62 v=100
29464 On ch=2 n=59 v=100
29466 On ch=2 n=54 v=100
29560 On ch=2 n=66 v=0
29563 On ch=2 n=54 v=0
29570 On ch=2 n=62 v=0
29573 On ch=2 n=59 v=0
29580 On ch=2 n=66 v=92
29582 On ch=2 n=62 v=92
29584 On ch=2 n=59 v=91
29586 On ch=2 n=54 v=91
29626 On ch=2 n=54 v=0
29626 On ch=2 n=66 v=0
29630 On ch=2 n=59 v=0
29633 On ch=2 n=62 v=0
29640 On ch=2 n=54 v=89
29642 On ch=2 n=59 v=89
29644 On ch=2 n=62 v=89
29646 On ch=2 n=66 v=89
29732 On ch=2 n=59 v=0
29734 On ch=2 n=62 v=0
29736 On ch=2 n=66 v=0
29743 On ch=2 n=54 v=0
29760 On ch=2 n=43 v=90
29762 On ch=2 n=50 v=90
29764 On ch=2 n=55 v=90
29766 On ch=2 n=59 v=90
29768 On ch=2 n=62 v=90
29770 On ch=2 n=67 v=90
29914 On ch=2 n=43 v=0
29916 On ch=2 n=50 v=0
29918 On ch=2 n=55 v=0
29920 On ch=2 n=59 v=0
29922 On ch=2 n=62 v=0
29924 On ch=2 n=67 v=0
29940 On ch=2 n=67 v=90
29942 On ch=2 n=62 v=90
29944 On ch=2 n=59 v=90
29946 On ch=2 n=55 v=90
29948 On ch=2 n=50 v=90
29950 On ch=2 n=43 v=90
30038 On ch=2 n=50 v=0
30040 On ch=2 n=43 v=0
30045 On ch=2 n=67 v=0
30047 On ch=2 n=62 v=0
30049 On ch=2 n=59 v=0
30051 On ch=2 n=55 v=0
30060 On ch=2 n=67 v=90
30062 On ch=2 n=62 v=90
30064 On ch=2 n=59 v=90
30066 On ch=2 n=55 v=90
30068 On ch=2 n=50 v=90
30070 On ch=2 n=43 v=90
30105 On ch=2 n=67 v=0
30107 On ch=2 n=62 v=0
30109 On ch=2 n=59 v=0
30111 On ch=2 n=55 v=0
30113 On ch=2 n=50 v=0
30115 On ch=2 n=43 v=0
30120 On ch=2 n=43 v=90
30122 On ch=2 n=50 v=90
30124 On ch=2 n=55 v=90
30126 On ch=2 n=59 v=90
30128 On ch=2 n=62 v=90
30130 On ch=2 n=67 v=90
30214 On ch=2 n=55 v=0
30216 On ch=2 n=59 v=0
30218 On ch=2 n=62 v=0
30220 On ch=2 n=67 v=0
30225 On ch=2 n=43 v=0
30227 On ch=2 n=50 v=0
30240 On ch=2 n=50 v=89
30245 On ch=2 n=57 v=89
30248 On ch=2 n=62 v=90
30251 On ch=2 n=66 v=90
30403 On ch=2 n=50 v=0
30405 On ch=2 n=57 v=0
30405 On ch=2 n=66 v=0
30406 On ch=2 n=62 v=0
30420 On ch=2 n=66 v=100
30422 On ch=2 n=62 v=100
30424 On ch=2 n=57 v=99
30425 On ch=2 n=50 v=99
30526 On ch=2 n=66 v=0
30528 On ch=2 n=50 v=0
30529 On ch=2 n=57 v=0
30530 On ch=2 n=62 v=0
30540 On ch=2 n=66 v=95
30542 On ch=2 n=62 v=95
30544 On ch=2 n=57 v=90
30546 On ch=2 n=50 v=90
30585 On ch=2 n=66 v=0
30587 On ch=2 n=62 v=0
30589 On ch=2 n=57 v=0
30591 On ch=2 n=50 v=0
30600 On ch=2 n=50 v=87
30602 On ch=2 n=57 v=87
30605 On ch=2 n=62 v=87
30606 On ch=2 n=66 v=87
30706 On ch=2 n=50 v=0
30710 On ch=2 n=57 v=0
30710 On ch=2 n=66 v=0
30713 On ch=2 n=62 v=0
30720 On ch=2 n=52 v=78
30724 On ch=2 n=61 v=79
30725 On ch=2 n=57 v=79
30726 On ch=2 n=64 v=79
30883 On ch=2 n=61 v=0
30886 On ch=2 n=64 v=0
30889 On ch=2 n=57 v=0
30893 On ch=2 n=52 v=0
30900 On ch=2 n=64 v=100
30902 On ch=2 n=61 v=100
30904 On ch=2 n=57 v=100
30906 On ch=2 n=52 v=100
31000 On ch=2 n=64 v=0
31003 On ch=2 n=52 v=0
31010 On ch=2 n=61 v=0
31013 On ch=2 n=57 v=0
31020 On ch=2 n=64 v=90
31022 On ch=2 n=61 v=90
31024 On ch=2 n=57 v=90
31026 On ch=2 n=52 v=90
31066 On ch=2 n=52 v=0
31066 On ch=2 n=64 v=0
31070 On ch=2 n=57 v=0
31073 On ch=2 n=61 v=0
31080 On ch=2 n=52 v=98
31082 On ch=2 n=57 v=98
31084 On ch=2 n=61 v=99
31086 On ch=2 n=64 v=99
31183 On ch=2 n=52 v=0
31190 On ch=2 n=57 v=0
31190 On ch=2 n=61 v=0
31193 On ch=2 n=64 v=0
31200 On ch=2 n=54 v=82
31204 On ch=2 n=62 v=82
31205 On ch=2 n=59 v=82
31206 On ch=2 n=66 v=82
31363 On ch=2 n=62 v=0
31366 On ch=2 n=66 v=0
31369 On ch=2 n=59 v=0
31373 On ch=2 n=54 v=0
31380 On ch=2 n=66 v=100
31382 On ch=2 n=62 v=100
31384 On ch=2 n=59 v=100
31386 On ch=2 n=54 v=100
31480 On ch=2 n=66 v=0
31483 On ch=2 n=54 v=0
31490 On ch=2 n=62 v=0
31493 On ch=2 n=59 v=0
31500 On ch=2 n=66 v=92
31502 On ch=2 n=62 v=92
31504 On ch=2 n=59 v=91
31506 On ch=2 n=54 v=91
31546 On ch=2 n=54 v=0
31546 On ch=2 n=66 v=0
31550 On ch=2 n=59 v=0
31553 On ch=2 n=62 v=0
31560 On ch=2 n=54 v=89
31562 On ch=2 n=59 v=89
31564 On ch=2 n=62 v=89
31566 On ch=2 n=66 v=89
31652 On ch=2 n=59 v=0
31654 On ch=2 n=62 v=0
31656 On ch=2 n=66 v=0
31663 On ch=2 n=54 v=0
31680 On ch=2 n=43 v=90
31682 On ch=2 n=50 v=90
31684 On ch=2 n=55 v=90
31686 On ch=2 n=59 v=90
31688 On ch=2 n=62 v=90
31690 On ch=2 n=67 v=90
31834 On ch=2 n=43 v=0
31836 On ch=2 n=50 v=0
31838 On ch=2 n=55 v=0
31840 On ch=2 n=59 v=0
31842 On ch=2 n=62 v=0
31844 On ch=2 n=67 v=0
31860 On ch=2 n=67 v=90
31862 On ch=2 n=62 v=90
31864 On ch=2 n=59 v=90
31866 On ch=2 n=55 v=90
31868 On ch=2 n=50 v=90
31870 On ch=2 n=43 v=90
31958 On ch=2 n=50 v=0
31960 On ch=2 n=43 v=0
31965 On ch=2 n=67 v=0
31967 On ch=2 n=62 v=0
31969 On ch=2 n=59 v=0
31971 On ch=2 n=55 v=0
31980 On ch=2 n=67 v=90
31982 On ch=2 n=62 v=90
31984 On ch=2 n=59 v=90
31986 On ch=2 n=55 v=90
31988 On ch=2 n=50 v=90
31990 On ch=2 n=43 v=90
32025 On ch=2 n=67 v=0
32027 On ch=2 n=62 v=0
32029 On ch=2 n=59 v=0
32031 On ch=2 n=55 v=0
32033 On ch=2 n=50 v=0
32035 On ch=2 n=43 v=0
32040 On ch=2 n=43 v=90
32042 On ch=2 n=50 v=90
32044 On ch=2 n=55 v=90
32046 On ch=2 n=59 v=90
32048 On ch=2 n=62 v=90
32050 On ch=2 n=67 v=90
32134 On ch=2 n=55 v=0
32136 On ch=2 n=59 v=0
32138 On ch=2 n=62 v=0
32140 On ch=2 n=67 v=0
32145 On ch=2 n=43 v=0
32147 On ch=2 n=50 v=0
32166 On ch=2 n=47 v=92
32168 On ch=2 n=54 v=92
32171 On ch=2 n=59 v=95
32175 On ch=2 n=63 v=98
32270 On ch=2 n=59 v=0
32272 On ch=2 n=54 v=0
32276 On ch=2 n=63 v=0
32279 On ch=2 n=47 v=0
32283 On ch=2 n=63 v=70
32283 On ch=2 n=47 v=70
32283 On ch=2 n=54 v=70
32283 On ch=2 n=59 v=70
32298 On ch=2 n=59 v=0
32298 On ch=2 n=63 v=0
32298 On ch=2 n=47 v=0
32298 On ch=2 n=54 v=0
32343 On ch=2 n=63 v=68
32344 On ch=2 n=59 v=68
32345 On ch=2 n=54 v=68
32346 On ch=2 n=47 v=68
32358 On ch=2 n=63 v=0
32359 On ch=2 n=59 v=0
32360 On ch=2 n=54 v=0
32361 On ch=2 n=47 v=0
32406 On ch=2 n=47 v=87
32407 On ch=2 n=54 v=87
32408 On ch=2 n=59 v=87
32409 On ch=2 n=63 v=87
32453 On ch=2 n=63 v=0
32456 On ch=2 n=47 v=0
32456 On ch=2 n=54 v=0
32456 On ch=2 n=59 v=0
32463 On ch=2 n=63 v=85
32464 On ch=2 n=59 v=85
32465 On ch=2 n=54 v=85
32466 On ch=2 n=47 v=85
32513 On ch=2 n=63 v=0
32516 On ch=2 n=59 v=0
32516 On ch=2 n=54 v=0
32516 On ch=2 n=47 v=0
32583 On ch=2 n=64 v=101
32585 On ch=2 n=59 v=101
32587 On ch=2 n=54 v=107
32588 On ch=2 n=47 v=107
32691 On ch=2 n=47 v=0
32694 On ch=2 n=59 v=0
32696 On ch=2 n=64 v=0
32698 On ch=2 n=54 v=0
32703 On ch=2 n=64 v=84
32705 On ch=2 n=59 v=84
32707 On ch=2 n=54 v=84
32709 On ch=2 n=47 v=84
32748 On ch=2 n=64 v=0
32750 On ch=2 n=59 v=0
32752 On ch=2 n=54 v=0
32754 On ch=2 n=47 v=0
32763 On ch=2 n=47 v=99
32765 On ch=2 n=54 v=99
32767 On ch=2 n=59 v=99
32769 On ch=2 n=64 v=99
32869 On ch=2 n=54 v=0
32873 On ch=2 n=47 v=0
32873 On ch=2 n=59 v=0
32873 On ch=2 n=64 v=0
32883 On ch=2 n=47 v=98
32884 On ch=2 n=54 v=98
32885 On ch=2 n=59 v=98
32886 On ch=2 n=64 v=98
32933 On ch=2 n=47 v=0
32936 On ch=2 n=54 v=0
32936 On ch=2 n=59 v=0
32936 On ch=2 n=64 v=0
32943 On ch=2 n=64 v=96
32944 On ch=2 n=59 v=96
32945 On ch=2 n=54 v=96
32946 On ch=2 n=47 v=96
33053 On ch=2 n=64 v=0
33056 On ch=2 n=59 v=0
33056 On ch=2 n=47 v=0
33063 On ch=2 n=54 v=0
33066 On ch=2 n=64 v=103
33069 On ch=2 n=59 v=100
33071 On ch=2 n=47 v=98
33073 On ch=2 n=54 v=96
33106 On ch=2 n=64 v=0
33113 On ch=2 n=59 v=0
33116 On ch=2 n=47 v=0
33116 On ch=2 n=54 v=0
33126 On ch=2 n=47 v=92
33128 On ch=2 n=54 v=92
33131 On ch=2 n=59 v=95
33135 On ch=2 n=63 v=98
33230 On ch=2 n=59 v=0
33232 On ch=2 n=54 v=0
33236 On ch=2 n=63 v=0
33239 On ch=2 n=47 v=0
33243 On ch=2 n=63 v=70
33243 On ch=2 n=47 v=70
33243 On ch=2 n=54 v=70
33243 On ch=2 n=59 v=70
33258 On ch=2 n=59 v=0
33258 On ch=2 n=63 v=0
33258 On ch=2 n=47 v=0
33258 On ch=2 n=54 v=0
33303 On ch=2 n=63 v=68
33304 On ch=2 n=59 v=68
33305 On ch=2 n=54 v=68
33306 On ch=2 n=47 v=68
33318 On ch=2 n=63 v=0
33319 On ch=2 n=59 v=0
33320 On ch=2 n=54 v=0
33321 On ch=2 n=47 v=0
33366 On ch=2 n=47 v=87
33367 On ch=2 n=54 v=87
33368 On ch=2 n=59 v=87
33369 On ch=2 n=63 v=87
33413 On ch=2 n=63 v=0
33416 On ch=2 n=47 v=0
33416 On ch=2 n=54 v=0
33416 On ch=2 n=59 v=0
33423 On ch=2 n=63 v=85
33424 On ch=2 n=59 v=85
33425 On ch=2 n=54 v=85
33426 On ch=2 n=47 v=85
33473 On ch=2 n=63 v=0
33476 On ch=2 n=59 v=0
33476 On ch=2 n=54 v=0
33476 On ch=2 n=47 v=0
33543 On ch=2 n=64 v=101
33545 On ch=2 n=59 v=101
33547 On ch=2 n=54 v=107
33548 On ch=2 n=47 v=107
33651 On ch=2 n=47 v=0
33654 On ch=2 n=59 v=0
33656 On ch=2 n=64 v=0
33658 On ch=2 n=54 v=0
33663 On ch=2 n=64 v=84
33665 On ch=2 n=59 v=84
33667 On ch=2 n=54 v=84
33669 On ch=2 n=47 v=84
33708 On ch=2 n=64 v=0
33710 On ch=2 n=59 v=0
33712 On ch=2 n=54 v=0
33714 On ch=2 n=47 v=0
33723 On ch=2 n=47 v=99
33725 On ch=2 n=54 v=99
33727 On ch=2 n=59 v=99
33729 On ch=2 n=64 v=99
33829 On ch=2 n=54 v=0
33833 On ch=2 n=47 v=0
33833 On ch=2 n=59 v=0
33833 On ch=2 n=64 v=0
33843 On ch=2 n=47 v=98
33844 On ch=2 n=54 v=98
33845 On ch=2 n=59 v=98
33846 On ch=2 n=64 v=98
33893 On ch=2 n=47 v=0
33896 On ch=2 n=54 v=0
33896 On ch=2 n=59 v=0
33896 On ch=2 n=64 v=0
33903 On ch=2 n=64 v=96
33904 On ch=2 n=59 v=96
33905 On ch=2 n=54 v=96
33906 On ch=2 n=47 v=96
34013 On ch=2 n=64 v=0
34016 On ch=2 n=59 v=0
34016 On ch=2 n=47 v=0
34023 On ch=2 n=54 v=0
34026 On ch=2 n=64 v=103
34029 On ch=2 n=59 v=100
34031 On ch=2 n=47 v=98
34033 On ch=2 n=54 v=96
34066 On ch=2 n=64 v=0
34073 On ch=2 n=59 v=0
34076 On ch=2 n=47 v=0
34076 On ch=2 n=54 v=0
34086 On ch=2 n=47 v=92
34088 On ch=2 n=54 v=92
34091 On ch=2 n=59 v=95
34095 On ch=2 n=63 v=98
34190 On ch=2 n=59 v=0
34192 On ch=2 n=54 v=0
34196 On ch=2 n=63 v=0
34199 On ch=2 n=47 v=0
34203 On ch=2 n=63 v=70
34203 On ch=2 n=47 v=70
34203 On ch=2 n=54 v=70
34203 On ch=2 n=59 v=70
34218 On ch=2 n=59 v=0
34218 On ch=2 n=63 v=0
34218 On ch=2 n=47 v=0
34218 On ch=2 n=54 v=0
34263 On ch=2 n=63 v=68
34264 On ch=2 n=59 v=68
34265 On ch=2 n=54 v=68
34266 On ch=2 n=47 v=68
34278 On ch=2 n=63 v=0
34279 On ch=2 n=59 v=0
34280 On ch=2 n=54 v=0
34281 On ch=2 n=47 v=0
34326 On ch=2 n=47 v=87
34327 On ch=2 n=54 v=87
34328 On ch=2 n=59 v=87
34329 On ch=2 n=63 v=87
34373 On ch=2 n=63 v=0
34376 On ch=2 n=47 v=0
34376 On ch=2 n=54 v=0
34376 On ch=2 n=59 v=0
34383 On ch=2 n=63 v=85
34384 On ch=2 n=59 v=85
34385 On ch=2 n=54 v=85
34386 On ch=2 n=47 v=85
34433 On ch=2 n=63 v=0
34436 On ch=2 n=59 v=0
34436 On ch=2 n=54 v=0
34436 On ch=2 n=47 v=0
34503 On ch=2 n=64 v=101
34505 On ch=2 n=59 v=101
34507 On ch=2 n=54 v=107
34508 On ch=2 n=47 v=107
34611 On ch=2 n=47 v=0
34614 On ch=2 n=59 v=0
34616 On ch=2 n=64 v=0
34618 On ch=2 n=54 v=0
34623 On ch=2 n=64 v=84
34625 On ch=2 n=59 v=84
34627 On ch=2 n=54 v=84
34629 On ch=2 n=47 v=84
34668 On ch=2 n=64 v=0
34670 On ch=2 n=59 v=0
34672 On ch=2 n=54 v=0
34674 On ch=2 n=47 v=0
34683 On ch=2 n=47 v=99
34685 On ch=2 n=54 v=99
34687 On ch=2 n=59 v=99
34689 On ch=2 n=64 v=99
34789 On ch=2 n=54 v=0
34793 On ch=2 n=47 v=0
34793 On ch=2 n=59 v=0
34793 On ch=2 n=64 v=0
34803 On ch=2 n=47 v=98
34804 On ch=2 n=54 v=98
34805 On ch=2 n=59 v=98
34806 On ch=2 n=64 v=98
34853 On ch=2 n=47 v=0
34856 On ch=2 n=54 v=0
34856 On ch=2 n=59 v=0
34856 On ch=2 n=64 v=0
34863 On ch=2 n=64 v=96
34864 On ch=2 n=59 v=96
34865 On ch=2 n=54 v=96
34866 On ch=2 n=47 v=96
34973 On ch=2 n=64 v=0
34976 On ch=2 n=59 v=0
34976 On ch=2 n=47 v=0
34983 On ch=2 n=54 v=0
34986 On ch=2 n=64 v=103
34989 On ch=2 n=59 v=100
34991 On ch=2 n=47 v=98
34993 On ch=2 n=54 v=96
35026 On ch=2 n=64 v=0
35033 On ch=2 n=59 v=0
35036 On ch=2 n=47 v=0
35036 On ch=2 n=54 v=0
35046 On ch=2 n=47 v=92
35048 On ch=2 n=54 v=92
35051 On ch=2 n=59 v=95
35055 On ch=2 n=63 v=98
35150 On ch=2 n=59 v=0
35152 On ch=2 n=54 v=0
35156 On ch=2 n=63 v=0
35159 On ch=2 n=47 v=0
35163 On ch=2 n=63 v=70
35163 On ch=2 n=47 v=70
35163 On ch=2 n=54 v=70
35163 On ch=2 n=59 v=70
35178 On ch=2 n=59 v=0
35178 On ch=2 n=63 v=0
35178 On ch=2 n=47 v=0
35178 On ch=2 n=54 v=0
35223 On ch=2 n=63 v=68
35224 On ch=2 n=59 v=68
35225 On ch=2 n=54 v=68
35226 On ch=2 n=47 v=68
35238 On ch=2 n=63 v=0
35239 On ch=2 n=59 v=0
35240 On ch=2 n=54 v=0
35241 On ch=2 n=47 v=0
35286 On ch=2 n=47 v=87
35287 On ch=2 n=54 v=87
35288 On ch=2 n=59 v=87
35289 On ch=2 n=63 v=87
35333 On ch=2 n=63 v=0
35336 On ch=2 n=47 v=0
35336 On ch=2 n=54 v=0
35336 On ch=2 n=59 v=0
35343 On ch=2 n=63 v=85
35344 On ch=2 n=59 v=85
35345 On ch=2 n=54 v=85
35346 On ch=2 n=47 v=85
35393 On ch=2 n=63 v=0
35396 On ch=2 n=59 v=0
35396 On ch=2 n=54 v=0
35396 On ch=2 n=47 v=0
35463 On ch=2 n=64 v=101
35465 On ch=2 n=59 v=101
35467 On ch=2 n=54 v=107
35468 On ch=2 n=47 v=107
35571 On ch=2 n=47 v=0
35574 On ch=2 n=59 v=0
35576 On ch=2 n=64 v=0
35578 On ch=2 n=54 v=0
35583 On ch=2 n=64 v=84
35585 On ch=2 n=59 v=84
35587 On ch=2 n=54 v=84
35589 On ch=2 n=47 v=84
35628 On ch=2 n=64 v=0
35630 On ch=2 n=59 v=0
35632 On ch=2 n=54 v=0
35634 On ch=2 n=47 v=0
35643 On ch=2 n=47 v=99
35645 On ch=2 n=54 v=99
35647 On ch=2 n=59 v=99
35649 On ch=2 n=64 v=99
35749 On ch=2 n=54 v=0
35753 On ch=2 n=47 v=0
35753 On ch=2 n=59 v=0
35753 On ch=2 n=64 v=0
35763 On ch=2 n=47 v=98
35764 On ch=2 n=54 v=98
35765 On ch=2 n=59 v=98
35766 On ch=2 n=64 v=98
35813 On ch=2 n=47 v=0
35816 On ch=2 n=54 v=0
35816 On ch=2 n=59 v=0
35816 On ch=2 n=64 v=0
35823 On ch=2 n=64 v=96
35824 On ch=2 n=59 v=96
35825 On ch=2 n=54 v=96
35826 On ch=2 n=47 v=96
35933 On ch=2 n=64 v=0
35936 On ch=2 n=59 v=0
35936 On ch=2 n=47 v=0
35943 On ch=2 n=54 v=0
35946 On ch=2 n=64 v=103
35949 On ch=2 n=59 v=100
35951 On ch=2 n=47 v=98
35953 On ch=2 n=54 v=96
35986 On ch=2 n=64 v=0
35993 On ch=2 n=59 v=0
35996 On ch=2 n=47 v=0
35996 On ch=2 n=54 v=0
36006 On ch=2 n=47 v=92
36008 On ch=2 n=54 v=92
36011 On ch=2 n=59 v=95
36015 On ch=2 n=63 v=98
36110 On ch=2 n=59 v=0
36112 On ch=2 n=54 v=0
36116 On ch=2 n=63 v=0
36119 On ch=2 n=47 v=0
36123 On ch=2 n=63 v=70
36123 On ch=2 n=47 v=70
36123 On ch=2 n=54 v=70
36123 On ch=2 n=59 v=70
36138 On ch=2 n=59 v=0
36138 On ch=2 n=63 v=0
36138 On ch=2 n=47 v=0
36138 On ch=2 n=54 v=0
36183 On ch=2 n=63 v=68
36184 On ch=2 n=59 v=68
36185 On ch=2 n=54 v=68
36186 On ch=2 n=47 v=68
36198 On ch=2 n=63 v=0
36199 On ch=2 n=59 v=0
36200 On ch=2 n=54 v=0
36201 On ch=2 n=47 v=0
36246 On ch=2 n=47 v=87
36247 On ch=2 n=54 v=87
36248 On ch=2 n=59 v=87
36249 On ch=2 n=63 v=87
36293 On ch=2 n=63 v=0
36296 On ch=2 n=47 v=0
36296 On ch=2 n=54 v=0
36296 On ch=2 n=59 v=0
36303 On ch=2 n=63 v=85
36304 On ch=2 n=59 v=85
36305 On ch=2 n=54 v=85
36306 On ch=2 n=47 v=85
36353 On ch=2 n=63 v=0
36356 On ch=2 n=59 v=0
36356 On ch=2 n=54 v=0
36356 On ch=2 n=47 v=0
36423 On ch=2 n=64 v=101
36425 On ch=2 n=59 v=101
36427 On ch=2 n=54 v=107
36428 On ch=2 n=47 v=107
36531 On ch=2 n=47 v=0
36534 On ch=2 n=59 v=0
36536 On ch=2 n=64 v=0
36538 On ch=2 n=54 v=0
36543 On ch=2 n=64 v=84
36545 On ch=2 n=59 v=84
36547 On ch=2 n=54 v=84
36549 On ch=2 n=47 v=84
36588 On ch=2 n=64 v=0
36590 On ch=2 n=59 v=0
36592 On ch=2 n=54 v=0
36594 On ch=2 n=47 v=0
36603 On ch=2 n=47 v=99
36605 On ch=2 n=54 v=99
36607 On ch=2 n=59 v=99
36609 On ch=2 n=64 v=99
36709 On ch=2 n=54 v=0
36713 On ch=2 n=47 v=0
36713 On ch=2 n=59 v=0
36713 On ch=2 n=64 v=0
36723 On ch=2 n=47 v=98
36724 On ch=2 n=54 v=98
36725 On ch=2 n=59 v=98
36726 On ch=2 n=64 v=98
36773 On ch=2 n=47 v=0
36776 On ch=2 n=54 v=0
36776 On ch=2 n=59 v=0
36776 On ch=2 n=64 v=0
36783 On ch=2 n=64 v=96
36784 On ch=2 n=59 v=96
36785 On ch=2 n=54 v=96
36786 On ch=2 n=47 v=96
36893 On ch=2 n=64 v=0
36896 On ch=2 n=59 v=0
36896 On ch=2 n=47 v=0
36903 On ch=2 n=54 v=0
36906 On ch=2 n=64 v=103
36909 On ch=2 n=59 v=100
36911 On ch=2 n=47 v=98
36913 On ch=2 n=54 v=96
36946 On ch=2 n=64 v=0
36953 On ch=2 n=59 v=0
36956 On ch=2 n=47 v=0
36956 On ch=2 n=54 v=0
36966 On ch=2 n=47 v=92
36968 On ch=2 n=54 v=92
36971 On ch=2 n=59 v=95
36975 On ch=2 n=63 v=98
37070 On ch=2 n=59 v=0
37072 On ch=2 n=54 v=0
37076 On ch=2 n=63 v=0
37079 On ch=2 n=47 v=0
37083 On ch=2 n=63 v=70
37083 On ch=2 n=47 v=70
37083 On ch=2 n=54 v=70
37083 On ch=2 n=59 v=70
37098 On ch=2 n=59 v=0
37098 On ch=2 n=63 v=0
37098 On ch=2 n=47 v=0
37098 On ch=2 n=54 v=0
37143 On ch=2 n=63 v=68
37144 On ch=2 n=59 v=68
37145 On ch=2 n=54 v=68
37146 On ch=2 n=47 v=68
37158 On ch=2 n=63 v=0
37159 On ch=2 n=59 v=0
37160 On ch=2 n=54 v=0
37161 On ch=2 n=47 v=0
37206 On ch=2 n=47 v=87
37207 On ch=2 n=54 v=87
37208 On ch=2 n=59 v=87
37209 On ch=2 n=63 v=87
37253 On ch=2 n=63 v=0
37256 On ch=2 n=47 v=0
37256 On ch=2 n=54 v=0
37256 On ch=2 n=59 v=0
37263 On ch=2 n=63 v=85
37264 On ch=2 n=59 v=85
37265 On ch=2 n=54 v=85
37266 On ch=2 n=47 v=85
37313 On ch=2 n=63 v=0
37316 On ch=2 n=59 v=0
37316 On ch=2 n=54 v=0
37316 On ch=2 n=47 v=0
37383 On ch=2 n=64 v=101
37385 On ch=2 n=59 v=101
37387 On ch=2 n=54 v=107
37388 On ch=2 n=47 v=107
37491 On ch=2 n=47 v=0
37494 On ch=2 n=59 v=0
37496 On ch=2 n=64 v=0
37498 On ch=2 n=54 v=0
37503 On ch=2 n=64 v=84
37505 On ch=2 n=59 v=84
37507 On ch=2 n=54 v=84
37509 On ch=2 n=47 v=84
37548 On ch=2 n=64 v=0
37550 On ch=2 n=59 v=0
37552 On ch=2 n=54 v=0
37554 On ch=2 n=47 v=0
37563 On ch=2 n=47 v=99
37565 On ch=2 n=54 v=99
37567 On ch=2 n=59 v=99
37569 On ch=2 n=64 v=99
37669 On ch=2 n=54 v=0
37673 On ch=2 n=47 v=0
37673 On ch=2 n=59 v=0
37673 On ch=2 n=64 v=0
37683 On ch=2 n=47 v=98
37684 On ch=2 n=54 v=98
37685 On ch=2 n=59 v=98
37686 On ch=2 n=64 v=98
37733 On ch=2 n=47 v=0
37736 On ch=2 n=54 v=0
37736 On ch=2 n=59 v=0
37736 On ch=2 n=64 v=0
37743 On ch=2 n=64 v=96
37744 On ch=2 n=59 v=96
37745 On ch=2 n=54 v=96
37746 On ch=2 n=47 v=96
37853 On ch=2 n=64 v=0
37856 On ch=2 n=59 v=0
37856 On ch=2 n=47 v=0
37863 On ch=2 n=54 v=0
37866 On ch=2 n=64 v=103
37869 On ch=2 n=59 v=100
37871 On ch=2 n=47 v=98
37873 On ch=2 n=54 v=96
37906 On ch=2 n=64 v=0
37913 On ch=2 n=59 v=0
37916 On ch=2 n=47 v=0
37916 On ch=2 n=54 v=0
37920 On ch=2 n=43 v=90
37922 On ch=2 n=50 v=90
37924 On ch=2 n=55 v=90
37926 On ch=2 n=59 v=90
37928 On ch=2 n=62 v=90
37930 On ch=2 n=67 v=90
38074 On ch=2 n=43 v=0
38076 On ch=2 n=50 v=0
38078 On ch=2 n=55 v=0
38080 On ch=2 n=59 v=0
38082 On ch=2 n=62 v=0
38084 On ch=2 n=67 v=0
38100 On ch=2 n=67 v=90
38102 On ch=2 n=62 v=90
38104 On ch=2 n=59 v=90
38106 On ch=2 n=55 v=90
38108 On ch=2 n=50 v=90
38110 On ch=2 n=43 v=90
38198 On ch=2 n=50 v=0
38200 On ch=2 n=43 v=0
38205 On ch=2 n=67 v=0
38207 On ch=2 n=62 v=0
38209 On ch=2 n=59 v=0
38211 On ch=2 n=55 v=0
38220 On ch=2 n=67 v=90
38222 On ch=2 n=62 v=90
38224 On ch=2 n=59 v=90
38226 On ch=2 n=55 v=90
38228 On ch=2 n=50 v=90
38230 On ch=2 n=43 v=90
38265 On ch=2 n=67 v=0
38267 On ch=2 n=62 v=0
38269 On ch=2 n=59 v=0
38271 On ch=2 n=55 v=0
38273 On ch=2 n=50 v=0
38275 On ch=2 n=43 v=0
38280 On ch=2 n=43 v=90
38282 On ch=2 n=50 v=90
38284 On ch=2 n=55 v=90
38286 On ch=2 n=59 v=90
38288 On ch=2 n=62 v=90
38290 On ch=2 n=67 v=90
38386 On ch=2 n=62 v=0
38390 On ch=2 n=59 v=0
38390 On ch=2 n=50 v=0
38390 On ch=2 n=43 v=0
38393 On ch=2 n=67 v=0
38393 On ch=2 n=55 v=0
38400 On ch=2 n=52 v=90
38403 On ch=2 n=59 v=90
38406 On ch=2 n=64 v=90
38408 On ch=2 n=68 v=90
38411 On ch=2 n=71 v=90
38550 On ch=2 n=68 v=0
38550 On ch=2 n=52 v=0
38553 On ch=2 n=59 v=0
38553 On ch=2 n=64 v=0
38553 On ch=2 n=71 v=0
38580 On ch=2 n=71 v=90
38583 On ch=2 n=68 v=90
38585 On ch=2 n=64 v=90
38586 On ch=2 n=59 v=90
38589 On ch=2 n=52 v=90
38690 On ch=2 n=71 v=0
38693 On ch=2 n=68 v=0
38695 On ch=2 n=64 v=0
38696 On ch=2 n=59 v=0
38699 On ch=2 n=52 v=0
38700 On ch=2 n=71 v=90
38702 On ch=2 n=68 v=90
38704 On ch=2 n=64 v=90
38706 On ch=2 n=59 v=90
38708 On ch=2 n=52 v=90
38746 On ch=2 n=68 v=0
38746 On ch=2 n=71 v=0
38750 On ch=2 n=59 v=0
38750 On ch=2 n=64 v=0
38750 On ch=2 n=52 v=0
38760 On ch=2 n=52 v=90
38762 On ch=2 n=59 v=90
38764 On ch=2 n=64 v=90
38766 On ch=2 n=68 v=90
38768 On ch=2 n=71 v=90
38863 On ch=2 n=52 v=0
38866 On ch=2 n=64 v=0
38870 On ch=2 n=59 v=0
38870 On ch=2 n=68 v=0
38870 On ch=2 n=71 v=0
38886 On ch=2 n=47 v=92
38888 On ch=2 n=54 v=92
38891 On ch=2 n=59 v=95
38895 On ch=2 n=63 v=98
38990 On ch=2 n=59 v=0
38992 On ch=2 n=54 v=0
38996 On ch=2 n=63 v=0
38999 On ch=2 n=47 v=0
39003 On ch=2 n=63 v=70
39003 On ch=2 n=47 v=70
39003 On ch=2 n=54 v=70
39003 On ch=2 n=59 v=70
39018 On ch=2 n=59 v=0
39018 On ch=2 n=63 v=0
39018 On ch=2 n=47 v=0
39018 On ch=2 n=54 v=0
39063 On ch=2 n=63 v=68
39064 On ch=2 n=59 v=68
39065 On ch=2 n=54 v=68
39066 On ch=2 n=47 v=68
39078 On ch=2 n=63 v=0
39079 On ch=2 n=59 v=0
39080 On ch=2 n=54 v=0
39081 On ch=2 n=47 v=0
39126 On ch=2 n=47 v=87
39127 On ch=2 n=54 v=87
39128 On ch=2 n=59 v=87
39129 On ch=2 n=63 v=87
39173 On ch=2 n=63 v=0
39176 On ch=2 n=47 v=0
39176 On ch=2 n=54 v=0
39176 On ch=2 n=59 v=0
39183 On ch=2 n=63 v=85
39184 On ch=2 n=59 v=85
39185 On ch=2 n=54 v=85
39186 On ch=2 n=47 v=85
39233 On ch=2 n=63 v=0
39236 On ch=2 n=59 v=0
39236 On ch=2 n=54 v=0
39236 On ch=2 n=47 v=0
39303 On ch=2 n=64 v=101
39305 On ch=2 n=59 v=101
39307 On ch=2 n=54 v=107
39308 On ch=2 n=47 v=107
39411 On ch=2 n=47 v=0
39414 On ch=2 n=59 v=0
39416 On ch=2 n=64 v=0
39418 On ch=2 n=54 v=0
39423 On ch=2 n=64 v=84
39425 On ch=2 n=59 v=84
39427 On ch=2 n=54 v=84
39429 On ch=2 n=47 v=84
39468 On ch=2 n=64 v=0
39470 On ch=2 n=59 v=0
39472 On ch=2 n=54 v=0
39474 On ch=2 n=47 v=0
39483 On ch=2 n=47 v=99
39485 On ch=2 n=54 v=99
39487 On ch=2 n=59 v=99
39489 On ch=2 n=64 v=99
39589 On ch=2 n=54 v=0
39593 On ch=2 n=47 v=0
39593 On ch=2 n=59 v=0
39593 On ch=2 n=64 v=0
39603 On ch=2 n=47 v=98
39604 On ch=2 n=54 v=98
39605 On ch=2 n=59 v=98
39606 On ch=2 n=64 v=98
39653 On ch=2 n=47 v=0
39656 On ch=2 n=54 v=0
39656 On ch=2 n=59 v=0
39656 On ch=2 n=64 v=0
39663 On ch=2 n=64 v=96
39664 On ch=2 n=59 v=96
39665 On ch=2 n=54 v=96
39666 On ch=2 n=47 v=96
39773 On ch=2 n=64 v=0
39776 On ch=2 n=59 v=0
39776 On ch=2 n=47 v=0
39783 On ch=2 n=54 v=0
39786 On ch=2 n=64 v=103
39789 On ch=2 n=59 v=100
39791 On ch=2 n=47 v=98
39793 On ch=2 n=54 v=96
39826 On ch=2 n=64 v=0
39833 On ch=2 n=59 v=0
39836 On ch=2 n=47 v=0
39836 On ch=2 n=54 v=0
39840 On ch=2 n=43 v=90
39842 On ch=2 n=50 v=90
39844 On ch=2 n=55 v=90
39846 On ch=2 n=59 v=90
39848 On ch=2 n=62 v=90
39850 On ch=2 n=67 v=90
39994 On ch=2 n=43 v=0
39996 On ch=2 n=50 v=0
39998 On ch=2 n=55 v=0
40000 On ch=2 n=59 v=0
40002 On ch=2 n=62 v=0
40004 On ch=2 n=67 v=0
40020 On ch=2 n=67 v=90
40022 On ch=2 n=62 v=90
40024 On ch=2 n=59 v=90
40026 On ch=2 n=55 v=90
40028 On ch=2 n=50 v=90
40030 On ch=2 n=43 v=90
40118 On ch=2 n=50 v=0
40120 On ch=2 n=43 v=0
40125 On ch=2 n=67 v=0
40127 On ch=2 n=62 v=0
40129 On ch=2 n=59 v=0
40131 On ch=2 n=55 v=0
40140 On ch=2 n=67 v=90
40142 On ch=2 n=62 v=90
40144 On ch=2 n=59 v=90
40146 On ch=2 n=55 v=90
40148 On ch=2 n=50 v=90
40150 On ch=2 n=43 v=90
40185 On ch=2 n=67 v=0
40187 On ch=2 n=62 v=0
40189 On ch=2 n=59 v=0
40191 On ch=2 n=55 v=0
40193 On ch=2 n=50 v=0
40195 On ch=2 n=43 v=0
40200 On ch=2 n=43 v=90
40202 On ch=2 n=50 v=90
40204 On ch=2 n=55 v=90
40206 On ch=2 n=59 v=90
40208 On ch=2 n=62 v=90
40210 On ch=2 n=67 v=90
40306 On ch=2 n=62 v=0
40310 On ch=2 n=59 v=0
40310 On ch=2 n=50 v=0
40310 On ch=2 n=43 v=0
40313 On ch=2 n=67 v=0
40313 On ch=2 n=55 v=0
40320 On ch=2 n=52 v=90
40323 On ch=2 n=59 v=90
40326 On ch=2 n=64 v=90
40328 On ch=2 n=68 v=90
40331 On ch=2 n=71 v=90
40470 On ch=2 n=68 v=0
40470 On ch=2 n=52 v=0
40473 On ch=2 n=59 v=0
40473 On ch=2 n=64 v=0
40473 On ch=2 n=71 v=0
40500 On ch=2 n=71 v=90
40503 On ch=2 n=68 v=90
40505 On ch=2 n=64 v=90
40506 On ch=2 n=59 v=90
40509 On ch=2 n=52 v=90
40610 On ch=2 n=71 v=0
40613 On ch=2 n=68 v=0
40615 On ch=2 n=64 v=0
40616 On ch=2 n=59 v=0
40619 On ch=2 n=52 v=0
40620 On ch=2 n=71 v=90
40622 On ch=2 n=68 v=90
40624 On ch=2 n=64 v=90
40626 On ch=2 n=59 v=90
40628 On ch=2 n=52 v=90
40666 On ch=2 n=68 v=0
40666 On ch=2 n=71 v=0
40670 On ch=2 n=59 v=0
40670 On ch=2 n=64 v=0
40670 On ch=2 n=52 v=0
40680 On ch=2 n=52 v=90
40682 On ch=2 n=59 v=90
40684 On ch=2 n=64 v=90
40686 On ch=2 n=68 v=90
40688 On ch=2 n=71 v=90
40783 On ch=2 n=52 v=0
40786 On ch=2 n=64 v=0
40790 On ch=2 n=59 v=0
40790 On ch=2 n=68 v=0
40790 On ch=2 n=71 v=0
40806 On ch=2 n=47 v=92
40808 On ch=2 n=54 v=92
40811 On ch=2 n=59 v=95
40815 On ch=2 n=63 v=98
40910 On ch=2 n=59 v=0
40912 On ch=2 n=54 v=0
40916 On ch=2 n=63 v=0
40919 On ch=2 n=47 v=0
40923 On ch=2 n=63 v=70
40923 On ch=2 n=47 v=70
40923 On ch=2 n=54 v=70
40923 On ch=2 n=59 v=70
40938 On ch=2 n=59 v=0
40938 On ch=2 n=63 v=0
40938 On ch=2 n=47 v=0
40938 On ch=2 n=54 v=0
40983 On ch=2 n=63 v=68
40984 On ch=2 n=59 v=68
40985 On ch=2 n=54 v=68
40986 On ch=2 n=47 v=68
40998 On ch=2 n=63 v=0
40999 On ch=2 n=59 v=0
41000 On ch=2 n=54 v=0
41001 On ch=2 n=47 v=0
41046 On ch=2 n=47 v=87
41047 On ch=2 n=54 v=87
41048 On ch=2 n=59 v=87
41049 On ch=2 n=63 v=87
41093 On ch=2 n=63 v=0
41096 On ch=2 n=47 v=0
41096 On ch=2 n=54 v=0
41096 On ch=2 n=59 v=0
41103 On ch=2 n=63 v=85
41104 On ch=2 n=59 v=85
41105 On ch=2 n=54 v=85
41106 On ch=2 n=47 v=85
41153 On ch=2 n=63 v=0
41156 On ch=2 n=59 v=0
41156 On ch=2 n=54 v=0
41156 On ch=2 n=47 v=0
41223 On ch=2 n=64 v=101
41225 On ch=2 n=59 v=101
41227 On ch=2 n=54 v=107
41228 On ch=2 n=47 v=107
41331 On ch=2 n=47 v=0
41334 On ch=2 n=59 v=0
41336 On ch=2 n=64 v=0
41338 On ch=2 n=54 v=0
41343 On ch=2 n=64 v=84
41345 On ch=2 n=59 v=84
41347 On ch=2 n=54 v=84
41349 On ch=2 n=47 v=84
41388 On ch=2 n=64 v=0
41390 On ch=2 n=59 v=0
41392 On ch=2 n=54 v=0
41394 On ch=2 n=47 v=0
41403 On ch=2 n=47 v=99
41405 On ch=2 n=54 v=99
41407 On ch=2 n=59 v=99
41409 On ch=2 n=64 v=99
41509 On ch=2 n=54 v=0
41513 On ch=2 n=47 v=0
41513 On ch=2 n=59 v=0
41513 On ch=2 n=64 v=0
41523 On ch=2 n=47 v=98
41524 On ch=2 n=54 v=98
41525 On ch=2 n=59 v=98
41526 On ch=2 n=64 v=98
41573 On ch=2 n=47 v=0
41576 On ch=2 n=54 v=0
41576 On ch=2 n=59 v=0
41576 On ch=2 n=64 v=0
41583 On ch=2 n=64 v=96
41584 On ch=2 n=59 v=96
41585 On ch=2 n=54 v=96
41586 On ch=2 n=47 v=96
41693 On ch=2 n=64 v=0
41696 On ch=2 n=59 v=0
41696 On ch=2 n=47 v=0
41703 On ch=2 n=54 v=0
41706 On ch=2 n=64 v=103
41709 On ch=2 n=59 v=100
41711 On ch=2 n=47 v=98
41713 On ch=2 n=54 v=96
41746 On ch=2 n=64 v=0
41753 On ch=2 n=59 v=0
41756 On ch=2 n=47 v=0
41756 On ch=2 n=54 v=0
41766 On ch=2 n=47 v=92
41768 On ch=2 n=54 v=92
41771 On ch=2 n=59 v=95
41775 On ch=2 n=63 v=98
41870 On ch=2 n=59 v=0
41872 On ch=2 n=54 v=0
41876 On ch=2 n=63 v=0
41879 On ch=2 n=47 v=0
41883 On ch=2 n=63 v=70
41883 On ch=2 n=47 v=70
41883 On ch=2 n=54 v=70
41883 On ch=2 n=59 v=70
41898 On ch=2 n=59 v=0
41898 On ch=2 n=63 v=0
41898 On ch=2 n=47 v=0
41898 On ch=2 n=54 v=0
41943 On ch=2 n=63 v=68
41944 On ch=2 n=59 v=68
41945 On ch=2 n=54 v=68
41946 On ch=2 n=47 v=68
41958 On ch=2 n=63 v=0
41959 On ch=2 n=59 v=0
41960 On ch=2 n=54 v=0
41961 On ch=2 n=47 v=0
42006 On ch=2 n=47 v=87
42007 On ch=2 n=54 v=87
42008 On ch=2 n=59 v=87
42009 On ch=2 n=63 v=87
42053 On ch=2 n=63 v=0
42056 On ch=2 n=47 v=0
42056 On ch=2 n=54 v=0
42056 On ch=2 n=59 v=0
42063 On ch=2 n=63 v=85
42064 On ch=2 n=59 v=85
42065 On ch=2 n=54 v=85
42066 On ch=2 n=47 v=85
42113 On ch=2 n=63 v=0
42116 On ch=2 n=59 v=0
42116 On ch=2 n=54 v=0
42116 On ch=2 n=47 v=0
42183 On ch=2 n=64 v=101
42185 On ch=2 n=59 v=101
42187 On ch=2 n=54 v=107
42188 On ch=2 n=47 v=107
42291 On ch=2 n=47 v=0
42294 On ch=2 n=59 v=0
42296 On ch=2 n=64 v=0
42298 On ch=2 n=54 v=0
42303 On ch=2 n=64 v=84
42305 On ch=2 n=59 v=84
42307 On ch=2 n=54 v=84
42309 On ch=2 n=47 v=84
42348 On ch=2 n=64 v=0
42350 On ch=2 n=59 v=0
42352 On ch=2 n=54 v=0
42354 On ch=2 n=47 v=0
42363 On ch=2 n=47 v=99
42365 On ch=2 n=54 v=99
42367 On ch=2 n=59 v=99
42369 On ch=2 n=64 v=99
42469 On ch=2 n=54 v=0
42473 On ch=2 n=47 v=0
42473 On ch=2 n=59 v=0
42473 On ch=2 n=64 v=0
42483 On ch=2 n=47 v=98
42484 On ch=2 n=54 v=98
42485 On ch=2 n=59 v=98
42486 On ch=2 n=64 v=98
42533 On ch=2 n=47 v=0
42536 On ch=2 n=54 v=0
42536 On ch=2 n=59 v=0
42536 On ch=2 n=64 v=0
42543 On ch=2 n=64 v=96
42544 On ch=2 n=59 v=96
42545 On ch=2 n=54 v=96
42546 On ch=2 n=47 v=96
42653 On ch=2 n=64 v=0
42656 On ch=2 n=59 v=0
42656 On ch=2 n=47 v=0
42663 On ch=2 n=54 v=0
42666 On ch=2 n=64 v=103
42669 On ch=2 n=59 v=100
42671 On ch=2 n=47 v=98
42673 On ch=2 n=54 v=96
42706 On ch=2 n=64 v=0
42713 On ch=2 n=59 v=0
42716 On ch=2 n=47 v=0
42716 On ch=2 n=54 v=0
42720 On ch=2 n=45 v=113
42722 On ch=2 n=52 v=113
42724 On ch=2 n=57 v=111
42726 On ch=2 n=61 v=111
42730 On ch=2 n=64 v=104
42730 On ch=2 n=69 v=104
42825 On ch=2 n=45 v=0
42827 On ch=2 n=52 v=0
42829 On ch=2 n=57 v=0
42831 On ch=2 n=61 v=0
42835 On ch=2 n=64 v=0
42835 On ch=2 n=69 v=0
42840 On ch=2 n=45 v=64
42842 On ch=2 n=52 v=64
42844 On ch=2 n=57 v=64
42846 On ch=2 n=61 v=64
42850 On ch=2 n=64 v=64
42850 On ch=2 n=69 v=64
42855 On ch=2 n=45 v=0
42857 On ch=2 n=52 v=0
42859 On ch=2 n=57 v=0
42861 On ch=2 n=61 v=0
42865 On ch=2 n=64 v=0
42865 On ch=2 n=69 v=0
42900 On ch=2 n=69 v=63
42902 On ch=2 n=64 v=63
42904 On ch=2 n=61 v=63
42906 On ch=2 n=57 v=63
42908 On ch=2 n=52 v=63
42910 On ch=2 n=45 v=63
42915 On ch=2 n=69 v=0
42917 On ch=2 n=64 v=0
42919 On ch=2 n=61 v=0
42921 On ch=2 n=57 v=0
42923 On ch=2 n=52 v=0
42925 On ch=2 n=45 v=0
42960 On ch=2 n=45 v=87
42962 On ch=2 n=52 v=87
42964 On ch=2 n=57 v=88
42966 On ch=2 n=61 v=88
42968 On ch=2 n=64 v=88
42970 On ch=2 n=69 v=88
43005 On ch=2 n=45 v=0
43007 On ch=2 n=52 v=0
43009 On ch=2 n=57 v=0
43011 On ch=2 n=61 v=0
43013 On ch=2 n=64 v=0
43015 On ch=2 n=69 v=0
43020 On ch=2 n=69 v=92
43022 On ch=2 n=64 v=92
43024 On ch=2 n=61 v=92
43026 On ch=2 n=57 v=92
43028 On ch=2 n=52 v=92
43030 On ch=2 n=45 v=92
43065 On ch=2 n=69 v=0
43067 On ch=2 n=64 v=0
43069 On ch=2 n=61 v=0
43071 On ch=2 n=57 v=0
43073 On ch=2 n=52 v=0
43075 On ch=2 n=45 v=0
43140 On ch=2 n=69 v=110
43142 On ch=2 n=64 v=110
43144 On ch=2 n=62 v=112
43146 On ch=2 n=57 v=112
43148 On ch=2 n=52 v=113
43150 On ch=2 n=45 v=114
43234 On ch=2 n=62 v=0
43236 On ch=2 n=57 v=0
43238 On ch=2 n=52 v=0
43240 On ch=2 n=45 v=0
43245 On ch=2 n=69 v=0
43247 On ch=2 n=64 v=0
43260 On ch=2 n=69 v=86
43262 On ch=2 n=64 v=86
43264 On ch=2 n=62 v=86
43266 On ch=2 n=57 v=86
43268 On ch=2 n=52 v=88
43270 On ch=2 n=45 v=89
43305 On ch=2 n=69 v=0
43307 On ch=2 n=64 v=0
43309 On ch=2 n=62 v=0
43311 On ch=2 n=57 v=0
43313 On ch=2 n=52 v=0
43315 On ch=2 n=45 v=0
43320 On ch=2 n=45 v=97
43322 On ch=2 n=52 v=97
43324 On ch=2 n=57 v=97
43326 On ch=2 n=62 v=97
43330 On ch=2 n=64 v=97
43330 On ch=2 n=69 v=97
43425 On ch=2 n=45 v=0
43427 On ch=2 n=52 v=0
43429 On ch=2 n=57 v=0
43431 On ch=2 n=62 v=0
43435 On ch=2 n=64 v=0
43435 On ch=2 n=69 v=0
43440 On ch=2 n=45 v=93
43442 On ch=2 n=52 v=93
43444 On ch=2 n=57 v=93
43446 On ch=2 n=62 v=93
43448 On ch=2 n=64 v=93
43450 On ch=2 n=69 v=93
43485 On ch=2 n=45 v=0
43487 On ch=2 n=52 v=0
43489 On ch=2 n=57 v=0
43491 On ch=2 n=62 v=0
43493 On ch=2 n=64 v=0
43495 On ch=2 n=69 v=0
43500 On ch=2 n=69 v=93
43502 On ch=2 n=64 v=93
43504 On ch=2 n=62 v=93
43506 On ch=2 n=57 v=93
43508 On ch=2 n=52 v=93
43510 On ch=2 n=45 v=93
43594 On ch=2 n=62 v=0
43596 On ch=2 n=57 v=0
43598 On ch=2 n=52 v=0
43600 On ch=2 n=45 v=0
43605 On ch=2 n=69 v=0
43607 On ch=2 n=64 v=0
43620 On ch=2 n=69 v=101
43622 On ch=2 n=64 v=101
43624 On ch=2 n=62 v=98
43626 On ch=2 n=57 v=98
43628 On ch=2 n=52 v=95
43630 On ch=2 n=45 v=93
43665 On ch=2 n=69 v=0
43667 On ch=2 n=64 v=0
43669 On ch=2 n=62 v=0
43671 On ch=2 n=57 v=0
43673 On ch=2 n=52 v=0
43675 On ch=2 n=45 v=0
43680 On ch=2 n=40 v=113
43682 On ch=2 n=47 v=113
43684 On ch=2 n=52 v=111
43686 On ch=2 n=56 v=111
43690 On ch=2 n=59 v=104
43690 On ch=2 n=64 v=104
43785 On ch=2 n=40 v=0
43787 On ch=2 n=47 v=0
43789 On ch=2 n=52 v=0
43791 On ch=2 n=56 v=0
43795 On ch=2 n=59 v=0
43795 On ch=2 n=64 v=0
43800 On ch=2 n=40 v=64
43802 On ch=2 n=47 v=64
43804 On ch=2 n=52 v=64
43806 On ch=2 n=56 v=64
43810 On ch=2 n=59 v=64
43810 On ch=2 n=64 v=64
43815 On ch=2 n=40 v=0
43817 On ch=2 n=47 v=0
43819 On ch=2 n=52 v=0
43821 On ch=2 n=56 v=0
43825 On ch=2 n=59 v=0
43825 On ch=2 n=64 v=0
43860 On ch=2 n=64 v=63
43862 On ch=2 n=59 v=63
43864 On ch=2 n=56 v=63
43866 On ch=2 n=52 v=63
43868 On ch=2 n=47 v=63
43870 On ch=2 n=40 v=63
43875 On ch=2 n=64 v=0
43877 On ch=2 n=59 v=0
43879 On ch=2 n=56 v=0
43881 On ch=2 n=52 v=0
43883 On ch=2 n=47 v=0
43885 On ch=2 n=40 v=0
43920 On ch=2 n=40 v=87
43922 On ch=2 n=47 v=87
43924 On ch=2 n=52 v=88
43926 On ch=2 n=56 v=88
43928 On ch=2 n=59 v=88
43930 On ch=2 n=64 v=88
43965 On ch=2 n=40 v=0
43967 On ch=2 n=47 v=0
43969 On ch=2 n=52 v=0
43971 On ch=2 n=56 v=0
43973 On ch=2 n=59 v=0
43975 On ch=2 n=64 v=0
43980 On ch=2 n=64 v=92
43982 On ch=2 n=59 v=92
43984 On ch=2 n=56 v=92
43986 On ch=2 n=52 v=92
43988 On ch=2 n=47 v=92
43990 On ch=2 n=40 v=92
44025 On ch=2 n=64 v=0
44027 On ch=2 n=59 v=0
44029 On ch=2 n=56 v=0
44031 On ch=2 n=52 v=0
44033 On ch=2 n=47 v=0
44035 On ch=2 n=40 v=0
44100 On ch=2 n=64 v=110
44102 On ch=2 n=59 v=110
44104 On ch=2 n=57 v=112
44106 On ch=2 n=52 v=112
44108 On ch=2 n=47 v=113
44110 On ch=2 n=40 v=114
44194 On ch=2 n=57 v=0
44196 On ch=2 n=52 v=0
44198 On ch=2 n=47 v=0
44200 On ch=2 n=40 v=0
44205 On ch=2 n=64 v=0
44207 On ch=2 n=59 v=0
44220 On ch=2 n=64 v=86
44222 On ch=2 n=59 v=86
44224 On ch=2 n=57 v=86
44226 On ch=2 n=52 v=86
44228 On ch=2 n=47 v=88
44230 On ch=2 n=40 v=89
44265 On ch=2 n=64 v=0
44267 On ch=2 n=59 v=0
44269 On ch=2 n=57 v=0
44271 On ch=2 n=52 v=0
44273 On ch=2 n=47 v=0
44275 On ch=2 n=40 v=0
44280 On ch=2 n=40 v=97
44282 On ch=2 n=47 v=97
44284 On ch=2 n=52 v=97
44286 On ch=2 n=57 v=97
44290 On ch=2 n=59 v=97
44290 On ch=2 n=64 v=97
44385 On ch=2 n=40 v=0
44387 On ch=2 n=47 v=0
44389 On ch=2 n=52 v=0
44391 On ch=2 n=57 v=0
44395 On ch=2 n=59 v=0
44395 On ch=2 n=64 v=0
44400 On ch=2 n=40 v=93
44402 On ch=2 n=47 v=93
44404 On ch=2 n=52 v=93
44406 On ch=2 n=57 v=93
44408 On ch=2 n=59 v=93
44410 On ch=2 n=64 v=93
44445 On ch=2 n=40 v=0
44447 On ch=2 n=47 v=0
44449 On ch=2 n=52 v=0
44451 On ch=2 n=57 v=0
44453 On ch=2 n=59 v=0
44455 On ch=2 n=64 v=0
44460 On ch=2 n=64 v=93
44462 On ch=2 n=59 v=93
44464 On ch=2 n=57 v=93
44466 On ch=2 n=52 v=93
44468 On ch=2 n=47 v=93
44470 On ch=2 n=40 v=93
44554 On ch=2 n=57 v=0
44556 On ch=2 n=52 v=0
44558 On ch=2 n=47 v=0
44560 On ch=2 n=40 v=0
44565 On ch=2 n=64 v=0
44567 On ch=2 n=59 v=0
44580 On ch=2 n=64 v=101
44582 On ch=2 n=59 v=101
44584 On ch=2 n=57 v=98
44586 On ch=2 n=52 v=98
44588 On ch=2 n=47 v=95
44590 On ch=2 n=40 v=93
44625 On ch=2 n=64 v=0
44627 On ch=2 n=59 v=0
44629 On ch=2 n=57 v=0
44631 On ch=2 n=52 v=0
44633 On ch=2 n=47 v=0
44635 On ch=2 n=40 v=0
44646 On ch=2 n=47 v=92
44648 On ch=2 n=54 v=92
44651 On ch=2 n=59 v=95
44655 On ch=2 n=63 v=98
44750 On ch=2 n=59 v=0
44752 On ch=2 n=54 v=0
44756 On ch=2 n=63 v=0
44759 On ch=2 n=47 v=0
44763 On ch=2 n=63 v=70
44763 On ch=2 n=47 v=70
44763 On ch=2 n=54 v=70
44763 On ch=2 n=59 v=70
44778 On ch=2 n=59 v=0
44778 On ch=2 n=63 v=0
44778 On ch=2 n=47 v=0
44778 On ch=2 n=54 v=0
44823 On ch=2 n=63 v=68
44824 On ch=2 n=59 v=68
44825 On ch=2 n=54 v=68
44826 On ch=2 n=47 v=68
44838 On ch=2 n=63 v=0
44839 On ch=2 n=59 v=0
44840 On ch=2 n=54 v=0
44841 On ch=2 n=47 v=0
44886 On ch=2 n=47 v=87
44887 On ch=2 n=54 v=87
44888 On ch=2 n=59 v=87
44889 On ch=2 n=63 v=87
44933 On ch=2 n=63 v=0
44936 On ch=2 n=47 v=0
44936 On ch=2 n=54 v=0
44936 On ch=2 n=59 v=0
44943 On ch=2 n=63 v=85
44944 On ch=2 n=59 v=85
44945 On ch=2 n=54 v=85
44946 On ch=2 n=47 v=85
44993 On ch=2 n=63 v=0
44996 On ch=2 n=59 v=0
44996 On ch=2 n=54 v=0
44996 On ch=2 n=47 v=0
45063 On ch=2 n=64 v=101
45065 On ch=2 n=59 v=101
45067 On ch=2 n=54 v=107
45068 On ch=2 n=47 v=107
45171 On ch=2 n=47 v=0
45174 On ch=2 n=59 v=0
45176 On ch=2 n=64 v=0
45178 On ch=2 n=54 v=0
45183 On ch=2 n=64 v=84
45185 On ch=2 n=59 v=84
45187 On ch=2 n=54 v=84
45189 On ch=2 n=47 v=84
45228 On ch=2 n=64 v=0
45230 On ch=2 n=59 v=0
45232 On ch=2 n=54 v=0
45234 On ch=2 n=47 v=0
45243 On ch=2 n=47 v=99
45245 On ch=2 n=54 v=99
45247 On ch=2 n=59 v=99
45249 On ch=2 n=64 v=99
45349 On ch=2 n=54 v=0
45353 On ch=2 n=47 v=0
45353 On ch=2 n=59 v=0
45353 On ch=2 n=64 v=0
45363 On ch=2 n=47 v=98
45364 On ch=2 n=54 v=98
45365 On ch=2 n=59 v=98
45366 On ch=2 n=64 v=98
45413 On ch=2 n=47 v=0
45416 On ch=2 n=54 v=0
45416 On ch=2 n=59 v=0
45416 On ch=2 n=64 v=0
45423 On ch=2 n=64 v=96
45424 On ch=2 n=59 v=96
45425 On ch=2 n=54 v=96
45426 On ch=2 n=47 v=96
45533 On ch=2 n=64 v=0
45536 On ch=2 n=59 v=0
45536 On ch=2 n=47 v=0
45543 On ch=2 n=54 v=0
45546 On ch=2 n=64 v=103
45549 On ch=2 n=59 v=100
45551 On ch=2 n=47 v=98
45553 On ch=2 n=54 v=96
45586 On ch=2 n=64 v=0
45593 On ch=2 n=59 v=0
45596 On ch=2 n=47 v=0
45596 On ch=2 n=54 v=0
45600 On ch=2 n=45 v=72
45613 On ch=2 n=50 v=75
45618 On ch=2 n=57 v=78
45624 On ch=2 n=62 v=82
45640 On ch=2 n=66 v=90
45774 On ch=2 n=62 v=0
45775 On ch=2 n=66 v=0
45778 On ch=2 n=50 v=0
45780 On ch=2 n=45 v=0
45780 On ch=2 n=40 v=73
45783 On ch=2 n=57 v=0
45785 On ch=2 n=47 v=73
45791 On ch=2 n=52 v=77
45796 On ch=2 n=57 v=77
45801 On ch=2 n=59 v=81
45807 On ch=2 n=64 v=84
45956 On ch=2 n=52 v=0
45957 On ch=2 n=64 v=0
45960 On ch=2 n=40 v=0
45960 On ch=2 n=45 v=67
45961 On ch=2 n=57 v=0
45965 On ch=2 n=47 v=0
45966 On ch=2 n=59 v=0
45973 On ch=2 n=50 v=73
45978 On ch=2 n=57 v=75
45984 On ch=2 n=62 v=77
46000 On ch=2 n=66 v=83
46134 On ch=2 n=62 v=0
46135 On ch=2 n=66 v=0
46138 On ch=2 n=50 v=0
46140 On ch=2 n=45 v=0
46140 On ch=2 n=40 v=78
46143 On ch=2 n=57 v=0
46145 On ch=2 n=47 v=79
46151 On ch=2 n=52 v=82
46156 On ch=2 n=57 v=84
46161 On ch=2 n=61 v=87
46167 On ch=2 n=66 v=90
46826 On ch=2 n=52 v=0
46827 On ch=2 n=66 v=0
46831 On ch=2 n=57 v=0
46835 On ch=2 n=47 v=0
46836 On ch=2 n=61 v=0
46845 On ch=2 n=40 v=0
46866 On ch=2 n=47 v=92
46868 On ch=2 n=54 v=92
46871 On ch=2 n=59 v=95
46875 On ch=2 n=63 v=98
46970 On ch=2 n=59 v=0
46972 On ch=2 n=54 v=0
46976 On ch=2 n=63 v=0
46979 On ch=2 n=47 v=0
46983 On ch=2 n=63 v=70
46983 On ch=2 n=47 v=70
46983 On ch=2 n=54 v=70
46983 On ch=2 n=59 v=70
46998 On ch=2 n=59 v=0
46998 On ch=2 n=63 v=0
46998 On ch=2 n=47 v=0
46998 On ch=2 n=54 v=0
47043 On ch=2 n=63 v=68
47044 On ch=2 n=59 v=68
47045 On ch=2 n=54 v=68
47046 On ch=2 n=47 v=68
47058 On ch=2 n=63 v=0
47059 On ch=2 n=59 v=0
47060 On ch=2 n=54 v=0
47061 On ch=2 n=47 v=0
47106 On ch=2 n=47 v=87
47107 On ch=2 n=54 v=87
47108 On ch=2 n=59 v=87
47109 On ch=2 n=63 v=87
47153 On ch=2 n=63 v=0
47156 On ch=2 n=47 v=0
47156 On ch=2 n=54 v=0
47156 On ch=2 n=59 v=0
47163 On ch=2 n=63 v=85
47164 On ch=2 n=59 v=85
47165 On ch=2 n=54 v=85
47166 On ch=2 n=47 v=85
47213 On ch=2 n=63 v=0
47216 On ch=2 n=59 v=0
47216 On ch=2 n=54 v=0
47216 On ch=2 n=47 v=0
47283 On ch=2 n=64 v=101
47285 On ch=2 n=59 v=101
47287 On ch=2 n=54 v=107
47288 On ch=2 n=47 v=107
47391 On ch=2 n=47 v=0
47394 On ch=2 n=59 v=0
47396 On ch=2 n=64 v=0
47398 On ch=2 n=54 v=0
47403 On ch=2 n=64 v=84
47405 On ch=2 n=59 v=84
47407 On ch=2 n=54 v=84
47409 On ch=2 n=47 v=84
47448 On ch=2 n=64 v=0
47450 On ch=2 n=59 v=0
47452 On ch=2 n=54 v=0
47454 On ch=2 n=47 v=0
47463 On ch=2 n=47 v=99
47465 On ch=2 n=54 v=99
47467 On ch=2 n=59 v=99
47469 On ch=2 n=64 v=99
47569 On ch=2 n=54 v=0
47573 On ch=2 n=47 v=0
47573 On ch=2 n=59 v=0
47573 On ch=2 n=64 v=0
47583 On ch=2 n=47 v=98
47584 On ch=2 n=54 v=98
47585 On ch=2 n=59 v=98
47586 On ch=2 n=64 v=98
47633 On ch=2 n=47 v=0
47636 On ch=2 n=54 v=0
47636 On ch=2 n=59 v=0
47636 On ch=2 n=64 v=0
47643 On ch=2 n=64 v=96
47644 On ch=2 n=59 v=96
47645 On ch=2 n=54 v=96
47646 On ch=2 n=47 v=96
47753 On ch=2 n=64 v=0
47756 On ch=2 n=59 v=0
47756 On ch=2 n=47 v=0
47763 On ch=2 n=54 v=0
47766 On ch=2 n=64 v=103
47769 On ch=2 n=59 v=100
47771 On ch=2 n=47 v=98
47773 On ch=2 n=54 v=96
47806 On ch=2 n=64 v=0
47813 On ch=2 n=59 v=0
47816 On ch=2 n=47 v=0
47816 On ch=2 n=54 v=0
47826 On ch=2 n=47 v=92
47828 On ch=2 n=54 v=92
47831 On ch=2 n=59 v=95
47835 On ch=2 n=63 v=98
47930 On ch=2 n=59 v=0
47932 On ch=2 n=54 v=0
47936 On ch=2 n=63 v=0
47939 On ch=2 n=47 v=0
47943 On ch=2 n=63 v=70
47943 On ch=2 n=47 v=70
47943 On ch=2 n=54 v=70
47943 On ch=2 n=59 v=70
47958 On ch=2 n=59 v=0
47958 On ch=2 n=63 v=0
47958 On ch=2 n=47 v=0
47958 On ch=2 n=54 v=0
48003 On ch=2 n=63 v=68
48004 On ch=2 n=59 v=68
48005 On ch=2 n=54 v=68
48006 On ch=2 n=47 v=68
48018 On ch=2 n=63 v=0
48019 On ch=2 n=59 v=0
48020 On ch=2 n=54 v=0
48021 On ch=2 n=47 v=0
48066 On ch=2 n=47 v=87
48067 On ch=2 n=54 v=87
48068 On ch=2 n=59 v=87
48069 On ch=2 n=63 v=87
48113 On ch=2 n=63 v=0
48116 On ch=2 n=47 v=0
48116 On ch=2 n=54 v=0
48116 On ch=2 n=59 v=0
48123 On ch=2 n=63 v=85
48124 On ch=2 n=59 v=85
48125 On ch=2 n=54 v=85
48126 On ch=2 n=47 v=85
48173 On ch=2 n=63 v=0
48176 On ch=2 n=59 v=0
48176 On ch=2 n=54 v=0
48176 On ch=2 n=47 v=0
48243 On ch=2 n=64 v=101
48245 On ch=2 n=59 v=101
48247 On ch=2 n=54 v=107
48248 On ch=2 n=47 v=107
48351 On ch=2 n=47 v=0
48354 On ch=2 n=59 v=0
48356 On ch=2 n=64 v=0
48358 On ch=2 n=54 v=0
48363 On ch=2 n=64 v=84
48365 On ch=2 n=59 v=84
48367 On ch=2 n=54 v=84
48369 On ch=2 n=47 v=84
48408 On ch=2 n=64 v=0
48410 On ch=2 n=59 v=0
48412 On ch=2 n=54 v=0
48414 On ch=2 n=47 v=0
48423 On ch=2 n=47 v=99
48425 On ch=2 n=54 v=99
48427 On ch=2 n=59 v=99
48429 On ch=2 n=64 v=99
48529 On ch=2 n=54 v=0
48533 On ch=2 n=47 v=0
48533 On ch=2 n=59 v=0
48533 On ch=2 n=64 v=0
48543 On ch=2 n=47 v=98
48544 On ch=2 n=54 v=98
48545 On ch=2 n=59 v=98
48546 On ch=2 n=64 v=98
48593 On ch=2 n=47 v=0
48596 On ch=2 n=54 v=0
48596 On ch=2 n=59 v=0
48596 On ch=2 n=64 v=0
48603 On ch=2 n=64 v=96
48604 On ch=2 n=59 v=96
48605 On ch=2 n=54 v=96
48606 On ch=2 n=47 v=96
48713 On ch=2 n=64 v=0
48716 On ch=2 n=59 v=0
48716 On ch=2 n=47 v=0
48723 On ch=2 n=54 v=0
48726 On ch=2 n=64 v=103
48729 On ch=2 n=59 v=100
48731 On ch=2 n=47 v=98
48733 On ch=2 n=54 v=96
48766 On ch=2 n=64 v=0
48773 On ch=2 n=59 v=0
48776 On ch=2 n=47 v=0
48776 On ch=2 n=54 v=0
48786 On ch=2 n=47 v=92
48788 On ch=2 n=54 v=92
48791 On ch=2 n=59 v=95
48795 On ch=2 n=63 v=98
48890 On ch=2 n=59 v=0
48892 On ch=2 n=54 v=0
48896 On ch=2 n=63 v=0
48899 On ch=2 n=47 v=0
48903 On ch=2 n=63 v=70
48903 On ch=2 n=47 v=70
48903 On ch=2 n=54 v=70
48903 On ch=2 n=59 v=70
48918 On ch=2 n=59 v=0
48918 On ch=2 n=63 v=0
48918 On ch=2 n=47 v=0
48918 On ch=2 n=54 v=0
48963 On ch=2 n=63 v=68
48964 On ch=2 n=59 v=68
48965 On ch=2 n=54 v=68
48966 On ch=2 n=47 v=68
48978 On ch=2 n=63 v=0
48979 On ch=2 n=59 v=0
48980 On ch=2 n=54 v=0
48981 On ch=2 n=47 v=0
49026 On ch=2 n=47 v=87
49027 On ch=2 n=54 v=87
49028 On ch=2 n=59 v=87
49029 On ch=2 n=63 v=87
49073 On ch=2 n=63 v=0
49076 On ch=2 n=47 v=0
49076 On ch=2 n=54 v=0
49076 On ch=2 n=59 v=0
49083 On ch=2 n=63 v=85
49084 On ch=2 n=59 v=85
49085 On ch=2 n=54 v=85
49086 On ch=2 n=47 v=85
49133 On ch=2 n=63 v=0
49136 On ch=2 n=59 v=0
49136 On ch=2 n=54 v=0
49136 On ch=2 n=47 v=0
49203 On ch=2 n=64 v=101
49205 On ch=2 n=59 v=101
49207 On ch=2 n=54 v=107
49208 On ch=2 n=47 v=107
49311 On ch=2 n=47 v=0
49314 On ch=2 n=59 v=0
49316 On ch=2 n=64 v=0
49318 On ch=2 n=54 v=0
49323 On ch=2 n=64 v=84
49325 On ch=2 n=59 v=84
49327 On ch=2 n=54 v=84
49329 On ch=2 n=47 v=84
49368 On ch=2 n=64 v=0
49370 On ch=2 n=59 v=0
49372 On ch=2 n=54 v=0
49374 On ch=2 n=47 v=0
49383 On ch=2 n=47 v=99
49385 On ch=2 n=54 v=99
49387 On ch=2 n=59 v=99
49389 On ch=2 n=64 v=99
49489 On ch=2 n=54 v=0
49493 On ch=2 n=47 v=0
49493 On ch=2 n=59 v=0
49493 On ch=2 n=64 v=0
49503 On ch=2 n=47 v=98
49504 On ch=2 n=54 v=98
49505 On ch=2 n=59 v=98
49506 On ch=2 n=64 v=98
49553 On ch=2 n=47 v=0
49556 On ch=2 n=54 v=0
49556 On ch=2 n=59 v=0
49556 On ch=2 n=64 v=0
49563 On ch=2 n=64 v=96
49564 On ch=2 n=59 v=96
49565 On ch=2 n=54 v=96
49566 On ch=2 n=47 v=96
49673 On ch=2 n=64 v=0
49676 On ch=2 n=59 v=0
49676 On ch=2 n=47 v=0
49683 On ch=2 n=54 v=0
49686 On ch=2 n=64 v=103
49689 On ch=2 n=59 v=100
49691 On ch=2 n=47 v=98
49693 On ch=2 n=54 v=96
49726 On ch=2 n=64 v=0
49733 On ch=2 n=59 v=0
49736 On ch=2 n=47 v=0
49736 On ch=2 n=54 v=0
49746 On ch=2 n=47 v=92
49748 On ch=2 n=54 v=92
49751 On ch=2 n=59 v=95
49755 On ch=2 n=63 v=98
49850 On ch=2 n=59 v=0
49852 On ch=2 n=54 v=0
49856 On ch=2 n=63 v=0
49859 On ch=2 n=47 v=0
49863 On ch=2 n=63 v=70
49863 On ch=2 n=47 v=70
49863 On ch=2 n=54 v=70
49863 On ch=2 n=59 v=70
49878 On ch=2 n=59 v=0
49878 On ch=2 n=63 v=0
49878 On ch=2 n=47 v=0
49878 On ch=2 n=54 v=0
49923 On ch=2 n=63 v=68
49924 On ch=2 n=59 v=68
49925 On ch=2 n=54 v=68
49926 On ch=2 n=47 v=68
49938 On ch=2 n=63 v=0
49939 On ch=2 n=59 v=0
49940 On ch=2 n=54 v=0
49941 On ch=2 n=47 v=0
49986 On ch=2 n=47 v=87
49987 On ch=2 n=54 v=87
49988 On ch=2 n=59 v=87
49989 On ch=2 n=63 v=87
50033 On ch=2 n=63 v=0
50036 On ch=2 n=47 v=0
50036 On ch=2 n=54 v=0
50036 On ch=2 n=59 v=0
50043 On ch=2 n=63 v=85
50044 On ch=2 n=59 v=85
50045 On ch=2 n=54 v=85
50046 On ch=2 n=47 v=85
50093 On ch=2 n=63 v=0
50096 On ch=2 n=59 v=0
50096 On ch=2 n=54 v=0
50096 On ch=2 n=47 v=0
50163 On ch=2 n=64 v=101
50165 On ch=2 n=59 v=101
50167 On ch=2 n=54 v=107
50168 On ch=2 n=47 v=107
50271 On ch=2 n=47 v=0
50274 On ch=2 n=59 v=0
50276 On ch=2 n=64 v=0
50278 On ch=2 n=54 v=0
50283 On ch=2 n=64 v=84
50285 On ch=2 n=59 v=84
50287 On ch=2 n=54 v=84
50289 On ch=2 n=47 v=84
50328 On ch=2 n=64 v=0
50330 On ch=2 n=59 v=0
50332 On ch=2 n=54 v=0
50334 On ch=2 n=47 v=0
50343 On ch=2 n=47 v=99
50345 On ch=2 n=54 v=99
50347 On ch=2 n=59 v=99
50349 On ch=2 n=64 v=99
50449 On ch=2 n=54 v=0
50453 On ch=2 n=47 v=0
50453 On ch=2 n=59 v=0
50453 On ch=2 n=64 v=0
50463 On ch=2 n=47 v=98
50464 On ch=2 n=54 v=98
50465 On ch=2 n=59 v=98
50466 On ch=2 n=64 v=98
50513 On ch=2 n=47 v=0
50516 On ch=2 n=54 v=0
50516 On ch=2 n=59 v=0
50516 On ch=2 n=64 v=0
50523 On ch=2 n=64 v=96
50524 On ch=2 n=59 v=96
50525 On ch=2 n=54 v=96
50526 On ch=2 n=47 v=96
50633 On ch=2 n=64 v=0
50636 On ch=2 n=59 v=0
50636 On ch=2 n=47 v=0
50643 On ch=2 n=54 v=0
50646 On ch=2 n=64 v=103
50649 On ch=2 n=59 v=100
50651 On ch=2 n=47 v=98
50653 On ch=2 n=54 v=96
50686 On ch=2 n=64 v=0
50693 On ch=2 n=59 v=0
50696 On ch=2 n=47 v=0
50696 On ch=2 n=54 v=0
50700 On ch=2 n=43 v=90
50702 On ch=2 n=50 v=90
50704 On ch=2 n=55 v=90
50706 On ch=2 n=59 v=90
50708 On ch=2 n=62 v=90
50710 On ch=2 n=67 v=90
50854 On ch=2 n=43 v=0
50856 On ch=2 n=50 v=0
50858 On ch=2 n=55 v=0
50860 On ch=2 n=59 v=0
50862 On ch=2 n=62 v=0
50864 On ch=2 n=67 v=0
50880 On ch=2 n=67 v=90
50882 On ch=2 n=62 v=90
50884 On ch=2 n=59 v=90
50886 On ch=2 n=55 v=90
50888 On ch=2 n=50 v=90
50890 On ch=2 n=43 v=90
50978 On ch=2 n=50 v=0
50980 On ch=2 n=43 v=0
50985 On ch=2 n=67 v=0
50987 On ch=2 n=62 v=0
50989 On ch=2 n=59 v=0
50991 On ch=2 n=55 v=0
51000 On ch=2 n=67 v=90
51002 On ch=2 n=62 v=90
51004 On ch=2 n=59 v=90
51006 On ch=2 n=55 v=90
51008 On ch=2 n=50 v=90
51010 On ch=2 n=43 v=90
51045 On ch=2 n=67 v=0
51047 On ch=2 n=62 v=0
51049 On ch=2 n=59 v=0
51051 On ch=2 n=55 v=0
51053 On ch=2 n=50 v=0
51055 On ch=2 n=43 v=0
51060 On ch=2 n=43 v=90
51062 On ch=2 n=50 v=90
51064 On ch=2 n=55 v=90
51066 On ch=2 n=59 v=90
51068 On ch=2 n=62 v=90
51070 On ch=2 n=67 v=90
51166 On ch=2 n=62 v=0
51170 On ch=2 n=59 v=0
51170 On ch=2 n=50 v=0
51170 On ch=2 n=43 v=0
51173 On ch=2 n=67 v=0
51173 On ch=2 n=55 v=0
51180 On ch=2 n=52 v=90
51183 On ch=2 n=59 v=90
51186 On ch=2 n=64 v=90
51188 On ch=2 n=68 v=90
51191 On ch=2 n=71 v=90
51330 On ch=2 n=68 v=0
51330 On ch=2 n=52 v=0
51333 On ch=2 n=59 v=0
51333 On ch=2 n=64 v=0
51333 On ch=2 n=71 v=0
51360 On ch=2 n=71 v=90
51363 On ch=2 n=68 v=90
51365 On ch=2 n=64 v=90
51366 On ch=2 n=59 v=90
51369 On ch=2 n=52 v=90
51470 On ch=2 n=71 v=0
51473 On ch=2 n=68 v=0
51475 On ch=2 n=64 v=0
51476 On ch=2 n=59 v=0
51479 On ch=2 n=52 v=0
51480 On ch=2 n=71 v=90
51482 On ch=2 n=68 v=90
51484 On ch=2 n=64 v=90
51486 On ch=2 n=59 v=90
51488 On ch=2 n=52 v=90
51526 On ch=2 n=68 v=0
51526 On ch=2 n=71 v=0
51530 On ch=2 n=59 v=0
51530 On ch=2 n=64 v=0
51530 On ch=2 n=52 v=0
51540 On ch=2 n=52 v=90
51542 On ch=2 n=59 v=90
51544 On ch=2 n=64 v=90
51546 On ch=2 n=68 v=90
51548 On ch=2 n=71 v=90
51643 On ch=2 n=52 v=0
51646 On ch=2 n=64 v=0
51650 On ch=2 n=59 v=0
51650 On ch=2 n=68 v=0
51650 On ch=2 n=71 v=0
51666 On ch=2 n=47 v=92
51668 On ch=2 n=54 v=92
51671 On ch=2 n=59 v=95
51675 On ch=2 n=63 v=98
51770 On ch=2 n=59 v=0
51772 On ch=2 n=54 v=0
51776 On ch=2 n=63 v=0
51779 On ch=2 n=47 v=0
51783 On ch=2 n=63 v=70
51783 On ch=2 n=47 v=70
51783 On ch=2 n=54 v=70
51783 On ch=2 n=59 v=70
51798 On ch=2 n=59 v=0
51798 On ch=2 n=63 v=0
51798 On ch=2 n=47 v=0
51798 On ch=2 n=54 v=0
51843 On ch=2 n=63 v=68
51844 On ch=2 n=59 v=68
51845 On ch=2 n=54 v=68
51846 On ch=2 n=47 v=68
51858 On ch=2 n=63 v=0
51859 On ch=2 n=59 v=0
51860 On ch=2 n=54 v=0
51861 On ch=2 n=47 v=0
51906 On ch=2 n=47 v=87
51907 On ch=2 n=54 v=87
51908 On ch=2 n=59 v=87
51909 On ch=2 n=63 v=87
51953 On ch=2 n=63 v=0
51956 On ch=2 n=47 v=0
51956 On ch=2 n=54 v=0
51956 On ch=2 n=59 v=0
51963 On ch=2 n=63 v=85
51964 On ch=2 n=59 v=85
51965 On ch=2 n=54 v=85
51966 On ch=2 n=47 v=85
52013 On ch=2 n=63 v=0
52016 On ch=2 n=59 v=0
52016 On ch=2 n=54 v=0
52016 On ch=2 n=47 v=0
52083 On ch=2 n=64 v=101
52085 On ch=2 n=59 v=101
52087 On ch=2 n=54 v=107
52088 On ch=2 n=47 v=107
52191 On ch=2 n=47 v=0
52194 On ch=2 n=59 v=0
52196 On ch=2 n=64 v=0
52198 On ch=2 n=54 v=0
52203 On ch=2 n=64 v=84
52205 On ch=2 n=59 v=84
52207 On ch=2 n=54 v=84
52209 On ch=2 n=47 v=84
52248 On ch=2 n=64 v=0
52250 On ch=2 n=59 v=0
52252 On ch=2 n=54 v=0
52254 On ch=2 n=47 v=0
52263 On ch=2 n=47 v=99
52265 On ch=2 n=54 v=99
52267 On ch=2 n=59 v=99
52269 On ch=2 n=64 v=99
52369 On ch=2 n=54 v=0
52373 On ch=2 n=47 v=0
52373 On ch=2 n=59 v=0
52373 On ch=2 n=64 v=0
52383 On ch=2 n=47 v=98
52384 On ch=2 n=54 v=98
52385 On ch=2 n=59 v=98
52386 On ch=2 n=64 v=98
52433 On ch=2 n=47 v=0
52436 On ch=2 n=54 v=0
52436 On ch=2 n=59 v=0
52436 On ch=2 n=64 v=0
52443 On ch=2 n=64 v=96
52444 On ch=2 n=59 v=96
52445 On ch=2 n=54 v=96
52446 On ch=2 n=47 v=96
52553 On ch=2 n=64 v=0
52556 On ch=2 n=59 v=0
52556 On ch=2 n=47 v=0
52563 On ch=2 n=54 v=0
52566 On ch=2 n=64 v=103
52569 On ch=2 n=59 v=100
52571 On ch=2 n=47 v=98
52573 On ch=2 n=54 v=96
52606 On ch=2 n=64 v=0
52613 On ch=2 n=59 v=0
52616 On ch=2 n=47 v=0
52616 On ch=2 n=54 v=0
52620 On ch=2 n=43 v=90
52622 On ch=2 n=50 v=90
52624 On ch=2 n=55 v=90
52626 On ch=2 n=59 v=90
52628 On ch=2 n=62 v=90
52630 On ch=2 n=67 v=90
52774 On ch=2 n=43 v=0
52776 On ch=2 n=50 v=0
52778 On ch=2 n=55 v=0
52780 On ch=2 n=59 v=0
52782 On ch=2 n=62 v=0
52784 On ch=2 n=67 v=0
52800 On ch=2 n=67 v=90
52802 On ch=2 n=62 v=90
52804 On ch=2 n=59 v=90
52806 On ch=2 n=55 v=90
52808 On ch=2 n=50 v=90
52810 On ch=2 n=43 v=90
52898 On ch=2 n=50 v=0
52900 On ch=2 n=43 v=0
52905 On ch=2 n=67 v=0
52907 On ch=2 n=62 v=0
52909 On ch=2 n=59 v=0
52911 On ch=2 n=55 v=0
52920 On ch=2 n=67 v=90
52922 On ch=2 n=62 v=90
52924 On ch=2 n=59 v=90
52926 On ch=2 n=55 v=90
52928 On ch=2 n=50 v=90
52930 On ch=2 n=43 v=90
52965 On ch=2 n=67 v=0
52967 On ch=2 n=62 v=0
52969 On ch=2 n=59 v=0
52971 On ch=2 n=55 v=0
52973 On ch=2 n=50 v=0
52975 On ch=2 n=43 v=0
52980 On ch=2 n=43 v=90
52982 On ch=2 n=50 v=90
52984 On ch=2 n=55 v=90
52986 On ch=2 n=59 v=90
52988 On ch=2 n=62 v=90
52990 On ch=2 n=67 v=90
53086 On ch=2 n=62 v=0
53090 On ch=2 n=59 v=0
53090 On ch=2 n=50 v=0
53090 On ch=2 n=43 v=0
53093 On ch=2 n=67 v=0
53093 On ch=2 n=55 v=0
53100 On ch=2 n=52 v=90
53103 On ch=2 n=59 v=90
53106 On ch=2 n=64 v=90
53108 On ch=2 n=68 v=90
53111 On ch=2 n=71 v=90
53250 On ch=2 n=68 v=0
53250 On ch=2 n=52 v=0
53253 On ch=2 n=59 v=0
53253 On ch=2 n=64 v=0
53253 On ch=2 n=71 v=0
53280 On ch=2 n=71 v=90
53283 On ch=2 n=68 v=90
53285 On ch=2 n=64 v=90
53286 On ch=2 n=59 v=90
53289 On ch=2 n=52 v=90
53390 On ch=2 n=71 v=0
53393 On ch=2 n=68 v=0
53395 On ch=2 n=64 v=0
53396 On ch=2 n=59 v=0
53399 On ch=2 n=52 v=0
53400 On ch=2 n=71 v=90
53402 On ch=2 n=68 v=90
53404 On ch=2 n=64 v=90
53406 On ch=2 n=59 v=90
53408 On ch=2 n=52 v=90
53446 On ch=2 n=68 v=0
53446 On ch=2 n=71 v=0
53450 On ch=2 n=59 v=0
53450 On ch=2 n=64 v=0
53450 On ch=2 n=52 v=0
53460 On ch=2 n=52 v=90
53462 On ch=2 n=59 v=90
53464 On ch=2 n=64 v=90
53466 On ch=2 n=68 v=90
53468 On ch=2 n=71 v=90
53563 On ch=2 n=52 v=0
53566 On ch=2 n=64 v=0
53570 On ch=2 n=59 v=0
53570 On ch=2 n=68 v=0
53570 On ch=2 n=71 v=0
53586 On ch=2 n=47 v=92
53588 On ch=2 n=54 v=92
53591 On ch=2 n=59 v=95
53595 On ch=2 n=63 v=98
53690 On ch=2 n=59 v=0
53692 On ch=2 n=54 v=0
53696 On ch=2 n=63 v=0
53699 On ch=2 n=47 v=0
53703 On ch=2 n=63 v=70
53703 On ch=2 n=47 v=70
53703 On ch=2 n=54 v=70
53703 On ch=2 n=59 v=70
53718 On ch=2 n=59 v=0
53718 On ch=2 n=63 v=0
53718 On ch=2 n=47 v=0
53718 On ch=2 n=54 v=0
53763 On ch=2 n=63 v=68
53764 On ch=2 n=59 v=68
53765 On ch=2 n=54 v=68
53766 On ch=2 n=47 v=68
53778 On ch=2 n=63 v=0
53779 On ch=2 n=59 v=0
53780 On ch=2 n=54 v=0
53781 On ch=2 n=47 v=0
53826 On ch=2 n=47 v=87
53827 On ch=2 n=54 v=87
53828 On ch=2 n=59 v=87
53829 On ch=2 n=63 v=87
53873 On ch=2 n=63 v=0
53876 On ch=2 n=47 v=0
53876 On ch=2 n=54 v=0
53876 On ch=2 n=59 v=0
53883 On ch=2 n=63 v=85
53884 On ch=2 n=59 v=85
53885 On ch=2 n=54 v=85
53886 On ch=2 n=47 v=85
53933 On ch=2 n=63 v=0
53936 On ch=2 n=59 v=0
53936 On ch=2 n=54 v=0
53936 On ch=2 n=47 v=0
54003 On ch=2 n=64 v=101
54005 On ch=2 n=59 v=101
54007 On ch=2 n=54 v=107
54008 On ch=2 n=47 v=107
54111 On ch=2 n=47 v=0
54114 On ch=2 n=59 v=0
54116 On ch=2 n=64 v=0
54118 On ch=2 n=54 v=0
54123 On ch=2 n=64 v=84
54125 On ch=2 n=59 v=84
54127 On ch=2 n=54 v=84
54129 On ch=2 n=47 v=84
54168 On ch=2 n=64 v=0
54170 On ch=2 n=59 v=0
54172 On ch=2 n=54 v=0
54174 On ch=2 n=47 v=0
54183 On ch=2 n=47 v=99
54185 On ch=2 n=54 v=99
54187 On ch=2 n=59 v=99
54189 On ch=2 n=64 v=99
54289 On ch=2 n=54 v=0
54293 On ch=2 n=47 v=0
54293 On ch=2 n=59 v=0
54293 On ch=2 n=64 v=0
54303 On ch=2 n=47 v=98
54304 On ch=2 n=54 v=98
54305 On ch=2 n=59 v=98
54306 On ch=2 n=64 v=98
54353 On ch=2 n=47 v=0
54356 On ch=2 n=54 v=0
54356 On ch=2 n=59 v=0
54356 On ch=2 n=64 v=0
54363 On ch=2 n=64 v=96
54364 On ch=2 n=59 v=96
54365 On ch=2 n=54 v=96
54366 On ch=2 n=47 v=96
54473 On ch=2 n=64 v=0
54476 On ch=2 n=59 v=0
54476 On ch=2 n=47 v=0
54483 On ch=2 n=54 v=0
54486 On ch=2 n=64 v=103
54489 On ch=2 n=59 v=100
54491 On ch=2 n=47 v=98
54493 On ch=2 n=54 v=96
54526 On ch=2 n=64 v=0
54533 On ch=2 n=59 v=0
54536 On ch=2 n=47 v=0
54536 On ch=2 n=54 v=0
54546 On ch=2 n=47 v=92
54548 On ch=2 n=54 v=92
54551 On ch=2 n=59 v=95
54555 On ch=2 n=63 v=98
54650 On ch=2 n=59 v=0
54652 On ch=2 n=54 v=0
54656 On ch=2 n=63 v=0
54659 On ch=2 n=47 v=0
54663 On ch=2 n=63 v=70
54663 On ch=2 n=47 v=70
54663 On ch=2 n=54 v=70
54663 On ch=2 n=59 v=70
54678 On ch=2 n=59 v=0
54678 On ch=2 n=63 v=0
54678 On ch=2 n=47 v=0
54678 On ch=2 n=54 v=0
54723 On ch=2 n=63 v=68
54724 On ch=2 n=59 v=68
54725 On ch=2 n=54 v=68
54726 On ch=2 n=47 v=68
54738 On ch=2 n=63 v=0
54739 On ch=2 n=59 v=0
54740 On ch=2 n=54 v=0
54741 On ch=2 n=47 v=0
54786 On ch=2 n=47 v=87
54787 On ch=2 n=54 v=87
54788 On ch=2 n=59 v=87
54789 On ch=2 n=63 v=87
54833 On ch=2 n=63 v=0
54836 On ch=2 n=47 v=0
54836 On ch=2 n=54 v=0
54836 On ch=2 n=59 v=0
54843 On ch=2 n=63 v=85
54844 On ch=2 n=59 v=85
54845 On ch=2 n=54 v=85
54846 On ch=2 n=47 v=85
54893 On ch=2 n=63 v=0
54896 On ch=2 n=59 v=0
54896 On ch=2 n=54 v=0
54896 On ch=2 n=47 v=0
54963 On ch=2 n=64 v=101
54965 On ch=2 n=59 v=101
54967 On ch=2 n=54 v=107
54968 On ch=2 n=47 v=107
55071 On ch=2 n=47 v=0
55074 On ch=2 n=59 v=0
55076 On ch=2 n=64 v=0
55078 On ch=2 n=54 v=0
55083 On ch=2 n=64 v=84
55085 On ch=2 n=59 v=84
55087 On ch=2 n=54 v=84
55089 On ch=2 n=47 v=84
55128 On ch=2 n=64 v=0
55130 On ch=2 n=59 v=0
55132 On ch=2 n=54 v=0
55134 On ch=2 n=47 v=0
55143 On ch=2 n=47 v=99
55145 On ch=2 n=54 v=99
55147 On ch=2 n=59 v=99
55149 On ch=2 n=64 v=99
55249 On ch=2 n=54 v=0
55253 On ch=2 n=47 v=0
55253 On ch=2 n=59 v=0
55253 On ch=2 n=64 v=0
55263 On ch=2 n=47 v=98
55264 On ch=2 n=54 v=98
55265 On ch=2 n=59 v=98
55266 On ch=2 n=64 v=98
55313 On ch=2 n=47 v=0
55316 On ch=2 n=54 v=0
55316 On ch=2 n=59 v=0
55316 On ch=2 n=64 v=0
55323 On ch=2 n=64 v=96
55324 On ch=2 n=59 v=96
55325 On ch=2 n=54 v=96
55326 On ch=2 n=47 v=96
55433 On ch=2 n=64 v=0
55436 On ch=2 n=59 v=0
55436 On ch=2 n=47 v=0
55443 On ch=2 n=54 v=0
55446 On ch=2 n=64 v=103
55449 On ch=2 n=59 v=100
55451 On ch=2 n=47 v=98
55453 On ch=2 n=54 v=96
55486 On ch=2 n=64 v=0
55493 On ch=2 n=59 v=0
55496 On ch=2 n=47 v=0
55496 On ch=2 n=54 v=0
55506 On ch=2 n=47 v=92
55508 On ch=2 n=54 v=92
55511 On ch=2 n=59 v=95
55515 On ch=2 n=63 v=98
55610 On ch=2 n=59 v=0
55612 On ch=2 n=54 v=0
55616 On ch=2 n=63 v=0
55619 On ch=2 n=47 v=0
55623 On ch=2 n=63 v=70
55623 On ch=2 n=54 v=70
55623 On ch=2 n=59 v=70
55623 On ch=2 n=47 v=70
55638 On ch=2 n=47 v=0
55638 On ch=2 n=63 v=0
55638 On ch=2 n=54 v=0
55638 On ch=2 n=59 v=0
55683 On ch=2 n=63 v=68
55684 On ch=2 n=59 v=68
55685 On ch=2 n=54 v=68
55686 On ch=2 n=47 v=68
55698 On ch=2 n=63 v=0
55699 On ch=2 n=59 v=0
55700 On ch=2 n=54 v=0
55701 On ch=2 n=47 v=0
55746 On ch=2 n=47 v=87
55747 On ch=2 n=54 v=87
55748 On ch=2 n=59 v=87
55749 On ch=2 n=63 v=87
55793 On ch=2 n=63 v=0
55796 On ch=2 n=47 v=0
55796 On ch=2 n=54 v=0
55796 On ch=2 n=59 v=0
55803 On ch=2 n=63 v=85
55804 On ch=2 n=59 v=85
55805 On ch=2 n=54 v=85
55806 On ch=2 n=47 v=85
55853 On ch=2 n=63 v=0
55856 On ch=2 n=59 v=0
55856 On ch=2 n=54 v=0
55856 On ch=2 n=47 v=0
55923 On ch=2 n=64 v=101
55925 On ch=2 n=59 v=101
55927 On ch=2 n=54 v=107
55928 On ch=2 n=47 v=107
56031 On ch=2 n=47 v=0
56034 On ch=2 n=59 v=0
56036 On ch=2 n=64 v=0
56038 On ch=2 n=54 v=0
56043 On ch=2 n=64 v=84
56045 On ch=2 n=59 v=84
56047 On ch=2 n=54 v=84
56049 On ch=2 n=47 v=84
56088 On ch=2 n=64 v=0
56090 On ch=2 n=59 v=0
56092 On ch=2 n=54 v=0
56094 On ch=2 n=47 v=0
56103 On ch=2 n=47 v=99
56105 On ch=2 n=54 v=99
56107 On ch=2 n=59 v=99
56109 On ch=2 n=64 v=99
56209 On ch=2 n=54 v=0
56213 On ch=2 n=47 v=0
56213 On ch=2 n=59 v=0
56213 On ch=2 n=64 v=0
56223 On ch=2 n=47 v=98
56224 On ch=2 n=54 v=98
56225 On ch=2 n=59 v=98
56226 On ch=2 n=64 v=98
56273 On ch=2 n=47 v=0
56276 On ch=2 n=54 v=0
56276 On ch=2 n=59 v=0
56276 On ch=2 n=64 v=0
56283 On ch=2 n=64 v=96
56284 On ch=2 n=59 v=96
56285 On ch=2 n=54 v=96
56286 On ch=2 n=47 v=96
56393 On ch=2 n=64 v=0
56396 On ch=2 n=59 v=0
56396 On ch=2 n=47 v=0
56403 On ch=2 n=54 v=0
56406 On ch=2 n=64 v=103
56409 On ch=2 n=59 v=100
56411 On ch=2 n=47 v=98
56413 On ch=2 n=54 v=96
56446 On ch=2 n=64 v=0
56453 On ch=2 n=59 v=0
56456 On ch=2 n=47 v=0
56456 On ch=2 n=54 v=0
56466 On ch=2 n=47 v=92
56468 On ch=2 n=54 v=92
56471 On ch=2 n=59 v=95
56475 On ch=2 n=63 v=98
56570 On ch=2 n=59 v=0
56572 On ch=2 n=54 v=0
56576 On ch=2 n=63 v=0
56579 On ch=2 n=47 v=0
56583 On ch=2 n=63 v=70
56583 On ch=2 n=47 v=70
56583 On ch=2 n=54 v=70
56583 On ch=2 n=59 v=70
56598 On ch=2 n=59 v=0
56598 On ch=2 n=63 v=0
56598 On ch=2 n=47 v=0
56598 On ch=2 n=54 v=0
56643 On ch=2 n=63 v=68
56644 On ch=2 n=59 v=68
56645 On ch=2 n=54 v=68
56646 On ch=2 n=47 v=68
56658 On ch=2 n=63 v=0
56659 On ch=2 n=59 v=0
56660 On ch=2 n=54 v=0
56661 On ch=2 n=47 v=0
56706 On ch=2 n=47 v=87
56707 On ch=2 n=54 v=87
56708 On ch=2 n=59 v=87
56709 On ch=2 n=63 v=87
56753 On ch=2 n=63 v=0
56756 On ch=2 n=47 v=0
56756 On ch=2 n=54 v=0
56756 On ch=2 n=59 v=0
56763 On ch=2 n=63 v=85
56764 On ch=2 n=59 v=85
56765 On ch=2 n=54 v=85
56766 On ch=2 n=47 v=85
56813 On ch=2 n=63 v=0
56816 On ch=2 n=59 v=0
56816 On ch=2 n=54 v=0
56816 On ch=2 n=47 v=0
56883 On ch=2 n=64 v=101
56885 On ch=2 n=59 v=101
56887 On ch=2 n=54 v=107
56888 On ch=2 n=47 v=107
56991 On ch=2 n=47 v=0
56994 On ch=2 n=59 v=0
56996 On ch=2 n=64 v=0
56998 On ch=2 n=54 v=0
57003 On ch=2 n=64 v=84
57005 On ch=2 n=59 v=84
57007 On ch=2 n=54 v=84
57009 On ch=2 n=47 v=84
57048 On ch=2 n=64 v=0
57050 On ch=2 n=59 v=0
57052 On ch=2 n=54 v=0
57054 On ch=2 n=47 v=0
57063 On ch=2 n=47 v=99
57065 On ch=2 n=54 v=99
57067 On ch=2 n=59 v=99
57069 On ch=2 n=64 v=99
57169 On ch=2 n=54 v=0
57173 On ch=2 n=47 v=0
57173 On ch=2 n=59 v=0
57173 On ch=2 n=64 v=0
57183 On ch=2 n=47 v=98
57184 On ch=2 n=54 v=98
57185 On ch=2 n=59 v=98
57186 On ch=2 n=64 v=98
57233 On ch=2 n=47 v=0
57236 On ch=2 n=54 v=0
57236 On ch=2 n=59 v=0
57236 On ch=2 n=64 v=0
57243 On ch=2 n=64 v=96
57244 On ch=2 n=59 v=96
57245 On ch=2 n=54 v=96
57246 On ch=2 n=47 v=96
57353 On ch=2 n=64 v=0
57356 On ch=2 n=59 v=0
57356 On ch=2 n=47 v=0
57363 On ch=2 n=54 v=0
57366 On ch=2 n=64 v=103
57369 On ch=2 n=59 v=100
57371 On ch=2 n=47 v=98
57373 On ch=2 n=54 v=96
57406 On ch=2 n=64 v=0
57413 On ch=2 n=59 v=0
57416 On ch=2 n=47 v=0
57416 On ch=2 n=54 v=0
57426 On ch=2 n=47 v=92
57428 On ch=2 n=54 v=92
57431 On ch=2 n=59 v=95
57435 On ch=2 n=63 v=98
57530 On ch=2 n=59 v=0
57532 On ch=2 n=54 v=0
57536 On ch=2 n=63 v=0
57539 On ch=2 n=47 v=0
57543 On ch=2 n=54 v=70
57543 On ch=2 n=59 v=70
57543 On ch=2 n=47 v=70
57543 On ch=2 n=63 v=70
57558 On ch=2 n=63 v=0
57558 On ch=2 n=54 v=0
57558 On ch=2 n=59 v=0
57558 On ch=2 n=47 v=0
57603 On ch=2 n=63 v=68
57604 On ch=2 n=59 v=68
57605 On ch=2 n=54 v=68
57606 On ch=2 n=47 v=68
57618 On ch=2 n=63 v=0
57619 On ch=2 n=59 v=0
57620 On ch=2 n=54 v=0
57621 On ch=2 n=47 v=0
57666 On ch=2 n=47 v=87
57667 On ch=2 n=54 v=87
57668 On ch=2 n=59 v=87
57669 On ch=2 n=63 v=87
57713 On ch=2 n=63 v=0
57716 On ch=2 n=47 v=0
57716 On ch=2 n=54 v=0
57716 On ch=2 n=59 v=0
57723 On ch=2 n=63 v=85
57724 On ch=2 n=59 v=85
57725 On ch=2 n=54 v=85
57726 On ch=2 n=47 v=85
57773 On ch=2 n=63 v=0
57776 On ch=2 n=59 v=0
57776 On ch=2 n=54 v=0
57776 On ch=2 n=47 v=0
57843 On ch=2 n=64 v=101
57845 On ch=2 n=59 v=101
57847 On ch=2 n=54 v=107
57848 On ch=2 n=47 v=107
57951 On ch=2 n=47 v=0
57954 On ch=2 n=59 v=0
57956 On ch=2 n=64 v=0
57958 On ch=2 n=54 v=0
57963 On ch=2 n=64 v=84
57965 On ch=2 n=59 v=84
57967 On ch=2 n=54 v=84
57969 On ch=2 n=47 v=84
58008 On ch=2 n=64 v=0
58010 On ch=2 n=59 v=0
58012 On ch=2 n=54 v=0
58014 On ch=2 n=47 v=0
58023 On ch=2 n=47 v=99
58025 On ch=2 n=54 v=99
58027 On ch=2 n=59 v=99
58029 On ch=2 n=64 v=99
58129 On ch=2 n=54 v=0
58133 On ch=2 n=47 v=0
58133 On ch=2 n=59 v=0
58133 On ch=2 n=64 v=0
58143 On ch=2 n=47 v=98
58144 On ch=2 n=54 v=98
58145 On ch=2 n=59 v=98
58146 On ch=2 n=64 v=98
58193 On ch=2 n=47 v=0
58196 On ch=2 n=54 v=0
58196 On ch=2 n=59 v=0
58196 On ch=2 n=64 v=0
58203 On ch=2 n=64 v=96
58204 On ch=2 n=59 v=96
58205 On ch=2 n=54 v=96
58206 On ch=2 n=47 v=96
58313 On ch=2 n=64 v=0
58316 On ch=2 n=59 v=0
58316 On ch=2 n=47 v=0
58323 On ch=2 n=54 v=0
58326 On ch=2 n=64 v=103
58329 On ch=2 n=59 v=100
58331 On ch=2 n=47 v=98
58333 On ch=2 n=54 v=96
58366 On ch=2 n=64 v=0
58373 On ch=2 n=59 v=0
58376 On ch=2 n=47 v=0
58376 On ch=2 n=54 v=0
58386 On ch=2 n=47 v=92
58388 On ch=2 n=54 v=92
58391 On ch=2 n=59 v=95
58395 On ch=2 n=63 v=98
58490 On ch=2 n=59 v=0
58492 On ch=2 n=54 v=0
58496 On ch=2 n=63 v=0
58499 On ch=2 n=47 v=0
58503 On ch=2 n=54 v=70
58503 On ch=2 n=59 v=70
58503 On ch=2 n=47 v=70
58503 On ch=2 n=63 v=70
58518 On ch=2 n=63 v=0
58518 On ch=2 n=54 v=0
58518 On ch=2 n=59 v=0
58518 On ch=2 n=47 v=0
58563 On ch=2 n=63 v=68
58564 On ch=2 n=59 v=68
58565 On ch=2 n=54 v=68
58566 On ch=2 n=47 v=68
58578 On ch=2 n=63 v=0
58579 On ch=2 n=59 v=0
58580 On ch=2 n=54 v=0
58581 On ch=2 n=47 v=0
58626 On ch=2 n=47 v=87
58627 On ch=2 n=54 v=87
58628 On ch=2 n=59 v=87
58629 On ch=2 n=63 v=87
58673 On ch=2 n=63 v=0
58676 On ch=2 n=47 v=0
58676 On ch=2 n=54 v=0
58676 On ch=2 n=59 v=0
58683 On ch=2 n=63 v=85
58684 On ch=2 n=59 v=85
58685 On ch=2 n=54 v=85
58686 On ch=2 n=47 v=85
58733 On ch=2 n=63 v=0
58736 On ch=2 n=59 v=0
58736 On ch=2 n=54 v=0
58736 On ch=2 n=47 v=0
58803 On ch=2 n=64 v=101
58805 On ch=2 n=59 v=101
58807 On ch=2 n=54 v=107
58808 On ch=2 n=47 v=107
58911 On ch=2 n=47 v=0
58914 On ch=2 n=59 v=0
58916 On ch=2 n=64 v=0
58918 On ch=2 n=54 v=0
58923 On ch=2 n=64 v=84
58925 On ch=2 n=59 v=84
58927 On ch=2 n=54 v=84
58929 On ch=2 n=47 v=84
58968 On ch=2 n=64 v=0
58970 On ch=2 n=59 v=0
58972 On ch=2 n=54 v=0
58974 On ch=2 n=47 v=0
58983 On ch=2 n=47 v=99
58985 On ch=2 n=54 v=99
58987 On ch=2 n=59 v=99
58989 On ch=2 n=64 v=99
59089 On ch=2 n=54 v=0
59093 On ch=2 n=47 v=0
59093 On ch=2 n=59 v=0
59093 On ch=2 n=64 v=0
59103 On ch=2 n=47 v=98
59104 On ch=2 n=54 v=98
59105 On ch=2 n=59 v=98
59106 On ch=2 n=64 v=98
59153 On ch=2 n=47 v=0
59156 On ch=2 n=54 v=0
59156 On ch=2 n=59 v=0
59156 On ch=2 n=64 v=0
59163 On ch=2 n=64 v=96
59164 On ch=2 n=59 v=96
59165 On ch=2 n=54 v=96
59166 On ch=2 n=47 v=96
59273 On ch=2 n=64 v=0
59276 On ch=2 n=59 v=0
59276 On ch=2 n=47 v=0
59283 On ch=2 n=54 v=0
59286 On ch=2 n=64 v=103
59289 On ch=2 n=59 v=100
59291 On ch=2 n=47 v=98
59293 On ch=2 n=54 v=96
59326 On ch=2 n=64 v=0
59333 On ch=2 n=59 v=0
59336 On ch=2 n=47 v=0
59336 On ch=2 n=54 v=0
59346 On ch=2 n=47 v=92
59348 On ch=2 n=54 v=92
59351 On ch=2 n=59 v=95
59355 On ch=2 n=63 v=98
59450 On ch=2 n=59 v=0
59452 On ch=2 n=54 v=0
59456 On ch=2 n=63 v=0
59459 On ch=2 n=47 v=0
59463 On ch=2 n=54 v=70
59463 On ch=2 n=59 v=70
59463 On ch=2 n=47 v=70
59463 On ch=2 n=63 v=70
59478 On ch=2 n=63 v=0
59478 On ch=2 n=54 v=0
59478 On ch=2 n=59 v=0
59478 On ch=2 n=47 v=0
59523 On ch=2 n=63 v=68
59524 On ch=2 n=59 v=68
59525 On ch=2 n=54 v=68
59526 On ch=2 n=47 v=68
59538 On ch=2 n=63 v=0
59539 On ch=2 n=59 v=0
59540 On ch=2 n=54 v=0
59541 On ch=2 n=47 v=0
59586 On ch=2 n=47 v=87
59587 On ch=2 n=54 v=87
59588 On ch=2 n=59 v=87
59589 On ch=2 n=63 v=87
59633 On ch=2 n=63 v=0
59636 On ch=2 n=47 v=0
59636 On ch=2 n=54 v=0
59636 On ch=2 n=59 v=0
59643 On ch=2 n=63 v=85
59644 On ch=2 n=59 v=85
59645 On ch=2 n=54 v=85
59646 On ch=2 n=47 v=85
59693 On ch=2 n=63 v=0
59696 On ch=2 n=59 v=0
59696 On ch=2 n=54 v=0
59696 On ch=2 n=47 v=0
59763 On ch=2 n=64 v=101
59765 On ch=2 n=59 v=101
59767 On ch=2 n=54 v=107
59768 On ch=2 n=47 v=107
59871 On ch=2 n=47 v=0
59874 On ch=2 n=59 v=0
59876 On ch=2 n=64 v=0
59878 On ch=2 n=54 v=0
59883 On ch=2 n=64 v=84
59885 On ch=2 n=59 v=84
59887 On ch=2 n=54 v=84
59889 On ch=2 n=47 v=84
59928 On ch=2 n=64 v=0
59930 On ch=2 n=59 v=0
59932 On ch=2 n=54 v=0
59934 On ch=2 n=47 v=0
59943 On ch=2 n=47 v=99
59945 On ch=2 n=54 v=99
59947 On ch=2 n=59 v=99
59949 On ch=2 n=64 v=99
60049 On ch=2 n=54 v=0
60053 On ch=2 n=47 v=0
60053 On ch=2 n=59 v=0
60053 On ch=2 n=64 v=0
60063 On ch=2 n=47 v=98
60064 On ch=2 n=54 v=98
60065 On ch=2 n=59 v=98
60066 On ch=2 n=64 v=98
60113 On ch=2 n=47 v=0
60116 On ch=2 n=54 v=0
60116 On ch=2 n=59 v=0
60116 On ch=2 n=64 v=0
60123 On ch=2 n=64 v=96
60124 On ch=2 n=59 v=96
60125 On ch=2 n=54 v=96
60126 On ch=2 n=47 v=96
60233 On ch=2 n=64 v=0
60236 On ch=2 n=59 v=0
60236 On ch=2 n=47 v=0
60243 On ch=2 n=54 v=0
60246 On ch=2 n=64 v=103
60249 On ch=2 n=59 v=100
60251 On ch=2 n=47 v=98
60253 On ch=2 n=54 v=96
60286 On ch=2 n=64 v=0
60293 On ch=2 n=59 v=0
60296 On ch=2 n=47 v=0
60296 On ch=2 n=54 v=0
60306 On ch=2 n=47 v=92
60308 On ch=2 n=54 v=92
60311 On ch=2 n=59 v=95
60315 On ch=2 n=63 v=98
60410 On ch=2 n=59 v=0
60412 On ch=2 n=54 v=0
60416 On ch=2 n=63 v=0
60419 On ch=2 n=47 v=0
60423 On ch=2 n=54 v=70
60423 On ch=2 n=59 v=70
60423 On ch=2 n=47 v=70
60423 On ch=2 n=63 v=70
60438 On ch=2 n=63 v=0
60438 On ch=2 n=54 v=0
60438 On ch=2 n=59 v=0
60438 On ch=2 n=47 v=0
60483 On ch=2 n=63 v=68
60484 On ch=2 n=59 v=68
60485 On ch=2 n=54 v=68
60486 On ch=2 n=47 v=68
60498 On ch=2 n=63 v=0
60499 On ch=2 n=59 v=0
60500 On ch=2 n=54 v=0
60501 On ch=2 n=47 v=0
60546 On ch=2 n=47 v=87
60547 On ch=2 n=54 v=87
60548 On ch=2 n=59 v=87
60549 On ch=2 n=63 v=87
60593 On ch=2 n=63 v=0
60596 On ch=2 n=47 v=0
60596 On ch=2 n=54 v=0
60596 On ch=2 n=59 v=0
60603 On ch=2 n=63 v=85
60604 On ch=2 n=59 v=85
60605 On ch=2 n=54 v=85
60606 On ch=2 n=47 v=85
60653 On ch=2 n=63 v=0
60656 On ch=2 n=59 v=0
60656 On ch=2 n=54 v=0
60656 On ch=2 n=47 v=0
60723 On ch=2 n=64 v=101
60725 On ch=2 n=59 v=101
60727 On ch=2 n=54 v=107
60728 On ch=2 n=47 v=107
60831 On ch=2 n=47 v=0
60834 On ch=2 n=59 v=0
60836 On ch=2 n=64 v=0
60838 On ch=2 n=54 v=0
60843 On ch=2 n=64 v=84
60845 On ch=2 n=59 v=84
60847 On ch=2 n=54 v=84
60849 On ch=2 n=47 v=84
60888 On ch=2 n=64 v=0
60890 On ch=2 n=59 v=0
60892 On ch=2 n=54 v=0
60894 On ch=2 n=47 v=0
60903 On ch=2 n=47 v=99
60905 On ch=2 n=54 v=99
60907 On ch=2 n=59 v=99
60909 On ch=2 n=64 v=99
61009 On ch=2 n=54 v=0
61013 On ch=2 n=47 v=0
61013 On ch=2 n=59 v=0
61013 On ch=2 n=64 v=0
61023 On ch=2 n=47 v=98
61024 On ch=2 n=54 v=98
61025 On ch=2 n=59 v=98
61026 On ch=2 n=64 v=98
61073 On ch=2 n=47 v=0
61076 On ch=2 n=54 v=0
61076 On ch=2 n=59 v=0
61076 On ch=2 n=64 v=0
61083 On ch=2 n=64 v=96
61084 On ch=2 n=59 v=96
61085 On ch=2 n=54 v=96
61086 On ch=2 n=47 v=96
61193 On ch=2 n=64 v=0
61196 On ch=2 n=59 v=0
61196 On ch=2 n=47 v=0
61203 On ch=2 n=54 v=0
61206 On ch=2 n=64 v=103
61209 On ch=2 n=59 v=100
61211 On ch=2 n=47 v=98
61213 On ch=2 n=54 v=96
61246 On ch=2 n=64 v=0
61253 On ch=2 n=59 v=0
61256 On ch=2 n=47 v=0
61256 On ch=2 n=54 v=0
61266 On ch=2 n=47 v=92
61268 On ch=2 n=54 v=92
61271 On ch=2 n=59 v=95
61275 On ch=2 n=63 v=98
61370 On ch=2 n=59 v=0
61372 On ch=2 n=54 v=0
61376 On ch=2 n=63 v=0
61379 On ch=2 n=47 v=0
61383 On ch=2 n=54 v=70
61383 On ch=2 n=59 v=70
61383 On ch=2 n=47 v=70
61383 On ch=2 n=63 v=70
61398 On ch=2 n=63 v=0
61398 On ch=2 n=54 v=0
61398 On ch=2 n=59 v=0
61398 On ch=2 n=47 v=0
61443 On ch=2 n=63 v=68
61444 On ch=2 n=59 v=68
61445 On ch=2 n=54 v=68
61446 On ch=2 n=47 v=68
61458 On ch=2 n=63 v=0
61459 On ch=2 n=59 v=0
61460 On ch=2 n=54 v=0
61461 On ch=2 n=47 v=0
61506 On ch=2 n=47 v=87
61507 On ch=2 n=54 v=87
61508 On ch=2 n=59 v=87
61509 On ch=2 n=63 v=87
61553 On ch=2 n=63 v=0
61556 On ch=2 n=47 v=0
61556 On ch=2 n=54 v=0
61556 On ch=2 n=59 v=0
61563 On ch=2 n=63 v=85
61564 On ch=2 n=59 v=85
61565 On ch=2 n=54 v=85
61566 On ch=2 n=47 v=85
61613 On ch=2 n=63 v=0
61616 On ch=2 n=59 v=0
61616 On ch=2 n=54 v=0
61616 On ch=2 n=47 v=0
61683 On ch=2 n=64 v=101
61685 On ch=2 n=59 v=101
61687 On ch=2 n=54 v=107
61688 On ch=2 n=47 v=107
61791 On ch=2 n=47 v=0
61794 On ch=2 n=59 v=0
61796 On ch=2 n=64 v=0
61798 On ch=2 n=54 v=0
61803 On ch=2 n=64 v=84
61805 On ch=2 n=59 v=84
61807 On ch=2 n=54 v=84
61809 On ch=2 n=47 v=84
61848 On ch=2 n=64 v=0
61850 On ch=2 n=59 v=0
61852 On ch=2 n=54 v=0
61854 On ch=2 n=47 v=0
61863 On ch=2 n=47 v=99
61865 On ch=2 n=54 v=99
61867 On ch=2 n=59 v=99
61869 On ch=2 n=64 v=99
61969 On ch=2 n=54 v=0
61973 On ch=2 n=47 v=0
61973 On ch=2 n=59 v=0
61973 On ch=2 n=64 v=0
61983 On ch=2 n=47 v=98
61984 On ch=2 n=54 v=98
61985 On ch=2 n=59 v=98
61986 On ch=2 n=64 v=98
62033 On ch=2 n=47 v=0
62036 On ch=2 n=54 v=0
62036 On ch=2 n=59 v=0
62036 On ch=2 n=64 v=0
62043 On ch=2 n=64 v=96
62044 On ch=2 n=59 v=96
62045 On ch=2 n=54 v=96
62046 On ch=2 n=47 v=96
62153 On ch=2 n=64 v=0
62156 On ch=2 n=59 v=0
62156 On ch=2 n=47 v=0
62163 On ch=2 n=54 v=0
62166 On ch=2 n=64 v=103
62169 On ch=2 n=59 v=100
62171 On ch=2 n=47 v=98
62173 On ch=2 n=54 v=96
62206 On ch=2 n=64 v=0
62213 On ch=2 n=59 v=0
62216 On ch=2 n=47 v=0
62216 On ch=2 n=54 v=0
62226 On ch=2 n=55 v=92
62228 On ch=2 n=62 v=92
62231 On ch=2 n=67 v=95
62235 On ch=2 n=71 v=98
62330 On ch=2 n=67 v=0
62332 On ch=2 n=62 v=0
62336 On ch=2 n=71 v=0
62339 On ch=2 n=55 v=0
62343 On ch=2 n=62 v=70
62343 On ch=2 n=71 v=70
62343 On ch=2 n=55 v=70
62343 On ch=2 n=67 v=70
62358 On ch=2 n=67 v=0
62358 On ch=2 n=62 v=0
62358 On ch=2 n=71 v=0
62358 On ch=2 n=55 v=0
62403 On ch=2 n=71 v=68
62404 On ch=2 n=67 v=68
62405 On ch=2 n=62 v=68
62406 On ch=2 n=55 v=68
62418 On ch=2 n=71 v=0
62419 On ch=2 n=67 v=0
62420 On ch=2 n=62 v=0
62421 On ch=2 n=55 v=0
62466 On ch=2 n=55 v=87
62467 On ch=2 n=62 v=87
62468 On ch=2 n=67 v=87
62469 On ch=2 n=71 v=87
62513 On ch=2 n=71 v=0
62516 On ch=2 n=55 v=0
62516 On ch=2 n=62 v=0
62516 On ch=2 n=67 v=0
62523 On ch=2 n=71 v=85
62524 On ch=2 n=67 v=85
62525 On ch=2 n=62 v=85
62526 On ch=2 n=55 v=85
62573 On ch=2 n=71 v=0
62576 On ch=2 n=67 v=0
62576 On ch=2 n=62 v=0
62576 On ch=2 n=55 v=0
62643 On ch=2 n=71 v=101
62645 On ch=2 n=67 v=101
62647 On ch=2 n=62 v=107
62648 On ch=2 n=55 v=107
62751 On ch=2 n=55 v=0
62754 On ch=2 n=67 v=0
62756 On ch=2 n=71 v=0
62758 On ch=2 n=62 v=0
62763 On ch=2 n=71 v=84
62765 On ch=2 n=67 v=84
62767 On ch=2 n=62 v=84
62769 On ch=2 n=55 v=84
62808 On ch=2 n=71 v=0
62810 On ch=2 n=67 v=0
62812 On ch=2 n=62 v=0
62814 On ch=2 n=55 v=0
62823 On ch=2 n=55 v=99
62825 On ch=2 n=62 v=99
62827 On ch=2 n=67 v=99
62829 On ch=2 n=71 v=99
62929 On ch=2 n=62 v=0
62933 On ch=2 n=55 v=0
62933 On ch=2 n=67 v=0
62933 On ch=2 n=71 v=0
62943 On ch=2 n=55 v=98
62944 On ch=2 n=62 v=98
62945 On ch=2 n=67 v=98
62946 On ch=2 n=71 v=98
62993 On ch=2 n=55 v=0
62996 On ch=2 n=62 v=0
62996 On ch=2 n=67 v=0
62996 On ch=2 n=71 v=0
63003 On ch=2 n=71 v=96
63004 On ch=2 n=67 v=96
63005 On ch=2 n=62 v=96
63006 On ch=2 n=55 v=96
63113 On ch=2 n=71 v=0
63116 On ch=2 n=67 v=0
63116 On ch=2 n=55 v=0
63123 On ch=2 n=62 v=0
63126 On ch=2 n=71 v=103
63129 On ch=2 n=67 v=100
63131 On ch=2 n=55 v=98
63133 On ch=2 n=62 v=96
63166 On ch=2 n=71 v=0
63173 On ch=2 n=67 v=0
63176 On ch=2 n=55 v=0
63176 On ch=2 n=62 v=0
63186 On ch=2 n=52 v=92
63188 On ch=2 n=59 v=92
63191 On ch=2 n=64 v=95
63195 On ch=2 n=68 v=98
63290 On ch=2 n=64 v=0
63292 On ch=2 n=59 v=0
63296 On ch=2 n=68 v=0
63299 On ch=2 n=52 v=0
63303 On ch=2 n=59 v=70
63303 On ch=2 n=64 v=70
63303 On ch=2 n=52 v=70
63303 On ch=2 n=68 v=70
63318 On ch=2 n=68 v=0
63318 On ch=2 n=59 v=0
63318 On ch=2 n=64 v=0
63318 On ch=2 n=52 v=0
63363 On ch=2 n=68 v=68
63364 On ch=2 n=64 v=68
63365 On ch=2 n=59 v=68
63366 On ch=2 n=52 v=68
63378 On ch=2 n=68 v=0
63379 On ch=2 n=64 v=0
63380 On ch=2 n=59 v=0
63381 On ch=2 n=52 v=0
63426 On ch=2 n=52 v=87
63427 On ch=2 n=59 v=87
63428 On ch=2 n=64 v=87
63429 On ch=2 n=68 v=87
63473 On ch=2 n=68 v=0
63476 On ch=2 n=52 v=0
63476 On ch=2 n=59 v=0
63476 On ch=2 n=64 v=0
63483 On ch=2 n=68 v=85
63484 On ch=2 n=64 v=85
63485 On ch=2 n=59 v=85
63486 On ch=2 n=52 v=85
63533 On ch=2 n=68 v=0
63536 On ch=2 n=64 v=0
63536 On ch=2 n=59 v=0
63536 On ch=2 n=52 v=0
63603 On ch=2 n=68 v=101
63605 On ch=2 n=64 v=101
63607 On ch=2 n=59 v=107
63608 On ch=2 n=52 v=107
63711 On ch=2 n=52 v=0
63714 On ch=2 n=64 v=0
63716 On ch=2 n=68 v=0
63718 On ch=2 n=59 v=0
63723 On ch=2 n=68 v=84
63725 On ch=2 n=64 v=84
63727 On ch=2 n=59 v=84
63729 On ch=2 n=52 v=84
63768 On ch=2 n=68 v=0
63770 On ch=2 n=64 v=0
63772 On ch=2 n=59 v=0
63774 On ch=2 n=52 v=0
63783 On ch=2 n=52 v=99
63785 On ch=2 n=59 v=99
63787 On ch=2 n=64 v=99
63789 On ch=2 n=68 v=99
63889 On ch=2 n=59 v=0
63893 On ch=2 n=52 v=0
63893 On ch=2 n=64 v=0
63893 On ch=2 n=68 v=0
63903 On ch=2 n=52 v=98
63904 On ch=2 n=59 v=98
63905 On ch=2 n=64 v=98
63906 On ch=2 n=68 v=98
63953 On ch=2 n=52 v=0
63956 On ch=2 n=59 v=0
63956 On ch=2 n=64 v=0
63956 On ch=2 n=68 v=0
63963 On ch=2 n=68 v=96
63964 On ch=2 n=64 v=96
63965 On ch=2 n=59 v=96
63966 On ch=2 n=52 v=96
64073 On ch=2 n=68 v=0
64076 On ch=2 n=64 v=0
64076 On ch=2 n=52 v=0
64083 On ch=2 n=59 v=0
64086 On ch=2 n=68 v=103
64089 On ch=2 n=64 v=100
64091 On ch=2 n=52 v=98
64093 On ch=2 n=59 v=96
64126 On ch=2 n=68 v=0
64133 On ch=2 n=64 v=0
64136 On ch=2 n=52 v=0
64136 On ch=2 n=59 v=0
64140 On ch=2 n=54 v=103
64150 On ch=2 n=59 v=103
64160 On ch=2 n=63 v=103
64170 On ch=2 n=66 v=103
64575 On ch=2 n=54 v=0
64585 On ch=2 n=59 v=0
64595 On ch=2 n=63 v=0
64620 On ch=2 n=66 v=0
64620 Meta TrkEnd
TrkEnd
MTrk
0 Par ch=3 c=93 v=0
0 Par ch=3 c=91 v=40
130 Par ch=3 c=0 v=0
131 Par ch=3 c=32 v=0
132 PrCh ch=3 p=48
133 Par ch=3 c=7 v=100
133 Par ch=3 c=10 v=64
133 Meta TrkEnd
TrkEnd
MTrk
0 Par ch=4 c=93 v=0
0 Par ch=4 c=91 v=40
3 Par ch=4 c=91 v=101
135 Par ch=4 c=0 v=0
136 Par ch=4 c=32 v=0
137 PrCh ch=4 p=6
138 Par ch=4 c=7 v=100
138 Par ch=4 c=10 v=64
480 Par ch=4 c=10 v=45
483 Par ch=4 c=7 v=84
486 Par ch=4 c=91 v=94
9600 Par ch=4 c=7 v=78
10080 On ch=4 n=78 v=77
10140 On ch=4 n=78 v=0
10140 On ch=4 n=74 v=77
10200 On ch=4 n=74 v=0
10200 On ch=4 n=69 v=77
10260 On ch=4 n=69 v=0
10260 On ch=4 n=74 v=77
10320 On ch=4 n=74 v=0
10320 On ch=4 n=69 v=77
10380 On ch=4 n=69 v=0
10380 On ch=4 n=74 v=77
10440 On ch=4 n=74 v=0
10440 On ch=4 n=73 v=77
10500 On ch=4 n=73 v=0
10500 On ch=4 n=74 v=77
10560 On ch=4 n=74 v=0
10560 On ch=4 n=76 v=77
10620 On ch=4 n=76 v=0
10620 On ch=4 n=73 v=77
10680 On ch=4 n=73 v=0
10680 On ch=4 n=71 v=77
10740 On ch=4 n=71 v=0
10740 On ch=4 n=73 v=77
10800 On ch=4 n=73 v=0
10800 On ch=4 n=69 v=77
10860 On ch=4 n=69 v=0
10860 On ch=4 n=73 v=77
10920 On ch=4 n=73 v=0
10920 On ch=4 n=71 v=77
10980 On ch=4 n=71 v=0
10980 On ch=4 n=73 v=77
11040 On ch=4 n=73 v=0
11040 On ch=4 n=78 v=77
11100 On ch=4 n=78 v=0
11100 On ch=4 n=74 v=77
11160 On ch=4 n=74 v=0
11160 On ch=4 n=73 v=77
11220 On ch=4 n=73 v=0
11220 On ch=4 n=74 v=77
11280 On ch=4 n=74 v=0
11280 On ch=4 n=71 v=77
11340 On ch=4 n=71 v=0
11340 On ch=4 n=74 v=77
11400 On ch=4 n=74 v=0
11400 On ch=4 n=73 v=77
11460 On ch=4 n=73 v=0
11460 On ch=4 n=74 v=77
11520 On ch=4 n=74 v=0
11520 On ch=4 n=74 v=77
11580 On ch=4 n=74 v=0
11580 On ch=4 n=71 v=77
11640 On ch=4 n=71 v=0
11640 On ch=4 n=67 v=77
11700 On ch=4 n=67 v=0
11700 On ch=4 n=71 v=77
11760 On ch=4 n=71 v=0
11760 On ch=4 n=74 v=77
11820 On ch=4 n=74 v=0
11820 On ch=4 n=71 v=77
11880 On ch=4 n=71 v=0
11880 On ch=4 n=67 v=77
11940 On ch=4 n=67 v=0
11940 On ch=4 n=71 v=77
12000 On ch=4 n=71 v=0
12000 On ch=4 n=78 v=77
12060 On ch=4 n=78 v=0
12060 On ch=4 n=74 v=77
12120 On ch=4 n=74 v=0
12120 On ch=4 n=69 v=77
12180 On ch=4 n=69 v=0
12180 On ch=4 n=74 v=77
12240 On ch=4 n=74 v=0
12240 On ch=4 n=69 v=77
12300 On ch=4 n=69 v=0
12300 On ch=4 n=74 v=77
12360 On ch=4 n=74 v=0
12360 On ch=4 n=73 v=77
12420 On ch=4 n=73 v=0
12420 On ch=4 n=74 v=77
12480 On ch=4 n=74 v=0
12480 On ch=4 n=76 v=77
12540 On ch=4 n=76 v=0
12540 On ch=4 n=73 v=77
12600 On ch=4 n=73 v=0
12600 On ch=4 n=71 v=77
12660 On ch=4 n=71 v=0
12660 On ch=4 n=73 v=77
12720 On ch=4 n=73 v=0
12720 On ch=4 n=69 v=77
12780 On ch=4 n=69 v=0
12780 On ch=4 n=73 v=77
12840 On ch=4 n=73 v=0
12840 On ch=4 n=71 v=77
12900 On ch=4 n=71 v=0
12900 On ch=4 n=73 v=77
12960 On ch=4 n=73 v=0
12960 On ch=4 n=78 v=77
13020 On ch=4 n=78 v=0
13020 On ch=4 n=74 v=77
13080 On ch=4 n=74 v=0
13080 On ch=4 n=73 v=77
13140 On ch=4 n=73 v=0
13140 On ch=4 n=74 v=77
13200 On ch=4 n=74 v=0
13200 On ch=4 n=71 v=77
13260 On ch=4 n=71 v=0
13260 On ch=4 n=74 v=76
13320 On ch=4 n=74 v=0
13320 On ch=4 n=73 v=76
13380 On ch=4 n=73 v=0
13380 On ch=4 n=74 v=76
13440 On ch=4 n=74 v=0
13440 On ch=4 n=74 v=76
13500 On ch=4 n=74 v=0
13500 On ch=4 n=71 v=76
13560 On ch=4 n=71 v=0
13560 On ch=4 n=67 v=76
13620 On ch=4 n=67 v=0
13620 On ch=4 n=71 v=76
13680 On ch=4 n=71 v=0
13680 On ch=4 n=74 v=76
13740 On ch=4 n=74 v=0
13740 On ch=4 n=71 v=76
13800 On ch=4 n=71 v=0
13800 On ch=4 n=67 v=76
13860 On ch=4 n=67 v=0
13860 On ch=4 n=71 v=76
13920 On ch=4 n=71 v=0
13920 On ch=4 n=71 v=77
14400 On ch=4 n=71 v=0
14868 On ch=4 n=63 v=63
14876 On ch=4 n=66 v=65
14886 On ch=4 n=71 v=68
15348 On ch=4 n=63 v=0
15356 On ch=4 n=66 v=0
15366 On ch=4 n=71 v=0
19672 On ch=4 n=67 v=79
19680 On ch=4 n=71 v=84
19688 On ch=4 n=74 v=87
20122 On ch=4 n=67 v=0
20130 On ch=4 n=71 v=0
20138 On ch=4 n=74 v=0
20153 On ch=4 n=64 v=81
20160 On ch=4 n=68 v=84
20168 On ch=4 n=71 v=85
20603 On ch=4 n=64 v=0
20610 On ch=4 n=68 v=0
20618 On ch=4 n=71 v=0
20634 On ch=4 n=63 v=80
20640 On ch=4 n=66 v=84
20646 On ch=4 n=71 v=77
21114 On ch=4 n=63 v=0
21120 On ch=4 n=66 v=0
21126 On ch=4 n=71 v=0
21592 On ch=4 n=67 v=79
21600 On ch=4 n=71 v=84
21608 On ch=4 n=74 v=87
22042 On ch=4 n=67 v=0
22050 On ch=4 n=71 v=0
22058 On ch=4 n=74 v=0
22073 On ch=4 n=64 v=81
22080 On ch=4 n=68 v=84
22088 On ch=4 n=71 v=85
22523 On ch=4 n=64 v=0
22530 On ch=4 n=68 v=0
22538 On ch=4 n=71 v=0
22554 On ch=4 n=63 v=80
22560 On ch=4 n=66 v=84
22566 On ch=4 n=71 v=77
23034 On ch=4 n=63 v=0
23040 On ch=4 n=66 v=0
23046 On ch=4 n=71 v=0
28320 On ch=4 n=78 v=77
28380 On ch=4 n=78 v=0
28380 On ch=4 n=74 v=77
28440 On ch=4 n=74 v=0
28440 On ch=4 n=69 v=77
28500 On ch=4 n=69 v=0
28500 On ch=4 n=74 v=77
28560 On ch=4 n=74 v=0
28560 On ch=4 n=69 v=77
28620 On ch=4 n=69 v=0
28620 On ch=4 n=74 v=77
28680 On ch=4 n=74 v=0
28680 On ch=4 n=73 v=77
28740 On ch=4 n=73 v=0
28740 On ch=4 n=74 v=77
28800 On ch=4 n=74 v=0
28800 On ch=4 n=76 v=77
28860 On ch=4 n=76 v=0
28860 On ch=4 n=73 v=77
28920 On ch=4 n=73 v=0
28920 On ch=4 n=71 v=77
28980 On ch=4 n=71 v=0
28980 On ch=4 n=73 v=77
29040 On ch=4 n=73 v=0
29040 On ch=4 n=69 v=77
29100 On ch=4 n=69 v=0
29100 On ch=4 n=73 v=77
29160 On ch=4 n=73 v=0
29160 On ch=4 n=71 v=77
29220 On ch=4 n=71 v=0
29220 On ch=4 n=73 v=77
29280 On ch=4 n=73 v=0
29280 On ch=4 n=78 v=77
29340 On ch=4 n=78 v=0
29340 On ch=4 n=74 v=77
29400 On ch=4 n=74 v=0
29400 On ch=4 n=73 v=77
29460 On ch=4 n=73 v=0
29460 On ch=4 n=74 v=77
29520 On ch=4 n=74 v=0
29520 On ch=4 n=71 v=77
29580 On ch=4 n=71 v=0
29580 On ch=4 n=74 v=77
29640 On ch=4 n=74 v=0
29640 On ch=4 n=73 v=77
29700 On ch=4 n=73 v=0
29700 On ch=4 n=74 v=77
29760 On ch=4 n=74 v=0
29760 On ch=4 n=74 v=77
29820 On ch=4 n=74 v=0
29820 On ch=4 n=71 v=77
29880 On ch=4 n=71 v=0
29880 On ch=4 n=67 v=77
29940 On ch=4 n=67 v=0
29940 On ch=4 n=71 v=77
30000 On ch=4 n=71 v=0
30000 On ch=4 n=74 v=77
30060 On ch=4 n=74 v=0
30060 On ch=4 n=71 v=77
30120 On ch=4 n=71 v=0
30120 On ch=4 n=67 v=77
30180 On ch=4 n=67 v=0
30180 On ch=4 n=71 v=77
30240 On ch=4 n=71 v=0
30240 On ch=4 n=78 v=77
30300 On ch=4 n=78 v=0
30300 On ch=4 n=74 v=77
30360 On ch=4 n=74 v=0
30360 On ch=4 n=69 v=77
30420 On ch=4 n=69 v=0
30420 On ch=4 n=74 v=77
30480 On ch=4 n=74 v=0
30480 On ch=4 n=69 v=77
30540 On ch=4 n=69 v=0
30540 On ch=4 n=74 v=77
30600 On ch=4 n=74 v=0
30600 On ch=4 n=73 v=77
30660 On ch=4 n=73 v=0
30660 On ch=4 n=74 v=77
30720 On ch=4 n=74 v=0
30720 On ch=4 n=76 v=77
30780 On ch=4 n=76 v=0
30780 On ch=4 n=73 v=77
30840 On ch=4 n=73 v=0
30840 On ch=4 n=71 v=77
30900 On ch=4 n=71 v=0
30900 On ch=4 n=73 v=77
30960 On ch=4 n=73 v=0
30960 On ch=4 n=69 v=77
31020 On ch=4 n=69 v=0
31020 On ch=4 n=73 v=77
31080 On ch=4 n=73 v=0
31080 On ch=4 n=71 v=77
31140 On ch=4 n=71 v=0
31140 On ch=4 n=73 v=77
31200 On ch=4 n=73 v=0
31200 On ch=4 n=78 v=77
31260 On ch=4 n=78 v=0
31260 On ch=4 n=74 v=77
31320 On ch=4 n=74 v=0
31320 On ch=4 n=73 v=77
31380 On ch=4 n=73 v=0
31380 On ch=4 n=74 v=77
31440 On ch=4 n=74 v=0
31440 On ch=4 n=71 v=77
31500 On ch=4 n=71 v=0
31500 On ch=4 n=74 v=76
31560 On ch=4 n=74 v=0
31560 On ch=4 n=73 v=76
31620 On ch=4 n=73 v=0
31620 On ch=4 n=74 v=76
31680 On ch=4 n=74 v=0
31680 On ch=4 n=74 v=76
31740 On ch=4 n=74 v=0
31740 On ch=4 n=71 v=76
31800 On ch=4 n=71 v=0
31800 On ch=4 n=67 v=76
31860 On ch=4 n=67 v=0
31860 On ch=4 n=71 v=76
31920 On ch=4 n=71 v=0
31920 On ch=4 n=74 v=76
31980 On ch=4 n=74 v=0
31980 On ch=4 n=71 v=76
32040 On ch=4 n=71 v=0
32040 On ch=4 n=67 v=76
32100 On ch=4 n=67 v=0
32100 On ch=4 n=71 v=76
32160 On ch=4 n=71 v=0
32160 On ch=4 n=71 v=77
32640 On ch=4 n=71 v=0
33108 On ch=4 n=63 v=63
33116 On ch=4 n=66 v=65
33126 On ch=4 n=71 v=68
33588 On ch=4 n=63 v=0
33596 On ch=4 n=66 v=0
33606 On ch=4 n=71 v=0
37920 On ch=4 n=71 v=84
37920 On ch=4 n=67 v=79
37928 On ch=4 n=74 v=87
38370 On ch=4 n=67 v=0
38370 On ch=4 n=71 v=0
38378 On ch=4 n=74 v=0
38393 On ch=4 n=64 v=81
38400 On ch=4 n=68 v=84
38408 On ch=4 n=71 v=85
38843 On ch=4 n=64 v=0
38850 On ch=4 n=68 v=0
38858 On ch=4 n=71 v=0
38874 On ch=4 n=63 v=80
38880 On ch=4 n=66 v=84
38886 On ch=4 n=71 v=77
39354 On ch=4 n=63 v=0
39360 On ch=4 n=66 v=0
39366 On ch=4 n=71 v=0
39832 On ch=4 n=67 v=79
39840 On ch=4 n=71 v=84
39848 On ch=4 n=74 v=87
40282 On ch=4 n=67 v=0
40290 On ch=4 n=71 v=0
40298 On ch=4 n=74 v=0
40313 On ch=4 n=64 v=81
40320 On ch=4 n=68 v=84
40328 On ch=4 n=71 v=85
40763 On ch=4 n=64 v=0
40770 On ch=4 n=68 v=0
40778 On ch=4 n=71 v=0
40794 On ch=4 n=63 v=80
40800 On ch=4 n=66 v=84
40806 On ch=4 n=71 v=77
41274 On ch=4 n=63 v=0
41280 On ch=4 n=66 v=0
41280 On ch=4 n=71 v=57
41286 On ch=4 n=71 v=0
41340 On ch=4 n=71 v=0
41340 On ch=4 n=80 v=57
41400 On ch=4 n=80 v=0
41400 On ch=4 n=78 v=57
41460 On ch=4 n=78 v=0
41460 On ch=4 n=80 v=57
41520 On ch=4 n=80 v=0
41520 On ch=4 n=66 v=57
41580 On ch=4 n=66 v=0
41580 On ch=4 n=71 v=57
41700 On ch=4 n=71 v=0
41700 On ch=4 n=71 v=57
41760 On ch=4 n=71 v=0
41760 On ch=4 n=78 v=75
41820 On ch=4 n=78 v=0
41820 On ch=4 n=83 v=75
41880 On ch=4 n=83 v=0
41880 On ch=4 n=82 v=75
41940 On ch=4 n=82 v=0
41940 On ch=4 n=83 v=75
42000 On ch=4 n=83 v=0
42000 On ch=4 n=66 v=75
42060 On ch=4 n=66 v=0
42060 On ch=4 n=78 v=75
42120 On ch=4 n=78 v=0
42120 On ch=4 n=75 v=75
42180 On ch=4 n=75 v=0
42180 On ch=4 n=71 v=75
42240 On ch=4 n=71 v=0
42240 On ch=4 n=78 v=75
42300 On ch=4 n=78 v=0
42300 On ch=4 n=83 v=75
42360 On ch=4 n=83 v=0
42360 On ch=4 n=82 v=75
42420 On ch=4 n=82 v=0
42420 On ch=4 n=83 v=75
42480 On ch=4 n=83 v=0
42480 On ch=4 n=66 v=75
42540 On ch=4 n=66 v=0
42540 On ch=4 n=78 v=75
42600 On ch=4 n=78 v=0
42600 On ch=4 n=75 v=75
42660 On ch=4 n=75 v=0
42660 On ch=4 n=71 v=75
42720 On ch=4 n=71 v=0
42720 On ch=4 n=81 v=75
42780 On ch=4 n=81 v=0
42780 On ch=4 n=80 v=75
42840 On ch=4 n=80 v=0
42840 On ch=4 n=81 v=75
42900 On ch=4 n=81 v=0
42900 On ch=4 n=76 v=75
42960 On ch=4 n=76 v=0
42960 On ch=4 n=73 v=75
43020 On ch=4 n=73 v=0
43020 On ch=4 n=76 v=75
43080 On ch=4 n=76 v=0
43080 On ch=4 n=73 v=75
43140 On ch=4 n=73 v=0
43140 On ch=4 n=76 v=75
43200 On ch=4 n=76 v=0
43200 On ch=4 n=81 v=75
43260 On ch=4 n=81 v=0
43260 On ch=4 n=80 v=75
43320 On ch=4 n=80 v=0
43320 On ch=4 n=81 v=75
43380 On ch=4 n=81 v=0
43380 On ch=4 n=76 v=75
43440 On ch=4 n=76 v=0
43440 On ch=4 n=73 v=75
43500 On ch=4 n=73 v=0
43500 On ch=4 n=76 v=75
43560 On ch=4 n=76 v=0
43560 On ch=4 n=73 v=75
43620 On ch=4 n=73 v=0
43620 On ch=4 n=76 v=75
43680 On ch=4 n=76 v=0
43680 On ch=4 n=80 v=75
43740 On ch=4 n=80 v=0
43740 On ch=4 n=76 v=75
43800 On ch=4 n=76 v=0
43800 On ch=4 n=73 v=75
43860 On ch=4 n=73 v=0
43860 On ch=4 n=81 v=75
43920 On ch=4 n=81 v=0
43920 On ch=4 n=76 v=75
43980 On ch=4 n=76 v=0
43980 On ch=4 n=73 v=75
44040 On ch=4 n=73 v=0
44040 On ch=4 n=80 v=75
44100 On ch=4 n=80 v=0
44100 On ch=4 n=76 v=75
44160 On ch=4 n=76 v=0
44160 On ch=4 n=73 v=75
44220 On ch=4 n=73 v=0
44220 On ch=4 n=81 v=75
44280 On ch=4 n=81 v=0
44280 On ch=4 n=76 v=75
44340 On ch=4 n=76 v=0
44340 On ch=4 n=73 v=75
44400 On ch=4 n=73 v=0
44400 On ch=4 n=80 v=75
44460 On ch=4 n=80 v=0
44460 On ch=4 n=76 v=75
44520 On ch=4 n=76 v=0
44520 On ch=4 n=73 v=75
44580 On ch=4 n=73 v=0
44580 On ch=4 n=76 v=75
44640 On ch=4 n=76 v=0
44640 On ch=4 n=78 v=75
44700 On ch=4 n=78 v=0
44700 On ch=4 n=75 v=75
44760 On ch=4 n=75 v=0
44760 On ch=4 n=71 v=75
44820 On ch=4 n=71 v=0
44820 On ch=4 n=80 v=75
44880 On ch=4 n=80 v=0
44880 On ch=4 n=75 v=75
44940 On ch=4 n=75 v=0
44940 On ch=4 n=71 v=75
45000 On ch=4 n=71 v=0
45000 On ch=4 n=78 v=75
45060 On ch=4 n=78 v=0
45060 On ch=4 n=75 v=75
45120 On ch=4 n=75 v=0
45120 On ch=4 n=71 v=75
45180 On ch=4 n=71 v=0
45180 On ch=4 n=80 v=75
45240 On ch=4 n=80 v=0
45240 On ch=4 n=75 v=75
45300 On ch=4 n=75 v=0
45300 On ch=4 n=71 v=75
45360 On ch=4 n=71 v=0
45360 On ch=4 n=78 v=75
45420 On ch=4 n=78 v=0
45420 On ch=4 n=75 v=75
45480 On ch=4 n=75 v=0
45480 On ch=4 n=71 v=75
45540 On ch=4 n=71 v=0
45540 On ch=4 n=75 v=75
45600 On ch=4 n=75 v=0
50691 On ch=4 n=67 v=79
50696 On ch=4 n=71 v=84
50708 On ch=4 n=74 v=87
51141 On ch=4 n=67 v=0
51146 On ch=4 n=71 v=0
51158 On ch=4 n=74 v=0
51173 On ch=4 n=64 v=81
51180 On ch=4 n=68 v=84
51188 On ch=4 n=71 v=85
51623 On ch=4 n=64 v=0
51630 On ch=4 n=68 v=0
51638 On ch=4 n=71 v=0
51654 On ch=4 n=63 v=80
51660 On ch=4 n=66 v=84
51666 On ch=4 n=71 v=77
52134 On ch=4 n=63 v=0
52140 On ch=4 n=66 v=0
52146 On ch=4 n=71 v=0
52612 On ch=4 n=67 v=79
52620 On ch=4 n=71 v=84
52628 On ch=4 n=74 v=87
53062 On ch=4 n=67 v=0
53070 On ch=4 n=71 v=0
53078 On ch=4 n=74 v=0
53093 On ch=4 n=64 v=81
53100 On ch=4 n=68 v=84
53108 On ch=4 n=71 v=85
53543 On ch=4 n=64 v=0
53550 On ch=4 n=68 v=0
53558 On ch=4 n=71 v=0
53580 On ch=4 n=83 v=64
53640 On ch=4 n=83 v=0
53640 On ch=4 n=90 v=64
53700 On ch=4 n=90 v=0
53700 On ch=4 n=88 v=64
53760 On ch=4 n=88 v=0
53760 On ch=4 n=90 v=64
53820 On ch=4 n=90 v=0
53820 On ch=4 n=83 v=64
53880 On ch=4 n=83 v=0
53880 On ch=4 n=90 v=64
53940 On ch=4 n=90 v=0
53940 On ch=4 n=88 v=64
54000 On ch=4 n=88 v=0
54000 On ch=4 n=90 v=64
54060 On ch=4 n=90 v=0
54060 On ch=4 n=92 v=64
54120 On ch=4 n=92 v=0
54120 On ch=4 n=88 v=64
54180 On ch=4 n=88 v=0
54180 On ch=4 n=83 v=64
54240 On ch=4 n=83 v=0
54240 On ch=4 n=92 v=64
54300 On ch=4 n=92 v=0
54300 On ch=4 n=88 v=64
54360 On ch=4 n=88 v=0
54360 On ch=4 n=83 v=64
54420 On ch=4 n=83 v=0
54420 On ch=4 n=92 v=64
54450 On ch=4 n=92 v=0
54450 On ch=4 n=93 v=64
54480 On ch=4 n=93 v=0
54480 On ch=4 n=92 v=64
54510 On ch=4 n=92 v=0
54510 On ch=4 n=88 v=64
54540 On ch=4 n=88 v=0
54540 On ch=4 n=90 v=64
54600 On ch=4 n=90 v=0
54600 On ch=4 n=87 v=64
54660 On ch=4 n=87 v=0
54660 On ch=4 n=83 v=64
54720 On ch=4 n=83 v=0
54720 On ch=4 n=90 v=64
54780 On ch=4 n=90 v=0
54780 On ch=4 n=87 v=64
54840 On ch=4 n=87 v=0
54840 On ch=4 n=83 v=64
54900 On ch=4 n=83 v=0
54900 On ch=4 n=90 v=64
54960 On ch=4 n=90 v=0
54960 On ch=4 n=87 v=64
55020 On ch=4 n=87 v=0
55020 On ch=4 n=92 v=64
55080 On ch=4 n=92 v=0
55080 On ch=4 n=88 v=64
55140 On ch=4 n=88 v=0
55140 On ch=4 n=83 v=64
55200 On ch=4 n=83 v=0
55200 On ch=4 n=92 v=64
55260 On ch=4 n=92 v=0
55260 On ch=4 n=88 v=64
55320 On ch=4 n=88 v=0
55320 On ch=4 n=83 v=64
55380 On ch=4 n=83 v=0
55380 On ch=4 n=92 v=64
55410 On ch=4 n=92 v=0
55410 On ch=4 n=93 v=64
55440 On ch=4 n=93 v=0
55440 On ch=4 n=92 v=64
55470 On ch=4 n=92 v=0
55470 On ch=4 n=88 v=64
55500 On ch=4 n=88 v=0
55500 On ch=4 n=90 v=64
55560 On ch=4 n=90 v=0
55560 On ch=4 n=87 v=64
55620 On ch=4 n=87 v=0
55620 On ch=4 n=83 v=64
55680 On ch=4 n=83 v=0
55680 On ch=4 n=95 v=64
55740 On ch=4 n=95 v=0
55740 On ch=4 n=87 v=64
55800 On ch=4 n=87 v=0
55800 On ch=4 n=83 v=64
55860 On ch=4 n=83 v=0
55860 On ch=4 n=90 v=64
55920 On ch=4 n=90 v=0
55920 On ch=4 n=87 v=64
55980 On ch=4 n=87 v=0
55980 On ch=4 n=92 v=64
56040 On ch=4 n=92 v=0
56040 On ch=4 n=88 v=64
56100 On ch=4 n=88 v=0
56100 On ch=4 n=83 v=64
56160 On ch=4 n=83 v=0
56160 On ch=4 n=92 v=64
56220 On ch=4 n=92 v=0
56220 On ch=4 n=88 v=64
56280 On ch=4 n=88 v=0
56280 On ch=4 n=83 v=64
56340 On ch=4 n=83 v=0
56340 On ch=4 n=92 v=64
56370 On ch=4 n=92 v=0
56370 On ch=4 n=93 v=64
56400 On ch=4 n=93 v=0
56400 On ch=4 n=92 v=64
56430 On ch=4 n=92 v=0
56430 On ch=4 n=88 v=64
56460 On ch=4 n=88 v=0
56460 On ch=4 n=90 v=64
56520 On ch=4 n=90 v=0
56520 On ch=4 n=87 v=64
56580 On ch=4 n=87 v=0
56580 On ch=4 n=83 v=64
56640 On ch=4 n=83 v=0
56640 On ch=4 n=95 v=64
56700 On ch=4 n=95 v=0
56700 On ch=4 n=87 v=64
56760 On ch=4 n=87 v=0
56760 On ch=4 n=83 v=64
56820 On ch=4 n=83 v=0
56820 On ch=4 n=90 v=64
56880 On ch=4 n=90 v=0
56880 On ch=4 n=87 v=64
56940 On ch=4 n=87 v=0
56940 On ch=4 n=92 v=64
57000 On ch=4 n=92 v=0
57000 On ch=4 n=88 v=64
57060 On ch=4 n=88 v=0
57060 On ch=4 n=83 v=64
57120 On ch=4 n=83 v=0
57120 On ch=4 n=92 v=64
57180 On ch=4 n=92 v=0
57180 On ch=4 n=88 v=64
57240 On ch=4 n=88 v=0
57240 On ch=4 n=83 v=64
57300 On ch=4 n=83 v=0
57300 On ch=4 n=92 v=64
57330 On ch=4 n=92 v=0
57330 On ch=4 n=93 v=64
57360 On ch=4 n=93 v=0
57360 On ch=4 n=92 v=64
57390 On ch=4 n=92 v=0
57390 On ch=4 n=88 v=64
57420 On ch=4 n=88 v=0
57420 On ch=4 n=90 v=64
57480 On ch=4 n=90 v=0
57480 On ch=4 n=87 v=64
57540 On ch=4 n=87 v=0
57540 On ch=4 n=83 v=64
57600 On ch=4 n=83 v=0
57600 On ch=4 n=95 v=64
57660 On ch=4 n=95 v=0
57660 On ch=4 n=87 v=64
57720 On ch=4 n=87 v=0
57720 On ch=4 n=83 v=64
57780 On ch=4 n=83 v=0
57780 On ch=4 n=90 v=64
57840 On ch=4 n=90 v=0
57840 On ch=4 n=87 v=64
57900 On ch=4 n=87 v=0
57900 On ch=4 n=92 v=64
57960 On ch=4 n=92 v=0
57960 On ch=4 n=88 v=64
58020 On ch=4 n=88 v=0
58020 On ch=4 n=83 v=64
58080 On ch=4 n=83 v=0
58080 On ch=4 n=92 v=64
58140 On ch=4 n=92 v=0
58140 On ch=4 n=88 v=64
58200 On ch=4 n=88 v=0
58200 On ch=4 n=83 v=64
58260 On ch=4 n=83 v=0
58260 On ch=4 n=92 v=64
58290 On ch=4 n=92 v=0
58290 On ch=4 n=93 v=64
58320 On ch=4 n=93 v=0
58320 On ch=4 n=92 v=64
58350 On ch=4 n=92 v=0
58350 On ch=4 n=88 v=64
58380 On ch=4 n=88 v=0
58380 On ch=4 n=90 v=64
58440 On ch=4 n=90 v=0
58440 On ch=4 n=87 v=64
58500 On ch=4 n=87 v=0
58500 On ch=4 n=83 v=64
58560 On ch=4 n=83 v=0
58560 On ch=4 n=95 v=64
58620 On ch=4 n=95 v=0
58620 On ch=4 n=87 v=64
58680 On ch=4 n=87 v=0
58680 On ch=4 n=83 v=64
58740 On ch=4 n=83 v=0
58740 On ch=4 n=90 v=64
58800 On ch=4 n=90 v=0
58800 On ch=4 n=87 v=64
58860 On ch=4 n=87 v=0
58860 On ch=4 n=92 v=64
58920 On ch=4 n=92 v=0
58920 On ch=4 n=88 v=64
58980 On ch=4 n=88 v=0
58980 On ch=4 n=83 v=64
59040 On ch=4 n=83 v=0
59040 On ch=4 n=92 v=64
59100 On ch=4 n=92 v=0
59100 On ch=4 n=88 v=64
59160 On ch=4 n=88 v=0
59160 On ch=4 n=83 v=64
59220 On ch=4 n=83 v=0
59220 On ch=4 n=92 v=64
59250 On ch=4 n=92 v=0
59250 On ch=4 n=93 v=64
59280 On ch=4 n=93 v=0
59280 On ch=4 n=92 v=64
59310 On ch=4 n=92 v=0
59310 On ch=4 n=88 v=64
59340 On ch=4 n=88 v=0
59340 On ch=4 n=90 v=64
59400 On ch=4 n=90 v=0
59400 On ch=4 n=87 v=64
59460 On ch=4 n=87 v=0
59460 On ch=4 n=83 v=64
59520 On ch=4 n=83 v=0
59520 On ch=4 n=95 v=64
59580 On ch=4 n=95 v=0
59580 On ch=4 n=87 v=64
59640 On ch=4 n=87 v=0
59640 On ch=4 n=83 v=64
59700 On ch=4 n=83 v=0
59700 On ch=4 n=90 v=64
59760 On ch=4 n=90 v=0
59760 On ch=4 n=87 v=64
59820 On ch=4 n=87 v=0
59820 On ch=4 n=92 v=64
59880 On ch=4 n=92 v=0
59880 On ch=4 n=88 v=64
59940 On ch=4 n=88 v=0
59940 On ch=4 n=83 v=64
60000 On ch=4 n=83 v=0
60000 On ch=4 n=92 v=64
60060 On ch=4 n=92 v=0
60060 On ch=4 n=88 v=64
60120 On ch=4 n=88 v=0
60120 On ch=4 n=83 v=64
60180 On ch=4 n=83 v=0
60180 On ch=4 n=92 v=64
60210 On ch=4 n=92 v=0
60210 On ch=4 n=93 v=64
60240 On ch=4 n=93 v=0
60240 On ch=4 n=92 v=64
60270 On ch=4 n=92 v=0
60270 On ch=4 n=88 v=64
60300 On ch=4 n=88 v=0
60300 On ch=4 n=90 v=64
60360 On ch=4 n=90 v=0
60360 On ch=4 n=87 v=64
60420 On ch=4 n=87 v=0
60420 On ch=4 n=83 v=64
60480 On ch=4 n=83 v=0
60480 On ch=4 n=95 v=64
60540 On ch=4 n=95 v=0
60540 On ch=4 n=87 v=64
60600 On ch=4 n=87 v=0
60600 On ch=4 n=83 v=64
60660 On ch=4 n=83 v=0
60660 On ch=4 n=90 v=64
60720 On ch=4 n=90 v=0
60720 On ch=4 n=87 v=64
60780 On ch=4 n=87 v=0
60780 On ch=4 n=92 v=64
60840 On ch=4 n=92 v=0
60840 On ch=4 n=88 v=64
60900 On ch=4 n=88 v=0
60900 On ch=4 n=83 v=64
60960 On ch=4 n=83 v=0
60960 On ch=4 n=92 v=64
61020 On ch=4 n=92 v=0
61020 On ch=4 n=88 v=64
61080 On ch=4 n=88 v=0
61080 On ch=4 n=83 v=64
61140 On ch=4 n=83 v=0
61140 On ch=4 n=92 v=64
61170 On ch=4 n=92 v=0
61170 On ch=4 n=93 v=64
61200 On ch=4 n=93 v=0
61200 On ch=4 n=92 v=64
61230 On ch=4 n=92 v=0
61230 On ch=4 n=88 v=64
61260 On ch=4 n=88 v=0
61260 On ch=4 n=90 v=64
61320 On ch=4 n=90 v=0
61320 On ch=4 n=87 v=64
61380 On ch=4 n=87 v=0
61380 On ch=4 n=83 v=64
61440 On ch=4 n=83 v=0
61440 On ch=4 n=95 v=64
61500 On ch=4 n=95 v=0
61500 On ch=4 n=87 v=64
61560 On ch=4 n=87 v=0
61560 On ch=4 n=83 v=64
61620 On ch=4 n=83 v=0
61620 On ch=4 n=90 v=64
61680 On ch=4 n=90 v=0
61680 On ch=4 n=87 v=64
61740 On ch=4 n=87 v=0
61740 On ch=4 n=92 v=64
61800 On ch=4 n=92 v=0
61800 On ch=4 n=88 v=64
61860 On ch=4 n=88 v=0
61860 On ch=4 n=83 v=64
61920 On ch=4 n=83 v=0
61920 On ch=4 n=92 v=64
61980 On ch=4 n=92 v=0
61980 On ch=4 n=88 v=64
62040 On ch=4 n=88 v=0
62040 On ch=4 n=83 v=64
62100 On ch=4 n=83 v=0
62100 On ch=4 n=92 v=64
62160 On ch=4 n=92 v=0
62160 On ch=4 n=88 v=64
62220 On ch=4 n=88 v=0
62220 On ch=4 n=90 v=64
62280 On ch=4 n=90 v=0
62280 On ch=4 n=87 v=64
62340 On ch=4 n=87 v=0
62340 On ch=4 n=83 v=64
62400 On ch=4 n=83 v=0
62400 On ch=4 n=90 v=64
62460 On ch=4 n=90 v=0
62460 On ch=4 n=87 v=64
62520 On ch=4 n=87 v=0
62520 On ch=4 n=83 v=64
62580 On ch=4 n=83 v=0
62580 On ch=4 n=90 v=64
62640 On ch=4 n=90 v=0
62640 On ch=4 n=87 v=64
62700 On ch=4 n=87 v=0
62700 On ch=4 n=83 v=64
62760 On ch=4 n=83 v=0
62760 On ch=4 n=90 v=64
62820 On ch=4 n=90 v=0
62820 On ch=4 n=87 v=64
62880 On ch=4 n=87 v=0
62880 On ch=4 n=83 v=64
62940 On ch=4 n=83 v=0
62940 On ch=4 n=92 v=64
63000 On ch=4 n=92 v=0
63000 On ch=4 n=87 v=64
63060 On ch=4 n=87 v=0
63060 On ch=4 n=83 v=64
63120 On ch=4 n=83 v=0
63120 On ch=4 n=78 v=64
63180 On ch=4 n=78 v=0
63180 On ch=4 n=92 v=64
63240 On ch=4 n=92 v=0
63240 On ch=4 n=88 v=64
63300 On ch=4 n=88 v=0
63300 On ch=4 n=83 v=64
63360 On ch=4 n=83 v=0
63360 On ch=4 n=93 v=64
63420 On ch=4 n=93 v=0
63420 On ch=4 n=88 v=64
63480 On ch=4 n=88 v=0
63480 On ch=4 n=83 v=64
63540 On ch=4 n=83 v=0
63540 On ch=4 n=92 v=64
63600 On ch=4 n=92 v=0
63600 On ch=4 n=88 v=64
63660 On ch=4 n=88 v=0
63660 On ch=4 n=83 v=63
63720 On ch=4 n=83 v=0
63720 On ch=4 n=92 v=64
63780 On ch=4 n=92 v=0
63780 On ch=4 n=88 v=64
63840 On ch=4 n=88 v=0
63840 On ch=4 n=83 v=64
63900 On ch=4 n=83 v=0
63900 On ch=4 n=92 v=64
63960 On ch=4 n=92 v=0
63960 On ch=4 n=88 v=64
64020 On ch=4 n=88 v=0
64020 On ch=4 n=83 v=64
64080 On ch=4 n=83 v=0
64080 On ch=4 n=88 v=64
64140 On ch=4 n=88 v=0
64140 On ch=4 n=83 v=64
64140 On ch=4 n=87 v=64
64140 On ch=4 n=90 v=64
65580 On ch=4 n=90 v=0
65580 On ch=4 n=87 v=0
65580 On ch=4 n=83 v=0
65580 Meta TrkEnd
TrkEnd
MTrk
0 Par ch=5 c=93 v=0
0 Par ch=5 c=91 v=40
140 Par ch=5 c=0 v=0
141 Par ch=5 c=32 v=0
142 PrCh ch=5 p=6
143 Par ch=5 c=7 v=100
143 Par ch=5 c=10 v=64
143 Meta TrkEnd
TrkEnd
MTrk
0 Par ch=6 c=91 v=104
0 Par ch=6 c=93 v=0
145 Par ch=6 c=0 v=0
146 Par ch=6 c=32 v=0
147 PrCh ch=6 p=1
148 Par ch=6 c=7 v=100
148 Par ch=6 c=10 v=64
480 Par ch=6 c=7 v=54
483 Par ch=6 c=7 v=55
483 Par ch=6 c=10 v=79
490 Par ch=6 c=7 v=54
2340 On ch=6 n=85 v=75
2370 On ch=6 n=85 v=0
2370 On ch=6 n=82 v=81
2400 On ch=6 n=82 v=0
2400 On ch=6 n=83 v=87
2580 On ch=6 n=83 v=0
2580 On ch=6 n=78 v=108
2640 On ch=6 n=78 v=0
2640 On ch=6 n=78 v=108
2760 On ch=6 n=78 v=0
2760 On ch=6 n=83 v=104
2760 On ch=6 n=71 v=104
2820 On ch=6 n=71 v=0
2820 On ch=6 n=83 v=0
2820 On ch=6 n=83 v=105
2820 On ch=6 n=71 v=105
2940 On ch=6 n=71 v=0
2940 On ch=6 n=83 v=0
3000 On ch=6 n=71 v=105
3120 On ch=6 n=71 v=0
3120 On ch=6 n=73 v=92
3180 On ch=6 n=73 v=0
3180 On ch=6 n=75 v=96
3240 On ch=6 n=75 v=0
3240 On ch=6 n=76 v=99
3300 On ch=6 n=76 v=0
3300 On ch=6 n=78 v=102
3360 On ch=6 n=78 v=0
3360 On ch=6 n=71 v=115
3364 On ch=6 n=83 v=115
3540 On ch=6 n=71 v=0
3540 On ch=6 n=78 v=93
3544 On ch=6 n=83 v=0
3600 On ch=6 n=78 v=0
3600 On ch=6 n=78 v=105
3660 On ch=6 n=78 v=0
3660 On ch=6 n=71 v=105
3665 On ch=6 n=83 v=105
3765 On ch=6 n=71 v=0
3770 On ch=6 n=83 v=0
3780 On ch=6 n=56 v=105
3780 On ch=6 n=85 v=105
3900 On ch=6 n=56 v=0
3900 On ch=6 n=56 v=105
3960 On ch=6 n=85 v=0
3960 On ch=6 n=66 v=94
4020 On ch=6 n=66 v=0
4020 On ch=6 n=56 v=0
4020 On ch=6 n=56 v=105
4080 On ch=6 n=66 v=99
4140 On ch=6 n=66 v=0
4140 On ch=6 n=56 v=0
4140 On ch=6 n=73 v=101
4140 On ch=6 n=85 v=101
4320 On ch=6 n=85 v=0
4320 On ch=6 n=73 v=0
4320 On ch=6 n=83 v=95
4320 On ch=6 n=71 v=105
4500 On ch=6 n=71 v=0
4500 On ch=6 n=83 v=0
4500 On ch=6 n=78 v=108
4560 On ch=6 n=78 v=0
4560 On ch=6 n=78 v=108
4680 On ch=6 n=78 v=0
4680 On ch=6 n=83 v=104
4680 On ch=6 n=71 v=104
4740 On ch=6 n=71 v=0
4740 On ch=6 n=83 v=0
4740 On ch=6 n=83 v=105
4740 On ch=6 n=71 v=105
4890 On ch=6 n=71 v=0
4920 On ch=6 n=83 v=0
4920 On ch=6 n=71 v=105
4980 On ch=6 n=71 v=0
4980 On ch=6 n=73 v=92
5040 On ch=6 n=73 v=0
5040 On ch=6 n=75 v=96
5100 On ch=6 n=75 v=0
5100 On ch=6 n=76 v=99
5280 On ch=6 n=76 v=0
5280 On ch=6 n=71 v=115
5280 On ch=6 n=83 v=115
5460 On ch=6 n=83 v=0
5460 On ch=6 n=71 v=0
5460 On ch=6 n=78 v=93
5520 On ch=6 n=78 v=0
5520 On ch=6 n=78 v=105
5580 On ch=6 n=78 v=0
5580 On ch=6 n=71 v=105
5580 On ch=6 n=83 v=105
5685 On ch=6 n=83 v=0
5685 On ch=6 n=71 v=0
5700 On ch=6 n=56 v=105
5700 On ch=6 n=85 v=105
5820 On ch=6 n=56 v=0
5820 On ch=6 n=56 v=105
5880 On ch=6 n=85 v=0
5880 On ch=6 n=78 v=94
5940 On ch=6 n=56 v=0
5940 On ch=6 n=56 v=105
6060 On ch=6 n=56 v=0
6060 On ch=6 n=83 v=87
6240 On ch=6 n=83 v=0
6240 On ch=6 n=78 v=0
6240 On ch=6 n=66 v=100
6240 On ch=6 n=59 v=79
6240 On ch=6 n=63 v=79
6480 On ch=6 n=63 v=0
6480 On ch=6 n=59 v=0
6480 On ch=6 n=66 v=0
6480 On ch=6 n=66 v=100
6480 On ch=6 n=59 v=75
6480 On ch=6 n=63 v=75
6660 On ch=6 n=63 v=0
6660 On ch=6 n=59 v=0
6660 On ch=6 n=66 v=0
6660 On ch=6 n=66 v=100
6660 On ch=6 n=64 v=75
6660 On ch=6 n=59 v=75
6840 On ch=6 n=59 v=0
6840 On ch=6 n=64 v=0
6840 On ch=6 n=66 v=0
6840 On ch=6 n=66 v=100
6840 On ch=6 n=59 v=75
6840 On ch=6 n=64 v=75
7020 On ch=6 n=64 v=0
7020 On ch=6 n=59 v=0
7020 On ch=6 n=66 v=0
7020 On ch=6 n=59 v=100
7020 On ch=6 n=61 v=100
7140 On ch=6 n=61 v=0
7140 On ch=6 n=59 v=0
7140 On ch=6 n=66 v=100
7140 On ch=6 n=59 v=100
7140 On ch=6 n=63 v=107
7200 On ch=6 n=63 v=0
7200 On ch=6 n=59 v=0
7200 On ch=6 n=66 v=0
7200 On ch=6 n=66 v=100
7200 On ch=6 n=59 v=83
7200 On ch=6 n=63 v=83
7440 On ch=6 n=63 v=0
7440 On ch=6 n=59 v=0
7440 On ch=6 n=66 v=0
7440 On ch=6 n=66 v=100
7440 On ch=6 n=59 v=84
7440 On ch=6 n=63 v=84
7620 On ch=6 n=63 v=0
7620 On ch=6 n=59 v=0
7620 On ch=6 n=66 v=0
7620 On ch=6 n=66 v=100
7620 On ch=6 n=59 v=99
7620 On ch=6 n=64 v=99
7800 On ch=6 n=64 v=0
7800 On ch=6 n=59 v=0
7800 On ch=6 n=66 v=0
7800 On ch=6 n=66 v=100
7800 On ch=6 n=59 v=95
7800 On ch=6 n=64 v=95
7980 On ch=6 n=64 v=0
7980 On ch=6 n=59 v=0
7980 On ch=6 n=66 v=0
7980 On ch=6 n=59 v=100
7980 On ch=6 n=68 v=112
8100 On ch=6 n=68 v=0
8100 On ch=6 n=59 v=0
8100 On ch=6 n=59 v=100
8100 On ch=6 n=66 v=106
8160 On ch=6 n=66 v=0
8160 On ch=6 n=59 v=0
8160 On ch=6 n=63 v=79
8160 On ch=6 n=66 v=100
8160 On ch=6 n=59 v=79
8400 On ch=6 n=59 v=0
8400 On ch=6 n=66 v=0
8400 On ch=6 n=63 v=0
8400 On ch=6 n=66 v=100
8400 On ch=6 n=59 v=75
8400 On ch=6 n=63 v=75
8580 On ch=6 n=63 v=0
8580 On ch=6 n=59 v=0
8580 On ch=6 n=66 v=0
8580 On ch=6 n=66 v=100
8580 On ch=6 n=64 v=75
8580 On ch=6 n=59 v=75
8760 On ch=6 n=59 v=0
8760 On ch=6 n=64 v=0
8760 On ch=6 n=66 v=0
8760 On ch=6 n=66 v=100
8760 On ch=6 n=59 v=75
8760 On ch=6 n=64 v=75
8940 On ch=6 n=64 v=0
8940 On ch=6 n=59 v=0
8940 On ch=6 n=66 v=0
8940 On ch=6 n=59 v=100
8940 On ch=6 n=61 v=100
9060 On ch=6 n=61 v=0
9060 On ch=6 n=59 v=0
9060 On ch=6 n=63 v=107
9060 On ch=6 n=66 v=100
9060 On ch=6 n=59 v=100
9120 On ch=6 n=59 v=0
9120 On ch=6 n=66 v=0
9120 On ch=6 n=63 v=0
9120 On ch=6 n=59 v=83
9120 On ch=6 n=63 v=83
9120 On ch=6 n=66 v=100
9360 On ch=6 n=66 v=0
9360 On ch=6 n=63 v=0
9360 On ch=6 n=59 v=0
9360 On ch=6 n=66 v=100
9360 On ch=6 n=63 v=84
9360 On ch=6 n=59 v=84
9540 On ch=6 n=59 v=0
9540 On ch=6 n=63 v=0
9540 On ch=6 n=66 v=0
9540 On ch=6 n=66 v=100
9540 On ch=6 n=64 v=99
9540 On ch=6 n=59 v=99
9720 On ch=6 n=59 v=0
9720 On ch=6 n=64 v=0
9720 On ch=6 n=66 v=0
9720 On ch=6 n=66 v=100
9720 On ch=6 n=59 v=95
9720 On ch=6 n=64 v=95
9900 On ch=6 n=64 v=0
9900 On ch=6 n=59 v=0
9900 On ch=6 n=66 v=0
9900 On ch=6 n=59 v=100
9900 On ch=6 n=68 v=112
10020 On ch=6 n=68 v=0
10020 On ch=6 n=59 v=0
10020 On ch=6 n=66 v=106
10020 On ch=6 n=59 v=100
10080 On ch=6 n=59 v=0
10080 On ch=6 n=66 v=0
10080 On ch=6 n=57 v=100
10200 On ch=6 n=57 v=0
10200 On ch=6 n=66 v=100
10200 On ch=6 n=62 v=100
10380 On ch=6 n=62 v=0
10380 On ch=6 n=66 v=0
10380 On ch=6 n=62 v=100
10380 On ch=6 n=66 v=100
10500 On ch=6 n=66 v=0
10500 On ch=6 n=62 v=0
10500 On ch=6 n=62 v=100
10500 On ch=6 n=66 v=100
10560 On ch=6 n=66 v=0
10560 On ch=6 n=62 v=0
10560 On ch=6 n=61 v=100
10680 On ch=6 n=61 v=0
10680 On ch=6 n=69 v=100
10680 On ch=6 n=64 v=100
10860 On ch=6 n=64 v=0
10860 On ch=6 n=69 v=0
10860 On ch=6 n=69 v=100
10860 On ch=6 n=64 v=100
10980 On ch=6 n=64 v=0
10980 On ch=6 n=69 v=0
10980 On ch=6 n=64 v=100
10980 On ch=6 n=69 v=100
11040 On ch=6 n=69 v=0
11040 On ch=6 n=64 v=0
11040 On ch=6 n=59 v=100
11160 On ch=6 n=59 v=0
11160 On ch=6 n=62 v=100
11160 On ch=6 n=66 v=100
11340 On ch=6 n=66 v=0
11340 On ch=6 n=62 v=0
11340 On ch=6 n=62 v=100
11340 On ch=6 n=66 v=100
11460 On ch=6 n=66 v=0
11460 On ch=6 n=62 v=0
11460 On ch=6 n=66 v=100
11460 On ch=6 n=62 v=100
11520 On ch=6 n=62 v=0
11520 On ch=6 n=66 v=0
11520 On ch=6 n=55 v=100
11640 On ch=6 n=55 v=0
11640 On ch=6 n=62 v=100
11640 On ch=6 n=59 v=100
11820 On ch=6 n=59 v=0
11820 On ch=6 n=62 v=0
11820 On ch=6 n=59 v=100
11820 On ch=6 n=62 v=100
11940 On ch=6 n=62 v=0
11940 On ch=6 n=59 v=0
11940 On ch=6 n=59 v=100
11940 On ch=6 n=62 v=100
12000 On ch=6 n=62 v=0
12000 On ch=6 n=59 v=0
12000 On ch=6 n=57 v=100
12120 On ch=6 n=57 v=0
12120 On ch=6 n=66 v=100
12120 On ch=6 n=62 v=100
12300 On ch=6 n=62 v=0
12300 On ch=6 n=66 v=0
12300 On ch=6 n=62 v=100
12300 On ch=6 n=66 v=100
12420 On ch=6 n=66 v=0
12420 On ch=6 n=62 v=0
12420 On ch=6 n=66 v=100
12420 On ch=6 n=62 v=100
12480 On ch=6 n=62 v=0
12480 On ch=6 n=66 v=0
12480 On ch=6 n=61 v=100
12600 On ch=6 n=61 v=0
12600 On ch=6 n=69 v=100
12600 On ch=6 n=64 v=100
12780 On ch=6 n=64 v=0
12780 On ch=6 n=69 v=0
12780 On ch=6 n=64 v=100
12780 On ch=6 n=69 v=100
12900 On ch=6 n=69 v=0
12900 On ch=6 n=64 v=0
12900 On ch=6 n=64 v=100
12900 On ch=6 n=69 v=100
12960 On ch=6 n=69 v=0
12960 On ch=6 n=64 v=0
12960 On ch=6 n=59 v=100
13080 On ch=6 n=59 v=0
13080 On ch=6 n=62 v=100
13080 On ch=6 n=66 v=100
13260 On ch=6 n=66 v=0
13260 On ch=6 n=62 v=0
13260 On ch=6 n=66 v=100
13260 On ch=6 n=62 v=100
13380 On ch=6 n=62 v=0
13380 On ch=6 n=66 v=0
13380 On ch=6 n=66 v=100
13380 On ch=6 n=62 v=100
13440 On ch=6 n=62 v=0
13440 On ch=6 n=66 v=0
13440 On ch=6 n=55 v=100
13560 On ch=6 n=55 v=0
13560 On ch=6 n=62 v=100
13560 On ch=6 n=59 v=100
13740 On ch=6 n=59 v=0
13740 On ch=6 n=62 v=0
13740 On ch=6 n=59 v=100
13740 On ch=6 n=62 v=100
13860 On ch=6 n=62 v=0
13860 On ch=6 n=59 v=0
13860 On ch=6 n=59 v=100
13860 On ch=6 n=62 v=100
13920 On ch=6 n=62 v=0
13920 On ch=6 n=59 v=0
13920 On ch=6 n=83 v=120
13920 On ch=6 n=71 v=120
14085 On ch=6 n=71 v=0
14100 On ch=6 n=83 v=0
14100 On ch=6 n=66 v=100
14100 On ch=6 n=78 v=108
14160 On ch=6 n=78 v=0
14160 On ch=6 n=66 v=0
14160 On ch=6 n=66 v=100
14160 On ch=6 n=78 v=108
14280 On ch=6 n=78 v=0
14280 On ch=6 n=66 v=0
14280 On ch=6 n=83 v=104
14280 On ch=6 n=71 v=104
14340 On ch=6 n=71 v=0
14340 On ch=6 n=83 v=0
14340 On ch=6 n=83 v=105
14340 On ch=6 n=71 v=105
14520 On ch=6 n=71 v=0
14520 On ch=6 n=83 v=0
14520 On ch=6 n=71 v=105
14580 On ch=6 n=71 v=0
14580 On ch=6 n=73 v=92
14640 On ch=6 n=73 v=0
14640 On ch=6 n=75 v=96
14700 On ch=6 n=75 v=0
14700 On ch=6 n=76 v=99
14880 On ch=6 n=76 v=0
14880 On ch=6 n=71 v=115
14880 On ch=6 n=83 v=115
15060 On ch=6 n=83 v=0
15060 On ch=6 n=71 v=0
15060 On ch=6 n=78 v=93
15120 On ch=6 n=78 v=0
15120 On ch=6 n=78 v=105
15180 On ch=6 n=78 v=0
15180 On ch=6 n=71 v=105
15180 On ch=6 n=83 v=105
15300 On ch=6 n=83 v=0
15300 On ch=6 n=71 v=0
15300 On ch=6 n=56 v=87
15300 On ch=6 n=73 v=121
15300 On ch=6 n=85 v=121
15420 On ch=6 n=56 v=0
15420 On ch=6 n=56 v=87
15480 On ch=6 n=85 v=0
15480 On ch=6 n=73 v=0
15480 On ch=6 n=78 v=94
15540 On ch=6 n=56 v=0
15540 On ch=6 n=56 v=87
15600 On ch=6 n=78 v=0
15600 On ch=6 n=78 v=99
15660 On ch=6 n=78 v=0
15660 On ch=6 n=56 v=0
15660 On ch=6 n=85 v=120
15660 On ch=6 n=73 v=120
15840 On ch=6 n=73 v=0
15840 On ch=6 n=85 v=0
15840 On ch=6 n=59 v=99
15960 On ch=6 n=59 v=0
15960 On ch=6 n=59 v=99
15960 On ch=6 n=63 v=99
16080 On ch=6 n=63 v=0
16080 On ch=6 n=59 v=0
16080 On ch=6 n=59 v=99
16140 On ch=6 n=59 v=0
16140 On ch=6 n=63 v=99
16140 On ch=6 n=59 v=99
16260 On ch=6 n=59 v=0
16260 On ch=6 n=63 v=0
16260 On ch=6 n=64 v=99
16260 On ch=6 n=59 v=99
16380 On ch=6 n=59 v=0
16380 On ch=6 n=64 v=0
16380 On ch=6 n=64 v=99
16380 On ch=6 n=59 v=99
16560 On ch=6 n=59 v=0
16560 On ch=6 n=64 v=0
16560 On ch=6 n=59 v=99
16560 On ch=6 n=68 v=99
16680 On ch=6 n=68 v=0
16680 On ch=6 n=59 v=0
16680 On ch=6 n=59 v=99
16680 On ch=6 n=66 v=99
16800 On ch=6 n=66 v=0
16800 On ch=6 n=59 v=0
16800 On ch=6 n=59 v=99
16920 On ch=6 n=59 v=0
16920 On ch=6 n=59 v=99
16920 On ch=6 n=63 v=99
17040 On ch=6 n=63 v=0
17040 On ch=6 n=59 v=0
17040 On ch=6 n=59 v=99
17100 On ch=6 n=59 v=0
17100 On ch=6 n=63 v=99
17100 On ch=6 n=59 v=99
17220 On ch=6 n=59 v=0
17220 On ch=6 n=63 v=0
17220 On ch=6 n=64 v=99
17220 On ch=6 n=59 v=99
17340 On ch=6 n=59 v=0
17340 On ch=6 n=64 v=0
17340 On ch=6 n=59 v=99
17340 On ch=6 n=64 v=99
17580 On ch=6 n=64 v=0
17580 On ch=6 n=59 v=0
17580 On ch=6 n=59 v=99
17580 On ch=6 n=61 v=99
17700 On ch=6 n=61 v=0
17700 On ch=6 n=59 v=0
17700 On ch=6 n=63 v=99
17700 On ch=6 n=59 v=99
17760 On ch=6 n=59 v=0
17760 On ch=6 n=63 v=0
17760 On ch=6 n=59 v=99
17880 On ch=6 n=59 v=0
17880 On ch=6 n=63 v=99
17880 On ch=6 n=59 v=99
18000 On ch=6 n=59 v=0
18000 On ch=6 n=63 v=0
18000 On ch=6 n=59 v=99
18060 On ch=6 n=59 v=0
18060 On ch=6 n=59 v=99
18060 On ch=6 n=63 v=99
18180 On ch=6 n=63 v=0
18180 On ch=6 n=59 v=0
18180 On ch=6 n=59 v=99
18180 On ch=6 n=64 v=99
18300 On ch=6 n=64 v=0
18300 On ch=6 n=59 v=0
18300 On ch=6 n=64 v=99
18300 On ch=6 n=59 v=99
18480 On ch=6 n=59 v=0
18480 On ch=6 n=64 v=0
18480 On ch=6 n=68 v=99
18480 On ch=6 n=59 v=99
18600 On ch=6 n=59 v=0
18600 On ch=6 n=68 v=0
18600 On ch=6 n=59 v=99
18600 On ch=6 n=66 v=99
18720 On ch=6 n=66 v=0
18720 On ch=6 n=59 v=0
18720 On ch=6 n=59 v=99
18840 On ch=6 n=59 v=0
18840 On ch=6 n=59 v=99
18840 On ch=6 n=63 v=99
18960 On ch=6 n=63 v=0
18960 On ch=6 n=59 v=0
18960 On ch=6 n=59 v=99
19020 On ch=6 n=59 v=0
19020 On ch=6 n=63 v=99
19020 On ch=6 n=59 v=99
19140 On ch=6 n=59 v=0
19140 On ch=6 n=63 v=0
19140 On ch=6 n=59 v=99
19140 On ch=6 n=64 v=99
19260 On ch=6 n=64 v=0
19260 On ch=6 n=59 v=0
19260 On ch=6 n=64 v=99
19260 On ch=6 n=59 v=99
19500 On ch=6 n=59 v=0
19500 On ch=6 n=64 v=0
19500 On ch=6 n=64 v=99
19500 On ch=6 n=59 v=99
19620 On ch=6 n=59 v=0
19620 On ch=6 n=64 v=0
19620 On ch=6 n=59 v=99
19620 On ch=6 n=64 v=99
19680 On ch=6 n=64 v=0
19680 On ch=6 n=59 v=0
19680 On ch=6 n=59 v=99
19680 On ch=6 n=67 v=99
19680 On ch=6 n=62 v=99
20160 On ch=6 n=62 v=0
20160 On ch=6 n=67 v=0
20160 On ch=6 n=59 v=0
20160 On ch=6 n=59 v=99
20160 On ch=6 n=64 v=99
20160 On ch=6 n=68 v=99
20640 On ch=6 n=68 v=0
20640 On ch=6 n=64 v=0
20640 On ch=6 n=59 v=0
20640 On ch=6 n=59 v=99
20640 On ch=6 n=66 v=99
20640 On ch=6 n=63 v=99
21600 On ch=6 n=63 v=0
21600 On ch=6 n=66 v=0
21600 On ch=6 n=59 v=0
21600 On ch=6 n=59 v=99
21600 On ch=6 n=67 v=99
21600 On ch=6 n=62 v=99
22080 On ch=6 n=62 v=0
22080 On ch=6 n=67 v=0
22080 On ch=6 n=59 v=0
22080 On ch=6 n=59 v=99
22080 On ch=6 n=64 v=99
22080 On ch=6 n=68 v=99
22560 On ch=6 n=68 v=0
22560 On ch=6 n=64 v=0
22560 On ch=6 n=59 v=0
22560 On ch=6 n=59 v=100
22680 On ch=6 n=66 v=100
22680 On ch=6 n=71 v=100
22695 On ch=6 n=59 v=0
22800 On ch=6 n=59 v=100
22830 On ch=6 n=71 v=0
22830 On ch=6 n=66 v=0
22860 On ch=6 n=59 v=0
22860 On ch=6 n=71 v=100
22860 On ch=6 n=66 v=100
22980 On ch=6 n=66 v=0
22980 On ch=6 n=71 v=0
22980 On ch=6 n=71 v=100
22980 On ch=6 n=66 v=100
23040 On ch=6 n=59 v=100
23130 On ch=6 n=66 v=0
23130 On ch=6 n=71 v=0
23160 On ch=6 n=59 v=0
23160 On ch=6 n=66 v=100
23160 On ch=6 n=71 v=100
23280 On ch=6 n=59 v=100
23310 On ch=6 n=71 v=0
23310 On ch=6 n=66 v=0
23340 On ch=6 n=71 v=100
23340 On ch=6 n=66 v=100
23400 On ch=6 n=59 v=0
23460 On ch=6 n=66 v=0
23460 On ch=6 n=71 v=0
23460 On ch=6 n=66 v=100
23460 On ch=6 n=71 v=100
23520 On ch=6 n=59 v=100
23580 On ch=6 n=71 v=0
23580 On ch=6 n=66 v=0
23640 On ch=6 n=66 v=100
23640 On ch=6 n=71 v=100
23655 On ch=6 n=59 v=0
23760 On ch=6 n=59 v=100
23790 On ch=6 n=71 v=0
23790 On ch=6 n=66 v=0
23820 On ch=6 n=59 v=0
23820 On ch=6 n=66 v=100
23820 On ch=6 n=71 v=100
23940 On ch=6 n=71 v=0
23940 On ch=6 n=66 v=0
23940 On ch=6 n=66 v=100
23940 On ch=6 n=71 v=100
24000 On ch=6 n=59 v=100
24090 On ch=6 n=71 v=0
24090 On ch=6 n=66 v=0
24120 On ch=6 n=59 v=0
24120 On ch=6 n=71 v=100
24120 On ch=6 n=66 v=100
24240 On ch=6 n=59 v=100
24270 On ch=6 n=66 v=0
24270 On ch=6 n=71 v=0
24300 On ch=6 n=66 v=100
24300 On ch=6 n=71 v=100
24360 On ch=6 n=59 v=0
24420 On ch=6 n=71 v=0
24420 On ch=6 n=66 v=0
24420 On ch=6 n=71 v=100
24420 On ch=6 n=66 v=100
24480 On ch=6 n=63 v=79
24480 On ch=6 n=59 v=79
24540 On ch=6 n=66 v=0
24540 On ch=6 n=71 v=0
24720 On ch=6 n=63 v=0
24720 On ch=6 n=59 v=0
24720 On ch=6 n=59 v=75
24720 On ch=6 n=63 v=75
24900 On ch=6 n=63 v=0
24900 On ch=6 n=59 v=0
24900 On ch=6 n=59 v=75
24900 On ch=6 n=64 v=75
24963 Par ch=6 c=7 v=96
25080 On ch=6 n=64 v=0
25080 On ch=6 n=59 v=0
25080 On ch=6 n=64 v=75
25080 On ch=6 n=59 v=75
25260 On ch=6 n=59 v=0
25260 On ch=6 n=64 v=0
25260 On ch=6 n=59 v=100
25260 On ch=6 n=61 v=100
25380 On ch=6 n=61 v=0
25380 On ch=6 n=59 v=0
25380 On ch=6 n=63 v=107
25380 On ch=6 n=59 v=100
25440 On ch=6 n=59 v=0
25440 On ch=6 n=63 v=0
25440 On ch=6 n=59 v=83
25440 On ch=6 n=63 v=83
25680 On ch=6 n=63 v=0
25680 On ch=6 n=59 v=0
25680 On ch=6 n=59 v=84
25680 On ch=6 n=63 v=84
25860 On ch=6 n=63 v=0
25860 On ch=6 n=59 v=0
25860 On ch=6 n=59 v=99
25860 On ch=6 n=64 v=99
26040 On ch=6 n=64 v=0
26040 On ch=6 n=59 v=0
26040 On ch=6 n=59 v=95
26040 On ch=6 n=64 v=95
26220 On ch=6 n=64 v=0
26220 On ch=6 n=59 v=0
26220 On ch=6 n=59 v=100
26220 On ch=6 n=68 v=112
26340 On ch=6 n=68 v=0
26340 On ch=6 n=59 v=0
26340 On ch=6 n=66 v=106
26340 On ch=6 n=59 v=100
26400 On ch=6 n=59 v=0
26400 On ch=6 n=66 v=0
26400 On ch=6 n=59 v=79
26400 On ch=6 n=63 v=79
26640 On ch=6 n=63 v=0
26640 On ch=6 n=59 v=0
26640 On ch=6 n=59 v=75
26640 On ch=6 n=63 v=75
26820 On ch=6 n=63 v=0
26820 On ch=6 n=59 v=0
26820 On ch=6 n=64 v=75
26820 On ch=6 n=59 v=75
27000 On ch=6 n=59 v=0
27000 On ch=6 n=64 v=0
27000 On ch=6 n=59 v=75
27000 On ch=6 n=64 v=75
27180 On ch=6 n=64 v=0
27180 On ch=6 n=59 v=0
27180 On ch=6 n=61 v=100
27180 On ch=6 n=59 v=100
27300 On ch=6 n=59 v=0
27300 On ch=6 n=61 v=0
27300 On ch=6 n=59 v=100
27300 On ch=6 n=63 v=107
27360 On ch=6 n=63 v=0
27360 On ch=6 n=59 v=0
27360 On ch=6 n=63 v=85
27360 On ch=6 n=59 v=85
27600 On ch=6 n=59 v=0
27600 On ch=6 n=63 v=0
27600 On ch=6 n=63 v=87
27600 On ch=6 n=59 v=87
27780 On ch=6 n=59 v=0
27780 On ch=6 n=63 v=0
27780 On ch=6 n=59 v=94
27780 On ch=6 n=64 v=94
27960 On ch=6 n=64 v=0
27960 On ch=6 n=59 v=0
27960 On ch=6 n=64 v=96
27960 On ch=6 n=59 v=96
28140 On ch=6 n=59 v=0
28140 On ch=6 n=64 v=0
28140 On ch=6 n=59 v=100
28140 On ch=6 n=64 v=100
28260 On ch=6 n=64 v=0
28260 On ch=6 n=59 v=0
28320 On ch=6 n=57 v=100
28440 On ch=6 n=57 v=0
28440 On ch=6 n=62 v=100
28440 On ch=6 n=66 v=100
28620 On ch=6 n=66 v=0
28620 On ch=6 n=62 v=0
28620 On ch=6 n=62 v=100
28620 On ch=6 n=66 v=100
28740 On ch=6 n=66 v=0
28740 On ch=6 n=62 v=0
28740 On ch=6 n=66 v=100
28740 On ch=6 n=62 v=100
28800 On ch=6 n=62 v=0
28800 On ch=6 n=66 v=0
28800 On ch=6 n=61 v=100
28920 On ch=6 n=61 v=0
28920 On ch=6 n=69 v=100
28920 On ch=6 n=64 v=100
29100 On ch=6 n=64 v=0
29100 On ch=6 n=69 v=0
29100 On ch=6 n=64 v=100
29100 On ch=6 n=69 v=100
29220 On ch=6 n=69 v=0
29220 On ch=6 n=64 v=0
29220 On ch=6 n=64 v=100
29220 On ch=6 n=69 v=100
29280 On ch=6 n=69 v=0
29280 On ch=6 n=64 v=0
29280 On ch=6 n=59 v=100
29400 On ch=6 n=59 v=0
29400 On ch=6 n=66 v=100
29400 On ch=6 n=62 v=100
29580 On ch=6 n=62 v=0
29580 On ch=6 n=66 v=0
29580 On ch=6 n=66 v=100
29580 On ch=6 n=62 v=100
29700 On ch=6 n=62 v=0
29700 On ch=6 n=66 v=0
29700 On ch=6 n=62 v=100
29700 On ch=6 n=66 v=100
29760 On ch=6 n=66 v=0
29760 On ch=6 n=62 v=0
29760 On ch=6 n=55 v=100
29880 On ch=6 n=55 v=0
29880 On ch=6 n=59 v=100
29880 On ch=6 n=62 v=100
30060 On ch=6 n=62 v=0
30060 On ch=6 n=59 v=0
30060 On ch=6 n=59 v=100
30060 On ch=6 n=62 v=100
30180 On ch=6 n=62 v=0
30180 On ch=6 n=59 v=0
30180 On ch=6 n=59 v=100
30180 On ch=6 n=62 v=100
30240 On ch=6 n=62 v=0
30240 On ch=6 n=59 v=0
30240 On ch=6 n=57 v=100
30360 On ch=6 n=57 v=0
30360 On ch=6 n=62 v=100
30360 On ch=6 n=66 v=100
30540 On ch=6 n=66 v=0
30540 On ch=6 n=62 v=0
30540 On ch=6 n=66 v=100
30540 On ch=6 n=62 v=100
30660 On ch=6 n=62 v=0
30660 On ch=6 n=66 v=0
30660 On ch=6 n=62 v=100
30660 On ch=6 n=66 v=100
30720 On ch=6 n=66 v=0
30720 On ch=6 n=62 v=0
30720 On ch=6 n=61 v=100
30840 On ch=6 n=61 v=0
30840 On ch=6 n=69 v=100
30840 On ch=6 n=64 v=100
31020 On ch=6 n=64 v=0
31020 On ch=6 n=69 v=0
31020 On ch=6 n=64 v=100
31020 On ch=6 n=69 v=100
31140 On ch=6 n=69 v=0
31140 On ch=6 n=64 v=0
31140 On ch=6 n=64 v=100
31140 On ch=6 n=69 v=100
31200 On ch=6 n=69 v=0
31200 On ch=6 n=64 v=0
31200 On ch=6 n=59 v=100
31320 On ch=6 n=59 v=0
31320 On ch=6 n=66 v=100
31320 On ch=6 n=62 v=100
31500 On ch=6 n=62 v=0
31500 On ch=6 n=66 v=0
31500 On ch=6 n=62 v=100
31500 On ch=6 n=66 v=100
31620 On ch=6 n=66 v=0
31620 On ch=6 n=62 v=0
31620 On ch=6 n=66 v=100
31620 On ch=6 n=62 v=100
31680 On ch=6 n=62 v=0
31680 On ch=6 n=66 v=0
31680 On ch=6 n=55 v=100
31800 On ch=6 n=55 v=0
31800 On ch=6 n=62 v=100
31800 On ch=6 n=59 v=100
31980 On ch=6 n=59 v=0
31980 On ch=6 n=62 v=0
31980 On ch=6 n=59 v=100
31980 On ch=6 n=62 v=100
32100 On ch=6 n=62 v=0
32100 On ch=6 n=59 v=0
32100 On ch=6 n=59 v=100
32100 On ch=6 n=62 v=100
32160 On ch=6 n=62 v=0
32160 On ch=6 n=59 v=0
32160 On ch=6 n=71 v=86
32160 On ch=6 n=83 v=86
32340 On ch=6 n=83 v=0
32340 On ch=6 n=71 v=0
32340 On ch=6 n=59 v=85
32340 On ch=6 n=66 v=85
32400 On ch=6 n=66 v=0
32400 On ch=6 n=59 v=0
32400 On ch=6 n=66 v=84
32400 On ch=6 n=59 v=84
32460 On ch=6 n=59 v=0
32460 On ch=6 n=66 v=0
32460 On ch=6 n=63 v=84
32460 On ch=6 n=68 v=84
32460 On ch=6 n=59 v=84
32580 On ch=6 n=59 v=0
32580 On ch=6 n=68 v=0
32580 On ch=6 n=63 v=0
32580 On ch=6 n=64 v=84
32580 On ch=6 n=68 v=84
32580 On ch=6 n=59 v=84
32700 On ch=6 n=59 v=0
32700 On ch=6 n=68 v=0
32700 On ch=6 n=64 v=0
32700 On ch=6 n=65 v=84
32700 On ch=6 n=68 v=84
32700 On ch=6 n=61 v=84
32820 On ch=6 n=61 v=0
32820 On ch=6 n=68 v=0
32820 On ch=6 n=65 v=0
32820 On ch=6 n=61 v=84
32820 On ch=6 n=69 v=84
32820 On ch=6 n=65 v=84
32940 On ch=6 n=65 v=0
32940 On ch=6 n=69 v=0
32940 On ch=6 n=61 v=0
32940 On ch=6 n=70 v=84
32940 On ch=6 n=66 v=84
32940 On ch=6 n=82 v=84
32940 On ch=6 n=61 v=84
33120 On ch=6 n=61 v=0
33120 On ch=6 n=70 v=0
33120 On ch=6 n=66 v=0
33120 On ch=6 n=82 v=0
33120 On ch=6 n=71 v=86
33120 On ch=6 n=83 v=86
33300 On ch=6 n=83 v=0
33300 On ch=6 n=71 v=0
33300 On ch=6 n=59 v=85
33300 On ch=6 n=66 v=85
33360 On ch=6 n=66 v=0
33360 On ch=6 n=59 v=0
33360 On ch=6 n=66 v=84
33360 On ch=6 n=59 v=84
33420 On ch=6 n=59 v=0
33420 On ch=6 n=66 v=0
33420 On ch=6 n=68 v=84
33420 On ch=6 n=59 v=84
33420 On ch=6 n=63 v=84
33540 On ch=6 n=63 v=0
33540 On ch=6 n=59 v=0
33540 On ch=6 n=68 v=0
33540 On ch=6 n=68 v=84
33540 On ch=6 n=59 v=84
33540 On ch=6 n=64 v=84
33660 On ch=6 n=64 v=0
33660 On ch=6 n=59 v=0
33660 On ch=6 n=68 v=0
33660 On ch=6 n=61 v=84
33660 On ch=6 n=65 v=84
33660 On ch=6 n=68 v=84
33780 On ch=6 n=68 v=0
33780 On ch=6 n=65 v=0
33780 On ch=6 n=61 v=0
33780 On ch=6 n=69 v=84
33780 On ch=6 n=61 v=84
33780 On ch=6 n=65 v=84
33900 On ch=6 n=65 v=0
33900 On ch=6 n=61 v=0
33900 On ch=6 n=69 v=0
33900 On ch=6 n=61 v=84
33900 On ch=6 n=66 v=84
33900 On ch=6 n=70 v=84
33900 On ch=6 n=82 v=84
34080 On ch=6 n=82 v=0
34080 On ch=6 n=61 v=0
34080 On ch=6 n=66 v=0
34080 On ch=6 n=70 v=0
34080 On ch=6 n=59 v=99
34200 On ch=6 n=59 v=0
34200 On ch=6 n=59 v=99
34200 On ch=6 n=63 v=99
34320 On ch=6 n=63 v=0
34320 On ch=6 n=59 v=0
34320 On ch=6 n=59 v=99
34380 On ch=6 n=59 v=0
34380 On ch=6 n=59 v=99
34380 On ch=6 n=63 v=99
34500 On ch=6 n=63 v=0
34500 On ch=6 n=59 v=0
34500 On ch=6 n=64 v=99
34500 On ch=6 n=59 v=99
34620 On ch=6 n=59 v=0
34620 On ch=6 n=64 v=0
34620 On ch=6 n=64 v=99
34620 On ch=6 n=59 v=99
34800 On ch=6 n=59 v=0
34800 On ch=6 n=64 v=0
34800 On ch=6 n=68 v=99
34800 On ch=6 n=59 v=99
34920 On ch=6 n=59 v=0
34920 On ch=6 n=68 v=0
34920 On ch=6 n=59 v=99
34920 On ch=6 n=66 v=99
35040 On ch=6 n=66 v=0
35040 On ch=6 n=59 v=0
35040 On ch=6 n=59 v=99
35160 On ch=6 n=59 v=0
35160 On ch=6 n=59 v=99
35160 On ch=6 n=63 v=99
35280 On ch=6 n=63 v=0
35280 On ch=6 n=59 v=0
35280 On ch=6 n=59 v=99
35340 On ch=6 n=59 v=0
35340 On ch=6 n=59 v=99
35340 On ch=6 n=63 v=99
35460 On ch=6 n=63 v=0
35460 On ch=6 n=59 v=0
35460 On ch=6 n=64 v=99
35460 On ch=6 n=59 v=99
35580 On ch=6 n=59 v=0
35580 On ch=6 n=64 v=0
35580 On ch=6 n=64 v=99
35580 On ch=6 n=59 v=99
35820 On ch=6 n=59 v=0
35820 On ch=6 n=64 v=0
35820 On ch=6 n=59 v=99
35820 On ch=6 n=61 v=99
35940 On ch=6 n=61 v=0
35940 On ch=6 n=59 v=0
35940 On ch=6 n=59 v=99
35940 On ch=6 n=63 v=99
36000 On ch=6 n=63 v=0
36000 On ch=6 n=59 v=0
36000 On ch=6 n=59 v=99
36120 On ch=6 n=59 v=0
36120 On ch=6 n=63 v=99
36120 On ch=6 n=59 v=99
36240 On ch=6 n=59 v=0
36240 On ch=6 n=63 v=0
36240 On ch=6 n=59 v=99
36300 On ch=6 n=59 v=0
36300 On ch=6 n=63 v=99
36300 On ch=6 n=59 v=99
36420 On ch=6 n=59 v=0
36420 On ch=6 n=63 v=0
36420 On ch=6 n=59 v=99
36420 On ch=6 n=64 v=99
36540 On ch=6 n=64 v=0
36540 On ch=6 n=59 v=0
36540 On ch=6 n=59 v=99
36540 On ch=6 n=64 v=99
36720 On ch=6 n=64 v=0
36720 On ch=6 n=59 v=0
36720 On ch=6 n=68 v=99
36720 On ch=6 n=59 v=99
36840 On ch=6 n=59 v=0
36840 On ch=6 n=68 v=0
36840 On ch=6 n=59 v=99
36840 On ch=6 n=66 v=99
36960 On ch=6 n=66 v=0
36960 On ch=6 n=59 v=0
36960 On ch=6 n=59 v=99
37080 On ch=6 n=59 v=0
37080 On ch=6 n=63 v=99
37080 On ch=6 n=59 v=99
37200 On ch=6 n=59 v=0
37200 On ch=6 n=63 v=0
37200 On ch=6 n=59 v=99
37260 On ch=6 n=59 v=0
37260 On ch=6 n=63 v=99
37260 On ch=6 n=59 v=99
37380 On ch=6 n=59 v=0
37380 On ch=6 n=63 v=0
37380 On ch=6 n=59 v=99
37380 On ch=6 n=64 v=99
37500 On ch=6 n=64 v=0
37500 On ch=6 n=59 v=0
37500 On ch=6 n=59 v=99
37500 On ch=6 n=64 v=99
37740 On ch=6 n=64 v=0
37740 On ch=6 n=59 v=0
37740 On ch=6 n=59 v=99
37740 On ch=6 n=64 v=99
37860 On ch=6 n=64 v=0
37860 On ch=6 n=59 v=0
37860 On ch=6 n=64 v=99
37860 On ch=6 n=59 v=99
37920 On ch=6 n=59 v=0
37920 On ch=6 n=64 v=0
37920 On ch=6 n=59 v=99
37920 On ch=6 n=62 v=99
37920 On ch=6 n=67 v=99
38400 On ch=6 n=67 v=0
38400 On ch=6 n=62 v=0
38400 On ch=6 n=59 v=0
38400 On ch=6 n=68 v=99
38400 On ch=6 n=64 v=99
38400 On ch=6 n=59 v=99
38880 On ch=6 n=59 v=0
38880 On ch=6 n=64 v=0
38880 On ch=6 n=68 v=0
38880 On ch=6 n=66 v=99
38880 On ch=6 n=63 v=99
38880 On ch=6 n=59 v=99
39840 On ch=6 n=59 v=0
39840 On ch=6 n=63 v=0
39840 On ch=6 n=66 v=0
39840 On ch=6 n=67 v=99
39840 On ch=6 n=62 v=99
39840 On ch=6 n=59 v=99
40320 On ch=6 n=59 v=0
40320 On ch=6 n=62 v=0
40320 On ch=6 n=67 v=0
40320 On ch=6 n=64 v=99
40320 On ch=6 n=68 v=99
40320 On ch=6 n=59 v=99
40800 On ch=6 n=59 v=0
40800 On ch=6 n=68 v=0
40800 On ch=6 n=64 v=0
40800 On ch=6 n=59 v=100
40920 On ch=6 n=66 v=100
40920 On ch=6 n=71 v=100
40935 On ch=6 n=59 v=0
41040 On ch=6 n=59 v=100
41070 On ch=6 n=71 v=0
41070 On ch=6 n=66 v=0
41100 On ch=6 n=59 v=0
41100 On ch=6 n=66 v=100
41100 On ch=6 n=71 v=100
41220 On ch=6 n=71 v=0
41220 On ch=6 n=66 v=0
41220 On ch=6 n=66 v=100
41220 On ch=6 n=71 v=100
41280 On ch=6 n=59 v=100
41370 On ch=6 n=71 v=0
41370 On ch=6 n=66 v=0
41400 On ch=6 n=59 v=0
41400 On ch=6 n=66 v=100
41400 On ch=6 n=71 v=100
41520 On ch=6 n=59 v=100
41550 On ch=6 n=71 v=0
41550 On ch=6 n=66 v=0
41580 On ch=6 n=71 v=100
41580 On ch=6 n=66 v=100
41640 On ch=6 n=59 v=0
41700 On ch=6 n=66 v=0
41700 On ch=6 n=71 v=0
41700 On ch=6 n=71 v=100
41700 On ch=6 n=66 v=100
41760 On ch=6 n=59 v=100
41820 On ch=6 n=66 v=0
41820 On ch=6 n=71 v=0
41880 On ch=6 n=66 v=100
41880 On ch=6 n=71 v=100
41895 On ch=6 n=59 v=0
42000 On ch=6 n=59 v=84
42030 On ch=6 n=71 v=0
42030 On ch=6 n=66 v=0
42060 On ch=6 n=59 v=0
42060 On ch=6 n=71 v=100
42060 On ch=6 n=66 v=100
42180 On ch=6 n=66 v=0
42180 On ch=6 n=71 v=0
42180 On ch=6 n=71 v=100
42180 On ch=6 n=66 v=100
42240 On ch=6 n=59 v=86
42330 On ch=6 n=66 v=0
42330 On ch=6 n=71 v=0
42360 On ch=6 n=59 v=0
42360 On ch=6 n=71 v=100
42360 On ch=6 n=66 v=100
42480 On ch=6 n=59 v=83
42510 On ch=6 n=66 v=0
42510 On ch=6 n=71 v=0
42540 On ch=6 n=66 v=88
42540 On ch=6 n=71 v=88
42600 On ch=6 n=59 v=0
42660 On ch=6 n=71 v=0
42660 On ch=6 n=66 v=0
42660 On ch=6 n=66 v=92
42660 On ch=6 n=71 v=92
42720 On ch=6 n=57 v=73
42780 On ch=6 n=71 v=0
42780 On ch=6 n=66 v=0
42840 On ch=6 n=57 v=0
42840 On ch=6 n=69 v=106
42845 On ch=6 n=81 v=106
42960 On ch=6 n=57 v=95
43020 On ch=6 n=69 v=0
43020 On ch=6 n=69 v=92
43022 On ch=6 n=81 v=92
43025 On ch=6 n=81 v=0
43080 On ch=6 n=57 v=0
43140 On ch=6 n=69 v=0
43140 On ch=6 n=69 v=113
43142 On ch=6 n=81 v=0
43144 On ch=6 n=81 v=113
43200 On ch=6 n=57 v=74
43290 On ch=6 n=69 v=0
43294 On ch=6 n=81 v=0
43320 On ch=6 n=69 v=88
43324 On ch=6 n=81 v=88
43350 On ch=6 n=57 v=0
43440 On ch=6 n=57 v=75
43470 On ch=6 n=69 v=0
43474 On ch=6 n=81 v=0
43500 On ch=6 n=69 v=100
43508 On ch=6 n=81 v=100
43560 On ch=6 n=57 v=0
43680 On ch=6 n=69 v=0
43680 On ch=6 n=52 v=100
43688 On ch=6 n=81 v=0
43800 On ch=6 n=64 v=100
43800 On ch=6 n=59 v=100
43860 On ch=6 n=52 v=0
43920 On ch=6 n=52 v=100
43980 On ch=6 n=59 v=0
43980 On ch=6 n=64 v=0
43980 On ch=6 n=59 v=100
43980 On ch=6 n=64 v=100
44040 On ch=6 n=52 v=0
44100 On ch=6 n=64 v=0
44100 On ch=6 n=59 v=0
44100 On ch=6 n=69 v=97
44100 On ch=6 n=81 v=97
44160 On ch=6 n=52 v=94
44250 On ch=6 n=81 v=0
44250 On ch=6 n=69 v=0
44280 On ch=6 n=69 v=88
44290 On ch=6 n=81 v=88
44340 On ch=6 n=52 v=0
44400 On ch=6 n=52 v=100
44430 On ch=6 n=69 v=0
44440 On ch=6 n=81 v=0
44460 On ch=6 n=81 v=100
44460 On ch=6 n=69 v=100
44520 On ch=6 n=52 v=0
44640 On ch=6 n=69 v=0
44640 On ch=6 n=81 v=0
44640 On ch=6 n=59 v=86
44760 On ch=6 n=59 v=0
44760 On ch=6 n=66 v=94
44766 On ch=6 n=71 v=94
44880 On ch=6 n=59 v=92
44910 On ch=6 n=66 v=0
44916 On ch=6 n=71 v=0
44940 On ch=6 n=66 v=90
44948 On ch=6 n=71 v=90
45000 On ch=6 n=59 v=0
45060 On ch=6 n=66 v=0
45060 On ch=6 n=69 v=71
45068 On ch=6 n=71 v=0
45071 On ch=6 n=81 v=71
45120 On ch=6 n=59 v=73
45210 On ch=6 n=69 v=0
45221 On ch=6 n=81 v=0
45240 On ch=6 n=59 v=0
45240 On ch=6 n=71 v=85
45240 On ch=6 n=66 v=85
45360 On ch=6 n=59 v=72
45420 On ch=6 n=66 v=0
45420 On ch=6 n=71 v=0
45420 On ch=6 n=71 v=75
45420 On ch=6 n=66 v=75
45480 On ch=6 n=59 v=0
45600 On ch=6 n=66 v=0
45600 On ch=6 n=71 v=0
45600 On ch=6 n=61 v=53
45780 On ch=6 n=61 v=0
45780 On ch=6 n=57 v=49
45960 On ch=6 n=57 v=0
45960 On ch=6 n=61 v=47
46140 On ch=6 n=61 v=0
46140 On ch=6 n=57 v=49
46320 On ch=6 n=57 v=0
46860 On ch=6 n=59 v=99
46980 On ch=6 n=59 v=0
46980 On ch=6 n=59 v=99
46980 On ch=6 n=63 v=99
47100 On ch=6 n=63 v=0
47100 On ch=6 n=59 v=0
47100 On ch=6 n=59 v=99
47160 On ch=6 n=59 v=0
47160 On ch=6 n=59 v=99
47160 On ch=6 n=63 v=99
47280 On ch=6 n=63 v=0
47280 On ch=6 n=59 v=0
47280 On ch=6 n=64 v=99
47280 On ch=6 n=59 v=99
47400 On ch=6 n=59 v=0
47400 On ch=6 n=64 v=0
47400 On ch=6 n=59 v=99
47400 On ch=6 n=64 v=99
47580 On ch=6 n=64 v=0
47580 On ch=6 n=59 v=0
47580 On ch=6 n=66 v=99
47580 On ch=6 n=59 v=99
47580 On ch=6 n=68 v=99
47640 On ch=6 n=68 v=0
47640 On ch=6 n=66 v=0
47640 On ch=6 n=66 v=99
47640 On ch=6 n=69 v=99
47700 On ch=6 n=59 v=0
47700 On ch=6 n=59 v=99
47820 On ch=6 n=59 v=0
47820 On ch=6 n=69 v=0
47820 On ch=6 n=66 v=0
47820 On ch=6 n=59 v=99
47940 On ch=6 n=59 v=0
47940 On ch=6 n=59 v=99
47940 On ch=6 n=63 v=99
48060 On ch=6 n=63 v=0
48060 On ch=6 n=59 v=0
48060 On ch=6 n=59 v=99
48120 On ch=6 n=59 v=0
48120 On ch=6 n=63 v=99
48120 On ch=6 n=59 v=99
48240 On ch=6 n=59 v=0
48240 On ch=6 n=63 v=0
48240 On ch=6 n=64 v=99
48240 On ch=6 n=59 v=99
48360 On ch=6 n=59 v=0
48360 On ch=6 n=64 v=0
48360 On ch=6 n=59 v=99
48360 On ch=6 n=64 v=99
48540 On ch=6 n=64 v=0
48540 On ch=6 n=59 v=0
48540 On ch=6 n=66 v=99
48540 On ch=6 n=59 v=99
48540 On ch=6 n=68 v=99
48600 On ch=6 n=68 v=0
48600 On ch=6 n=66 v=0
48600 On ch=6 n=66 v=99
48600 On ch=6 n=69 v=99
48660 On ch=6 n=59 v=0
48660 On ch=6 n=59 v=99
48780 On ch=6 n=59 v=0
48780 On ch=6 n=69 v=0
48780 On ch=6 n=66 v=0
48780 On ch=6 n=59 v=99
48900 On ch=6 n=59 v=0
48900 On ch=6 n=59 v=99
48900 On ch=6 n=63 v=99
49020 On ch=6 n=63 v=0
49020 On ch=6 n=59 v=0
49020 On ch=6 n=59 v=99
49080 On ch=6 n=59 v=0
49080 On ch=6 n=59 v=99
49080 On ch=6 n=63 v=99
49200 On ch=6 n=63 v=0
49200 On ch=6 n=59 v=0
49200 On ch=6 n=59 v=99
49200 On ch=6 n=64 v=99
49320 On ch=6 n=64 v=0
49320 On ch=6 n=59 v=0
49320 On ch=6 n=59 v=99
49320 On ch=6 n=64 v=99
49500 On ch=6 n=64 v=0
49500 On ch=6 n=59 v=0
49500 On ch=6 n=68 v=99
49500 On ch=6 n=66 v=99
49500 On ch=6 n=59 v=99
49560 On ch=6 n=66 v=0
49560 On ch=6 n=68 v=0
49560 On ch=6 n=69 v=99
49560 On ch=6 n=66 v=99
49620 On ch=6 n=59 v=0
49620 On ch=6 n=59 v=99
49740 On ch=6 n=59 v=0
49740 On ch=6 n=66 v=0
49740 On ch=6 n=69 v=0
49740 On ch=6 n=59 v=99
49860 On ch=6 n=59 v=0
49860 On ch=6 n=59 v=99
49860 On ch=6 n=63 v=99
49980 On ch=6 n=63 v=0
49980 On ch=6 n=59 v=0
49980 On ch=6 n=59 v=99
50040 On ch=6 n=59 v=0
50040 On ch=6 n=59 v=99
50040 On ch=6 n=63 v=99
50160 On ch=6 n=63 v=0
50160 On ch=6 n=59 v=0
50160 On ch=6 n=59 v=99
50160 On ch=6 n=64 v=99
50280 On ch=6 n=64 v=0
50280 On ch=6 n=59 v=0
50280 On ch=6 n=64 v=99
50280 On ch=6 n=59 v=99
50520 On ch=6 n=59 v=0
50520 On ch=6 n=64 v=0
50520 On ch=6 n=64 v=99
50520 On ch=6 n=59 v=99
50640 On ch=6 n=59 v=0
50640 On ch=6 n=64 v=0
50640 On ch=6 n=59 v=99
50640 On ch=6 n=64 v=99
50700 On ch=6 n=64 v=0
50700 On ch=6 n=59 v=0
50700 On ch=6 n=59 v=99
50714 On ch=6 n=62 v=99
50724 On ch=6 n=67 v=99
51180 On ch=6 n=59 v=0
51180 On ch=6 n=59 v=99
51194 On ch=6 n=62 v=0
51195 On ch=6 n=64 v=99
51204 On ch=6 n=67 v=0
51206 On ch=6 n=68 v=99
51660 On ch=6 n=59 v=0
51660 On ch=6 n=59 v=99
51675 On ch=6 n=64 v=0
51675 On ch=6 n=63 v=99
51686 On ch=6 n=68 v=0
51690 On ch=6 n=66 v=99
52620 On ch=6 n=66 v=0
52620 On ch=6 n=63 v=0
52620 On ch=6 n=59 v=0
52620 On ch=6 n=59 v=99
52620 On ch=6 n=67 v=99
52620 On ch=6 n=62 v=99
53100 On ch=6 n=62 v=0
53100 On ch=6 n=67 v=0
53100 On ch=6 n=59 v=0
53100 On ch=6 n=64 v=99
53100 On ch=6 n=68 v=99
53100 On ch=6 n=59 v=99
53580 On ch=6 n=59 v=0
53580 On ch=6 n=68 v=0
53580 On ch=6 n=64 v=0
53580 On ch=6 n=63 v=87
53580 On ch=6 n=66 v=87
53760 On ch=6 n=66 v=0
53760 On ch=6 n=63 v=0
53760 On ch=6 n=63 v=78
53760 On ch=6 n=66 v=78
53850 On ch=6 n=66 v=0
53850 On ch=6 n=63 v=0
53880 On ch=6 n=63 v=78
53880 On ch=6 n=68 v=78
53970 On ch=6 n=68 v=0
53970 On ch=6 n=63 v=0
54000 On ch=6 n=63 v=79
54000 On ch=6 n=68 v=79
54120 On ch=6 n=68 v=0
54120 On ch=6 n=63 v=0
54120 On ch=6 n=63 v=80
54120 On ch=6 n=68 v=80
54240 On ch=6 n=68 v=0
54240 On ch=6 n=63 v=0
54240 On ch=6 n=68 v=80
54240 On ch=6 n=63 v=80
54285 On ch=6 n=63 v=0
54300 On ch=6 n=68 v=0
54300 On ch=6 n=64 v=88
54300 On ch=6 n=69 v=88
54300 On ch=6 n=81 v=88
54540 On ch=6 n=81 v=0
54540 On ch=6 n=69 v=0
54540 On ch=6 n=64 v=0
54540 On ch=6 n=63 v=87
54540 On ch=6 n=66 v=87
54720 On ch=6 n=66 v=0
54720 On ch=6 n=63 v=0
54720 On ch=6 n=63 v=78
54720 On ch=6 n=66 v=78
54810 On ch=6 n=66 v=0
54810 On ch=6 n=63 v=0
54840 On ch=6 n=63 v=78
54840 On ch=6 n=68 v=78
54930 On ch=6 n=68 v=0
54930 On ch=6 n=63 v=0
54960 On ch=6 n=63 v=79
54960 On ch=6 n=68 v=79
55080 On ch=6 n=68 v=0
55080 On ch=6 n=63 v=0
55080 On ch=6 n=68 v=80
55080 On ch=6 n=63 v=80
55200 On ch=6 n=63 v=0
55200 On ch=6 n=68 v=0
55200 On ch=6 n=63 v=80
55200 On ch=6 n=68 v=80
55260 On ch=6 n=68 v=0
55260 On ch=6 n=63 v=0
55260 On ch=6 n=69 v=91
55260 On ch=6 n=81 v=91
55260 On ch=6 n=64 v=91
55500 On ch=6 n=64 v=0
55500 On ch=6 n=81 v=0
55500 On ch=6 n=69 v=0
55500 On ch=6 n=63 v=87
55500 On ch=6 n=66 v=87
55680 On ch=6 n=66 v=0
55680 On ch=6 n=63 v=0
55680 On ch=6 n=63 v=78
55680 On ch=6 n=66 v=78
55770 On ch=6 n=66 v=0
55770 On ch=6 n=63 v=0
55800 On ch=6 n=63 v=78
55800 On ch=6 n=68 v=78
55890 On ch=6 n=68 v=0
55890 On ch=6 n=63 v=0
55920 On ch=6 n=68 v=79
55920 On ch=6 n=63 v=79
56040 On ch=6 n=63 v=0
56040 On ch=6 n=68 v=0
56040 On ch=6 n=63 v=80
56040 On ch=6 n=68 v=80
56160 On ch=6 n=68 v=0
56160 On ch=6 n=63 v=0
56160 On ch=6 n=68 v=80
56160 On ch=6 n=63 v=80
56220 On ch=6 n=63 v=0
56220 On ch=6 n=68 v=0
56220 On ch=6 n=64 v=85
56220 On ch=6 n=69 v=85
56220 On ch=6 n=81 v=85
56460 On ch=6 n=81 v=0
56460 On ch=6 n=69 v=0
56460 On ch=6 n=64 v=0
56460 On ch=6 n=63 v=87
56460 On ch=6 n=66 v=87
56640 On ch=6 n=66 v=0
56640 On ch=6 n=63 v=0
56640 On ch=6 n=63 v=78
56640 On ch=6 n=66 v=78
56730 On ch=6 n=66 v=0
56730 On ch=6 n=63 v=0
56760 On ch=6 n=68 v=78
56760 On ch=6 n=63 v=78
56850 On ch=6 n=63 v=0
56850 On ch=6 n=68 v=0
56880 On ch=6 n=63 v=79
56880 On ch=6 n=68 v=79
57000 On ch=6 n=68 v=0
57000 On ch=6 n=63 v=0
57000 On ch=6 n=68 v=80
57000 On ch=6 n=63 v=80
57120 On ch=6 n=63 v=0
57120 On ch=6 n=68 v=0
57120 On ch=6 n=63 v=80
57120 On ch=6 n=68 v=80
57180 On ch=6 n=68 v=0
57180 On ch=6 n=63 v=0
57180 On ch=6 n=69 v=83
57180 On ch=6 n=64 v=83
57180 On ch=6 n=81 v=83
57420 On ch=6 n=81 v=0
57420 On ch=6 n=64 v=0
57420 On ch=6 n=69 v=0
57420 On ch=6 n=66 v=87
57420 On ch=6 n=63 v=87
57600 On ch=6 n=63 v=0
57600 On ch=6 n=66 v=0
57600 On ch=6 n=63 v=78
57600 On ch=6 n=66 v=78
57690 On ch=6 n=66 v=0
57690 On ch=6 n=63 v=0
57720 On ch=6 n=63 v=78
57720 On ch=6 n=68 v=78
57810 On ch=6 n=68 v=0
57810 On ch=6 n=63 v=0
57840 On ch=6 n=63 v=79
57840 On ch=6 n=68 v=79
57960 On ch=6 n=68 v=0
57960 On ch=6 n=63 v=0
57960 On ch=6 n=63 v=80
57960 On ch=6 n=68 v=80
58080 On ch=6 n=68 v=0
58080 On ch=6 n=63 v=0
58080 On ch=6 n=68 v=80
58080 On ch=6 n=63 v=80
58140 On ch=6 n=63 v=0
58140 On ch=6 n=68 v=0
58140 On ch=6 n=81 v=82
58140 On ch=6 n=64 v=82
58140 On ch=6 n=69 v=82
58380 On ch=6 n=69 v=0
58380 On ch=6 n=64 v=0
58380 On ch=6 n=81 v=0
58380 On ch=6 n=63 v=87
58380 On ch=6 n=66 v=87
58560 On ch=6 n=66 v=0
58560 On ch=6 n=63 v=0
58560 On ch=6 n=63 v=78
58560 On ch=6 n=66 v=78
58650 On ch=6 n=66 v=0
58650 On ch=6 n=63 v=0
58680 On ch=6 n=63 v=78
58680 On ch=6 n=68 v=78
58770 On ch=6 n=68 v=0
58770 On ch=6 n=63 v=0
58800 On ch=6 n=63 v=79
58800 On ch=6 n=68 v=79
58920 On ch=6 n=68 v=0
58920 On ch=6 n=63 v=0
58920 On ch=6 n=68 v=80
58920 On ch=6 n=63 v=80
59040 On ch=6 n=63 v=0
59040 On ch=6 n=68 v=0
59040 On ch=6 n=63 v=80
59040 On ch=6 n=68 v=80
59100 On ch=6 n=68 v=0
59100 On ch=6 n=63 v=0
59100 On ch=6 n=81 v=87
59100 On ch=6 n=64 v=87
59100 On ch=6 n=69 v=87
59340 On ch=6 n=69 v=0
59340 On ch=6 n=64 v=0
59340 On ch=6 n=81 v=0
59340 On ch=6 n=66 v=87
59340 On ch=6 n=63 v=87
59520 On ch=6 n=63 v=0
59520 On ch=6 n=66 v=0
59520 On ch=6 n=63 v=78
59520 On ch=6 n=66 v=78
59610 On ch=6 n=66 v=0
59610 On ch=6 n=63 v=0
59640 On ch=6 n=63 v=78
59640 On ch=6 n=68 v=78
59730 On ch=6 n=68 v=0
59730 On ch=6 n=63 v=0
59760 On ch=6 n=63 v=79
59760 On ch=6 n=68 v=79
59880 On ch=6 n=68 v=0
59880 On ch=6 n=63 v=0
59880 On ch=6 n=63 v=80
59880 On ch=6 n=68 v=80
60000 On ch=6 n=68 v=0
60000 On ch=6 n=63 v=0
60000 On ch=6 n=63 v=80
60000 On ch=6 n=68 v=80
60060 On ch=6 n=68 v=0
60060 On ch=6 n=63 v=0
60060 On ch=6 n=69 v=90
60060 On ch=6 n=81 v=90
60060 On ch=6 n=64 v=90
60300 On ch=6 n=64 v=0
60300 On ch=6 n=81 v=0
60300 On ch=6 n=69 v=0
60300 On ch=6 n=63 v=87
60300 On ch=6 n=66 v=87
60480 On ch=6 n=66 v=0
60480 On ch=6 n=63 v=0
60480 On ch=6 n=63 v=78
60480 On ch=6 n=66 v=78
60570 On ch=6 n=66 v=0
60570 On ch=6 n=63 v=0
60600 On ch=6 n=63 v=78
60600 On ch=6 n=68 v=78
60690 On ch=6 n=68 v=0
60690 On ch=6 n=63 v=0
60720 On ch=6 n=63 v=79
60720 On ch=6 n=68 v=79
60840 On ch=6 n=68 v=0
60840 On ch=6 n=63 v=0
60840 On ch=6 n=63 v=80
60840 On ch=6 n=68 v=80
60960 On ch=6 n=68 v=0
60960 On ch=6 n=63 v=0
60960 On ch=6 n=68 v=80
60960 On ch=6 n=63 v=80
61020 On ch=6 n=63 v=0
61020 On ch=6 n=68 v=0
61020 On ch=6 n=64 v=82
61020 On ch=6 n=69 v=82
61020 On ch=6 n=81 v=82
61260 On ch=6 n=81 v=0
61260 On ch=6 n=69 v=0
61260 On ch=6 n=64 v=0
61260 On ch=6 n=63 v=87
61260 On ch=6 n=66 v=87
61440 On ch=6 n=66 v=0
61440 On ch=6 n=63 v=0
61440 On ch=6 n=63 v=78
61440 On ch=6 n=66 v=78
61530 On ch=6 n=66 v=0
61530 On ch=6 n=63 v=0
61560 On ch=6 n=63 v=78
61560 On ch=6 n=68 v=78
61650 On ch=6 n=68 v=0
61650 On ch=6 n=63 v=0
61680 On ch=6 n=63 v=79
61680 On ch=6 n=68 v=79
61800 On ch=6 n=68 v=0
61800 On ch=6 n=63 v=0
61800 On ch=6 n=68 v=80
61800 On ch=6 n=63 v=80
61920 On ch=6 n=63 v=0
61920 On ch=6 n=68 v=0
61920 On ch=6 n=63 v=80
61920 On ch=6 n=68 v=80
61980 On ch=6 n=68 v=0
61980 On ch=6 n=63 v=0
61980 On ch=6 n=69 v=83
61980 On ch=6 n=81 v=83
61980 On ch=6 n=64 v=83
62220 On ch=6 n=64 v=0
62220 On ch=6 n=81 v=0
62220 On ch=6 n=69 v=0
62220 On ch=6 n=55 v=78
62400 On ch=6 n=55 v=0
62400 On ch=6 n=57 v=78
62580 On ch=6 n=57 v=0
62580 On ch=6 n=59 v=78
62760 On ch=6 n=59 v=0
62760 On ch=6 n=54 v=78
62940 On ch=6 n=54 v=0
63000 On ch=6 n=57 v=78
63000 On ch=6 n=52 v=78
63120 On ch=6 n=52 v=0
63120 On ch=6 n=57 v=0
63120 On ch=6 n=52 v=78
63120 On ch=6 n=57 v=78
63180 On ch=6 n=57 v=0
63180 On ch=6 n=52 v=0
63180 On ch=6 n=56 v=78
63360 On ch=6 n=56 v=0
63360 On ch=6 n=54 v=78
63480 On ch=6 n=40 v=78
63480 On ch=6 n=47 v=78
63540 On ch=6 n=47 v=0
63540 On ch=6 n=40 v=0
63540 On ch=6 n=54 v=0
63540 On ch=6 n=52 v=78
63660 On ch=6 n=47 v=78
63660 On ch=6 n=40 v=78
63720 On ch=6 n=40 v=0
63720 On ch=6 n=47 v=0
63720 On ch=6 n=52 v=0
63720 On ch=6 n=49 v=78
63840 On ch=6 n=40 v=78
63840 On ch=6 n=47 v=78
63900 On ch=6 n=47 v=0
63900 On ch=6 n=40 v=0
63900 On ch=6 n=49 v=0
63900 On ch=6 n=52 v=78
63960 On ch=6 n=47 v=78
63960 On ch=6 n=40 v=78
64020 On ch=6 n=40 v=0
64020 On ch=6 n=47 v=0
64080 On ch=6 n=52 v=0
64080 On ch=6 n=40 v=78
64080 On ch=6 n=47 v=78
64140 On ch=6 n=47 v=0
64140 On ch=6 n=40 v=0
64140 On ch=6 n=54 v=78
64140 On ch=6 n=47 v=78
64140 On ch=6 n=59 v=78
65580 On ch=6 n=59 v=0
65580 On ch=6 n=47 v=0
65580 On ch=6 n=54 v=0
65580 Meta TrkEnd
TrkEnd
MTrk
0 Par ch=7 c=93 v=0
0 Par ch=7 c=91 v=40
150 Par ch=7 c=0 v=0
151 Par ch=7 c=32 v=0
152 PrCh ch=7 p=0
153 Par ch=7 c=7 v=100
153 Par ch=7 c=10 v=64
153 Meta TrkEnd
TrkEnd
MTrk
0 Par ch=8 c=93 v=0
0 Par ch=8 c=91 v=40
155 Par ch=8 c=0 v=0
156 Par ch=8 c=32 v=0
157 PrCh ch=8 p=33
158 Par ch=8 c=7 v=100
158 Par ch=8 c=10 v=64
3836 Par ch=8 c=7 v=127
3840 Par ch=8 c=7 v=96
3843 Par ch=8 c=7 v=127
4080 On ch=8 n=47 v=64
4200 On ch=8 n=47 v=0
4200 On ch=8 n=42 v=64
4320 On ch=8 n=42 v=0
4320 On ch=8 n=35 v=64
4440 On ch=8 n=35 v=0
4500 On ch=8 n=35 v=64
4560 On ch=8 n=35 v=0
4560 On ch=8 n=35 v=64
4620 On ch=8 n=35 v=0
4620 On ch=8 n=35 v=64
4680 On ch=8 n=35 v=0
4740 On ch=8 n=35 v=64
4860 On ch=8 n=35 v=0
4860 On ch=8 n=35 v=64
4905 On ch=8 n=35 v=0
4920 On ch=8 n=35 v=64
5040 On ch=8 n=35 v=0
5040 On ch=8 n=47 v=64
5160 On ch=8 n=47 v=0
5160 On ch=8 n=42 v=64
5280 On ch=8 n=42 v=0
5280 On ch=8 n=35 v=64
5400 On ch=8 n=35 v=0
5460 On ch=8 n=35 v=64
5520 On ch=8 n=35 v=0
5520 On ch=8 n=35 v=64
5580 On ch=8 n=35 v=0
5580 On ch=8 n=35 v=64
5640 On ch=8 n=35 v=0
5700 On ch=8 n=35 v=64
5820 On ch=8 n=35 v=0
5820 On ch=8 n=35 v=64
5865 On ch=8 n=35 v=0
5880 On ch=8 n=35 v=64
6000 On ch=8 n=35 v=0
6000 On ch=8 n=47 v=64
6120 On ch=8 n=47 v=0
6120 On ch=8 n=42 v=64
6240 On ch=8 n=42 v=0
6240 On ch=8 n=35 v=64
6360 On ch=8 n=35 v=0
6420 On ch=8 n=35 v=64
6480 On ch=8 n=35 v=0
6480 On ch=8 n=35 v=64
6540 On ch=8 n=35 v=0
6540 On ch=8 n=35 v=64
6600 On ch=8 n=35 v=0
6660 On ch=8 n=35 v=64
6780 On ch=8 n=35 v=0
6780 On ch=8 n=35 v=64
6825 On ch=8 n=35 v=0
6840 On ch=8 n=35 v=64
6960 On ch=8 n=35 v=0
6960 On ch=8 n=47 v=64
7080 On ch=8 n=47 v=0
7080 On ch=8 n=42 v=64
7200 On ch=8 n=42 v=0
7200 On ch=8 n=35 v=64
7320 On ch=8 n=35 v=0
7380 On ch=8 n=35 v=64
7440 On ch=8 n=35 v=0
7440 On ch=8 n=35 v=64
7500 On ch=8 n=35 v=0
7500 On ch=8 n=35 v=64
7560 On ch=8 n=35 v=0
7620 On ch=8 n=47 v=64
7740 On ch=8 n=47 v=0
7740 On ch=8 n=35 v=64
7785 On ch=8 n=35 v=0
7800 On ch=8 n=35 v=64
7920 On ch=8 n=35 v=0
7920 On ch=8 n=47 v=64
8040 On ch=8 n=47 v=0
8040 On ch=8 n=42 v=64
8160 On ch=8 n=42 v=0
8160 On ch=8 n=35 v=64
8280 On ch=8 n=35 v=0
8340 On ch=8 n=35 v=64
8400 On ch=8 n=35 v=0
8400 On ch=8 n=35 v=64
8460 On ch=8 n=35 v=0
8460 On ch=8 n=35 v=64
8520 On ch=8 n=35 v=0
8580 On ch=8 n=35 v=64
8700 On ch=8 n=35 v=0
8700 On ch=8 n=35 v=64
8745 On ch=8 n=35 v=0
8760 On ch=8 n=35 v=64
8880 On ch=8 n=35 v=0
8880 On ch=8 n=47 v=64
9000 On ch=8 n=47 v=0
9000 On ch=8 n=42 v=64
9120 On ch=8 n=42 v=0
9120 On ch=8 n=35 v=64
9240 On ch=8 n=35 v=0
9300 On ch=8 n=35 v=64
9360 On ch=8 n=35 v=0
9360 On ch=8 n=35 v=64
9420 On ch=8 n=35 v=0
9420 On ch=8 n=35 v=64
9480 On ch=8 n=35 v=0
9540 On ch=8 n=35 v=64
9660 On ch=8 n=35 v=0
9660 On ch=8 n=35 v=64
9705 On ch=8 n=35 v=0
9720 On ch=8 n=35 v=64
9840 On ch=8 n=35 v=0
9840 On ch=8 n=35 v=64
9900 On ch=8 n=35 v=0
9900 On ch=8 n=35 v=64
9960 On ch=8 n=35 v=0
9960 On ch=8 n=36 v=64
10020 On ch=8 n=36 v=0
10020 On ch=8 n=37 v=64
10080 On ch=8 n=37 v=0
10080 On ch=8 n=38 v=64
10200 On ch=8 n=38 v=0
10260 On ch=8 n=38 v=64
10380 On ch=8 n=38 v=0
10380 On ch=8 n=40 v=64
10440 On ch=8 n=40 v=0
10440 On ch=8 n=42 v=64
10500 On ch=8 n=42 v=0
10500 On ch=8 n=43 v=64
10560 On ch=8 n=43 v=0
10560 On ch=8 n=45 v=64
10680 On ch=8 n=45 v=0
10740 On ch=8 n=45 v=64
10860 On ch=8 n=45 v=0
10860 On ch=8 n=42 v=64
10920 On ch=8 n=42 v=0
10920 On ch=8 n=45 v=64
10980 On ch=8 n=45 v=0
10980 On ch=8 n=46 v=64
11040 On ch=8 n=46 v=0
11040 On ch=8 n=47 v=64
11160 On ch=8 n=47 v=0
11220 On ch=8 n=47 v=64
11340 On ch=8 n=47 v=0
11340 On ch=8 n=42 v=64
11400 On ch=8 n=42 v=0
11400 On ch=8 n=47 v=64
11460 On ch=8 n=47 v=0
11460 On ch=8 n=45 v=64
11520 On ch=8 n=45 v=0
11520 On ch=8 n=43 v=64
11640 On ch=8 n=43 v=0
11700 On ch=8 n=38 v=64
11820 On ch=8 n=38 v=0
11820 On ch=8 n=38 v=64
11880 On ch=8 n=38 v=0
11880 On ch=8 n=40 v=64
12000 On ch=8 n=40 v=0
12000 On ch=8 n=38 v=64
12120 On ch=8 n=38 v=0
12180 On ch=8 n=38 v=64
12300 On ch=8 n=38 v=0
12300 On ch=8 n=40 v=64
12360 On ch=8 n=40 v=0
12360 On ch=8 n=42 v=64
12420 On ch=8 n=42 v=0
12420 On ch=8 n=43 v=64
12480 On ch=8 n=43 v=0
12480 On ch=8 n=45 v=64
12600 On ch=8 n=45 v=0
12660 On ch=8 n=45 v=64
12780 On ch=8 n=45 v=0
12780 On ch=8 n=42 v=64
12840 On ch=8 n=42 v=0
12840 On ch=8 n=45 v=64
12900 On ch=8 n=45 v=0
12900 On ch=8 n=46 v=64
12960 On ch=8 n=46 v=0
12960 On ch=8 n=47 v=64
13080 On ch=8 n=47 v=0
13140 On ch=8 n=47 v=64
13260 On ch=8 n=47 v=0
13260 On ch=8 n=42 v=64
13320 On ch=8 n=42 v=0
13320 On ch=8 n=47 v=64
13380 On ch=8 n=47 v=0
13380 On ch=8 n=45 v=64
13440 On ch=8 n=45 v=0
13440 On ch=8 n=43 v=64
13560 On ch=8 n=43 v=0
13620 On ch=8 n=38 v=64
13740 On ch=8 n=38 v=0
13740 On ch=8 n=38 v=64
13800 On ch=8 n=38 v=0
13800 On ch=8 n=40 v=64
13920 On ch=8 n=40 v=0
13920 On ch=8 n=35 v=64
14040 On ch=8 n=35 v=0
14100 On ch=8 n=35 v=64
14160 On ch=8 n=35 v=0
14160 On ch=8 n=35 v=64
14220 On ch=8 n=35 v=0
14220 On ch=8 n=35 v=64
14280 On ch=8 n=35 v=0
14340 On ch=8 n=35 v=64
14460 On ch=8 n=35 v=0
14460 On ch=8 n=35 v=64
14505 On ch=8 n=35 v=0
14520 On ch=8 n=35 v=64
14640 On ch=8 n=35 v=0
14640 On ch=8 n=47 v=64
14760 On ch=8 n=47 v=0
14760 On ch=8 n=42 v=64
14880 On ch=8 n=42 v=0
14880 On ch=8 n=35 v=64
15000 On ch=8 n=35 v=0
15060 On ch=8 n=35 v=64
15120 On ch=8 n=35 v=0
15120 On ch=8 n=35 v=64
15180 On ch=8 n=35 v=0
15180 On ch=8 n=35 v=64
15240 On ch=8 n=35 v=0
15300 On ch=8 n=35 v=64
15420 On ch=8 n=35 v=0
15420 On ch=8 n=35 v=64
15465 On ch=8 n=35 v=0
15480 On ch=8 n=35 v=64
15600 On ch=8 n=35 v=0
15600 On ch=8 n=47 v=64
15720 On ch=8 n=47 v=0
15720 On ch=8 n=42 v=64
15840 On ch=8 n=42 v=0
15840 On ch=8 n=35 v=64
15960 On ch=8 n=35 v=0
16020 On ch=8 n=35 v=64
16080 On ch=8 n=35 v=0
16080 On ch=8 n=35 v=64
16140 On ch=8 n=35 v=0
16140 On ch=8 n=35 v=64
16200 On ch=8 n=35 v=0
16260 On ch=8 n=35 v=64
16380 On ch=8 n=35 v=0
16380 On ch=8 n=35 v=64
16425 On ch=8 n=35 v=0
16440 On ch=8 n=35 v=64
16560 On ch=8 n=35 v=0
16560 On ch=8 n=47 v=64
16680 On ch=8 n=47 v=0
16680 On ch=8 n=42 v=64
16800 On ch=8 n=42 v=0
16800 On ch=8 n=35 v=64
16920 On ch=8 n=35 v=0
16980 On ch=8 n=35 v=64
17040 On ch=8 n=35 v=0
17040 On ch=8 n=35 v=64
17100 On ch=8 n=35 v=0
17100 On ch=8 n=35 v=64
17160 On ch=8 n=35 v=0
17220 On ch=8 n=35 v=64
17340 On ch=8 n=35 v=0
17340 On ch=8 n=35 v=64
17385 On ch=8 n=35 v=0
17400 On ch=8 n=35 v=64
17520 On ch=8 n=35 v=0
17520 On ch=8 n=47 v=64
17640 On ch=8 n=47 v=0
17640 On ch=8 n=42 v=64
17760 On ch=8 n=42 v=0
17760 On ch=8 n=35 v=64
17880 On ch=8 n=35 v=0
17940 On ch=8 n=35 v=64
18000 On ch=8 n=35 v=0
18000 On ch=8 n=35 v=64
18060 On ch=8 n=35 v=0
18060 On ch=8 n=35 v=64
18120 On ch=8 n=35 v=0
18180 On ch=8 n=35 v=64
18300 On ch=8 n=35 v=0
18300 On ch=8 n=35 v=64
18345 On ch=8 n=35 v=0
18360 On ch=8 n=35 v=64
18480 On ch=8 n=35 v=0
18480 On ch=8 n=47 v=64
18600 On ch=8 n=47 v=0
18600 On ch=8 n=42 v=64
18720 On ch=8 n=42 v=0
18720 On ch=8 n=35 v=64
18840 On ch=8 n=35 v=0
18900 On ch=8 n=35 v=64
18960 On ch=8 n=35 v=0
18960 On ch=8 n=35 v=64
19020 On ch=8 n=35 v=0
19020 On ch=8 n=35 v=64
19080 On ch=8 n=35 v=0
19140 On ch=8 n=35 v=64
19260 On ch=8 n=35 v=0
19260 On ch=8 n=35 v=64
19305 On ch=8 n=35 v=0
19320 On ch=8 n=35 v=64
19440 On ch=8 n=35 v=0
19440 On ch=8 n=47 v=64
19560 On ch=8 n=47 v=0
19560 On ch=8 n=42 v=64
19680 On ch=8 n=42 v=0
19680 On ch=8 n=43 v=64
19800 On ch=8 n=43 v=0
19860 On ch=8 n=38 v=64
19920 On ch=8 n=38 v=0
19920 On ch=8 n=43 v=64
20160 On ch=8 n=43 v=0
20160 On ch=8 n=40 v=64
20280 On ch=8 n=40 v=0
20340 On ch=8 n=35 v=64
20400 On ch=8 n=35 v=0
20400 On ch=8 n=40 v=64
20640 On ch=8 n=40 v=0
20640 On ch=8 n=35 v=64
20760 On ch=8 n=35 v=0
20820 On ch=8 n=35 v=64
20880 On ch=8 n=35 v=0
20880 On ch=8 n=35 v=64
20940 On ch=8 n=35 v=0
20940 On ch=8 n=35 v=64
21000 On ch=8 n=35 v=0
21060 On ch=8 n=35 v=64
21180 On ch=8 n=35 v=0
21180 On ch=8 n=35 v=64
21225 On ch=8 n=35 v=0
21240 On ch=8 n=35 v=64
21360 On ch=8 n=35 v=0
21360 On ch=8 n=47 v=64
21480 On ch=8 n=47 v=0
21480 On ch=8 n=42 v=64
21600 On ch=8 n=42 v=0
21600 On ch=8 n=43 v=64
21720 On ch=8 n=43 v=0
21780 On ch=8 n=38 v=64
21840 On ch=8 n=38 v=0
21840 On ch=8 n=43 v=64
22080 On ch=8 n=43 v=0
22080 On ch=8 n=40 v=64
22200 On ch=8 n=40 v=0
22260 On ch=8 n=35 v=64
22320 On ch=8 n=35 v=0
22320 On ch=8 n=40 v=64
22560 On ch=8 n=40 v=0
22560 On ch=8 n=35 v=64
22680 On ch=8 n=35 v=0
22740 On ch=8 n=35 v=64
22800 On ch=8 n=35 v=0
22800 On ch=8 n=35 v=64
22860 On ch=8 n=35 v=0
22860 On ch=8 n=35 v=64
22920 On ch=8 n=35 v=0
22980 On ch=8 n=35 v=64
23100 On ch=8 n=35 v=0
23100 On ch=8 n=35 v=64
23145 On ch=8 n=35 v=0
23160 On ch=8 n=35 v=64
23280 On ch=8 n=35 v=0
23280 On ch=8 n=47 v=64
23400 On ch=8 n=47 v=0
23400 On ch=8 n=42 v=64
23520 On ch=8 n=42 v=0
23520 On ch=8 n=35 v=64
23640 On ch=8 n=35 v=0
23700 On ch=8 n=35 v=64
23760 On ch=8 n=35 v=0
23760 On ch=8 n=35 v=64
23820 On ch=8 n=35 v=0
23820 On ch=8 n=35 v=64
23880 On ch=8 n=35 v=0
23940 On ch=8 n=35 v=64
24060 On ch=8 n=35 v=0
24060 On ch=8 n=35 v=64
24105 On ch=8 n=35 v=0
24120 On ch=8 n=35 v=64
24240 On ch=8 n=35 v=0
24240 On ch=8 n=47 v=64
24360 On ch=8 n=47 v=0
24360 On ch=8 n=42 v=64
24480 On ch=8 n=42 v=0
24480 On ch=8 n=35 v=64
24600 On ch=8 n=35 v=0
24660 On ch=8 n=35 v=64
24720 On ch=8 n=35 v=0
24720 On ch=8 n=35 v=64
24780 On ch=8 n=35 v=0
24780 On ch=8 n=35 v=64
24840 On ch=8 n=35 v=0
24900 On ch=8 n=35 v=64
25020 On ch=8 n=35 v=0
25020 On ch=8 n=35 v=64
25065 On ch=8 n=35 v=0
25080 On ch=8 n=35 v=64
25200 On ch=8 n=35 v=0
25200 On ch=8 n=47 v=64
25320 On ch=8 n=47 v=0
25320 On ch=8 n=42 v=64
25440 On ch=8 n=42 v=0
25440 On ch=8 n=35 v=64
25560 On ch=8 n=35 v=0
25620 On ch=8 n=35 v=64
25680 On ch=8 n=35 v=0
25680 On ch=8 n=35 v=64
25740 On ch=8 n=35 v=0
25740 On ch=8 n=35 v=64
25800 On ch=8 n=35 v=0
25860 On ch=8 n=47 v=64
25980 On ch=8 n=47 v=0
25980 On ch=8 n=35 v=64
26025 On ch=8 n=35 v=0
26040 On ch=8 n=35 v=64
26160 On ch=8 n=35 v=0
26160 On ch=8 n=47 v=64
26280 On ch=8 n=47 v=0
26280 On ch=8 n=42 v=64
26400 On ch=8 n=42 v=0
26400 On ch=8 n=35 v=64
26520 On ch=8 n=35 v=0
26580 On ch=8 n=35 v=64
26640 On ch=8 n=35 v=0
26640 On ch=8 n=35 v=64
26700 On ch=8 n=35 v=0
26700 On ch=8 n=35 v=64
26760 On ch=8 n=35 v=0
26820 On ch=8 n=35 v=64
26940 On ch=8 n=35 v=0
26940 On ch=8 n=35 v=64
26985 On ch=8 n=35 v=0
27000 On ch=8 n=35 v=64
27120 On ch=8 n=35 v=0
27120 On ch=8 n=47 v=64
27240 On ch=8 n=47 v=0
27240 On ch=8 n=42 v=64
27360 On ch=8 n=42 v=0
27360 On ch=8 n=35 v=64
27480 On ch=8 n=35 v=0
27540 On ch=8 n=35 v=64
27600 On ch=8 n=35 v=0
27600 On ch=8 n=35 v=64
27660 On ch=8 n=35 v=0
27660 On ch=8 n=35 v=64
27720 On ch=8 n=35 v=0
27780 On ch=8 n=35 v=64
27900 On ch=8 n=35 v=0
27900 On ch=8 n=35 v=64
27945 On ch=8 n=35 v=0
27960 On ch=8 n=35 v=64
28080 On ch=8 n=35 v=0
28080 On ch=8 n=35 v=64
28140 On ch=8 n=35 v=0
28140 On ch=8 n=35 v=64
28200 On ch=8 n=35 v=0
28200 On ch=8 n=36 v=64
28260 On ch=8 n=36 v=0
28260 On ch=8 n=37 v=64
28320 On ch=8 n=37 v=0
28320 On ch=8 n=38 v=64
28440 On ch=8 n=38 v=0
28500 On ch=8 n=38 v=64
28620 On ch=8 n=38 v=0
28620 On ch=8 n=40 v=64
28680 On ch=8 n=40 v=0
28680 On ch=8 n=42 v=64
28740 On ch=8 n=42 v=0
28740 On ch=8 n=43 v=64
28800 On ch=8 n=43 v=0
28800 On ch=8 n=45 v=64
28920 On ch=8 n=45 v=0
28980 On ch=8 n=45 v=64
29100 On ch=8 n=45 v=0
29100 On ch=8 n=42 v=64
29160 On ch=8 n=42 v=0
29160 On ch=8 n=45 v=64
29220 On ch=8 n=45 v=0
29220 On ch=8 n=46 v=64
29280 On ch=8 n=46 v=0
29280 On ch=8 n=47 v=64
29400 On ch=8 n=47 v=0
29460 On ch=8 n=47 v=64
29580 On ch=8 n=47 v=0
29580 On ch=8 n=42 v=64
29640 On ch=8 n=42 v=0
29640 On ch=8 n=47 v=64
29700 On ch=8 n=47 v=0
29700 On ch=8 n=45 v=64
29760 On ch=8 n=45 v=0
29760 On ch=8 n=43 v=64
29880 On ch=8 n=43 v=0
29940 On ch=8 n=38 v=64
30060 On ch=8 n=38 v=0
30060 On ch=8 n=38 v=64
30120 On ch=8 n=38 v=0
30120 On ch=8 n=40 v=64
30240 On ch=8 n=40 v=0
30240 On ch=8 n=38 v=64
30360 On ch=8 n=38 v=0
30420 On ch=8 n=38 v=64
30540 On ch=8 n=38 v=0
30540 On ch=8 n=40 v=64
30600 On ch=8 n=40 v=0
30600 On ch=8 n=42 v=64
30660 On ch=8 n=42 v=0
30660 On ch=8 n=43 v=64
30720 On ch=8 n=43 v=0
30720 On ch=8 n=45 v=64
30840 On ch=8 n=45 v=0
30900 On ch=8 n=45 v=64
31020 On ch=8 n=45 v=0
31020 On ch=8 n=42 v=64
31080 On ch=8 n=42 v=0
31080 On ch=8 n=45 v=64
31140 On ch=8 n=45 v=0
31140 On ch=8 n=46 v=64
31200 On ch=8 n=46 v=0
31200 On ch=8 n=47 v=64
31320 On ch=8 n=47 v=0
31380 On ch=8 n=47 v=64
31500 On ch=8 n=47 v=0
31500 On ch=8 n=42 v=64
31560 On ch=8 n=42 v=0
31560 On ch=8 n=47 v=64
31620 On ch=8 n=47 v=0
31620 On ch=8 n=45 v=64
31680 On ch=8 n=45 v=0
31680 On ch=8 n=43 v=64
31800 On ch=8 n=43 v=0
31860 On ch=8 n=38 v=64
31980 On ch=8 n=38 v=0
31980 On ch=8 n=38 v=64
32040 On ch=8 n=38 v=0
32040 On ch=8 n=40 v=64
32160 On ch=8 n=40 v=0
32160 On ch=8 n=35 v=64
32280 On ch=8 n=35 v=0
32340 On ch=8 n=35 v=64
32400 On ch=8 n=35 v=0
32400 On ch=8 n=35 v=64
32460 On ch=8 n=35 v=0
32460 On ch=8 n=35 v=64
32520 On ch=8 n=35 v=0
32580 On ch=8 n=35 v=64
32700 On ch=8 n=35 v=0
32700 On ch=8 n=35 v=64
32745 On ch=8 n=35 v=0
32760 On ch=8 n=35 v=64
32880 On ch=8 n=35 v=0
32880 On ch=8 n=47 v=64
33000 On ch=8 n=47 v=0
33000 On ch=8 n=42 v=64
33120 On ch=8 n=42 v=0
33120 On ch=8 n=35 v=64
33240 On ch=8 n=35 v=0
33300 On ch=8 n=35 v=64
33360 On ch=8 n=35 v=0
33360 On ch=8 n=35 v=64
33420 On ch=8 n=35 v=0
33420 On ch=8 n=35 v=64
33480 On ch=8 n=35 v=0
33540 On ch=8 n=35 v=64
33660 On ch=8 n=35 v=0
33660 On ch=8 n=35 v=64
33705 On ch=8 n=35 v=0
33720 On ch=8 n=35 v=64
33840 On ch=8 n=35 v=0
33840 On ch=8 n=47 v=64
33960 On ch=8 n=47 v=0
33960 On ch=8 n=42 v=64
34080 On ch=8 n=42 v=0
34080 On ch=8 n=35 v=64
34200 On ch=8 n=35 v=0
34260 On ch=8 n=35 v=64
34320 On ch=8 n=35 v=0
34320 On ch=8 n=35 v=64
34380 On ch=8 n=35 v=0
34380 On ch=8 n=35 v=64
34440 On ch=8 n=35 v=0
34500 On ch=8 n=35 v=64
34620 On ch=8 n=35 v=0
34620 On ch=8 n=35 v=64
34665 On ch=8 n=35 v=0
34680 On ch=8 n=35 v=64
34800 On ch=8 n=35 v=0
34800 On ch=8 n=47 v=64
34920 On ch=8 n=47 v=0
34920 On ch=8 n=42 v=64
35040 On ch=8 n=42 v=0
35040 On ch=8 n=35 v=64
35160 On ch=8 n=35 v=0
35220 On ch=8 n=35 v=64
35280 On ch=8 n=35 v=0
35280 On ch=8 n=35 v=64
35340 On ch=8 n=35 v=0
35340 On ch=8 n=35 v=64
35400 On ch=8 n=35 v=0
35460 On ch=8 n=35 v=64
35580 On ch=8 n=35 v=0
35580 On ch=8 n=35 v=64
35625 On ch=8 n=35 v=0
35640 On ch=8 n=35 v=64
35760 On ch=8 n=35 v=0
35760 On ch=8 n=47 v=64
35880 On ch=8 n=47 v=0
35880 On ch=8 n=42 v=64
36000 On ch=8 n=42 v=0
36000 On ch=8 n=35 v=64
36120 On ch=8 n=35 v=0
36180 On ch=8 n=35 v=64
36240 On ch=8 n=35 v=0
36240 On ch=8 n=35 v=64
36300 On ch=8 n=35 v=0
36300 On ch=8 n=35 v=64
36360 On ch=8 n=35 v=0
36420 On ch=8 n=35 v=64
36540 On ch=8 n=35 v=0
36540 On ch=8 n=35 v=64
36585 On ch=8 n=35 v=0
36600 On ch=8 n=35 v=64
36720 On ch=8 n=35 v=0
36720 On ch=8 n=47 v=64
36840 On ch=8 n=47 v=0
36840 On ch=8 n=42 v=64
36960 On ch=8 n=42 v=0
36960 On ch=8 n=35 v=64
37080 On ch=8 n=35 v=0
37140 On ch=8 n=35 v=64
37200 On ch=8 n=35 v=0
37200 On ch=8 n=35 v=64
37260 On ch=8 n=35 v=0
37260 On ch=8 n=35 v=64
37320 On ch=8 n=35 v=0
37380 On ch=8 n=35 v=64
37500 On ch=8 n=35 v=0
37500 On ch=8 n=35 v=64
37545 On ch=8 n=35 v=0
37560 On ch=8 n=35 v=64
37680 On ch=8 n=35 v=0
37680 On ch=8 n=47 v=64
37800 On ch=8 n=47 v=0
37800 On ch=8 n=42 v=64
37920 On ch=8 n=42 v=0
37920 On ch=8 n=43 v=64
38040 On ch=8 n=43 v=0
38100 On ch=8 n=38 v=64
38160 On ch=8 n=38 v=0
38160 On ch=8 n=43 v=64
38400 On ch=8 n=43 v=0
38400 On ch=8 n=40 v=64
38520 On ch=8 n=40 v=0
38580 On ch=8 n=35 v=64
38640 On ch=8 n=35 v=0
38640 On ch=8 n=40 v=64
38880 On ch=8 n=40 v=0
38880 On ch=8 n=35 v=64
39000 On ch=8 n=35 v=0
39060 On ch=8 n=35 v=63
39120 On ch=8 n=35 v=0
39120 On ch=8 n=35 v=63
39180 On ch=8 n=35 v=0
39180 On ch=8 n=35 v=63
39240 On ch=8 n=35 v=0
39300 On ch=8 n=35 v=63
39420 On ch=8 n=35 v=0
39420 On ch=8 n=35 v=63
39465 On ch=8 n=35 v=0
39480 On ch=8 n=35 v=63
39600 On ch=8 n=35 v=0
39600 On ch=8 n=47 v=63
39720 On ch=8 n=47 v=0
39720 On ch=8 n=42 v=63
39840 On ch=8 n=42 v=0
39840 On ch=8 n=43 v=63
39960 On ch=8 n=43 v=0
40020 On ch=8 n=38 v=63
40080 On ch=8 n=38 v=0
40080 On ch=8 n=43 v=63
40320 On ch=8 n=43 v=0
40320 On ch=8 n=40 v=63
40440 On ch=8 n=40 v=0
40500 On ch=8 n=35 v=63
40560 On ch=8 n=35 v=0
40560 On ch=8 n=40 v=63
40800 On ch=8 n=40 v=0
40800 On ch=8 n=35 v=63
40920 On ch=8 n=35 v=0
40980 On ch=8 n=35 v=63
41040 On ch=8 n=35 v=0
41040 On ch=8 n=35 v=63
41100 On ch=8 n=35 v=0
41100 On ch=8 n=35 v=63
41160 On ch=8 n=35 v=0
41220 On ch=8 n=35 v=63
41340 On ch=8 n=35 v=0
41340 On ch=8 n=35 v=63
41385 On ch=8 n=35 v=0
41400 On ch=8 n=35 v=63
41520 On ch=8 n=35 v=0
41520 On ch=8 n=47 v=63
41640 On ch=8 n=47 v=0
41640 On ch=8 n=42 v=63
41760 On ch=8 n=42 v=0
41760 On ch=8 n=35 v=63
41880 On ch=8 n=35 v=0
41940 On ch=8 n=35 v=63
42000 On ch=8 n=35 v=0
42000 On ch=8 n=35 v=63
42060 On ch=8 n=35 v=0
42060 On ch=8 n=35 v=63
42120 On ch=8 n=35 v=0
42180 On ch=8 n=35 v=63
42300 On ch=8 n=35 v=0
42300 On ch=8 n=35 v=63
42345 On ch=8 n=35 v=0
42360 On ch=8 n=35 v=63
42480 On ch=8 n=35 v=0
42480 On ch=8 n=47 v=63
42600 On ch=8 n=47 v=0
42600 On ch=8 n=42 v=63
42720 On ch=8 n=42 v=0
42720 On ch=8 n=45 v=63
42840 On ch=8 n=45 v=0
42900 On ch=8 n=45 v=63
42960 On ch=8 n=45 v=0
42960 On ch=8 n=45 v=63
43020 On ch=8 n=45 v=0
43020 On ch=8 n=47 v=63
43140 On ch=8 n=47 v=0
43140 On ch=8 n=50 v=63
43320 On ch=8 n=50 v=0
43320 On ch=8 n=49 v=63
43440 On ch=8 n=49 v=0
43440 On ch=8 n=47 v=63
43500 On ch=8 n=47 v=0
43500 On ch=8 n=45 v=63
43560 On ch=8 n=45 v=0
43560 On ch=8 n=44 v=63
43620 On ch=8 n=44 v=0
43620 On ch=8 n=40 v=63
43680 On ch=8 n=40 v=0
43680 On ch=8 n=40 v=63
43860 On ch=8 n=40 v=0
43860 On ch=8 n=40 v=63
43920 On ch=8 n=40 v=0
43920 On ch=8 n=40 v=63
43980 On ch=8 n=40 v=0
43980 On ch=8 n=42 v=63
44040 On ch=8 n=42 v=0
44040 On ch=8 n=44 v=63
44100 On ch=8 n=44 v=0
44100 On ch=8 n=45 v=63
44220 On ch=8 n=45 v=0
44220 On ch=8 n=44 v=63
44280 On ch=8 n=44 v=0
44280 On ch=8 n=42 v=63
44340 On ch=8 n=42 v=0
44340 On ch=8 n=40 v=63
44400 On ch=8 n=40 v=0
44400 On ch=8 n=42 v=63
44460 On ch=8 n=42 v=0
44460 On ch=8 n=40 v=63
44580 On ch=8 n=40 v=0
44580 On ch=8 n=42 v=63
44640 On ch=8 n=42 v=0
44640 On ch=8 n=47 v=63
44760 On ch=8 n=47 v=0
44820 On ch=8 n=47 v=63
44880 On ch=8 n=47 v=0
44880 On ch=8 n=54 v=63
44880 On ch=8 n=47 v=63
45060 On ch=8 n=47 v=0
45060 On ch=8 n=54 v=0
45060 On ch=8 n=47 v=63
45150 On ch=8 n=47 v=0
45180 On ch=8 n=47 v=63
45240 On ch=8 n=47 v=0
45240 On ch=8 n=54 v=63
45240 On ch=8 n=47 v=63
45360 On ch=8 n=47 v=0
45360 On ch=8 n=54 v=0
45360 On ch=8 n=42 v=63
45420 On ch=8 n=42 v=0
45420 On ch=8 n=44 v=63
45480 On ch=8 n=44 v=0
45480 On ch=8 n=47 v=63
45600 On ch=8 n=47 v=0
45600 On ch=8 n=54 v=72
45780 On ch=8 n=54 v=0
45780 On ch=8 n=50 v=64
45960 On ch=8 n=50 v=0
45960 On ch=8 n=45 v=55
46140 On ch=8 n=45 v=0
46140 On ch=8 n=42 v=47
46860 On ch=8 n=42 v=0
46860 On ch=8 n=35 v=63
46980 On ch=8 n=35 v=0
47040 On ch=8 n=35 v=63
47100 On ch=8 n=35 v=0
47100 On ch=8 n=35 v=63
47160 On ch=8 n=35 v=0
47160 On ch=8 n=35 v=63
47220 On ch=8 n=35 v=0
47280 On ch=8 n=35 v=64
47400 On ch=8 n=35 v=0
47400 On ch=8 n=35 v=64
47445 On ch=8 n=35 v=0
47460 On ch=8 n=35 v=64
47580 On ch=8 n=35 v=0
47580 On ch=8 n=47 v=64
47700 On ch=8 n=47 v=0
47700 On ch=8 n=42 v=64
47820 On ch=8 n=42 v=0
47820 On ch=8 n=35 v=64
47940 On ch=8 n=35 v=0
48000 On ch=8 n=35 v=64
48060 On ch=8 n=35 v=0
48060 On ch=8 n=35 v=64
48120 On ch=8 n=35 v=0
48120 On ch=8 n=35 v=64
48180 On ch=8 n=35 v=0
48240 On ch=8 n=35 v=64
48360 On ch=8 n=35 v=0
48360 On ch=8 n=35 v=64
48405 On ch=8 n=35 v=0
48420 On ch=8 n=35 v=64
48540 On ch=8 n=35 v=0
48540 On ch=8 n=47 v=64
48660 On ch=8 n=47 v=0
48660 On ch=8 n=42 v=64
48780 On ch=8 n=42 v=0
48780 On ch=8 n=35 v=64
48900 On ch=8 n=35 v=0
48960 On ch=8 n=35 v=64
49020 On ch=8 n=35 v=0
49020 On ch=8 n=35 v=64
49080 On ch=8 n=35 v=0
49080 On ch=8 n=35 v=64
49140 On ch=8 n=35 v=0
49200 On ch=8 n=35 v=64
49320 On ch=8 n=35 v=0
49320 On ch=8 n=35 v=64
49365 On ch=8 n=35 v=0
49380 On ch=8 n=35 v=64
49500 On ch=8 n=35 v=0
49500 On ch=8 n=47 v=64
49620 On ch=8 n=47 v=0
49620 On ch=8 n=42 v=64
49740 On ch=8 n=42 v=0
49740 On ch=8 n=35 v=64
49860 On ch=8 n=35 v=0
49920 On ch=8 n=35 v=64
49980 On ch=8 n=35 v=0
49980 On ch=8 n=35 v=64
50040 On ch=8 n=35 v=0
50040 On ch=8 n=35 v=64
50100 On ch=8 n=35 v=0
50160 On ch=8 n=35 v=64
50280 On ch=8 n=35 v=0
50280 On ch=8 n=35 v=64
50325 On ch=8 n=35 v=0
50340 On ch=8 n=35 v=64
50460 On ch=8 n=35 v=0
50460 On ch=8 n=47 v=64
50580 On ch=8 n=47 v=0
50580 On ch=8 n=42 v=64
50700 On ch=8 n=42 v=0
50700 On ch=8 n=43 v=64
50820 On ch=8 n=43 v=0
50880 On ch=8 n=38 v=64
50940 On ch=8 n=38 v=0
50940 On ch=8 n=43 v=64
51180 On ch=8 n=43 v=0
51180 On ch=8 n=40 v=64
51300 On ch=8 n=40 v=0
51360 On ch=8 n=35 v=64
51420 On ch=8 n=35 v=0
51420 On ch=8 n=40 v=64
51660 On ch=8 n=40 v=0
51660 On ch=8 n=35 v=64
51780 On ch=8 n=35 v=0
51840 On ch=8 n=35 v=64
51900 On ch=8 n=35 v=0
51900 On ch=8 n=35 v=64
51960 On ch=8 n=35 v=0
51960 On ch=8 n=35 v=64
52020 On ch=8 n=35 v=0
52080 On ch=8 n=35 v=64
52200 On ch=8 n=35 v=0
52200 On ch=8 n=35 v=64
52245 On ch=8 n=35 v=0
52260 On ch=8 n=35 v=64
52380 On ch=8 n=35 v=0
52380 On ch=8 n=47 v=64
52500 On ch=8 n=47 v=0
52500 On ch=8 n=42 v=64
52620 On ch=8 n=42 v=0
52620 On ch=8 n=43 v=64
52740 On ch=8 n=43 v=0
52800 On ch=8 n=38 v=64
52860 On ch=8 n=38 v=0
52860 On ch=8 n=43 v=64
53100 On ch=8 n=43 v=0
53100 On ch=8 n=40 v=64
53220 On ch=8 n=40 v=0
53280 On ch=8 n=35 v=64
53340 On ch=8 n=35 v=0
53340 On ch=8 n=40 v=64
53580 On ch=8 n=40 v=0
53580 On ch=8 n=35 v=64
53700 On ch=8 n=35 v=0
53760 On ch=8 n=35 v=64
53820 On ch=8 n=35 v=0
53820 On ch=8 n=35 v=64
53880 On ch=8 n=35 v=0
53880 On ch=8 n=35 v=64
53940 On ch=8 n=35 v=0
54000 On ch=8 n=35 v=64
54120 On ch=8 n=35 v=0
54120 On ch=8 n=35 v=64
54165 On ch=8 n=35 v=0
54180 On ch=8 n=35 v=64
54300 On ch=8 n=35 v=0
54300 On ch=8 n=47 v=64
54420 On ch=8 n=47 v=0
54420 On ch=8 n=42 v=64
54540 On ch=8 n=42 v=0
54540 On ch=8 n=35 v=64
54660 On ch=8 n=35 v=0
54720 On ch=8 n=35 v=64
54780 On ch=8 n=35 v=0
54780 On ch=8 n=35 v=64
54840 On ch=8 n=35 v=0
54840 On ch=8 n=35 v=64
54900 On ch=8 n=35 v=0
54960 On ch=8 n=35 v=64
55080 On ch=8 n=35 v=0
55080 On ch=8 n=35 v=64
55125 On ch=8 n=35 v=0
55140 On ch=8 n=35 v=64
55260 On ch=8 n=35 v=0
55260 On ch=8 n=47 v=64
55380 On ch=8 n=47 v=0
55380 On ch=8 n=42 v=64
55500 On ch=8 n=42 v=0
55500 On ch=8 n=35 v=64
55620 On ch=8 n=35 v=0
55680 On ch=8 n=35 v=64
55740 On ch=8 n=35 v=0
55740 On ch=8 n=35 v=64
55800 On ch=8 n=35 v=0
55800 On ch=8 n=35 v=64
55860 On ch=8 n=35 v=0
55920 On ch=8 n=35 v=64
56040 On ch=8 n=35 v=0
56040 On ch=8 n=35 v=64
56085 On ch=8 n=35 v=0
56100 On ch=8 n=35 v=64
56220 On ch=8 n=35 v=0
56220 On ch=8 n=47 v=64
56340 On ch=8 n=47 v=0
56340 On ch=8 n=42 v=64
56460 On ch=8 n=42 v=0
56460 On ch=8 n=35 v=64
56580 On ch=8 n=35 v=0
56640 On ch=8 n=35 v=64
56700 On ch=8 n=35 v=0
56700 On ch=8 n=35 v=64
56760 On ch=8 n=35 v=0
56760 On ch=8 n=35 v=64
56820 On ch=8 n=35 v=0
56880 On ch=8 n=35 v=64
57000 On ch=8 n=35 v=0
57000 On ch=8 n=35 v=64
57045 On ch=8 n=35 v=0
57060 On ch=8 n=35 v=64
57180 On ch=8 n=35 v=0
57180 On ch=8 n=47 v=64
57300 On ch=8 n=47 v=0
57300 On ch=8 n=42 v=64
57420 On ch=8 n=42 v=0
57420 On ch=8 n=35 v=64
57540 On ch=8 n=35 v=0
57600 On ch=8 n=35 v=64
57660 On ch=8 n=35 v=0
57660 On ch=8 n=35 v=64
57720 On ch=8 n=35 v=0
57720 On ch=8 n=35 v=64
57780 On ch=8 n=35 v=0
57840 On ch=8 n=35 v=64
57960 On ch=8 n=35 v=0
57960 On ch=8 n=35 v=64
58005 On ch=8 n=35 v=0
58020 On ch=8 n=35 v=64
58140 On ch=8 n=35 v=0
58140 On ch=8 n=47 v=64
58260 On ch=8 n=47 v=0
58260 On ch=8 n=42 v=64
58380 On ch=8 n=42 v=0
58380 On ch=8 n=35 v=64
58500 On ch=8 n=35 v=0
58560 On ch=8 n=35 v=64
58620 On ch=8 n=35 v=0
58620 On ch=8 n=35 v=64
58680 On ch=8 n=35 v=0
58680 On ch=8 n=35 v=64
58740 On ch=8 n=35 v=0
58800 On ch=8 n=35 v=64
58920 On ch=8 n=35 v=0
58920 On ch=8 n=35 v=64
58965 On ch=8 n=35 v=0
58980 On ch=8 n=35 v=64
59100 On ch=8 n=35 v=0
59100 On ch=8 n=47 v=64
59220 On ch=8 n=47 v=0
59220 On ch=8 n=42 v=64
59340 On ch=8 n=42 v=0
59340 On ch=8 n=35 v=64
59460 On ch=8 n=35 v=0
59520 On ch=8 n=35 v=64
59580 On ch=8 n=35 v=0
59580 On ch=8 n=35 v=64
59640 On ch=8 n=35 v=0
59640 On ch=8 n=35 v=64
59700 On ch=8 n=35 v=0
59760 On ch=8 n=35 v=64
59880 On ch=8 n=35 v=0
59880 On ch=8 n=35 v=64
59925 On ch=8 n=35 v=0
59940 On ch=8 n=35 v=64
60060 On ch=8 n=35 v=0
60060 On ch=8 n=47 v=64
60180 On ch=8 n=47 v=0
60180 On ch=8 n=42 v=64
60300 On ch=8 n=42 v=0
60300 On ch=8 n=35 v=64
60420 On ch=8 n=35 v=0
60480 On ch=8 n=35 v=64
60540 On ch=8 n=35 v=0
60540 On ch=8 n=35 v=64
60600 On ch=8 n=35 v=0
60600 On ch=8 n=35 v=64
60660 On ch=8 n=35 v=0
60720 On ch=8 n=35 v=64
60840 On ch=8 n=35 v=0
60840 On ch=8 n=35 v=64
60885 On ch=8 n=35 v=0
60900 On ch=8 n=35 v=64
61020 On ch=8 n=35 v=0
61020 On ch=8 n=47 v=64
61140 On ch=8 n=47 v=0
61140 On ch=8 n=42 v=64
61260 On ch=8 n=42 v=0
61260 On ch=8 n=35 v=64
61380 On ch=8 n=35 v=0
61440 On ch=8 n=35 v=64
61500 On ch=8 n=35 v=0
61500 On ch=8 n=35 v=64
61560 On ch=8 n=35 v=0
61560 On ch=8 n=35 v=64
61620 On ch=8 n=35 v=0
61680 On ch=8 n=35 v=64
61800 On ch=8 n=35 v=0
61800 On ch=8 n=35 v=64
61845 On ch=8 n=35 v=0
61860 On ch=8 n=35 v=64
61980 On ch=8 n=35 v=0
61980 On ch=8 n=47 v=64
62100 On ch=8 n=47 v=0
62100 On ch=8 n=42 v=64
62220 On ch=8 n=42 v=0
62220 On ch=8 n=43 v=64
62340 On ch=8 n=43 v=0
62400 On ch=8 n=55 v=64
62520 On ch=8 n=55 v=0
62520 On ch=8 n=50 v=64
62580 On ch=8 n=50 v=0
62580 On ch=8 n=55 v=64
62700 On ch=8 n=55 v=0
62700 On ch=8 n=43 v=64
62880 On ch=8 n=43 v=0
62880 On ch=8 n=50 v=64
62940 On ch=8 n=50 v=0
62940 On ch=8 n=55 v=64
63000 On ch=8 n=55 v=0
63000 On ch=8 n=50 v=64
63060 On ch=8 n=50 v=0
63060 On ch=8 n=43 v=64
63180 On ch=8 n=43 v=0
63180 On ch=8 n=40 v=64
63300 On ch=8 n=40 v=0
63360 On ch=8 n=52 v=64
63480 On ch=8 n=52 v=0
63480 On ch=8 n=47 v=64
63540 On ch=8 n=47 v=0
63540 On ch=8 n=52 v=64
63660 On ch=8 n=52 v=0
63660 On ch=8 n=40 v=64
63840 On ch=8 n=40 v=0
63840 On ch=8 n=47 v=64
63900 On ch=8 n=47 v=0
63900 On ch=8 n=52 v=64
64020 On ch=8 n=52 v=0
64020 On ch=8 n=47 v=64
64080 On ch=8 n=47 v=0
64080 On ch=8 n=40 v=64
64140 On ch=8 n=40 v=0
64140 On ch=8 n=42 v=64
64200 On ch=8 n=42 v=0
64200 On ch=8 n=39 v=64
64260 On ch=8 n=39 v=0
64260 On ch=8 n=35 v=64
65580 On ch=8 n=35 v=0
65580 Meta TrkEnd
TrkEnd
MTrk
0 Par ch=9 c=93 v=0
0 Par ch=9 c=91 v=40
160 Par ch=9 c=0 v=0
161 Par ch=9 c=32 v=0
162 PrCh ch=9 p=34
163 Par ch=9 c=7 v=100
163 Par ch=9 c=10 v=64
163 Meta TrkEnd
TrkEnd
MTrk
0 Par ch=10 c=93 v=0
0 Par ch=10 c=91 v=40
165 Par ch=10 c=0 v=0
166 Par ch=10 c=32 v=0
167 PrCh ch=10 p=0
168 Par ch=10 c=7 v=100
168 Par ch=10 c=10 v=64
480 Par ch=10 c=7 v=53
4320 On ch=10 n=64 v=100
4335 On ch=10 n=64 v=0
4440 On ch=10 n=62 v=100
4455 On ch=10 n=62 v=0
4500 On ch=10 n=64 v=100
4515 On ch=10 n=64 v=0
4560 On ch=10 n=63 v=100
4575 On ch=10 n=63 v=0
4740 On ch=10 n=64 v=100
4755 On ch=10 n=64 v=0
4860 On ch=10 n=64 v=100
4875 On ch=10 n=64 v=0
4920 On ch=10 n=64 v=100
4935 On ch=10 n=64 v=0
4980 On ch=10 n=64 v=100
4995 On ch=10 n=64 v=0
5040 On ch=10 n=63 v=100
5055 On ch=10 n=63 v=0
5160 On ch=10 n=62 v=100
5175 On ch=10 n=62 v=0
5280 On ch=10 n=64 v=100
5295 On ch=10 n=64 v=0
5400 On ch=10 n=62 v=100
5415 On ch=10 n=62 v=0
5460 On ch=10 n=64 v=100
5475 On ch=10 n=64 v=0
5520 On ch=10 n=63 v=100
5535 On ch=10 n=63 v=0
5700 On ch=10 n=64 v=100
5715 On ch=10 n=64 v=0
5820 On ch=10 n=64 v=100
5835 On ch=10 n=64 v=0
5880 On ch=10 n=64 v=100
5895 On ch=10 n=64 v=0
5940 On ch=10 n=64 v=100
5955 On ch=10 n=64 v=0
6000 On ch=10 n=63 v=100
6015 On ch=10 n=63 v=0
6120 On ch=10 n=62 v=100
6135 On ch=10 n=62 v=0
6240 On ch=10 n=64 v=100
6255 On ch=10 n=64 v=0
6360 On ch=10 n=62 v=100
6375 On ch=10 n=62 v=0
6420 On ch=10 n=64 v=100
6435 On ch=10 n=64 v=0
6480 On ch=10 n=63 v=100
6495 On ch=10 n=63 v=0
6660 On ch=10 n=64 v=100
6675 On ch=10 n=64 v=0
6780 On ch=10 n=64 v=100
6795 On ch=10 n=64 v=0
6900 On ch=10 n=64 v=100
6915 On ch=10 n=64 v=0
6960 On ch=10 n=63 v=100
6975 On ch=10 n=63 v=0
7020 On ch=10 n=63 v=100
7035 On ch=10 n=63 v=0
7080 On ch=10 n=63 v=100
7095 On ch=10 n=63 v=0
7140 On ch=10 n=63 v=100
7155 On ch=10 n=63 v=0
7200 On ch=10 n=64 v=100
7215 On ch=10 n=64 v=0
7320 On ch=10 n=62 v=100
7335 On ch=10 n=62 v=0
7380 On ch=10 n=64 v=100
7395 On ch=10 n=64 v=0
7440 On ch=10 n=63 v=100
7455 On ch=10 n=63 v=0
7620 On ch=10 n=64 v=100
7635 On ch=10 n=64 v=0
7740 On ch=10 n=64 v=100
7755 On ch=10 n=64 v=0
7860 On ch=10 n=64 v=100
7875 On ch=10 n=64 v=0
7920 On ch=10 n=63 v=100
7935 On ch=10 n=63 v=0
7980 On ch=10 n=63 v=100
7995 On ch=10 n=63 v=0
8040 On ch=10 n=63 v=100
8055 On ch=10 n=63 v=0
8100 On ch=10 n=63 v=100
8115 On ch=10 n=63 v=0
8160 On ch=10 n=64 v=100
8175 On ch=10 n=64 v=0
8280 On ch=10 n=62 v=100
8295 On ch=10 n=62 v=0
8340 On ch=10 n=64 v=100
8355 On ch=10 n=64 v=0
8400 On ch=10 n=63 v=100
8415 On ch=10 n=63 v=0
8580 On ch=10 n=64 v=100
8595 On ch=10 n=64 v=0
8700 On ch=10 n=64 v=100
8715 On ch=10 n=64 v=0
8820 On ch=10 n=64 v=100
8835 On ch=10 n=64 v=0
8880 On ch=10 n=63 v=100
8895 On ch=10 n=63 v=0
8940 On ch=10 n=63 v=100
8955 On ch=10 n=63 v=0
9000 On ch=10 n=63 v=100
9015 On ch=10 n=63 v=0
9060 On ch=10 n=63 v=100
9075 On ch=10 n=63 v=0
9120 On ch=10 n=64 v=100
9135 On ch=10 n=64 v=0
9240 On ch=10 n=62 v=100
9255 On ch=10 n=62 v=0
9300 On ch=10 n=64 v=100
9315 On ch=10 n=64 v=0
9360 On ch=10 n=63 v=100
9375 On ch=10 n=63 v=0
9540 On ch=10 n=64 v=100
9555 On ch=10 n=64 v=0
9660 On ch=10 n=64 v=100
9675 On ch=10 n=64 v=0
9720 On ch=10 n=64 v=100
9735 On ch=10 n=64 v=0
9780 On ch=10 n=64 v=100
9795 On ch=10 n=64 v=0
9840 On ch=10 n=63 v=100
9855 On ch=10 n=63 v=0
9900 On ch=10 n=63 v=100
9915 On ch=10 n=63 v=0
9960 On ch=10 n=63 v=100
9975 On ch=10 n=63 v=0
10020 On ch=10 n=63 v=100
10035 On ch=10 n=63 v=0
10080 On ch=10 n=64 v=100
10095 On ch=10 n=64 v=0
10140 On ch=10 n=64 v=100
10155 On ch=10 n=64 v=0
10200 On ch=10 n=64 v=100
10215 On ch=10 n=64 v=0
10260 On ch=10 n=64 v=100
10275 On ch=10 n=64 v=0
10320 On ch=10 n=62 v=100
10335 On ch=10 n=62 v=0
10500 On ch=10 n=64 v=100
10515 On ch=10 n=64 v=0
10620 On ch=10 n=64 v=100
10635 On ch=10 n=64 v=0
10680 On ch=10 n=64 v=100
10695 On ch=10 n=64 v=0
10740 On ch=10 n=64 v=100
10755 On ch=10 n=64 v=0
10800 On ch=10 n=63 v=100
10815 On ch=10 n=63 v=0
10860 On ch=10 n=63 v=100
10875 On ch=10 n=63 v=0
10920 On ch=10 n=63 v=100
10935 On ch=10 n=63 v=0
10980 On ch=10 n=63 v=100
10995 On ch=10 n=63 v=0
11040 On ch=10 n=64 v=100
11055 On ch=10 n=64 v=0
11100 On ch=10 n=64 v=100
11115 On ch=10 n=64 v=0
11160 On ch=10 n=64 v=100
11175 On ch=10 n=64 v=0
11220 On ch=10 n=64 v=100
11235 On ch=10 n=64 v=0
11280 On ch=10 n=62 v=100
11295 On ch=10 n=62 v=0
11460 On ch=10 n=64 v=100
11475 On ch=10 n=64 v=0
11580 On ch=10 n=64 v=100
11595 On ch=10 n=64 v=0
11640 On ch=10 n=64 v=100
11655 On ch=10 n=64 v=0
11700 On ch=10 n=64 v=100
11715 On ch=10 n=64 v=0
11760 On ch=10 n=63 v=100
11775 On ch=10 n=63 v=0
11820 On ch=10 n=63 v=100
11835 On ch=10 n=63 v=0
11880 On ch=10 n=63 v=100
11895 On ch=10 n=63 v=0
11940 On ch=10 n=63 v=100
11955 On ch=10 n=63 v=0
12000 On ch=10 n=64 v=100
12015 On ch=10 n=64 v=0
12060 On ch=10 n=64 v=100
12075 On ch=10 n=64 v=0
12120 On ch=10 n=64 v=100
12135 On ch=10 n=64 v=0
12180 On ch=10 n=64 v=100
12195 On ch=10 n=64 v=0
12240 On ch=10 n=62 v=100
12255 On ch=10 n=62 v=0
12420 On ch=10 n=64 v=100
12435 On ch=10 n=64 v=0
12540 On ch=10 n=64 v=100
12555 On ch=10 n=64 v=0
12600 On ch=10 n=64 v=100
12615 On ch=10 n=64 v=0
12660 On ch=10 n=64 v=100
12675 On ch=10 n=64 v=0
12720 On ch=10 n=63 v=100
12735 On ch=10 n=63 v=0
12780 On ch=10 n=63 v=100
12795 On ch=10 n=63 v=0
12840 On ch=10 n=63 v=100
12855 On ch=10 n=63 v=0
12900 On ch=10 n=63 v=100
12915 On ch=10 n=63 v=0
12960 On ch=10 n=64 v=100
12975 On ch=10 n=64 v=0
13020 On ch=10 n=64 v=100
13035 On ch=10 n=64 v=0
13080 On ch=10 n=64 v=100
13095 On ch=10 n=64 v=0
13140 On ch=10 n=64 v=100
13155 On ch=10 n=64 v=0
13200 On ch=10 n=62 v=100
13215 On ch=10 n=62 v=0
13380 On ch=10 n=64 v=100
13395 On ch=10 n=64 v=0
13500 On ch=10 n=64 v=100
13515 On ch=10 n=64 v=0
13560 On ch=10 n=64 v=100
13575 On ch=10 n=64 v=0
13620 On ch=10 n=64 v=100
13635 On ch=10 n=64 v=0
13680 On ch=10 n=63 v=100
13695 On ch=10 n=63 v=0
13740 On ch=10 n=63 v=100
13755 On ch=10 n=63 v=0
13800 On ch=10 n=63 v=100
13815 On ch=10 n=63 v=0
13860 On ch=10 n=63 v=100
13875 On ch=10 n=63 v=0
13920 On ch=10 n=35 v=90
13920 On ch=10 n=44 v=100
13920 On ch=10 n=64 v=100
13935 On ch=10 n=64 v=0
13935 On ch=10 n=44 v=0
13935 On ch=10 n=35 v=0
14040 On ch=10 n=44 v=100
14040 On ch=10 n=63 v=100
14055 On ch=10 n=63 v=0
14055 On ch=10 n=44 v=0
14100 On ch=10 n=35 v=90
14100 On ch=10 n=64 v=100
14115 On ch=10 n=64 v=0
14115 On ch=10 n=35 v=0
14160 On ch=10 n=44 v=100
14160 On ch=10 n=40 v=127
14160 On ch=10 n=62 v=100
14175 On ch=10 n=62 v=0
14175 On ch=10 n=40 v=0
14175 On ch=10 n=44 v=0
14220 On ch=10 n=46 v=113
14235 On ch=10 n=46 v=0
14280 On ch=10 n=46 v=110
14295 On ch=10 n=46 v=0
14340 On ch=10 n=64 v=100
14340 On ch=10 n=44 v=108
14355 On ch=10 n=44 v=0
14355 On ch=10 n=64 v=0
14400 On ch=10 n=44 v=100
14400 On ch=10 n=35 v=90
14415 On ch=10 n=35 v=0
14415 On ch=10 n=44 v=0
14460 On ch=10 n=64 v=100
14475 On ch=10 n=64 v=0
14520 On ch=10 n=44 v=100
14520 On ch=10 n=64 v=100
14535 On ch=10 n=64 v=0
14535 On ch=10 n=44 v=0
14580 On ch=10 n=64 v=100
14580 On ch=10 n=35 v=90
14595 On ch=10 n=35 v=0
14595 On ch=10 n=64 v=0
14640 On ch=10 n=40 v=127
14640 On ch=10 n=63 v=100
14640 On ch=10 n=44 v=100
14655 On ch=10 n=44 v=0
14655 On ch=10 n=63 v=0
14655 On ch=10 n=40 v=0
14700 On ch=10 n=63 v=100
14700 On ch=10 n=46 v=113
14715 On ch=10 n=46 v=0
14715 On ch=10 n=63 v=0
14760 On ch=10 n=63 v=100
14760 On ch=10 n=46 v=110
14775 On ch=10 n=46 v=0
14775 On ch=10 n=63 v=0
14820 On ch=10 n=63 v=100
14820 On ch=10 n=44 v=108
14835 On ch=10 n=44 v=0
14835 On ch=10 n=63 v=0
14880 On ch=10 n=44 v=100
14880 On ch=10 n=64 v=100
14880 On ch=10 n=35 v=90
14895 On ch=10 n=35 v=0
14895 On ch=10 n=64 v=0
14895 On ch=10 n=44 v=0
15000 On ch=10 n=63 v=100
15000 On ch=10 n=44 v=100
15015 On ch=10 n=44 v=0
15015 On ch=10 n=63 v=0
15060 On ch=10 n=35 v=90
15060 On ch=10 n=64 v=100
15075 On ch=10 n=64 v=0
15075 On ch=10 n=35 v=0
15120 On ch=10 n=44 v=100
15120 On ch=10 n=40 v=127
15120 On ch=10 n=62 v=100
15135 On ch=10 n=62 v=0
15135 On ch=10 n=40 v=0
15135 On ch=10 n=44 v=0
15180 On ch=10 n=46 v=113
15195 On ch=10 n=46 v=0
15240 On ch=10 n=46 v=110
15255 On ch=10 n=46 v=0
15300 On ch=10 n=44 v=108
15300 On ch=10 n=64 v=100
15315 On ch=10 n=64 v=0
15315 On ch=10 n=44 v=0
15360 On ch=10 n=35 v=90
15360 On ch=10 n=44 v=100
15375 On ch=10 n=44 v=0
15375 On ch=10 n=35 v=0
15420 On ch=10 n=64 v=100
15435 On ch=10 n=64 v=0
15480 On ch=10 n=44 v=100
15480 On ch=10 n=64 v=100
15495 On ch=10 n=64 v=0
15495 On ch=10 n=44 v=0
15540 On ch=10 n=64 v=100
15540 On ch=10 n=35 v=90
15555 On ch=10 n=35 v=0
15555 On ch=10 n=64 v=0
15600 On ch=10 n=63 v=100
15600 On ch=10 n=44 v=100
15600 On ch=10 n=40 v=127
15615 On ch=10 n=40 v=0
15615 On ch=10 n=44 v=0
15615 On ch=10 n=63 v=0
15660 On ch=10 n=63 v=100
15660 On ch=10 n=46 v=113
15675 On ch=10 n=46 v=0
15675 On ch=10 n=63 v=0
15720 On ch=10 n=46 v=110
15720 On ch=10 n=63 v=100
15735 On ch=10 n=63 v=0
15735 On ch=10 n=46 v=0
15780 On ch=10 n=44 v=108
15780 On ch=10 n=63 v=100
15795 On ch=10 n=63 v=0
15795 On ch=10 n=44 v=0
15840 On ch=10 n=64 v=100
15840 On ch=10 n=44 v=100
15840 On ch=10 n=35 v=90
15855 On ch=10 n=35 v=0
15855 On ch=10 n=44 v=0
15855 On ch=10 n=64 v=0
15960 On ch=10 n=63 v=100
15960 On ch=10 n=44 v=100
15975 On ch=10 n=44 v=0
15975 On ch=10 n=63 v=0
16020 On ch=10 n=35 v=90
16020 On ch=10 n=64 v=100
16035 On ch=10 n=64 v=0
16035 On ch=10 n=35 v=0
16080 On ch=10 n=44 v=100
16080 On ch=10 n=62 v=100
16080 On ch=10 n=40 v=127
16095 On ch=10 n=40 v=0
16095 On ch=10 n=62 v=0
16095 On ch=10 n=44 v=0
16140 On ch=10 n=46 v=113
16155 On ch=10 n=46 v=0
16200 On ch=10 n=46 v=110
16215 On ch=10 n=46 v=0
16260 On ch=10 n=44 v=108
16260 On ch=10 n=64 v=100
16275 On ch=10 n=64 v=0
16275 On ch=10 n=44 v=0
16320 On ch=10 n=44 v=100
16320 On ch=10 n=35 v=90
16335 On ch=10 n=35 v=0
16335 On ch=10 n=44 v=0
16380 On ch=10 n=64 v=100
16395 On ch=10 n=64 v=0
16440 On ch=10 n=64 v=100
16440 On ch=10 n=44 v=100
16455 On ch=10 n=44 v=0
16455 On ch=10 n=64 v=0
16500 On ch=10 n=35 v=90
16500 On ch=10 n=64 v=100
16515 On ch=10 n=64 v=0
16515 On ch=10 n=35 v=0
16560 On ch=10 n=44 v=100
16560 On ch=10 n=40 v=127
16560 On ch=10 n=63 v=100
16575 On ch=10 n=63 v=0
16575 On ch=10 n=40 v=0
16575 On ch=10 n=44 v=0
16620 On ch=10 n=63 v=100
16620 On ch=10 n=46 v=113
16635 On ch=10 n=46 v=0
16635 On ch=10 n=63 v=0
16680 On ch=10 n=46 v=110
16680 On ch=10 n=63 v=100
16695 On ch=10 n=63 v=0
16695 On ch=10 n=46 v=0
16740 On ch=10 n=63 v=100
16740 On ch=10 n=44 v=108
16755 On ch=10 n=44 v=0
16755 On ch=10 n=63 v=0
16800 On ch=10 n=44 v=100
16800 On ch=10 n=35 v=90
16800 On ch=10 n=64 v=100
16815 On ch=10 n=64 v=0
16815 On ch=10 n=35 v=0
16815 On ch=10 n=44 v=0
16920 On ch=10 n=63 v=100
16920 On ch=10 n=44 v=100
16935 On ch=10 n=44 v=0
16935 On ch=10 n=63 v=0
16980 On ch=10 n=64 v=100
16980 On ch=10 n=35 v=90
16995 On ch=10 n=35 v=0
16995 On ch=10 n=64 v=0
17040 On ch=10 n=62 v=100
17040 On ch=10 n=40 v=127
17040 On ch=10 n=44 v=100
17055 On ch=10 n=44 v=0
17055 On ch=10 n=40 v=0
17055 On ch=10 n=62 v=0
17100 On ch=10 n=46 v=113
17115 On ch=10 n=46 v=0
17160 On ch=10 n=46 v=110
17175 On ch=10 n=46 v=0
17220 On ch=10 n=64 v=100
17220 On ch=10 n=44 v=108
17235 On ch=10 n=44 v=0
17235 On ch=10 n=64 v=0
17280 On ch=10 n=35 v=90
17280 On ch=10 n=44 v=100
17295 On ch=10 n=44 v=0
17295 On ch=10 n=35 v=0
17340 On ch=10 n=64 v=100
17355 On ch=10 n=64 v=0
17400 On ch=10 n=44 v=100
17400 On ch=10 n=64 v=100
17415 On ch=10 n=64 v=0
17415 On ch=10 n=44 v=0
17460 On ch=10 n=64 v=100
17460 On ch=10 n=35 v=90
17475 On ch=10 n=35 v=0
17475 On ch=10 n=64 v=0
17520 On ch=10 n=44 v=100
17520 On ch=10 n=63 v=100
17520 On ch=10 n=40 v=127
17535 On ch=10 n=40 v=0
17535 On ch=10 n=63 v=0
17535 On ch=10 n=44 v=0
17580 On ch=10 n=63 v=100
17580 On ch=10 n=46 v=113
17595 On ch=10 n=46 v=0
17595 On ch=10 n=63 v=0
17640 On ch=10 n=46 v=110
17640 On ch=10 n=63 v=100
17655 On ch=10 n=63 v=0
17655 On ch=10 n=46 v=0
17700 On ch=10 n=63 v=100
17700 On ch=10 n=44 v=108
17715 On ch=10 n=44 v=0
17715 On ch=10 n=63 v=0
17760 On ch=10 n=64 v=100
17760 On ch=10 n=44 v=100
17760 On ch=10 n=35 v=90
17775 On ch=10 n=35 v=0
17775 On ch=10 n=44 v=0
17775 On ch=10 n=64 v=0
17880 On ch=10 n=44 v=100
17880 On ch=10 n=63 v=100
17895 On ch=10 n=63 v=0
17895 On ch=10 n=44 v=0
17940 On ch=10 n=64 v=100
17940 On ch=10 n=35 v=90
17955 On ch=10 n=35 v=0
17955 On ch=10 n=64 v=0
18000 On ch=10 n=44 v=100
18000 On ch=10 n=62 v=100
18000 On ch=10 n=40 v=127
18015 On ch=10 n=40 v=0
18015 On ch=10 n=62 v=0
18015 On ch=10 n=44 v=0
18060 On ch=10 n=46 v=113
18075 On ch=10 n=46 v=0
18120 On ch=10 n=46 v=110
18135 On ch=10 n=46 v=0
18180 On ch=10 n=44 v=108
18180 On ch=10 n=64 v=100
18195 On ch=10 n=64 v=0
18195 On ch=10 n=44 v=0
18240 On ch=10 n=35 v=90
18240 On ch=10 n=44 v=100
18255 On ch=10 n=44 v=0
18255 On ch=10 n=35 v=0
18300 On ch=10 n=64 v=100
18315 On ch=10 n=64 v=0
18360 On ch=10 n=64 v=100
18360 On ch=10 n=44 v=100
18375 On ch=10 n=44 v=0
18375 On ch=10 n=64 v=0
18420 On ch=10 n=35 v=90
18420 On ch=10 n=64 v=100
18435 On ch=10 n=64 v=0
18435 On ch=10 n=35 v=0
18480 On ch=10 n=40 v=127
18480 On ch=10 n=63 v=100
18480 On ch=10 n=44 v=100
18495 On ch=10 n=44 v=0
18495 On ch=10 n=63 v=0
18495 On ch=10 n=40 v=0
18540 On ch=10 n=63 v=100
18540 On ch=10 n=46 v=113
18555 On ch=10 n=46 v=0
18555 On ch=10 n=63 v=0
18600 On ch=10 n=46 v=110
18600 On ch=10 n=63 v=100
18615 On ch=10 n=63 v=0
18615 On ch=10 n=46 v=0
18660 On ch=10 n=44 v=108
18660 On ch=10 n=63 v=100
18675 On ch=10 n=63 v=0
18675 On ch=10 n=44 v=0
18720 On ch=10 n=44 v=100
18720 On ch=10 n=35 v=90
18720 On ch=10 n=64 v=100
18735 On ch=10 n=64 v=0
18735 On ch=10 n=35 v=0
18735 On ch=10 n=44 v=0
18840 On ch=10 n=63 v=100
18840 On ch=10 n=44 v=100
18855 On ch=10 n=44 v=0
18855 On ch=10 n=63 v=0
18900 On ch=10 n=64 v=100
18900 On ch=10 n=35 v=90
18915 On ch=10 n=35 v=0
18915 On ch=10 n=64 v=0
18960 On ch=10 n=40 v=127
18960 On ch=10 n=62 v=100
18960 On ch=10 n=44 v=100
18975 On ch=10 n=44 v=0
18975 On ch=10 n=62 v=0
18975 On ch=10 n=40 v=0
19020 On ch=10 n=46 v=113
19035 On ch=10 n=46 v=0
19080 On ch=10 n=46 v=110
19095 On ch=10 n=46 v=0
19140 On ch=10 n=44 v=108
19140 On ch=10 n=64 v=100
19155 On ch=10 n=64 v=0
19155 On ch=10 n=44 v=0
19200 On ch=10 n=44 v=100
19200 On ch=10 n=35 v=90
19215 On ch=10 n=35 v=0
19215 On ch=10 n=44 v=0
19260 On ch=10 n=64 v=100
19275 On ch=10 n=64 v=0
19320 On ch=10 n=64 v=100
19320 On ch=10 n=44 v=100
19335 On ch=10 n=44 v=0
19335 On ch=10 n=64 v=0
19380 On ch=10 n=35 v=90
19380 On ch=10 n=64 v=100
19395 On ch=10 n=64 v=0
19395 On ch=10 n=35 v=0
19440 On ch=10 n=63 v=100
19440 On ch=10 n=44 v=100
19440 On ch=10 n=40 v=127
19455 On ch=10 n=40 v=0
19455 On ch=10 n=44 v=0
19455 On ch=10 n=63 v=0
19500 On ch=10 n=46 v=113
19500 On ch=10 n=63 v=100
19515 On ch=10 n=63 v=0
19515 On ch=10 n=46 v=0
19560 On ch=10 n=63 v=100
19560 On ch=10 n=46 v=110
19575 On ch=10 n=46 v=0
19575 On ch=10 n=63 v=0
19620 On ch=10 n=44 v=108
19620 On ch=10 n=63 v=100
19635 On ch=10 n=63 v=0
19635 On ch=10 n=44 v=0
19680 On ch=10 n=64 v=100
19680 On ch=10 n=35 v=90
19680 On ch=10 n=44 v=100
19695 On ch=10 n=44 v=0
19695 On ch=10 n=35 v=0
19695 On ch=10 n=64 v=0
19800 On ch=10 n=63 v=100
19800 On ch=10 n=44 v=100
19815 On ch=10 n=44 v=0
19815 On ch=10 n=63 v=0
19860 On ch=10 n=35 v=90
19860 On ch=10 n=64 v=100
19875 On ch=10 n=64 v=0
19875 On ch=10 n=35 v=0
19920 On ch=10 n=44 v=100
19920 On ch=10 n=40 v=127
19920 On ch=10 n=62 v=100
19935 On ch=10 n=62 v=0
19935 On ch=10 n=40 v=0
19935 On ch=10 n=44 v=0
19980 On ch=10 n=46 v=113
19995 On ch=10 n=46 v=0
20040 On ch=10 n=46 v=110
20055 On ch=10 n=46 v=0
20100 On ch=10 n=44 v=108
20100 On ch=10 n=64 v=100
20115 On ch=10 n=64 v=0
20115 On ch=10 n=44 v=0
20160 On ch=10 n=35 v=90
20160 On ch=10 n=44 v=100
20175 On ch=10 n=44 v=0
20175 On ch=10 n=35 v=0
20220 On ch=10 n=64 v=100
20235 On ch=10 n=64 v=0
20280 On ch=10 n=64 v=100
20280 On ch=10 n=44 v=100
20295 On ch=10 n=44 v=0
20295 On ch=10 n=64 v=0
20340 On ch=10 n=64 v=100
20340 On ch=10 n=35 v=90
20355 On ch=10 n=35 v=0
20355 On ch=10 n=64 v=0
20400 On ch=10 n=44 v=100
20400 On ch=10 n=40 v=127
20400 On ch=10 n=63 v=100
20415 On ch=10 n=63 v=0
20415 On ch=10 n=40 v=0
20415 On ch=10 n=44 v=0
20460 On ch=10 n=46 v=113
20460 On ch=10 n=63 v=100
20475 On ch=10 n=63 v=0
20475 On ch=10 n=46 v=0
20520 On ch=10 n=63 v=100
20520 On ch=10 n=46 v=110
20535 On ch=10 n=46 v=0
20535 On ch=10 n=63 v=0
20580 On ch=10 n=44 v=108
20580 On ch=10 n=63 v=100
20595 On ch=10 n=63 v=0
20595 On ch=10 n=44 v=0
20640 On ch=10 n=64 v=100
20640 On ch=10 n=44 v=100
20640 On ch=10 n=35 v=90
20655 On ch=10 n=35 v=0
20655 On ch=10 n=44 v=0
20655 On ch=10 n=64 v=0
20760 On ch=10 n=44 v=100
20760 On ch=10 n=63 v=100
20775 On ch=10 n=63 v=0
20775 On ch=10 n=44 v=0
20820 On ch=10 n=64 v=100
20820 On ch=10 n=35 v=90
20835 On ch=10 n=35 v=0
20835 On ch=10 n=64 v=0
20880 On ch=10 n=40 v=127
20880 On ch=10 n=62 v=100
20880 On ch=10 n=44 v=100
20895 On ch=10 n=44 v=0
20895 On ch=10 n=62 v=0
20895 On ch=10 n=40 v=0
20940 On ch=10 n=46 v=113
20955 On ch=10 n=46 v=0
21000 On ch=10 n=46 v=110
21015 On ch=10 n=46 v=0
21060 On ch=10 n=64 v=100
21060 On ch=10 n=44 v=108
21075 On ch=10 n=44 v=0
21075 On ch=10 n=64 v=0
21120 On ch=10 n=35 v=90
21120 On ch=10 n=44 v=100
21135 On ch=10 n=44 v=0
21135 On ch=10 n=35 v=0
21180 On ch=10 n=64 v=100
21195 On ch=10 n=64 v=0
21240 On ch=10 n=44 v=100
21240 On ch=10 n=64 v=100
21255 On ch=10 n=64 v=0
21255 On ch=10 n=44 v=0
21300 On ch=10 n=35 v=90
21300 On ch=10 n=64 v=100
21315 On ch=10 n=64 v=0
21315 On ch=10 n=35 v=0
21360 On ch=10 n=63 v=100
21360 On ch=10 n=40 v=127
21360 On ch=10 n=44 v=100
21375 On ch=10 n=44 v=0
21375 On ch=10 n=40 v=0
21375 On ch=10 n=63 v=0
21420 On ch=10 n=46 v=113
21420 On ch=10 n=63 v=100
21435 On ch=10 n=63 v=0
21435 On ch=10 n=46 v=0
21480 On ch=10 n=63 v=100
21480 On ch=10 n=46 v=110
21495 On ch=10 n=46 v=0
21495 On ch=10 n=63 v=0
21540 On ch=10 n=44 v=108
21540 On ch=10 n=63 v=100
21555 On ch=10 n=63 v=0
21555 On ch=10 n=44 v=0
21600 On ch=10 n=64 v=100
21600 On ch=10 n=44 v=100
21600 On ch=10 n=35 v=90
21615 On ch=10 n=35 v=0
21615 On ch=10 n=44 v=0
21615 On ch=10 n=64 v=0
21720 On ch=10 n=44 v=100
21720 On ch=10 n=63 v=100
21735 On ch=10 n=63 v=0
21735 On ch=10 n=44 v=0
21780 On ch=10 n=64 v=100
21780 On ch=10 n=35 v=90
21795 On ch=10 n=35 v=0
21795 On ch=10 n=64 v=0
21840 On ch=10 n=44 v=100
21840 On ch=10 n=40 v=127
21840 On ch=10 n=62 v=100
21855 On ch=10 n=62 v=0
21855 On ch=10 n=40 v=0
21855 On ch=10 n=44 v=0
21900 On ch=10 n=46 v=113
21915 On ch=10 n=46 v=0
21960 On ch=10 n=46 v=110
21975 On ch=10 n=46 v=0
22020 On ch=10 n=44 v=108
22020 On ch=10 n=64 v=100
22035 On ch=10 n=64 v=0
22035 On ch=10 n=44 v=0
22080 On ch=10 n=35 v=90
22080 On ch=10 n=44 v=100
22095 On ch=10 n=44 v=0
22095 On ch=10 n=35 v=0
22140 On ch=10 n=64 v=100
22155 On ch=10 n=64 v=0
22200 On ch=10 n=44 v=100
22200 On ch=10 n=64 v=100
22215 On ch=10 n=64 v=0
22215 On ch=10 n=44 v=0
22260 On ch=10 n=35 v=90
22260 On ch=10 n=64 v=100
22275 On ch=10 n=64 v=0
22275 On ch=10 n=35 v=0
22320 On ch=10 n=63 v=100
22320 On ch=10 n=44 v=100
22320 On ch=10 n=40 v=127
22335 On ch=10 n=40 v=0
22335 On ch=10 n=44 v=0
22335 On ch=10 n=63 v=0
22380 On ch=10 n=46 v=113
22380 On ch=10 n=63 v=100
22395 On ch=10 n=63 v=0
22395 On ch=10 n=46 v=0
22440 On ch=10 n=46 v=110
22440 On ch=10 n=63 v=100
22455 On ch=10 n=63 v=0
22455 On ch=10 n=46 v=0
22500 On ch=10 n=44 v=108
22500 On ch=10 n=63 v=100
22515 On ch=10 n=63 v=0
22515 On ch=10 n=44 v=0
22560 On ch=10 n=44 v=100
22560 On ch=10 n=35 v=90
22560 On ch=10 n=64 v=100
22575 On ch=10 n=64 v=0
22575 On ch=10 n=35 v=0
22575 On ch=10 n=44 v=0
22680 On ch=10 n=44 v=100
22680 On ch=10 n=63 v=100
22695 On ch=10 n=63 v=0
22695 On ch=10 n=44 v=0
22740 On ch=10 n=64 v=100
22740 On ch=10 n=35 v=90
22755 On ch=10 n=35 v=0
22755 On ch=10 n=64 v=0
22800 On ch=10 n=40 v=127
22800 On ch=10 n=44 v=100
22800 On ch=10 n=62 v=100
22815 On ch=10 n=62 v=0
22815 On ch=10 n=44 v=0
22815 On ch=10 n=40 v=0
22860 On ch=10 n=46 v=113
22875 On ch=10 n=46 v=0
22920 On ch=10 n=46 v=110
22935 On ch=10 n=46 v=0
22980 On ch=10 n=44 v=108
22980 On ch=10 n=64 v=100
22995 On ch=10 n=64 v=0
22995 On ch=10 n=44 v=0
23040 On ch=10 n=35 v=90
23040 On ch=10 n=44 v=100
23055 On ch=10 n=44 v=0
23055 On ch=10 n=35 v=0
23100 On ch=10 n=64 v=100
23115 On ch=10 n=64 v=0
23160 On ch=10 n=44 v=100
23160 On ch=10 n=64 v=100
23175 On ch=10 n=64 v=0
23175 On ch=10 n=44 v=0
23220 On ch=10 n=64 v=100
23220 On ch=10 n=35 v=90
23235 On ch=10 n=35 v=0
23235 On ch=10 n=64 v=0
23280 On ch=10 n=40 v=127
23280 On ch=10 n=44 v=100
23280 On ch=10 n=63 v=100
23295 On ch=10 n=63 v=0
23295 On ch=10 n=44 v=0
23295 On ch=10 n=40 v=0
23340 On ch=10 n=63 v=100
23340 On ch=10 n=46 v=113
23355 On ch=10 n=46 v=0
23355 On ch=10 n=63 v=0
23400 On ch=10 n=63 v=100
23400 On ch=10 n=46 v=110
23415 On ch=10 n=46 v=0
23415 On ch=10 n=63 v=0
23460 On ch=10 n=44 v=108
23460 On ch=10 n=63 v=100
23475 On ch=10 n=63 v=0
23475 On ch=10 n=44 v=0
23520 On ch=10 n=64 v=100
23520 On ch=10 n=44 v=100
23520 On ch=10 n=35 v=90
23535 On ch=10 n=35 v=0
23535 On ch=10 n=44 v=0
23535 On ch=10 n=64 v=0
23640 On ch=10 n=63 v=100
23640 On ch=10 n=44 v=100
23655 On ch=10 n=44 v=0
23655 On ch=10 n=63 v=0
23700 On ch=10 n=64 v=100
23700 On ch=10 n=35 v=90
23715 On ch=10 n=35 v=0
23715 On ch=10 n=64 v=0
23760 On ch=10 n=62 v=100
23760 On ch=10 n=44 v=100
23760 On ch=10 n=40 v=127
23775 On ch=10 n=40 v=0
23775 On ch=10 n=44 v=0
23775 On ch=10 n=62 v=0
23820 On ch=10 n=46 v=113
23835 On ch=10 n=46 v=0
23880 On ch=10 n=46 v=110
23895 On ch=10 n=46 v=0
23940 On ch=10 n=64 v=100
23940 On ch=10 n=44 v=108
23955 On ch=10 n=44 v=0
23955 On ch=10 n=64 v=0
24060 On ch=10 n=64 v=100
24075 On ch=10 n=64 v=0
24120 On ch=10 n=64 v=100
24135 On ch=10 n=64 v=0
24180 On ch=10 n=64 v=100
24195 On ch=10 n=64 v=0
24240 On ch=10 n=63 v=100
24255 On ch=10 n=63 v=0
24300 On ch=10 n=63 v=100
24315 On ch=10 n=63 v=0
24360 On ch=10 n=63 v=100
24375 On ch=10 n=63 v=0
24420 On ch=10 n=63 v=100
24435 On ch=10 n=63 v=0
24480 On ch=10 n=64 v=100
24495 On ch=10 n=64 v=0
24600 On ch=10 n=62 v=100
24615 On ch=10 n=62 v=0
24660 On ch=10 n=64 v=100
24675 On ch=10 n=64 v=0
24720 On ch=10 n=63 v=100
24735 On ch=10 n=63 v=0
24900 On ch=10 n=64 v=100
24915 On ch=10 n=64 v=0
25020 On ch=10 n=64 v=100
25035 On ch=10 n=64 v=0
25140 On ch=10 n=64 v=100
25155 On ch=10 n=64 v=0
25200 On ch=10 n=63 v=100
25215 On ch=10 n=63 v=0
25260 On ch=10 n=63 v=100
25275 On ch=10 n=63 v=0
25320 On ch=10 n=63 v=100
25335 On ch=10 n=63 v=0
25380 On ch=10 n=63 v=100
25395 On ch=10 n=63 v=0
25440 On ch=10 n=64 v=100
25455 On ch=10 n=64 v=0
25560 On ch=10 n=62 v=100
25575 On ch=10 n=62 v=0
25620 On ch=10 n=64 v=100
25635 On ch=10 n=64 v=0
25680 On ch=10 n=63 v=100
25695 On ch=10 n=63 v=0
25860 On ch=10 n=64 v=100
25875 On ch=10 n=64 v=0
25980 On ch=10 n=64 v=100
25995 On ch=10 n=64 v=0
26100 On ch=10 n=64 v=100
26115 On ch=10 n=64 v=0
26160 On ch=10 n=63 v=100
26175 On ch=10 n=63 v=0
26220 On ch=10 n=63 v=100
26235 On ch=10 n=63 v=0
26280 On ch=10 n=63 v=100
26295 On ch=10 n=63 v=0
26340 On ch=10 n=63 v=100
26355 On ch=10 n=63 v=0
26400 On ch=10 n=64 v=100
26415 On ch=10 n=64 v=0
26520 On ch=10 n=62 v=100
26535 On ch=10 n=62 v=0
26580 On ch=10 n=64 v=100
26595 On ch=10 n=64 v=0
26640 On ch=10 n=63 v=100
26655 On ch=10 n=63 v=0
26820 On ch=10 n=64 v=100
26835 On ch=10 n=64 v=0
26940 On ch=10 n=64 v=100
26955 On ch=10 n=64 v=0
27060 On ch=10 n=64 v=100
27075 On ch=10 n=64 v=0
27120 On ch=10 n=63 v=100
27135 On ch=10 n=63 v=0
27180 On ch=10 n=63 v=100
27195 On ch=10 n=63 v=0
27240 On ch=10 n=63 v=100
27255 On ch=10 n=63 v=0
27300 On ch=10 n=63 v=100
27315 On ch=10 n=63 v=0
27360 On ch=10 n=64 v=100
27375 On ch=10 n=64 v=0
27480 On ch=10 n=62 v=100
27495 On ch=10 n=62 v=0
27540 On ch=10 n=64 v=100
27555 On ch=10 n=64 v=0
27600 On ch=10 n=63 v=100
27615 On ch=10 n=63 v=0
27780 On ch=10 n=64 v=100
27795 On ch=10 n=64 v=0
27900 On ch=10 n=64 v=100
27915 On ch=10 n=64 v=0
27960 On ch=10 n=64 v=100
27975 On ch=10 n=64 v=0
28020 On ch=10 n=64 v=100
28035 On ch=10 n=64 v=0
28080 On ch=10 n=63 v=100
28095 On ch=10 n=63 v=0
28140 On ch=10 n=63 v=100
28155 On ch=10 n=63 v=0
28200 On ch=10 n=63 v=100
28215 On ch=10 n=63 v=0
28260 On ch=10 n=63 v=100
28275 On ch=10 n=63 v=0
28320 On ch=10 n=64 v=100
28335 On ch=10 n=64 v=0
28380 On ch=10 n=64 v=100
28395 On ch=10 n=64 v=0
28440 On ch=10 n=64 v=100
28455 On ch=10 n=64 v=0
28500 On ch=10 n=64 v=100
28515 On ch=10 n=64 v=0
28560 On ch=10 n=62 v=100
28575 On ch=10 n=62 v=0
28740 On ch=10 n=64 v=100
28755 On ch=10 n=64 v=0
28860 On ch=10 n=64 v=100
28875 On ch=10 n=64 v=0
28920 On ch=10 n=64 v=100
28935 On ch=10 n=64 v=0
28980 On ch=10 n=64 v=100
28995 On ch=10 n=64 v=0
29040 On ch=10 n=63 v=100
29055 On ch=10 n=63 v=0
29100 On ch=10 n=63 v=100
29115 On ch=10 n=63 v=0
29160 On ch=10 n=63 v=100
29175 On ch=10 n=63 v=0
29220 On ch=10 n=63 v=100
29235 On ch=10 n=63 v=0
29280 On ch=10 n=64 v=100
29295 On ch=10 n=64 v=0
29340 On ch=10 n=64 v=100
29355 On ch=10 n=64 v=0
29400 On ch=10 n=64 v=100
29415 On ch=10 n=64 v=0
29460 On ch=10 n=64 v=100
29475 On ch=10 n=64 v=0
29520 On ch=10 n=62 v=100
29535 On ch=10 n=62 v=0
29700 On ch=10 n=64 v=100
29715 On ch=10 n=64 v=0
29820 On ch=10 n=64 v=100
29835 On ch=10 n=64 v=0
29880 On ch=10 n=64 v=100
29895 On ch=10 n=64 v=0
29940 On ch=10 n=64 v=100
29955 On ch=10 n=64 v=0
30000 On ch=10 n=63 v=100
30015 On ch=10 n=63 v=0
30060 On ch=10 n=63 v=100
30075 On ch=10 n=63 v=0
30120 On ch=10 n=63 v=100
30135 On ch=10 n=63 v=0
30180 On ch=10 n=63 v=100
30195 On ch=10 n=63 v=0
30240 On ch=10 n=64 v=100
30255 On ch=10 n=64 v=0
30300 On ch=10 n=64 v=100
30315 On ch=10 n=64 v=0
30360 On ch=10 n=64 v=100
30375 On ch=10 n=64 v=0
30420 On ch=10 n=64 v=100
30435 On ch=10 n=64 v=0
30480 On ch=10 n=62 v=100
30495 On ch=10 n=62 v=0
30660 On ch=10 n=64 v=100
30675 On ch=10 n=64 v=0
30780 On ch=10 n=64 v=100
30795 On ch=10 n=64 v=0
30840 On ch=10 n=64 v=100
30855 On ch=10 n=64 v=0
30900 On ch=10 n=64 v=100
30915 On ch=10 n=64 v=0
30960 On ch=10 n=63 v=100
30975 On ch=10 n=63 v=0
31020 On ch=10 n=63 v=100
31035 On ch=10 n=63 v=0
31080 On ch=10 n=63 v=100
31095 On ch=10 n=63 v=0
31140 On ch=10 n=63 v=100
31155 On ch=10 n=63 v=0
31200 On ch=10 n=64 v=100
31215 On ch=10 n=64 v=0
31260 On ch=10 n=64 v=100
31275 On ch=10 n=64 v=0
31320 On ch=10 n=64 v=100
31335 On ch=10 n=64 v=0
31380 On ch=10 n=64 v=100
31395 On ch=10 n=64 v=0
31440 On ch=10 n=62 v=100
31455 On ch=10 n=62 v=0
31620 On ch=10 n=64 v=100
31635 On ch=10 n=64 v=0
31740 On ch=10 n=64 v=100
31755 On ch=10 n=64 v=0
31800 On ch=10 n=64 v=100
31815 On ch=10 n=64 v=0
31860 On ch=10 n=64 v=100
31875 On ch=10 n=64 v=0
31920 On ch=10 n=63 v=100
31935 On ch=10 n=63 v=0
31980 On ch=10 n=63 v=100
31995 On ch=10 n=63 v=0
32040 On ch=10 n=63 v=100
32055 On ch=10 n=63 v=0
32100 On ch=10 n=63 v=100
32115 On ch=10 n=63 v=0
32160 On ch=10 n=35 v=90
32160 On ch=10 n=44 v=100
32160 On ch=10 n=64 v=100
32175 On ch=10 n=64 v=0
32175 On ch=10 n=44 v=0
32175 On ch=10 n=35 v=0
32280 On ch=10 n=44 v=100
32280 On ch=10 n=63 v=100
32295 On ch=10 n=63 v=0
32295 On ch=10 n=44 v=0
32340 On ch=10 n=35 v=90
32340 On ch=10 n=64 v=100
32355 On ch=10 n=64 v=0
32355 On ch=10 n=35 v=0
32400 On ch=10 n=44 v=100
32400 On ch=10 n=40 v=127
32400 On ch=10 n=62 v=100
32415 On ch=10 n=62 v=0
32415 On ch=10 n=40 v=0
32415 On ch=10 n=44 v=0
32460 On ch=10 n=46 v=113
32475 On ch=10 n=46 v=0
32520 On ch=10 n=46 v=110
32535 On ch=10 n=46 v=0
32580 On ch=10 n=64 v=100
32580 On ch=10 n=44 v=108
32595 On ch=10 n=44 v=0
32595 On ch=10 n=64 v=0
32640 On ch=10 n=44 v=100
32640 On ch=10 n=35 v=90
32655 On ch=10 n=35 v=0
32655 On ch=10 n=44 v=0
32700 On ch=10 n=64 v=100
32715 On ch=10 n=64 v=0
32760 On ch=10 n=44 v=100
32760 On ch=10 n=64 v=100
32775 On ch=10 n=64 v=0
32775 On ch=10 n=44 v=0
32820 On ch=10 n=64 v=100
32820 On ch=10 n=35 v=90
32835 On ch=10 n=35 v=0
32835 On ch=10 n=64 v=0
32880 On ch=10 n=40 v=127
32880 On ch=10 n=63 v=100
32880 On ch=10 n=44 v=100
32895 On ch=10 n=44 v=0
32895 On ch=10 n=63 v=0
32895 On ch=10 n=40 v=0
32940 On ch=10 n=63 v=100
32940 On ch=10 n=46 v=113
32955 On ch=10 n=46 v=0
32955 On ch=10 n=63 v=0
33000 On ch=10 n=63 v=100
33000 On ch=10 n=46 v=110
33015 On ch=10 n=46 v=0
33015 On ch=10 n=63 v=0
33060 On ch=10 n=63 v=100
33060 On ch=10 n=44 v=108
33075 On ch=10 n=44 v=0
33075 On ch=10 n=63 v=0
33120 On ch=10 n=44 v=100
33120 On ch=10 n=64 v=100
33120 On ch=10 n=35 v=90
33135 On ch=10 n=35 v=0
33135 On ch=10 n=64 v=0
33135 On ch=10 n=44 v=0
33240 On ch=10 n=63 v=100
33240 On ch=10 n=44 v=100
33255 On ch=10 n=44 v=0
33255 On ch=10 n=63 v=0
33300 On ch=10 n=35 v=90
33300 On ch=10 n=64 v=100
33315 On ch=10 n=64 v=0
33315 On ch=10 n=35 v=0
33360 On ch=10 n=44 v=100
33360 On ch=10 n=40 v=127
33360 On ch=10 n=62 v=100
33375 On ch=10 n=62 v=0
33375 On ch=10 n=40 v=0
33375 On ch=10 n=44 v=0
33420 On ch=10 n=46 v=113
33435 On ch=10 n=46 v=0
33480 On ch=10 n=46 v=110
33495 On ch=10 n=46 v=0
33540 On ch=10 n=44 v=108
33540 On ch=10 n=64 v=100
33555 On ch=10 n=64 v=0
33555 On ch=10 n=44 v=0
33600 On ch=10 n=35 v=90
33600 On ch=10 n=44 v=100
33615 On ch=10 n=44 v=0
33615 On ch=10 n=35 v=0
33660 On ch=10 n=64 v=100
33675 On ch=10 n=64 v=0
33720 On ch=10 n=44 v=100
33720 On ch=10 n=64 v=100
33735 On ch=10 n=64 v=0
33735 On ch=10 n=44 v=0
33780 On ch=10 n=64 v=100
33780 On ch=10 n=35 v=90
33795 On ch=10 n=35 v=0
33795 On ch=10 n=64 v=0
33840 On ch=10 n=63 v=100
33840 On ch=10 n=44 v=100
33840 On ch=10 n=40 v=127
33855 On ch=10 n=40 v=0
33855 On ch=10 n=44 v=0
33855 On ch=10 n=63 v=0
33900 On ch=10 n=63 v=100
33900 On ch=10 n=46 v=113
33915 On ch=10 n=46 v=0
33915 On ch=10 n=63 v=0
33960 On ch=10 n=46 v=110
33960 On ch=10 n=63 v=100
33975 On ch=10 n=63 v=0
33975 On ch=10 n=46 v=0
34020 On ch=10 n=44 v=108
34020 On ch=10 n=63 v=100
34035 On ch=10 n=63 v=0
34035 On ch=10 n=44 v=0
34080 On ch=10 n=64 v=100
34080 On ch=10 n=44 v=100
34080 On ch=10 n=35 v=90
34095 On ch=10 n=35 v=0
34095 On ch=10 n=44 v=0
34095 On ch=10 n=64 v=0
34200 On ch=10 n=63 v=100
34200 On ch=10 n=44 v=100
34215 On ch=10 n=44 v=0
34215 On ch=10 n=63 v=0
34260 On ch=10 n=35 v=90
34260 On ch=10 n=64 v=100
34275 On ch=10 n=64 v=0
34275 On ch=10 n=35 v=0
34320 On ch=10 n=44 v=100
34320 On ch=10 n=62 v=100
34320 On ch=10 n=40 v=127
34335 On ch=10 n=40 v=0
34335 On ch=10 n=62 v=0
34335 On ch=10 n=44 v=0
34380 On ch=10 n=46 v=113
34395 On ch=10 n=46 v=0
34440 On ch=10 n=46 v=110
34455 On ch=10 n=46 v=0
34500 On ch=10 n=44 v=108
34500 On ch=10 n=64 v=100
34515 On ch=10 n=64 v=0
34515 On ch=10 n=44 v=0
34560 On ch=10 n=44 v=100
34560 On ch=10 n=35 v=90
34575 On ch=10 n=35 v=0
34575 On ch=10 n=44 v=0
34620 On ch=10 n=64 v=100
34635 On ch=10 n=64 v=0
34680 On ch=10 n=64 v=100
34680 On ch=10 n=44 v=100
34695 On ch=10 n=44 v=0
34695 On ch=10 n=64 v=0
34740 On ch=10 n=35 v=90
34740 On ch=10 n=64 v=100
34755 On ch=10 n=64 v=0
34755 On ch=10 n=35 v=0
34800 On ch=10 n=44 v=100
34800 On ch=10 n=40 v=127
34800 On ch=10 n=63 v=100
34815 On ch=10 n=63 v=0
34815 On ch=10 n=40 v=0
34815 On ch=10 n=44 v=0
34860 On ch=10 n=63 v=100
34860 On ch=10 n=46 v=113
34875 On ch=10 n=46 v=0
34875 On ch=10 n=63 v=0
34920 On ch=10 n=46 v=110
34920 On ch=10 n=63 v=100
34935 On ch=10 n=63 v=0
34935 On ch=10 n=46 v=0
34980 On ch=10 n=63 v=100
34980 On ch=10 n=44 v=108
34995 On ch=10 n=44 v=0
34995 On ch=10 n=63 v=0
35040 On ch=10 n=44 v=100
35040 On ch=10 n=35 v=90
35040 On ch=10 n=64 v=100
35055 On ch=10 n=64 v=0
35055 On ch=10 n=35 v=0
35055 On ch=10 n=44 v=0
35160 On ch=10 n=63 v=100
35160 On ch=10 n=44 v=100
35175 On ch=10 n=44 v=0
35175 On ch=10 n=63 v=0
35220 On ch=10 n=64 v=100
35220 On ch=10 n=35 v=90
35235 On ch=10 n=35 v=0
35235 On ch=10 n=64 v=0
35280 On ch=10 n=62 v=100
35280 On ch=10 n=40 v=127
35280 On ch=10 n=44 v=100
35295 On ch=10 n=44 v=0
35295 On ch=10 n=40 v=0
35295 On ch=10 n=62 v=0
35340 On ch=10 n=46 v=113
35355 On ch=10 n=46 v=0
35400 On ch=10 n=46 v=110
35415 On ch=10 n=46 v=0
35460 On ch=10 n=64 v=100
35460 On ch=10 n=44 v=108
35475 On ch=10 n=44 v=0
35475 On ch=10 n=64 v=0
35520 On ch=10 n=35 v=90
35520 On ch=10 n=44 v=100
35535 On ch=10 n=44 v=0
35535 On ch=10 n=35 v=0
35580 On ch=10 n=64 v=100
35595 On ch=10 n=64 v=0
35640 On ch=10 n=44 v=100
35640 On ch=10 n=64 v=100
35655 On ch=10 n=64 v=0
35655 On ch=10 n=44 v=0
35700 On ch=10 n=64 v=100
35700 On ch=10 n=35 v=90
35715 On ch=10 n=35 v=0
35715 On ch=10 n=64 v=0
35760 On ch=10 n=44 v=100
35760 On ch=10 n=63 v=100
35760 On ch=10 n=40 v=127
35775 On ch=10 n=40 v=0
35775 On ch=10 n=63 v=0
35775 On ch=10 n=44 v=0
35820 On ch=10 n=63 v=100
35820 On ch=10 n=46 v=113
35835 On ch=10 n=46 v=0
35835 On ch=10 n=63 v=0
35880 On ch=10 n=46 v=110
35880 On ch=10 n=63 v=100
35895 On ch=10 n=63 v=0
35895 On ch=10 n=46 v=0
35940 On ch=10 n=63 v=100
35940 On ch=10 n=44 v=108
35955 On ch=10 n=44 v=0
35955 On ch=10 n=63 v=0
36000 On ch=10 n=64 v=100
36000 On ch=10 n=44 v=100
36000 On ch=10 n=35 v=90
36015 On ch=10 n=35 v=0
36015 On ch=10 n=44 v=0
36015 On ch=10 n=64 v=0
36120 On ch=10 n=44 v=100
36120 On ch=10 n=63 v=100
36135 On ch=10 n=63 v=0
36135 On ch=10 n=44 v=0
36180 On ch=10 n=64 v=100
36180 On ch=10 n=35 v=90
36195 On ch=10 n=35 v=0
36195 On ch=10 n=64 v=0
36240 On ch=10 n=44 v=100
36240 On ch=10 n=62 v=100
36240 On ch=10 n=40 v=127
36255 On ch=10 n=40 v=0
36255 On ch=10 n=62 v=0
36255 On ch=10 n=44 v=0
36300 On ch=10 n=46 v=113
36315 On ch=10 n=46 v=0
36360 On ch=10 n=46 v=110
36375 On ch=10 n=46 v=0
36420 On ch=10 n=44 v=108
36420 On ch=10 n=64 v=100
36435 On ch=10 n=64 v=0
36435 On ch=10 n=44 v=0
36480 On ch=10 n=35 v=90
36480 On ch=10 n=44 v=100
36495 On ch=10 n=44 v=0
36495 On ch=10 n=35 v=0
36540 On ch=10 n=64 v=100
36555 On ch=10 n=64 v=0
36600 On ch=10 n=64 v=100
36600 On ch=10 n=44 v=100
36615 On ch=10 n=44 v=0
36615 On ch=10 n=64 v=0
36660 On ch=10 n=35 v=90
36660 On ch=10 n=64 v=100
36675 On ch=10 n=64 v=0
36675 On ch=10 n=35 v=0
36720 On ch=10 n=40 v=127
36720 On ch=10 n=63 v=100
36720 On ch=10 n=44 v=100
36735 On ch=10 n=44 v=0
36735 On ch=10 n=63 v=0
36735 On ch=10 n=40 v=0
36780 On ch=10 n=63 v=100
36780 On ch=10 n=46 v=113
36795 On ch=10 n=46 v=0
36795 On ch=10 n=63 v=0
36840 On ch=10 n=46 v=110
36840 On ch=10 n=63 v=100
36855 On ch=10 n=63 v=0
36855 On ch=10 n=46 v=0
36900 On ch=10 n=44 v=108
36900 On ch=10 n=63 v=100
36915 On ch=10 n=63 v=0
36915 On ch=10 n=44 v=0
36960 On ch=10 n=44 v=100
36960 On ch=10 n=35 v=90
36960 On ch=10 n=64 v=100
36975 On ch=10 n=64 v=0
36975 On ch=10 n=35 v=0
36975 On ch=10 n=44 v=0
37080 On ch=10 n=63 v=100
37080 On ch=10 n=44 v=100
37095 On ch=10 n=44 v=0
37095 On ch=10 n=63 v=0
37140 On ch=10 n=64 v=100
37140 On ch=10 n=35 v=90
37155 On ch=10 n=35 v=0
37155 On ch=10 n=64 v=0
37200 On ch=10 n=40 v=127
37200 On ch=10 n=62 v=100
37200 On ch=10 n=44 v=100
37215 On ch=10 n=44 v=0
37215 On ch=10 n=62 v=0
37215 On ch=10 n=40 v=0
37260 On ch=10 n=46 v=113
37275 On ch=10 n=46 v=0
37320 On ch=10 n=46 v=110
37335 On ch=10 n=46 v=0
37380 On ch=10 n=44 v=108
37380 On ch=10 n=64 v=100
37395 On ch=10 n=64 v=0
37395 On ch=10 n=44 v=0
37440 On ch=10 n=44 v=100
37440 On ch=10 n=35 v=90
37455 On ch=10 n=35 v=0
37455 On ch=10 n=44 v=0
37500 On ch=10 n=64 v=100
37515 On ch=10 n=64 v=0
37560 On ch=10 n=64 v=100
37560 On ch=10 n=44 v=100
37575 On ch=10 n=44 v=0
37575 On ch=10 n=64 v=0
37620 On ch=10 n=35 v=90
37620 On ch=10 n=64 v=100
37635 On ch=10 n=64 v=0
37635 On ch=10 n=35 v=0
37680 On ch=10 n=63 v=100
37680 On ch=10 n=44 v=100
37680 On ch=10 n=40 v=127
37695 On ch=10 n=40 v=0
37695 On ch=10 n=44 v=0
37695 On ch=10 n=63 v=0
37740 On ch=10 n=46 v=113
37740 On ch=10 n=63 v=100
37755 On ch=10 n=63 v=0
37755 On ch=10 n=46 v=0
37800 On ch=10 n=63 v=100
37800 On ch=10 n=46 v=110
37815 On ch=10 n=46 v=0
37815 On ch=10 n=63 v=0
37860 On ch=10 n=44 v=108
37860 On ch=10 n=63 v=100
37875 On ch=10 n=63 v=0
37875 On ch=10 n=44 v=0
37920 On ch=10 n=64 v=100
37920 On ch=10 n=35 v=90
37920 On ch=10 n=44 v=100
37935 On ch=10 n=44 v=0
37935 On ch=10 n=35 v=0
37935 On ch=10 n=64 v=0
38040 On ch=10 n=63 v=100
38040 On ch=10 n=44 v=100
38055 On ch=10 n=44 v=0
38055 On ch=10 n=63 v=0
38100 On ch=10 n=35 v=90
38100 On ch=10 n=64 v=100
38115 On ch=10 n=64 v=0
38115 On ch=10 n=35 v=0
38160 On ch=10 n=44 v=100
38160 On ch=10 n=40 v=127
38160 On ch=10 n=62 v=100
38175 On ch=10 n=62 v=0
38175 On ch=10 n=40 v=0
38175 On ch=10 n=44 v=0
38220 On ch=10 n=46 v=113
38235 On ch=10 n=46 v=0
38280 On ch=10 n=46 v=110
38295 On ch=10 n=46 v=0
38340 On ch=10 n=44 v=108
38340 On ch=10 n=64 v=100
38355 On ch=10 n=64 v=0
38355 On ch=10 n=44 v=0
38400 On ch=10 n=35 v=90
38400 On ch=10 n=44 v=100
38415 On ch=10 n=44 v=0
38415 On ch=10 n=35 v=0
38460 On ch=10 n=64 v=100
38475 On ch=10 n=64 v=0
38520 On ch=10 n=64 v=100
38520 On ch=10 n=44 v=100
38535 On ch=10 n=44 v=0
38535 On ch=10 n=64 v=0
38580 On ch=10 n=64 v=100
38580 On ch=10 n=35 v=90
38595 On ch=10 n=35 v=0
38595 On ch=10 n=64 v=0
38640 On ch=10 n=44 v=100
38640 On ch=10 n=40 v=127
38640 On ch=10 n=63 v=100
38655 On ch=10 n=63 v=0
38655 On ch=10 n=40 v=0
38655 On ch=10 n=44 v=0
38700 On ch=10 n=46 v=113
38700 On ch=10 n=63 v=100
38715 On ch=10 n=63 v=0
38715 On ch=10 n=46 v=0
38760 On ch=10 n=63 v=100
38760 On ch=10 n=46 v=110
38775 On ch=10 n=46 v=0
38775 On ch=10 n=63 v=0
38820 On ch=10 n=44 v=108
38820 On ch=10 n=63 v=100
38835 On ch=10 n=63 v=0
38835 On ch=10 n=44 v=0
38880 On ch=10 n=64 v=100
38880 On ch=10 n=44 v=100
38880 On ch=10 n=35 v=90
38895 On ch=10 n=35 v=0
38895 On ch=10 n=44 v=0
38895 On ch=10 n=64 v=0
39000 On ch=10 n=44 v=100
39000 On ch=10 n=63 v=100
39015 On ch=10 n=63 v=0
39015 On ch=10 n=44 v=0
39060 On ch=10 n=64 v=100
39060 On ch=10 n=35 v=90
39075 On ch=10 n=35 v=0
39075 On ch=10 n=64 v=0
39120 On ch=10 n=40 v=127
39120 On ch=10 n=62 v=100
39120 On ch=10 n=44 v=100
39135 On ch=10 n=44 v=0
39135 On ch=10 n=62 v=0
39135 On ch=10 n=40 v=0
39180 On ch=10 n=46 v=113
39195 On ch=10 n=46 v=0
39240 On ch=10 n=46 v=110
39255 On ch=10 n=46 v=0
39300 On ch=10 n=64 v=100
39300 On ch=10 n=44 v=108
39315 On ch=10 n=44 v=0
39315 On ch=10 n=64 v=0
39360 On ch=10 n=35 v=90
39360 On ch=10 n=44 v=100
39375 On ch=10 n=44 v=0
39375 On ch=10 n=35 v=0
39420 On ch=10 n=64 v=100
39435 On ch=10 n=64 v=0
39480 On ch=10 n=44 v=100
39480 On ch=10 n=64 v=100
39495 On ch=10 n=64 v=0
39495 On ch=10 n=44 v=0
39540 On ch=10 n=35 v=90
39540 On ch=10 n=64 v=100
39555 On ch=10 n=64 v=0
39555 On ch=10 n=35 v=0
39600 On ch=10 n=63 v=100
39600 On ch=10 n=40 v=127
39600 On ch=10 n=44 v=100
39615 On ch=10 n=44 v=0
39615 On ch=10 n=40 v=0
39615 On ch=10 n=63 v=0
39660 On ch=10 n=46 v=113
39660 On ch=10 n=63 v=100
39675 On ch=10 n=63 v=0
39675 On ch=10 n=46 v=0
39720 On ch=10 n=63 v=100
39720 On ch=10 n=46 v=110
39735 On ch=10 n=46 v=0
39735 On ch=10 n=63 v=0
39780 On ch=10 n=44 v=108
39780 On ch=10 n=63 v=100
39795 On ch=10 n=63 v=0
39795 On ch=10 n=44 v=0
39840 On ch=10 n=64 v=100
39840 On ch=10 n=44 v=100
39840 On ch=10 n=35 v=90
39855 On ch=10 n=35 v=0
39855 On ch=10 n=44 v=0
39855 On ch=10 n=64 v=0
39960 On ch=10 n=44 v=100
39960 On ch=10 n=63 v=100
39975 On ch=10 n=63 v=0
39975 On ch=10 n=44 v=0
40020 On ch=10 n=64 v=100
40020 On ch=10 n=35 v=90
40035 On ch=10 n=35 v=0
40035 On ch=10 n=64 v=0
40080 On ch=10 n=44 v=100
40080 On ch=10 n=40 v=127
40080 On ch=10 n=62 v=100
40095 On ch=10 n=62 v=0
40095 On ch=10 n=40 v=0
40095 On ch=10 n=44 v=0
40140 On ch=10 n=46 v=113
40155 On ch=10 n=46 v=0
40200 On ch=10 n=46 v=110
40215 On ch=10 n=46 v=0
40260 On ch=10 n=44 v=108
40260 On ch=10 n=64 v=100
40275 On ch=10 n=64 v=0
40275 On ch=10 n=44 v=0
40320 On ch=10 n=35 v=90
40320 On ch=10 n=44 v=100
40335 On ch=10 n=44 v=0
40335 On ch=10 n=35 v=0
40380 On ch=10 n=64 v=100
40395 On ch=10 n=64 v=0
40440 On ch=10 n=44 v=100
40440 On ch=10 n=64 v=100
40455 On ch=10 n=64 v=0
40455 On ch=10 n=44 v=0
40500 On ch=10 n=35 v=90
40500 On ch=10 n=64 v=100
40515 On ch=10 n=64 v=0
40515 On ch=10 n=35 v=0
40560 On ch=10 n=63 v=100
40560 On ch=10 n=44 v=100
40560 On ch=10 n=40 v=127
40575 On ch=10 n=40 v=0
40575 On ch=10 n=44 v=0
40575 On ch=10 n=63 v=0
40620 On ch=10 n=46 v=113
40620 On ch=10 n=63 v=100
40635 On ch=10 n=63 v=0
40635 On ch=10 n=46 v=0
40680 On ch=10 n=46 v=110
40680 On ch=10 n=63 v=100
40695 On ch=10 n=63 v=0
40695 On ch=10 n=46 v=0
40740 On ch=10 n=44 v=108
40740 On ch=10 n=63 v=100
40755 On ch=10 n=63 v=0
40755 On ch=10 n=44 v=0
40800 On ch=10 n=44 v=100
40800 On ch=10 n=35 v=90
40800 On ch=10 n=64 v=100
40815 On ch=10 n=64 v=0
40815 On ch=10 n=35 v=0
40815 On ch=10 n=44 v=0
40920 On ch=10 n=44 v=100
40920 On ch=10 n=63 v=100
40935 On ch=10 n=63 v=0
40935 On ch=10 n=44 v=0
40980 On ch=10 n=64 v=100
40980 On ch=10 n=35 v=90
40995 On ch=10 n=35 v=0
40995 On ch=10 n=64 v=0
41040 On ch=10 n=40 v=127
41040 On ch=10 n=44 v=100
41040 On ch=10 n=62 v=100
41055 On ch=10 n=62 v=0
41055 On ch=10 n=44 v=0
41055 On ch=10 n=40 v=0
41100 On ch=10 n=46 v=113
41115 On ch=10 n=46 v=0
41160 On ch=10 n=46 v=110
41175 On ch=10 n=46 v=0
41220 On ch=10 n=44 v=108
41220 On ch=10 n=64 v=100
41235 On ch=10 n=64 v=0
41235 On ch=10 n=44 v=0
41280 On ch=10 n=35 v=90
41280 On ch=10 n=44 v=100
41295 On ch=10 n=44 v=0
41295 On ch=10 n=35 v=0
41340 On ch=10 n=64 v=100
41355 On ch=10 n=64 v=0
41400 On ch=10 n=44 v=100
41400 On ch=10 n=64 v=100
41415 On ch=10 n=64 v=0
41415 On ch=10 n=44 v=0
41460 On ch=10 n=64 v=100
41460 On ch=10 n=35 v=90
41475 On ch=10 n=35 v=0
41475 On ch=10 n=64 v=0
41520 On ch=10 n=40 v=127
41520 On ch=10 n=44 v=100
41520 On ch=10 n=63 v=100
41535 On ch=10 n=63 v=0
41535 On ch=10 n=44 v=0
41535 On ch=10 n=40 v=0
41580 On ch=10 n=63 v=100
41580 On ch=10 n=46 v=113
41595 On ch=10 n=46 v=0
41595 On ch=10 n=63 v=0
41640 On ch=10 n=63 v=100
41640 On ch=10 n=46 v=110
41655 On ch=10 n=46 v=0
41655 On ch=10 n=63 v=0
41700 On ch=10 n=44 v=108
41700 On ch=10 n=63 v=100
41715 On ch=10 n=63 v=0
41715 On ch=10 n=44 v=0
41760 On ch=10 n=64 v=100
41760 On ch=10 n=44 v=100
41760 On ch=10 n=35 v=90
41775 On ch=10 n=35 v=0
41775 On ch=10 n=44 v=0
41775 On ch=10 n=64 v=0
41880 On ch=10 n=63 v=100
41880 On ch=10 n=44 v=100
41895 On ch=10 n=44 v=0
41895 On ch=10 n=63 v=0
41940 On ch=10 n=64 v=100
41940 On ch=10 n=35 v=90
41955 On ch=10 n=35 v=0
41955 On ch=10 n=64 v=0
42000 On ch=10 n=62 v=100
42000 On ch=10 n=44 v=100
42000 On ch=10 n=40 v=127
42015 On ch=10 n=40 v=0
42015 On ch=10 n=44 v=0
42015 On ch=10 n=62 v=0
42060 On ch=10 n=46 v=113
42075 On ch=10 n=46 v=0
42120 On ch=10 n=46 v=110
42135 On ch=10 n=46 v=0
42180 On ch=10 n=64 v=100
42180 On ch=10 n=44 v=108
42195 On ch=10 n=44 v=0
42195 On ch=10 n=64 v=0
42240 On ch=10 n=35 v=90
42240 On ch=10 n=44 v=100
42255 On ch=10 n=44 v=0
42255 On ch=10 n=35 v=0
42300 On ch=10 n=64 v=100
42315 On ch=10 n=64 v=0
42360 On ch=10 n=64 v=100
42360 On ch=10 n=44 v=100
42375 On ch=10 n=44 v=0
42375 On ch=10 n=64 v=0
42420 On ch=10 n=64 v=100
42420 On ch=10 n=35 v=90
42435 On ch=10 n=35 v=0
42435 On ch=10 n=64 v=0
42480 On ch=10 n=63 v=100
42480 On ch=10 n=44 v=100
42480 On ch=10 n=40 v=127
42495 On ch=10 n=40 v=0
42495 On ch=10 n=44 v=0
42495 On ch=10 n=63 v=0
42540 On ch=10 n=63 v=100
42540 On ch=10 n=46 v=113
42555 On ch=10 n=46 v=0
42555 On ch=10 n=63 v=0
42600 On ch=10 n=46 v=110
42600 On ch=10 n=63 v=100
42615 On ch=10 n=63 v=0
42615 On ch=10 n=46 v=0
42660 On ch=10 n=63 v=100
42660 On ch=10 n=44 v=108
42675 On ch=10 n=44 v=0
42675 On ch=10 n=63 v=0
42720 On ch=10 n=44 v=100
42720 On ch=10 n=35 v=90
42720 On ch=10 n=64 v=100
42735 On ch=10 n=64 v=0
42735 On ch=10 n=35 v=0
42735 On ch=10 n=44 v=0
42840 On ch=10 n=44 v=100
42840 On ch=10 n=63 v=100
42855 On ch=10 n=63 v=0
42855 On ch=10 n=44 v=0
42900 On ch=10 n=35 v=90
42900 On ch=10 n=64 v=100
42915 On ch=10 n=64 v=0
42915 On ch=10 n=35 v=0
42960 On ch=10 n=40 v=127
42960 On ch=10 n=62 v=100
42960 On ch=10 n=44 v=100
42975 On ch=10 n=44 v=0
42975 On ch=10 n=62 v=0
42975 On ch=10 n=40 v=0
43020 On ch=10 n=46 v=113
43035 On ch=10 n=46 v=0
43080 On ch=10 n=46 v=110
43095 On ch=10 n=46 v=0
43140 On ch=10 n=64 v=100
43140 On ch=10 n=44 v=108
43155 On ch=10 n=44 v=0
43155 On ch=10 n=64 v=0
43200 On ch=10 n=44 v=100
43200 On ch=10 n=35 v=90
43215 On ch=10 n=35 v=0
43215 On ch=10 n=44 v=0
43260 On ch=10 n=64 v=100
43275 On ch=10 n=64 v=0
43320 On ch=10 n=44 v=100
43320 On ch=10 n=64 v=100
43335 On ch=10 n=64 v=0
43335 On ch=10 n=44 v=0
43380 On ch=10 n=64 v=100
43380 On ch=10 n=35 v=90
43395 On ch=10 n=35 v=0
43395 On ch=10 n=64 v=0
43440 On ch=10 n=63 v=100
43440 On ch=10 n=44 v=100
43440 On ch=10 n=40 v=127
43455 On ch=10 n=40 v=0
43455 On ch=10 n=44 v=0
43455 On ch=10 n=63 v=0
43500 On ch=10 n=63 v=100
43500 On ch=10 n=46 v=113
43515 On ch=10 n=46 v=0
43515 On ch=10 n=63 v=0
43560 On ch=10 n=63 v=100
43560 On ch=10 n=46 v=110
43575 On ch=10 n=46 v=0
43575 On ch=10 n=63 v=0
43620 On ch=10 n=63 v=100
43620 On ch=10 n=44 v=108
43635 On ch=10 n=44 v=0
43635 On ch=10 n=63 v=0
43680 On ch=10 n=64 v=100
43680 On ch=10 n=44 v=100
43680 On ch=10 n=35 v=90
43695 On ch=10 n=35 v=0
43695 On ch=10 n=44 v=0
43695 On ch=10 n=64 v=0
43800 On ch=10 n=63 v=100
43800 On ch=10 n=44 v=100
43815 On ch=10 n=44 v=0
43815 On ch=10 n=63 v=0
43860 On ch=10 n=64 v=100
43860 On ch=10 n=35 v=90
43875 On ch=10 n=35 v=0
43875 On ch=10 n=64 v=0
43920 On ch=10 n=62 v=100
43920 On ch=10 n=44 v=100
43920 On ch=10 n=40 v=127
43935 On ch=10 n=40 v=0
43935 On ch=10 n=44 v=0
43935 On ch=10 n=62 v=0
43980 On ch=10 n=46 v=113
43995 On ch=10 n=46 v=0
44040 On ch=10 n=46 v=110
44055 On ch=10 n=46 v=0
44100 On ch=10 n=64 v=100
44100 On ch=10 n=44 v=108
44115 On ch=10 n=44 v=0
44115 On ch=10 n=64 v=0
44160 On ch=10 n=35 v=90
44160 On ch=10 n=44 v=100
44175 On ch=10 n=44 v=0
44175 On ch=10 n=35 v=0
44220 On ch=10 n=64 v=100
44235 On ch=10 n=64 v=0
44280 On ch=10 n=64 v=100
44280 On ch=10 n=44 v=100
44295 On ch=10 n=44 v=0
44295 On ch=10 n=64 v=0
44340 On ch=10 n=64 v=100
44340 On ch=10 n=35 v=90
44355 On ch=10 n=35 v=0
44355 On ch=10 n=64 v=0
44400 On ch=10 n=63 v=100
44400 On ch=10 n=44 v=100
44400 On ch=10 n=40 v=127
44415 On ch=10 n=40 v=0
44415 On ch=10 n=44 v=0
44415 On ch=10 n=63 v=0
44460 On ch=10 n=63 v=100
44460 On ch=10 n=46 v=113
44475 On ch=10 n=46 v=0
44475 On ch=10 n=63 v=0
44520 On ch=10 n=46 v=110
44520 On ch=10 n=63 v=100
44535 On ch=10 n=63 v=0
44535 On ch=10 n=46 v=0
44580 On ch=10 n=63 v=100
44580 On ch=10 n=44 v=108
44595 On ch=10 n=44 v=0
44595 On ch=10 n=63 v=0
44640 On ch=10 n=44 v=100
44640 On ch=10 n=35 v=90
44640 On ch=10 n=64 v=100
44655 On ch=10 n=64 v=0
44655 On ch=10 n=35 v=0
44655 On ch=10 n=44 v=0
44760 On ch=10 n=44 v=100
44760 On ch=10 n=63 v=100
44775 On ch=10 n=63 v=0
44775 On ch=10 n=44 v=0
44820 On ch=10 n=35 v=90
44820 On ch=10 n=64 v=100
44835 On ch=10 n=64 v=0
44835 On ch=10 n=35 v=0
44880 On ch=10 n=40 v=127
44880 On ch=10 n=62 v=100
44880 On ch=10 n=44 v=100
44895 On ch=10 n=44 v=0
44895 On ch=10 n=62 v=0
44895 On ch=10 n=40 v=0
44940 On ch=10 n=46 v=113
44955 On ch=10 n=46 v=0
45000 On ch=10 n=46 v=110
45015 On ch=10 n=46 v=0
45060 On ch=10 n=64 v=100
45060 On ch=10 n=44 v=108
45075 On ch=10 n=44 v=0
45075 On ch=10 n=64 v=0
45120 On ch=10 n=44 v=100
45120 On ch=10 n=35 v=90
45135 On ch=10 n=35 v=0
45135 On ch=10 n=44 v=0
45180 On ch=10 n=64 v=100
45195 On ch=10 n=64 v=0
45240 On ch=10 n=44 v=100
45240 On ch=10 n=64 v=100
45255 On ch=10 n=64 v=0
45255 On ch=10 n=44 v=0
45300 On ch=10 n=64 v=100
45300 On ch=10 n=35 v=90
45315 On ch=10 n=35 v=0
45315 On ch=10 n=64 v=0
45360 On ch=10 n=63 v=100
45360 On ch=10 n=44 v=100
45360 On ch=10 n=40 v=127
45375 On ch=10 n=40 v=0
45375 On ch=10 n=44 v=0
45375 On ch=10 n=63 v=0
45420 On ch=10 n=63 v=100
45420 On ch=10 n=46 v=113
45435 On ch=10 n=46 v=0
45435 On ch=10 n=63 v=0
45480 On ch=10 n=63 v=100
45480 On ch=10 n=46 v=110
45495 On ch=10 n=46 v=0
45495 On ch=10 n=63 v=0
45540 On ch=10 n=63 v=100
45540 On ch=10 n=44 v=108
45555 On ch=10 n=44 v=0
45555 On ch=10 n=63 v=0
45600 On ch=10 n=46 v=127
45615 On ch=10 n=46 v=0
46860 On ch=10 n=64 v=100
46860 On ch=10 n=44 v=100
46860 On ch=10 n=35 v=90
46875 On ch=10 n=35 v=0
46875 On ch=10 n=44 v=0
46875 On ch=10 n=64 v=0
46980 On ch=10 n=63 v=100
46980 On ch=10 n=44 v=100
46995 On ch=10 n=44 v=0
46995 On ch=10 n=63 v=0
47040 On ch=10 n=64 v=100
47040 On ch=10 n=35 v=90
47055 On ch=10 n=35 v=0
47055 On ch=10 n=64 v=0
47100 On ch=10 n=62 v=100
47100 On ch=10 n=44 v=100
47100 On ch=10 n=40 v=127
47115 On ch=10 n=40 v=0
47115 On ch=10 n=44 v=0
47115 On ch=10 n=62 v=0
47160 On ch=10 n=46 v=113
47175 On ch=10 n=46 v=0
47220 On ch=10 n=46 v=110
47235 On ch=10 n=46 v=0
47280 On ch=10 n=64 v=100
47280 On ch=10 n=44 v=108
47295 On ch=10 n=44 v=0
47295 On ch=10 n=64 v=0
47340 On ch=10 n=35 v=90
47340 On ch=10 n=44 v=100
47355 On ch=10 n=44 v=0
47355 On ch=10 n=35 v=0
47400 On ch=10 n=64 v=100
47415 On ch=10 n=64 v=0
47460 On ch=10 n=64 v=100
47460 On ch=10 n=44 v=100
47475 On ch=10 n=44 v=0
47475 On ch=10 n=64 v=0
47520 On ch=10 n=64 v=100
47520 On ch=10 n=35 v=90
47535 On ch=10 n=35 v=0
47535 On ch=10 n=64 v=0
47580 On ch=10 n=63 v=100
47580 On ch=10 n=44 v=100
47580 On ch=10 n=40 v=127
47595 On ch=10 n=40 v=0
47595 On ch=10 n=44 v=0
47595 On ch=10 n=63 v=0
47640 On ch=10 n=63 v=100
47640 On ch=10 n=46 v=113
47655 On ch=10 n=46 v=0
47655 On ch=10 n=63 v=0
47700 On ch=10 n=46 v=110
47700 On ch=10 n=63 v=100
47715 On ch=10 n=63 v=0
47715 On ch=10 n=46 v=0
47760 On ch=10 n=63 v=100
47760 On ch=10 n=44 v=108
47775 On ch=10 n=44 v=0
47775 On ch=10 n=63 v=0
47820 On ch=10 n=44 v=100
47820 On ch=10 n=35 v=90
47820 On ch=10 n=64 v=100
47835 On ch=10 n=64 v=0
47835 On ch=10 n=35 v=0
47835 On ch=10 n=44 v=0
47940 On ch=10 n=44 v=100
47940 On ch=10 n=63 v=100
47955 On ch=10 n=63 v=0
47955 On ch=10 n=44 v=0
48000 On ch=10 n=35 v=90
48000 On ch=10 n=64 v=100
48015 On ch=10 n=64 v=0
48015 On ch=10 n=35 v=0
48060 On ch=10 n=40 v=127
48060 On ch=10 n=62 v=100
48060 On ch=10 n=44 v=100
48075 On ch=10 n=44 v=0
48075 On ch=10 n=62 v=0
48075 On ch=10 n=40 v=0
48120 On ch=10 n=46 v=113
48135 On ch=10 n=46 v=0
48180 On ch=10 n=46 v=110
48195 On ch=10 n=46 v=0
48240 On ch=10 n=64 v=100
48240 On ch=10 n=44 v=108
48255 On ch=10 n=44 v=0
48255 On ch=10 n=64 v=0
48300 On ch=10 n=44 v=100
48300 On ch=10 n=35 v=90
48315 On ch=10 n=35 v=0
48315 On ch=10 n=44 v=0
48360 On ch=10 n=64 v=100
48375 On ch=10 n=64 v=0
48420 On ch=10 n=44 v=100
48420 On ch=10 n=64 v=100
48435 On ch=10 n=64 v=0
48435 On ch=10 n=44 v=0
48480 On ch=10 n=64 v=100
48480 On ch=10 n=35 v=90
48495 On ch=10 n=35 v=0
48495 On ch=10 n=64 v=0
48540 On ch=10 n=63 v=100
48540 On ch=10 n=44 v=100
48540 On ch=10 n=40 v=127
48555 On ch=10 n=40 v=0
48555 On ch=10 n=44 v=0
48555 On ch=10 n=63 v=0
48600 On ch=10 n=63 v=100
48600 On ch=10 n=46 v=113
48615 On ch=10 n=46 v=0
48615 On ch=10 n=63 v=0
48660 On ch=10 n=63 v=100
48660 On ch=10 n=46 v=110
48675 On ch=10 n=46 v=0
48675 On ch=10 n=63 v=0
48720 On ch=10 n=63 v=100
48720 On ch=10 n=44 v=108
48735 On ch=10 n=44 v=0
48735 On ch=10 n=63 v=0
48780 On ch=10 n=64 v=100
48780 On ch=10 n=44 v=100
48780 On ch=10 n=35 v=90
48795 On ch=10 n=35 v=0
48795 On ch=10 n=44 v=0
48795 On ch=10 n=64 v=0
48900 On ch=10 n=63 v=100
48900 On ch=10 n=44 v=100
48915 On ch=10 n=44 v=0
48915 On ch=10 n=63 v=0
48960 On ch=10 n=64 v=100
48960 On ch=10 n=35 v=90
48975 On ch=10 n=35 v=0
48975 On ch=10 n=64 v=0
49020 On ch=10 n=62 v=100
49020 On ch=10 n=44 v=100
49020 On ch=10 n=40 v=127
49035 On ch=10 n=40 v=0
49035 On ch=10 n=44 v=0
49035 On ch=10 n=62 v=0
49080 On ch=10 n=46 v=113
49095 On ch=10 n=46 v=0
49140 On ch=10 n=46 v=110
49155 On ch=10 n=46 v=0
49200 On ch=10 n=64 v=100
49200 On ch=10 n=44 v=108
49215 On ch=10 n=44 v=0
49215 On ch=10 n=64 v=0
49260 On ch=10 n=35 v=90
49260 On ch=10 n=44 v=100
49275 On ch=10 n=44 v=0
49275 On ch=10 n=35 v=0
49320 On ch=10 n=64 v=100
49335 On ch=10 n=64 v=0
49380 On ch=10 n=64 v=100
49380 On ch=10 n=44 v=100
49395 On ch=10 n=44 v=0
49395 On ch=10 n=64 v=0
49440 On ch=10 n=64 v=100
49440 On ch=10 n=35 v=90
49455 On ch=10 n=35 v=0
49455 On ch=10 n=64 v=0
49500 On ch=10 n=63 v=100
49500 On ch=10 n=44 v=100
49500 On ch=10 n=40 v=127
49515 On ch=10 n=40 v=0
49515 On ch=10 n=44 v=0
49515 On ch=10 n=63 v=0
49560 On ch=10 n=63 v=100
49560 On ch=10 n=46 v=113
49575 On ch=10 n=46 v=0
49575 On ch=10 n=63 v=0
49620 On ch=10 n=46 v=110
49620 On ch=10 n=63 v=100
49635 On ch=10 n=63 v=0
49635 On ch=10 n=46 v=0
49680 On ch=10 n=63 v=100
49680 On ch=10 n=44 v=108
49695 On ch=10 n=44 v=0
49695 On ch=10 n=63 v=0
49740 On ch=10 n=44 v=100
49740 On ch=10 n=35 v=90
49740 On ch=10 n=64 v=100
49755 On ch=10 n=64 v=0
49755 On ch=10 n=35 v=0
49755 On ch=10 n=44 v=0
49860 On ch=10 n=44 v=100
49860 On ch=10 n=63 v=100
49875 On ch=10 n=63 v=0
49875 On ch=10 n=44 v=0
49920 On ch=10 n=35 v=90
49920 On ch=10 n=64 v=100
49935 On ch=10 n=64 v=0
49935 On ch=10 n=35 v=0
49980 On ch=10 n=40 v=127
49980 On ch=10 n=62 v=100
49980 On ch=10 n=44 v=100
49995 On ch=10 n=44 v=0
49995 On ch=10 n=62 v=0
49995 On ch=10 n=40 v=0
50040 On ch=10 n=46 v=113
50055 On ch=10 n=46 v=0
50100 On ch=10 n=46 v=110
50115 On ch=10 n=46 v=0
50160 On ch=10 n=64 v=100
50160 On ch=10 n=44 v=108
50175 On ch=10 n=44 v=0
50175 On ch=10 n=64 v=0
50220 On ch=10 n=44 v=100
50220 On ch=10 n=35 v=90
50235 On ch=10 n=35 v=0
50235 On ch=10 n=44 v=0
50280 On ch=10 n=64 v=100
50295 On ch=10 n=64 v=0
50340 On ch=10 n=44 v=100
50340 On ch=10 n=64 v=100
50355 On ch=10 n=64 v=0
50355 On ch=10 n=44 v=0
50400 On ch=10 n=64 v=100
50400 On ch=10 n=35 v=90
50415 On ch=10 n=35 v=0
50415 On ch=10 n=64 v=0
50460 On ch=10 n=63 v=100
50460 On ch=10 n=44 v=100
50460 On ch=10 n=40 v=127
50475 On ch=10 n=40 v=0
50475 On ch=10 n=44 v=0
50475 On ch=10 n=63 v=0
50520 On ch=10 n=63 v=100
50520 On ch=10 n=46 v=113
50535 On ch=10 n=46 v=0
50535 On ch=10 n=63 v=0
50580 On ch=10 n=63 v=100
50580 On ch=10 n=46 v=110
50595 On ch=10 n=46 v=0
50595 On ch=10 n=63 v=0
50640 On ch=10 n=63 v=100
50640 On ch=10 n=44 v=108
50655 On ch=10 n=44 v=0
50655 On ch=10 n=63 v=0
50700 On ch=10 n=64 v=100
50700 On ch=10 n=44 v=100
50700 On ch=10 n=35 v=90
50715 On ch=10 n=35 v=0
50715 On ch=10 n=44 v=0
50715 On ch=10 n=64 v=0
50820 On ch=10 n=63 v=100
50820 On ch=10 n=44 v=100
50835 On ch=10 n=44 v=0
50835 On ch=10 n=63 v=0
50880 On ch=10 n=64 v=100
50880 On ch=10 n=35 v=90
50895 On ch=10 n=35 v=0
50895 On ch=10 n=64 v=0
50940 On ch=10 n=62 v=100
50940 On ch=10 n=44 v=100
50940 On ch=10 n=40 v=127
50955 On ch=10 n=40 v=0
50955 On ch=10 n=44 v=0
50955 On ch=10 n=62 v=0
51000 On ch=10 n=46 v=113
51015 On ch=10 n=46 v=0
51060 On ch=10 n=46 v=110
51075 On ch=10 n=46 v=0
51120 On ch=10 n=64 v=100
51120 On ch=10 n=44 v=108
51135 On ch=10 n=44 v=0
51135 On ch=10 n=64 v=0
51180 On ch=10 n=35 v=90
51180 On ch=10 n=44 v=100
51195 On ch=10 n=44 v=0
51195 On ch=10 n=35 v=0
51240 On ch=10 n=64 v=100
51255 On ch=10 n=64 v=0
51300 On ch=10 n=64 v=100
51300 On ch=10 n=44 v=100
51315 On ch=10 n=44 v=0
51315 On ch=10 n=64 v=0
51360 On ch=10 n=64 v=100
51360 On ch=10 n=35 v=90
51375 On ch=10 n=35 v=0
51375 On ch=10 n=64 v=0
51420 On ch=10 n=63 v=100
51420 On ch=10 n=44 v=100
51420 On ch=10 n=40 v=127
51435 On ch=10 n=40 v=0
51435 On ch=10 n=44 v=0
51435 On ch=10 n=63 v=0
51480 On ch=10 n=63 v=100
51480 On ch=10 n=46 v=113
51495 On ch=10 n=46 v=0
51495 On ch=10 n=63 v=0
51540 On ch=10 n=46 v=110
51540 On ch=10 n=63 v=100
51555 On ch=10 n=63 v=0
51555 On ch=10 n=46 v=0
51600 On ch=10 n=63 v=100
51600 On ch=10 n=44 v=108
51615 On ch=10 n=44 v=0
51615 On ch=10 n=63 v=0
51660 On ch=10 n=44 v=100
51660 On ch=10 n=35 v=90
51660 On ch=10 n=64 v=100
51675 On ch=10 n=64 v=0
51675 On ch=10 n=35 v=0
51675 On ch=10 n=44 v=0
51780 On ch=10 n=44 v=100
51780 On ch=10 n=63 v=100
51795 On ch=10 n=63 v=0
51795 On ch=10 n=44 v=0
51840 On ch=10 n=35 v=90
51840 On ch=10 n=64 v=100
51855 On ch=10 n=64 v=0
51855 On ch=10 n=35 v=0
51900 On ch=10 n=40 v=127
51900 On ch=10 n=62 v=100
51900 On ch=10 n=44 v=100
51915 On ch=10 n=44 v=0
51915 On ch=10 n=62 v=0
51915 On ch=10 n=40 v=0
51960 On ch=10 n=46 v=113
51975 On ch=10 n=46 v=0
52020 On ch=10 n=46 v=110
52035 On ch=10 n=46 v=0
52080 On ch=10 n=64 v=100
52080 On ch=10 n=44 v=108
52095 On ch=10 n=44 v=0
52095 On ch=10 n=64 v=0
52140 On ch=10 n=44 v=100
52140 On ch=10 n=35 v=90
52155 On ch=10 n=35 v=0
52155 On ch=10 n=44 v=0
52200 On ch=10 n=64 v=100
52215 On ch=10 n=64 v=0
52260 On ch=10 n=44 v=100
52260 On ch=10 n=64 v=100
52275 On ch=10 n=64 v=0
52275 On ch=10 n=44 v=0
52320 On ch=10 n=64 v=100
52320 On ch=10 n=35 v=90
52335 On ch=10 n=35 v=0
52335 On ch=10 n=64 v=0
52380 On ch=10 n=63 v=100
52380 On ch=10 n=44 v=100
52380 On ch=10 n=40 v=127
52395 On ch=10 n=40 v=0
52395 On ch=10 n=44 v=0
52395 On ch=10 n=63 v=0
52440 On ch=10 n=63 v=100
52440 On ch=10 n=46 v=113
52455 On ch=10 n=46 v=0
52455 On ch=10 n=63 v=0
52500 On ch=10 n=63 v=100
52500 On ch=10 n=46 v=110
52515 On ch=10 n=46 v=0
52515 On ch=10 n=63 v=0
52560 On ch=10 n=63 v=100
52560 On ch=10 n=44 v=108
52575 On ch=10 n=44 v=0
52575 On ch=10 n=63 v=0
52620 On ch=10 n=64 v=100
52620 On ch=10 n=44 v=100
52620 On ch=10 n=35 v=90
52635 On ch=10 n=35 v=0
52635 On ch=10 n=44 v=0
52635 On ch=10 n=64 v=0
52740 On ch=10 n=63 v=100
52740 On ch=10 n=44 v=100
52755 On ch=10 n=44 v=0
52755 On ch=10 n=63 v=0
52800 On ch=10 n=64 v=100
52800 On ch=10 n=35 v=90
52815 On ch=10 n=35 v=0
52815 On ch=10 n=64 v=0
52860 On ch=10 n=62 v=100
52860 On ch=10 n=44 v=100
52860 On ch=10 n=40 v=127
52875 On ch=10 n=40 v=0
52875 On ch=10 n=44 v=0
52875 On ch=10 n=62 v=0
52920 On ch=10 n=46 v=113
52935 On ch=10 n=46 v=0
52980 On ch=10 n=46 v=110
52995 On ch=10 n=46 v=0
53040 On ch=10 n=64 v=100
53040 On ch=10 n=44 v=108
53055 On ch=10 n=44 v=0
53055 On ch=10 n=64 v=0
53100 On ch=10 n=35 v=90
53100 On ch=10 n=44 v=100
53115 On ch=10 n=44 v=0
53115 On ch=10 n=35 v=0
53160 On ch=10 n=64 v=100
53175 On ch=10 n=64 v=0
53220 On ch=10 n=64 v=100
53220 On ch=10 n=44 v=100
53235 On ch=10 n=44 v=0
53235 On ch=10 n=64 v=0
53280 On ch=10 n=64 v=100
53280 On ch=10 n=35 v=90
53295 On ch=10 n=35 v=0
53295 On ch=10 n=64 v=0
53340 On ch=10 n=63 v=100
53340 On ch=10 n=44 v=100
53340 On ch=10 n=40 v=127
53355 On ch=10 n=40 v=0
53355 On ch=10 n=44 v=0
53355 On ch=10 n=63 v=0
53400 On ch=10 n=63 v=100
53400 On ch=10 n=46 v=113
53415 On ch=10 n=46 v=0
53415 On ch=10 n=63 v=0
53460 On ch=10 n=46 v=110
53460 On ch=10 n=63 v=100
53475 On ch=10 n=63 v=0
53475 On ch=10 n=46 v=0
53520 On ch=10 n=63 v=100
53520 On ch=10 n=44 v=108
53535 On ch=10 n=44 v=0
53535 On ch=10 n=63 v=0
53580 On ch=10 n=44 v=100
53580 On ch=10 n=35 v=90
53580 On ch=10 n=64 v=100
53595 On ch=10 n=64 v=0
53595 On ch=10 n=35 v=0
53595 On ch=10 n=44 v=0
53700 On ch=10 n=44 v=100
53700 On ch=10 n=63 v=100
53715 On ch=10 n=63 v=0
53715 On ch=10 n=44 v=0
53760 On ch=10 n=35 v=90
53760 On ch=10 n=64 v=100
53775 On ch=10 n=64 v=0
53775 On ch=10 n=35 v=0
53820 On ch=10 n=40 v=127
53820 On ch=10 n=62 v=100
53820 On ch=10 n=44 v=100
53835 On ch=10 n=44 v=0
53835 On ch=10 n=62 v=0
53835 On ch=10 n=40 v=0
53880 On ch=10 n=46 v=113
53895 On ch=10 n=46 v=0
53940 On ch=10 n=46 v=110
53955 On ch=10 n=46 v=0
54000 On ch=10 n=64 v=100
54000 On ch=10 n=44 v=108
54015 On ch=10 n=44 v=0
54015 On ch=10 n=64 v=0
54060 On ch=10 n=44 v=100
54060 On ch=10 n=35 v=90
54075 On ch=10 n=35 v=0
54075 On ch=10 n=44 v=0
54120 On ch=10 n=64 v=100
54135 On ch=10 n=64 v=0
54180 On ch=10 n=44 v=100
54180 On ch=10 n=64 v=100
54195 On ch=10 n=64 v=0
54195 On ch=10 n=44 v=0
54240 On ch=10 n=64 v=100
54240 On ch=10 n=35 v=90
54255 On ch=10 n=35 v=0
54255 On ch=10 n=64 v=0
54300 On ch=10 n=63 v=100
54300 On ch=10 n=44 v=100
54300 On ch=10 n=40 v=127
54315 On ch=10 n=40 v=0
54315 On ch=10 n=44 v=0
54315 On ch=10 n=63 v=0
54360 On ch=10 n=63 v=100
54360 On ch=10 n=46 v=113
54375 On ch=10 n=46 v=0
54375 On ch=10 n=63 v=0
54420 On ch=10 n=63 v=100
54420 On ch=10 n=46 v=110
54435 On ch=10 n=46 v=0
54435 On ch=10 n=63 v=0
54480 On ch=10 n=63 v=100
54480 On ch=10 n=44 v=108
54495 On ch=10 n=44 v=0
54495 On ch=10 n=63 v=0
54540 On ch=10 n=64 v=100
54540 On ch=10 n=44 v=100
54540 On ch=10 n=35 v=90
54555 On ch=10 n=35 v=0
54555 On ch=10 n=44 v=0
54555 On ch=10 n=64 v=0
54660 On ch=10 n=63 v=100
54660 On ch=10 n=44 v=100
54675 On ch=10 n=44 v=0
54675 On ch=10 n=63 v=0
54720 On ch=10 n=64 v=100
54720 On ch=10 n=35 v=90
54735 On ch=10 n=35 v=0
54735 On ch=10 n=64 v=0
54780 On ch=10 n=62 v=100
54780 On ch=10 n=44 v=100
54780 On ch=10 n=40 v=127
54795 On ch=10 n=40 v=0
54795 On ch=10 n=44 v=0
54795 On ch=10 n=62 v=0
54840 On ch=10 n=46 v=113
54855 On ch=10 n=46 v=0
54900 On ch=10 n=46 v=110
54915 On ch=10 n=46 v=0
54960 On ch=10 n=64 v=100
54960 On ch=10 n=44 v=108
54975 On ch=10 n=44 v=0
54975 On ch=10 n=64 v=0
55020 On ch=10 n=35 v=90
55020 On ch=10 n=44 v=100
55035 On ch=10 n=44 v=0
55035 On ch=10 n=35 v=0
55080 On ch=10 n=64 v=100
55095 On ch=10 n=64 v=0
55140 On ch=10 n=64 v=100
55140 On ch=10 n=44 v=100
55155 On ch=10 n=44 v=0
55155 On ch=10 n=64 v=0
55200 On ch=10 n=64 v=100
55200 On ch=10 n=35 v=90
55215 On ch=10 n=35 v=0
55215 On ch=10 n=64 v=0
55260 On ch=10 n=63 v=100
55260 On ch=10 n=44 v=100
55260 On ch=10 n=40 v=127
55275 On ch=10 n=40 v=0
55275 On ch=10 n=44 v=0
55275 On ch=10 n=63 v=0
55320 On ch=10 n=63 v=100
55320 On ch=10 n=46 v=113
55335 On ch=10 n=46 v=0
55335 On ch=10 n=63 v=0
55380 On ch=10 n=46 v=110
55380 On ch=10 n=63 v=100
55395 On ch=10 n=63 v=0
55395 On ch=10 n=46 v=0
55440 On ch=10 n=63 v=100
55440 On ch=10 n=44 v=108
55455 On ch=10 n=44 v=0
55455 On ch=10 n=63 v=0
55500 On ch=10 n=44 v=100
55500 On ch=10 n=35 v=90
55500 On ch=10 n=64 v=100
55515 On ch=10 n=64 v=0
55515 On ch=10 n=35 v=0
55515 On ch=10 n=44 v=0
55620 On ch=10 n=44 v=100
55620 On ch=10 n=63 v=100
55635 On ch=10 n=63 v=0
55635 On ch=10 n=44 v=0
55680 On ch=10 n=35 v=90
55680 On ch=10 n=64 v=100
55695 On ch=10 n=64 v=0
55695 On ch=10 n=35 v=0
55740 On ch=10 n=40 v=127
55740 On ch=10 n=62 v=100
55740 On ch=10 n=44 v=100
55755 On ch=10 n=44 v=0
55755 On ch=10 n=62 v=0
55755 On ch=10 n=40 v=0
55800 On ch=10 n=46 v=113
55815 On ch=10 n=46 v=0
55860 On ch=10 n=46 v=110
55875 On ch=10 n=46 v=0
55920 On ch=10 n=64 v=100
55920 On ch=10 n=44 v=108
55935 On ch=10 n=44 v=0
55935 On ch=10 n=64 v=0
55980 On ch=10 n=44 v=100
55980 On ch=10 n=35 v=90
55995 On ch=10 n=35 v=0
55995 On ch=10 n=44 v=0
56040 On ch=10 n=64 v=100
56055 On ch=10 n=64 v=0
56100 On ch=10 n=44 v=100
56100 On ch=10 n=64 v=100
56115 On ch=10 n=64 v=0
56115 On ch=10 n=44 v=0
56160 On ch=10 n=64 v=100
56160 On ch=10 n=35 v=90
56175 On ch=10 n=35 v=0
56175 On ch=10 n=64 v=0
56220 On ch=10 n=63 v=100
56220 On ch=10 n=44 v=100
56220 On ch=10 n=40 v=127
56235 On ch=10 n=40 v=0
56235 On ch=10 n=44 v=0
56235 On ch=10 n=63 v=0
56280 On ch=10 n=63 v=100
56280 On ch=10 n=46 v=113
56295 On ch=10 n=46 v=0
56295 On ch=10 n=63 v=0
56340 On ch=10 n=63 v=100
56340 On ch=10 n=46 v=110
56355 On ch=10 n=46 v=0
56355 On ch=10 n=63 v=0
56400 On ch=10 n=63 v=100
56400 On ch=10 n=44 v=108
56415 On ch=10 n=44 v=0
56415 On ch=10 n=63 v=0
56460 On ch=10 n=44 v=100
56460 On ch=10 n=35 v=90
56460 On ch=10 n=64 v=100
56475 On ch=10 n=64 v=0
56475 On ch=10 n=35 v=0
56475 On ch=10 n=44 v=0
56580 On ch=10 n=44 v=100
56580 On ch=10 n=63 v=100
56595 On ch=10 n=63 v=0
56595 On ch=10 n=44 v=0
56640 On ch=10 n=35 v=90
56640 On ch=10 n=64 v=100
56655 On ch=10 n=64 v=0
56655 On ch=10 n=35 v=0
56700 On ch=10 n=40 v=127
56700 On ch=10 n=62 v=100
56700 On ch=10 n=44 v=100
56715 On ch=10 n=44 v=0
56715 On ch=10 n=62 v=0
56715 On ch=10 n=40 v=0
56760 On ch=10 n=46 v=113
56775 On ch=10 n=46 v=0
56820 On ch=10 n=46 v=110
56835 On ch=10 n=46 v=0
56880 On ch=10 n=64 v=100
56880 On ch=10 n=44 v=108
56895 On ch=10 n=44 v=0
56895 On ch=10 n=64 v=0
56940 On ch=10 n=44 v=100
56940 On ch=10 n=35 v=90
56955 On ch=10 n=35 v=0
56955 On ch=10 n=44 v=0
57000 On ch=10 n=64 v=100
57015 On ch=10 n=64 v=0
57060 On ch=10 n=44 v=100
57060 On ch=10 n=64 v=100
57075 On ch=10 n=64 v=0
57075 On ch=10 n=44 v=0
57120 On ch=10 n=64 v=100
57120 On ch=10 n=35 v=90
57135 On ch=10 n=35 v=0
57135 On ch=10 n=64 v=0
57180 On ch=10 n=63 v=100
57180 On ch=10 n=44 v=100
57180 On ch=10 n=40 v=127
57195 On ch=10 n=40 v=0
57195 On ch=10 n=44 v=0
57195 On ch=10 n=63 v=0
57240 On ch=10 n=63 v=100
57240 On ch=10 n=46 v=113
57255 On ch=10 n=46 v=0
57255 On ch=10 n=63 v=0
57300 On ch=10 n=63 v=100
57300 On ch=10 n=46 v=110
57315 On ch=10 n=46 v=0
57315 On ch=10 n=63 v=0
57360 On ch=10 n=63 v=100
57360 On ch=10 n=44 v=108
57375 On ch=10 n=44 v=0
57375 On ch=10 n=63 v=0
57420 On ch=10 n=64 v=100
57420 On ch=10 n=44 v=100
57420 On ch=10 n=35 v=90
57435 On ch=10 n=35 v=0
57435 On ch=10 n=44 v=0
57435 On ch=10 n=64 v=0
57540 On ch=10 n=63 v=100
57540 On ch=10 n=44 v=100
57555 On ch=10 n=44 v=0
57555 On ch=10 n=63 v=0
57600 On ch=10 n=64 v=100
57600 On ch=10 n=35 v=90
57615 On ch=10 n=35 v=0
57615 On ch=10 n=64 v=0
57660 On ch=10 n=62 v=100
57660 On ch=10 n=44 v=100
57660 On ch=10 n=40 v=127
57675 On ch=10 n=40 v=0
57675 On ch=10 n=44 v=0
57675 On ch=10 n=62 v=0
57720 On ch=10 n=46 v=113
57735 On ch=10 n=46 v=0
57780 On ch=10 n=46 v=110
57795 On ch=10 n=46 v=0
57840 On ch=10 n=64 v=100
57840 On ch=10 n=44 v=108
57855 On ch=10 n=44 v=0
57855 On ch=10 n=64 v=0
57900 On ch=10 n=35 v=90
57900 On ch=10 n=44 v=100
57915 On ch=10 n=44 v=0
57915 On ch=10 n=35 v=0
57960 On ch=10 n=64 v=100
57975 On ch=10 n=64 v=0
58020 On ch=10 n=64 v=100
58020 On ch=10 n=44 v=100
58035 On ch=10 n=44 v=0
58035 On ch=10 n=64 v=0
58080 On ch=10 n=64 v=100
58080 On ch=10 n=35 v=90
58095 On ch=10 n=35 v=0
58095 On ch=10 n=64 v=0
58140 On ch=10 n=63 v=100
58140 On ch=10 n=44 v=100
58140 On ch=10 n=40 v=127
58155 On ch=10 n=40 v=0
58155 On ch=10 n=44 v=0
58155 On ch=10 n=63 v=0
58200 On ch=10 n=63 v=100
58200 On ch=10 n=46 v=113
58215 On ch=10 n=46 v=0
58215 On ch=10 n=63 v=0
58260 On ch=10 n=46 v=110
58260 On ch=10 n=63 v=100
58275 On ch=10 n=63 v=0
58275 On ch=10 n=46 v=0
58320 On ch=10 n=63 v=100
58320 On ch=10 n=44 v=108
58335 On ch=10 n=44 v=0
58335 On ch=10 n=63 v=0
58380 On ch=10 n=44 v=100
58380 On ch=10 n=35 v=90
58380 On ch=10 n=64 v=100
58395 On ch=10 n=64 v=0
58395 On ch=10 n=35 v=0
58395 On ch=10 n=44 v=0
58500 On ch=10 n=44 v=100
58500 On ch=10 n=63 v=100
58515 On ch=10 n=63 v=0
58515 On ch=10 n=44 v=0
58560 On ch=10 n=35 v=90
58560 On ch=10 n=64 v=100
58575 On ch=10 n=64 v=0
58575 On ch=10 n=35 v=0
58620 On ch=10 n=40 v=127
58620 On ch=10 n=62 v=100
58620 On ch=10 n=44 v=100
58635 On ch=10 n=44 v=0
58635 On ch=10 n=62 v=0
58635 On ch=10 n=40 v=0
58680 On ch=10 n=46 v=113
58695 On ch=10 n=46 v=0
58740 On ch=10 n=46 v=110
58755 On ch=10 n=46 v=0
58800 On ch=10 n=64 v=100
58800 On ch=10 n=44 v=108
58815 On ch=10 n=44 v=0
58815 On ch=10 n=64 v=0
58860 On ch=10 n=44 v=100
58860 On ch=10 n=35 v=90
58875 On ch=10 n=35 v=0
58875 On ch=10 n=44 v=0
58920 On ch=10 n=64 v=100
58935 On ch=10 n=64 v=0
58980 On ch=10 n=44 v=100
58980 On ch=10 n=64 v=100
58995 On ch=10 n=64 v=0
58995 On ch=10 n=44 v=0
59040 On ch=10 n=64 v=100
59040 On ch=10 n=35 v=90
59055 On ch=10 n=35 v=0
59055 On ch=10 n=64 v=0
59100 On ch=10 n=63 v=100
59100 On ch=10 n=44 v=100
59100 On ch=10 n=40 v=127
59115 On ch=10 n=40 v=0
59115 On ch=10 n=44 v=0
59115 On ch=10 n=63 v=0
59160 On ch=10 n=63 v=100
59160 On ch=10 n=46 v=113
59175 On ch=10 n=46 v=0
59175 On ch=10 n=63 v=0
59220 On ch=10 n=63 v=100
59220 On ch=10 n=46 v=110
59235 On ch=10 n=46 v=0
59235 On ch=10 n=63 v=0
59280 On ch=10 n=63 v=100
59280 On ch=10 n=44 v=108
59295 On ch=10 n=44 v=0
59295 On ch=10 n=63 v=0
59340 On ch=10 n=44 v=100
59340 On ch=10 n=35 v=90
59340 On ch=10 n=64 v=100
59355 On ch=10 n=64 v=0
59355 On ch=10 n=35 v=0
59355 On ch=10 n=44 v=0
59460 On ch=10 n=44 v=100
59460 On ch=10 n=63 v=100
59475 On ch=10 n=63 v=0
59475 On ch=10 n=44 v=0
59520 On ch=10 n=35 v=90
59520 On ch=10 n=64 v=100
59535 On ch=10 n=64 v=0
59535 On ch=10 n=35 v=0
59580 On ch=10 n=40 v=127
59580 On ch=10 n=62 v=100
59580 On ch=10 n=44 v=100
59595 On ch=10 n=44 v=0
59595 On ch=10 n=62 v=0
59595 On ch=10 n=40 v=0
59640 On ch=10 n=46 v=113
59655 On ch=10 n=46 v=0
59700 On ch=10 n=46 v=110
59715 On ch=10 n=46 v=0
59760 On ch=10 n=64 v=100
59760 On ch=10 n=44 v=108
59775 On ch=10 n=44 v=0
59775 On ch=10 n=64 v=0
59820 On ch=10 n=44 v=100
59820 On ch=10 n=35 v=90
59835 On ch=10 n=35 v=0
59835 On ch=10 n=44 v=0
59880 On ch=10 n=64 v=100
59895 On ch=10 n=64 v=0
59940 On ch=10 n=44 v=100
59940 On ch=10 n=64 v=100
59955 On ch=10 n=64 v=0
59955 On ch=10 n=44 v=0
60000 On ch=10 n=64 v=100
60000 On ch=10 n=35 v=90
60015 On ch=10 n=35 v=0
60015 On ch=10 n=64 v=0
60060 On ch=10 n=63 v=100
60060 On ch=10 n=44 v=100
60060 On ch=10 n=40 v=127
60075 On ch=10 n=40 v=0
60075 On ch=10 n=44 v=0
60075 On ch=10 n=63 v=0
60120 On ch=10 n=63 v=100
60120 On ch=10 n=46 v=113
60135 On ch=10 n=46 v=0
60135 On ch=10 n=63 v=0
60180 On ch=10 n=63 v=100
60180 On ch=10 n=46 v=110
60195 On ch=10 n=46 v=0
60195 On ch=10 n=63 v=0
60240 On ch=10 n=63 v=100
60240 On ch=10 n=44 v=108
60255 On ch=10 n=44 v=0
60255 On ch=10 n=63 v=0
60300 On ch=10 n=64 v=100
60300 On ch=10 n=44 v=100
60300 On ch=10 n=35 v=90
60315 On ch=10 n=35 v=0
60315 On ch=10 n=44 v=0
60315 On ch=10 n=64 v=0
60420 On ch=10 n=63 v=100
60420 On ch=10 n=44 v=100
60435 On ch=10 n=44 v=0
60435 On ch=10 n=63 v=0
60480 On ch=10 n=64 v=100
60480 On ch=10 n=35 v=90
60495 On ch=10 n=35 v=0
60495 On ch=10 n=64 v=0
60540 On ch=10 n=62 v=100
60540 On ch=10 n=44 v=100
60540 On ch=10 n=40 v=127
60555 On ch=10 n=40 v=0
60555 On ch=10 n=44 v=0
60555 On ch=10 n=62 v=0
60600 On ch=10 n=46 v=113
60615 On ch=10 n=46 v=0
60660 On ch=10 n=46 v=110
60675 On ch=10 n=46 v=0
60720 On ch=10 n=64 v=100
60720 On ch=10 n=44 v=108
60735 On ch=10 n=44 v=0
60735 On ch=10 n=64 v=0
60780 On ch=10 n=35 v=90
60780 On ch=10 n=44 v=100
60795 On ch=10 n=44 v=0
60795 On ch=10 n=35 v=0
60840 On ch=10 n=64 v=100
60855 On ch=10 n=64 v=0
60900 On ch=10 n=64 v=100
60900 On ch=10 n=44 v=100
60915 On ch=10 n=44 v=0
60915 On ch=10 n=64 v=0
60960 On ch=10 n=64 v=100
60960 On ch=10 n=35 v=90
60975 On ch=10 n=35 v=0
60975 On ch=10 n=64 v=0
61020 On ch=10 n=63 v=100
61020 On ch=10 n=44 v=100
61020 On ch=10 n=40 v=127
61035 On ch=10 n=40 v=0
61035 On ch=10 n=44 v=0
61035 On ch=10 n=63 v=0
61080 On ch=10 n=63 v=100
61080 On ch=10 n=46 v=113
61095 On ch=10 n=46 v=0
61095 On ch=10 n=63 v=0
61140 On ch=10 n=46 v=110
61140 On ch=10 n=63 v=100
61155 On ch=10 n=63 v=0
61155 On ch=10 n=46 v=0
61200 On ch=10 n=63 v=100
61200 On ch=10 n=44 v=108
61215 On ch=10 n=44 v=0
61215 On ch=10 n=63 v=0
61260 On ch=10 n=44 v=100
61260 On ch=10 n=35 v=90
61260 On ch=10 n=64 v=100
61275 On ch=10 n=64 v=0
61275 On ch=10 n=35 v=0
61275 On ch=10 n=44 v=0
61380 On ch=10 n=44 v=100
61380 On ch=10 n=63 v=100
61395 On ch=10 n=63 v=0
61395 On ch=10 n=44 v=0
61440 On ch=10 n=35 v=90
61440 On ch=10 n=64 v=100
61455 On ch=10 n=64 v=0
61455 On ch=10 n=35 v=0
61500 On ch=10 n=40 v=127
61500 On ch=10 n=62 v=100
61500 On ch=10 n=44 v=100
61515 On ch=10 n=44 v=0
61515 On ch=10 n=62 v=0
61515 On ch=10 n=40 v=0
61560 On ch=10 n=46 v=113
61575 On ch=10 n=46 v=0
61620 On ch=10 n=46 v=110
61635 On ch=10 n=46 v=0
61680 On ch=10 n=64 v=100
61680 On ch=10 n=44 v=108
61695 On ch=10 n=44 v=0
61695 On ch=10 n=64 v=0
61740 On ch=10 n=44 v=100
61740 On ch=10 n=35 v=90
61755 On ch=10 n=35 v=0
61755 On ch=10 n=44 v=0
61800 On ch=10 n=64 v=100
61815 On ch=10 n=64 v=0
61860 On ch=10 n=44 v=100
61860 On ch=10 n=64 v=100
61875 On ch=10 n=64 v=0
61875 On ch=10 n=44 v=0
61920 On ch=10 n=64 v=100
61920 On ch=10 n=35 v=90
61935 On ch=10 n=35 v=0
61935 On ch=10 n=64 v=0
61980 On ch=10 n=63 v=100
61980 On ch=10 n=44 v=100
61980 On ch=10 n=40 v=127
61995 On ch=10 n=40 v=0
61995 On ch=10 n=44 v=0
61995 On ch=10 n=63 v=0
62040 On ch=10 n=63 v=100
62040 On ch=10 n=46 v=113
62055 On ch=10 n=46 v=0
62055 On ch=10 n=63 v=0
62100 On ch=10 n=63 v=100
62100 On ch=10 n=46 v=110
62115 On ch=10 n=46 v=0
62115 On ch=10 n=63 v=0
62160 On ch=10 n=63 v=100
62160 On ch=10 n=44 v=108
62175 On ch=10 n=44 v=0
62175 On ch=10 n=63 v=0
62220 On ch=10 n=64 v=100
62220 On ch=10 n=44 v=100
62220 On ch=10 n=35 v=90
62235 On ch=10 n=35 v=0
62235 On ch=10 n=44 v=0
62235 On ch=10 n=64 v=0
62340 On ch=10 n=63 v=100
62340 On ch=10 n=44 v=100
62355 On ch=10 n=44 v=0
62355 On ch=10 n=63 v=0
62400 On ch=10 n=64 v=100
62400 On ch=10 n=35 v=90
62415 On ch=10 n=35 v=0
62415 On ch=10 n=64 v=0
62460 On ch=10 n=62 v=100
62460 On ch=10 n=44 v=100
62460 On ch=10 n=40 v=127
62475 On ch=10 n=40 v=0
62475 On ch=10 n=44 v=0
62475 On ch=10 n=62 v=0
62520 On ch=10 n=46 v=113
62535 On ch=10 n=46 v=0
62580 On ch=10 n=46 v=110
62595 On ch=10 n=46 v=0
62640 On ch=10 n=64 v=100
62640 On ch=10 n=44 v=108
62655 On ch=10 n=44 v=0
62655 On ch=10 n=64 v=0
62700 On ch=10 n=35 v=90
62700 On ch=10 n=44 v=100
62715 On ch=10 n=44 v=0
62715 On ch=10 n=35 v=0
62760 On ch=10 n=64 v=100
62775 On ch=10 n=64 v=0
62820 On ch=10 n=64 v=100
62820 On ch=10 n=44 v=100
62835 On ch=10 n=44 v=0
62835 On ch=10 n=64 v=0
62880 On ch=10 n=64 v=100
62880 On ch=10 n=35 v=90
62895 On ch=10 n=35 v=0
62895 On ch=10 n=64 v=0
62940 On ch=10 n=63 v=100
62940 On ch=10 n=44 v=100
62940 On ch=10 n=40 v=127
62955 On ch=10 n=40 v=0
62955 On ch=10 n=44 v=0
62955 On ch=10 n=63 v=0
63000 On ch=10 n=63 v=100
63000 On ch=10 n=46 v=113
63015 On ch=10 n=46 v=0
63015 On ch=10 n=63 v=0
63060 On ch=10 n=46 v=110
63060 On ch=10 n=63 v=100
63075 On ch=10 n=63 v=0
63075 On ch=10 n=46 v=0
63120 On ch=10 n=63 v=100
63120 On ch=10 n=44 v=108
63135 On ch=10 n=44 v=0
63135 On ch=10 n=63 v=0
63180 On ch=10 n=44 v=100
63180 On ch=10 n=35 v=90
63180 On ch=10 n=64 v=100
63195 On ch=10 n=64 v=0
63195 On ch=10 n=35 v=0
63195 On ch=10 n=44 v=0
63300 On ch=10 n=44 v=100
63300 On ch=10 n=63 v=100
63315 On ch=10 n=63 v=0
63315 On ch=10 n=44 v=0
63360 On ch=10 n=35 v=90
63360 On ch=10 n=64 v=100
63375 On ch=10 n=64 v=0
63375 On ch=10 n=35 v=0
63420 On ch=10 n=40 v=127
63420 On ch=10 n=62 v=100
63420 On ch=10 n=44 v=100
63435 On ch=10 n=44 v=0
63435 On ch=10 n=62 v=0
63435 On ch=10 n=40 v=0
63480 On ch=10 n=46 v=113
63495 On ch=10 n=46 v=0
63540 On ch=10 n=46 v=110
63555 On ch=10 n=46 v=0
63600 On ch=10 n=64 v=100
63600 On ch=10 n=44 v=108
63615 On ch=10 n=44 v=0
63615 On ch=10 n=64 v=0
63660 On ch=10 n=44 v=100
63660 On ch=10 n=35 v=90
63675 On ch=10 n=35 v=0
63675 On ch=10 n=44 v=0
63720 On ch=10 n=64 v=100
63735 On ch=10 n=64 v=0
63780 On ch=10 n=44 v=100
63780 On ch=10 n=64 v=100
63795 On ch=10 n=64 v=0
63795 On ch=10 n=44 v=0
63840 On ch=10 n=64 v=100
63840 On ch=10 n=35 v=90
63855 On ch=10 n=35 v=0
63855 On ch=10 n=64 v=0
63900 On ch=10 n=63 v=100
63900 On ch=10 n=44 v=100
63900 On ch=10 n=40 v=127
63915 On ch=10 n=40 v=0
63915 On ch=10 n=44 v=0
63915 On ch=10 n=63 v=0
63960 On ch=10 n=63 v=100
63960 On ch=10 n=46 v=113
63975 On ch=10 n=46 v=0
63975 On ch=10 n=63 v=0
64020 On ch=10 n=63 v=100
64020 On ch=10 n=46 v=110
64035 On ch=10 n=46 v=0
64035 On ch=10 n=63 v=0
64080 On ch=10 n=63 v=100
64080 On ch=10 n=44 v=108
64095 On ch=10 n=44 v=0
64095 On ch=10 n=63 v=0
64140 On ch=10 n=49 v=100
64155 On ch=10 n=49 v=0
64155 Meta TrkEnd
TrkEnd
MTrk
0 Par ch=11 c=93 v=0
0 Par ch=11 c=91 v=40
170 Par ch=11 c=0 v=0
171 Par ch=11 c=32 v=0
172 PrCh ch=11 p=0
173 Par ch=11 c=7 v=100
173 Par ch=11 c=10 v=64
173 Meta TrkEnd
TrkEnd
MTrk
0 Par ch=12 c=91 v=90
0 Par ch=12 c=93 v=0
175 Par ch=12 c=0 v=0
176 Par ch=12 c=32 v=0
177 PrCh ch=12 p=48
178 Par ch=12 c=7 v=100
178 Par ch=12 c=10 v=64
473 Par ch=12 c=7 v=36
480 Par ch=12 c=10 v=57
480 On ch=12 n=47 v=100
733 Par ch=12 c=7 v=37
990 Par ch=12 c=7 v=38
1246 Par ch=12 c=7 v=39
1496 Par ch=12 c=7 v=40
1540 Par ch=12 c=7 v=41
1580 Par ch=12 c=7 v=42
1620 Par ch=12 c=7 v=43
1660 Par ch=12 c=7 v=44
1700 Par ch=12 c=7 v=45
1740 Par ch=12 c=7 v=46
1780 Par ch=12 c=7 v=47
1820 Par ch=12 c=7 v=48
1860 Par ch=12 c=7 v=49
1900 Par ch=12 c=7 v=50
1940 Par ch=12 c=7 v=51
1980 Par ch=12 c=7 v=52
2020 Par ch=12 c=7 v=53
2060 Par ch=12 c=7 v=54
2100 Par ch=12 c=7 v=55
2140 Par ch=12 c=7 v=56
2180 Par ch=12 c=7 v=57
2220 Par ch=12 c=7 v=58
2260 Par ch=12 c=7 v=59
2280 On ch=12 n=47 v=0
2280 On ch=12 n=42 v=100
2300 Par ch=12 c=7 v=60
2340 Par ch=12 c=7 v=61
2380 Par ch=12 c=7 v=62
2400 On ch=12 n=42 v=0
2400 On ch=12 n=47 v=100
2420 Par ch=12 c=7 v=63
4200 On ch=12 n=47 v=0
4200 On ch=12 n=42 v=100
4260 On ch=12 n=71 v=100
4275 On ch=12 n=71 v=0
4275 On ch=12 n=73 v=100
4290 On ch=12 n=73 v=0
4290 On ch=12 n=75 v=100
4305 On ch=12 n=75 v=0
4305 On ch=12 n=76 v=100
4320 On ch=12 n=76 v=0
4320 On ch=12 n=42 v=0
4320 On ch=12 n=47 v=100
4320 On ch=12 n=78 v=100
5160 On ch=12 n=78 v=0
5160 On ch=12 n=47 v=0
5160 On ch=12 n=42 v=100
5160 On ch=12 n=83 v=100
5280 On ch=12 n=83 v=0
5280 On ch=12 n=42 v=0
5280 On ch=12 n=47 v=100
5280 On ch=12 n=78 v=100
5880 On ch=12 n=78 v=0
5880 On ch=12 n=76 v=100
5940 On ch=12 n=76 v=0
5940 On ch=12 n=75 v=100
6000 On ch=12 n=75 v=0
6000 On ch=12 n=76 v=100
6060 On ch=12 n=76 v=0
6060 On ch=12 n=75 v=100
6120 On ch=12 n=75 v=0
6120 On ch=12 n=47 v=0
6120 On ch=12 n=42 v=100
6120 On ch=12 n=71 v=100
6180 On ch=12 n=71 v=0
6180 On ch=12 n=68 v=100
6240 On ch=12 n=68 v=0
6240 On ch=12 n=42 v=0
6240 On ch=12 n=47 v=100
6240 On ch=12 n=71 v=100
7080 On ch=12 n=47 v=0
7080 On ch=12 n=42 v=100
7200 On ch=12 n=42 v=0
7200 On ch=12 n=71 v=0
7200 On ch=12 n=47 v=100
8040 On ch=12 n=47 v=0
8040 On ch=12 n=42 v=100
8160 On ch=12 n=42 v=0
8160 On ch=12 n=47 v=100
9000 On ch=12 n=47 v=0
9000 On ch=12 n=42 v=100
9120 On ch=12 n=42 v=0
9120 On ch=12 n=47 v=100
9960 On ch=12 n=47 v=0
9960 On ch=12 n=49 v=100
10080 On ch=12 n=49 v=0
10080 On ch=12 n=57 v=100
10080 On ch=12 n=62 v=100
10080 On ch=12 n=66 v=100
10560 On ch=12 n=66 v=0
10560 On ch=12 n=62 v=0
10560 On ch=12 n=57 v=0
10560 On ch=12 n=57 v=100
10560 On ch=12 n=61 v=100
10560 On ch=12 n=64 v=100
11040 On ch=12 n=64 v=0
11040 On ch=12 n=61 v=0
11040 On ch=12 n=57 v=0
11040 On ch=12 n=54 v=100
11040 On ch=12 n=59 v=100
11040 On ch=12 n=62 v=100
11520 On ch=12 n=62 v=0
11520 On ch=12 n=59 v=0
11520 On ch=12 n=54 v=0
11520 On ch=12 n=55 v=100
11520 On ch=12 n=59 v=100
11520 On ch=12 n=62 v=100
12000 On ch=12 n=62 v=0
12000 On ch=12 n=59 v=0
12000 On ch=12 n=55 v=0
12000 On ch=12 n=57 v=100
12000 On ch=12 n=62 v=100
12000 On ch=12 n=66 v=100
12480 On ch=12 n=66 v=0
12480 On ch=12 n=62 v=0
12480 On ch=12 n=57 v=0
12480 On ch=12 n=69 v=100
12480 On ch=12 n=64 v=100
12480 On ch=12 n=61 v=100
12960 On ch=12 n=61 v=0
12960 On ch=12 n=64 v=0
12960 On ch=12 n=69 v=0
12960 On ch=12 n=54 v=100
12960 On ch=12 n=59 v=100
12960 On ch=12 n=62 v=100
13440 On ch=12 n=62 v=0
13440 On ch=12 n=59 v=0
13440 On ch=12 n=54 v=0
13440 On ch=12 n=66 v=100
13440 On ch=12 n=55 v=100
13440 On ch=12 n=59 v=100
13440 On ch=12 n=62 v=100
13920 On ch=12 n=62 v=0
13920 On ch=12 n=66 v=0
13920 On ch=12 n=55 v=0
13920 On ch=12 n=59 v=0
13920 On ch=12 n=47 v=100
14760 On ch=12 n=47 v=0
14760 On ch=12 n=42 v=100
14820 On ch=12 n=71 v=100
14835 On ch=12 n=71 v=0
14835 On ch=12 n=73 v=100
14850 On ch=12 n=73 v=0
14850 On ch=12 n=75 v=100
14865 On ch=12 n=75 v=0
14865 On ch=12 n=76 v=100
14880 On ch=12 n=76 v=0
14880 On ch=12 n=42 v=0
14880 On ch=12 n=47 v=100
14880 On ch=12 n=78 v=100
15225 On ch=12 n=78 v=0
15300 On ch=12 n=57 v=127
15330 On ch=12 n=57 v=0
15330 On ch=12 n=58 v=127
15360 On ch=12 n=58 v=0
15360 On ch=12 n=47 v=0
15360 On ch=12 n=59 v=127
15390 On ch=12 n=59 v=0
15420 On ch=12 n=52 v=127
15450 On ch=12 n=52 v=0
15450 On ch=12 n=53 v=127
15480 On ch=12 n=53 v=0
15480 On ch=12 n=54 v=127
15510 On ch=12 n=54 v=0
15540 On ch=12 n=49 v=127
15570 On ch=12 n=49 v=0
15600 On ch=12 n=50 v=127
15630 On ch=12 n=50 v=0
15660 On ch=12 n=47 v=127
15690 On ch=12 n=47 v=0
15720 On ch=12 n=44 v=127
15750 On ch=12 n=44 v=0
15765 On ch=12 n=78 v=100
15780 On ch=12 n=78 v=0
15780 On ch=12 n=80 v=100
15780 On ch=12 n=42 v=127
15795 On ch=12 n=80 v=0
15795 On ch=12 n=82 v=100
15810 On ch=12 n=82 v=0
15810 On ch=12 n=42 v=0
15810 On ch=12 n=83 v=100
15825 On ch=12 n=83 v=0
15825 On ch=12 n=85 v=100
15840 On ch=12 n=85 v=0
15840 On ch=12 n=47 v=100
15840 On ch=12 n=87 v=100
16200 On ch=12 n=87 v=0
16200 On ch=12 n=83 v=100
16320 On ch=12 n=83 v=0
16320 On ch=12 n=88 v=100
16680 On ch=12 n=88 v=0
16680 On ch=12 n=47 v=0
16680 On ch=12 n=42 v=100
16680 On ch=12 n=85 v=100
16800 On ch=12 n=85 v=0
16800 On ch=12 n=42 v=0
16800 On ch=12 n=90 v=100
16800 On ch=12 n=47 v=100
17160 On ch=12 n=90 v=0
17160 On ch=12 n=87 v=100
17280 On ch=12 n=87 v=0
17280 On ch=12 n=88 v=100
17400 On ch=12 n=88 v=0
17400 On ch=12 n=87 v=100
17520 On ch=12 n=87 v=0
17520 On ch=12 n=83 v=100
17640 On ch=12 n=83 v=0
17640 On ch=12 n=47 v=0
17640 On ch=12 n=85 v=100
17640 On ch=12 n=42 v=100
17760 On ch=12 n=42 v=0
17760 On ch=12 n=85 v=0
17760 On ch=12 n=87 v=100
17760 On ch=12 n=47 v=100
18120 On ch=12 n=87 v=0
18120 On ch=12 n=83 v=100
18240 On ch=12 n=83 v=0
18240 On ch=12 n=88 v=100
18600 On ch=12 n=88 v=0
18600 On ch=12 n=47 v=0
18600 On ch=12 n=42 v=100
18600 On ch=12 n=85 v=100
18720 On ch=12 n=85 v=0
18720 On ch=12 n=42 v=0
18720 On ch=12 n=47 v=100
18720 On ch=12 n=90 v=100
19080 On ch=12 n=90 v=0
19080 On ch=12 n=87 v=100
19200 On ch=12 n=87 v=0
19200 On ch=12 n=88 v=100
19320 On ch=12 n=88 v=0
19320 On ch=12 n=87 v=100
19440 On ch=12 n=87 v=0
19440 On ch=12 n=83 v=100
19560 On ch=12 n=83 v=0
19560 On ch=12 n=47 v=0
19560 On ch=12 n=85 v=100
19560 On ch=12 n=42 v=100
19680 On ch=12 n=42 v=0
19680 On ch=12 n=85 v=0
19680 On ch=12 n=55 v=100
20160 On ch=12 n=55 v=0
20160 On ch=12 n=52 v=100
20640 On ch=12 n=52 v=0
20640 On ch=12 n=59 v=100
21600 On ch=12 n=59 v=0
21600 On ch=12 n=55 v=100
22080 On ch=12 n=55 v=0
22080 On ch=12 n=52 v=100
22560 On ch=12 n=52 v=0
22560 On ch=12 n=59 v=100
24480 On ch=12 n=59 v=0
24480 On ch=12 n=47 v=100
25320 On ch=12 n=47 v=0
25320 On ch=12 n=42 v=100
25440 On ch=12 n=42 v=0
25440 On ch=12 n=47 v=100
26280 On ch=12 n=47 v=0
26280 On ch=12 n=42 v=100
26400 On ch=12 n=42 v=0
26400 On ch=12 n=47 v=100
27240 On ch=12 n=47 v=0
27240 On ch=12 n=42 v=100
27360 On ch=12 n=42 v=0
27360 On ch=12 n=47 v=100
28200 On ch=12 n=47 v=0
28200 On ch=12 n=49 v=100
28320 On ch=12 n=49 v=0
28320 On ch=12 n=66 v=100
28320 On ch=12 n=57 v=100
28320 On ch=12 n=62 v=100
28800 On ch=12 n=62 v=0
28800 On ch=12 n=57 v=0
28800 On ch=12 n=66 v=0
28800 On ch=12 n=57 v=100
28800 On ch=12 n=61 v=100
28800 On ch=12 n=64 v=100
29280 On ch=12 n=64 v=0
29280 On ch=12 n=61 v=0
29280 On ch=12 n=57 v=0
29280 On ch=12 n=54 v=100
29280 On ch=12 n=62 v=100
29280 On ch=12 n=59 v=100
29760 On ch=12 n=59 v=0
29760 On ch=12 n=62 v=0
29760 On ch=12 n=54 v=0
29760 On ch=12 n=55 v=100
29760 On ch=12 n=62 v=100
29760 On ch=12 n=59 v=100
30240 On ch=12 n=59 v=0
30240 On ch=12 n=62 v=0
30240 On ch=12 n=55 v=0
30240 On ch=12 n=57 v=100
30240 On ch=12 n=66 v=100
30240 On ch=12 n=62 v=100
30720 On ch=12 n=62 v=0
30720 On ch=12 n=66 v=0
30720 On ch=12 n=57 v=0
30720 On ch=12 n=69 v=100
30720 On ch=12 n=61 v=100
30720 On ch=12 n=64 v=100
31200 On ch=12 n=64 v=0
31200 On ch=12 n=61 v=0
31200 On ch=12 n=69 v=0
31200 On ch=12 n=54 v=100
31200 On ch=12 n=62 v=100
31200 On ch=12 n=59 v=100
31680 On ch=12 n=59 v=0
31680 On ch=12 n=62 v=0
31680 On ch=12 n=54 v=0
31680 On ch=12 n=59 v=100
31680 On ch=12 n=55 v=100
31680 On ch=12 n=66 v=100
31680 On ch=12 n=62 v=100
32160 On ch=12 n=62 v=0
32160 On ch=12 n=59 v=0
32160 On ch=12 n=55 v=0
32160 On ch=12 n=66 v=0
32160 On ch=12 n=47 v=100
33000 On ch=12 n=47 v=0
33000 On ch=12 n=42 v=100
33090 On ch=12 n=75 v=100
33105 On ch=12 n=75 v=0
33105 On ch=12 n=76 v=100
33120 On ch=12 n=76 v=0
33120 On ch=12 n=42 v=0
33120 On ch=12 n=47 v=100
33120 On ch=12 n=78 v=100
33465 On ch=12 n=78 v=0
33540 On ch=12 n=57 v=127
33570 On ch=12 n=57 v=0
33570 On ch=12 n=58 v=127
33600 On ch=12 n=58 v=0
33600 On ch=12 n=47 v=0
33600 On ch=12 n=59 v=127
33630 On ch=12 n=59 v=0
33660 On ch=12 n=52 v=127
33690 On ch=12 n=52 v=0
33690 On ch=12 n=53 v=127
33720 On ch=12 n=53 v=0
33720 On ch=12 n=54 v=127
33750 On ch=12 n=54 v=0
33780 On ch=12 n=49 v=127
33810 On ch=12 n=49 v=0
33840 On ch=12 n=50 v=127
33870 On ch=12 n=50 v=0
33900 On ch=12 n=47 v=127
33930 On ch=12 n=47 v=0
33960 On ch=12 n=44 v=127
33990 On ch=12 n=44 v=0
34005 On ch=12 n=78 v=100
34020 On ch=12 n=78 v=0
34020 On ch=12 n=80 v=100
34020 On ch=12 n=42 v=127
34035 On ch=12 n=80 v=0
34035 On ch=12 n=82 v=100
34050 On ch=12 n=82 v=0
34050 On ch=12 n=42 v=0
34050 On ch=12 n=83 v=100
34065 On ch=12 n=83 v=0
34065 On ch=12 n=85 v=100
34080 On ch=12 n=85 v=0
34080 On ch=12 n=87 v=100
34080 On ch=12 n=47 v=100
34440 On ch=12 n=87 v=0
34440 On ch=12 n=83 v=100
34560 On ch=12 n=83 v=0
34560 On ch=12 n=88 v=100
34920 On ch=12 n=88 v=0
34920 On ch=12 n=47 v=0
34920 On ch=12 n=85 v=100
34920 On ch=12 n=42 v=100
35040 On ch=12 n=42 v=0
35040 On ch=12 n=85 v=0
35040 On ch=12 n=90 v=100
35040 On ch=12 n=47 v=100
35400 On ch=12 n=90 v=0
35400 On ch=12 n=87 v=100
35520 On ch=12 n=87 v=0
35520 On ch=12 n=88 v=100
35640 On ch=12 n=88 v=0
35640 On ch=12 n=87 v=100
35760 On ch=12 n=87 v=0
35760 On ch=12 n=83 v=100
35880 On ch=12 n=83 v=0
35880 On ch=12 n=47 v=0
35880 On ch=12 n=85 v=100
35880 On ch=12 n=42 v=100
36000 On ch=12 n=42 v=0
36000 On ch=12 n=85 v=0
36000 On ch=12 n=87 v=100
36000 On ch=12 n=47 v=100
36360 On ch=12 n=87 v=0
36360 On ch=12 n=83 v=100
36480 On ch=12 n=83 v=0
36480 On ch=12 n=88 v=100
36840 On ch=12 n=88 v=0
36840 On ch=12 n=47 v=0
36840 On ch=12 n=85 v=100
36840 On ch=12 n=42 v=100
36960 On ch=12 n=42 v=0
36960 On ch=12 n=85 v=0
36960 On ch=12 n=47 v=100
36960 On ch=12 n=90 v=100
37320 On ch=12 n=90 v=0
37320 On ch=12 n=87 v=100
37440 On ch=12 n=87 v=0
37440 On ch=12 n=88 v=100
37560 On ch=12 n=88 v=0
37560 On ch=12 n=87 v=100
37680 On ch=12 n=87 v=0
37680 On ch=12 n=83 v=100
37800 On ch=12 n=83 v=0
37800 On ch=12 n=47 v=0
37800 On ch=12 n=42 v=100
37800 On ch=12 n=85 v=100
37920 On ch=12 n=85 v=0
37920 On ch=12 n=42 v=0
37920 On ch=12 n=55 v=100
38400 On ch=12 n=55 v=0
38400 On ch=12 n=52 v=100
38880 On ch=12 n=52 v=0
38880 On ch=12 n=59 v=100
39840 On ch=12 n=59 v=0
39840 On ch=12 n=55 v=100
40320 On ch=12 n=55 v=0
40320 On ch=12 n=52 v=100
40800 On ch=12 n=52 v=0
40800 On ch=12 n=59 v=100
42720 On ch=12 n=59 v=0
42720 On ch=12 n=45 v=100
43680 On ch=12 n=45 v=0
43680 On ch=12 n=40 v=100
44640 On ch=12 n=40 v=0
44640 On ch=12 n=47 v=100
45600 On ch=12 n=47 v=0
46560 On ch=12 n=42 v=100
46590 On ch=12 n=42 v=0
46620 On ch=12 n=43 v=100
46650 On ch=12 n=43 v=0
46680 On ch=12 n=44 v=100
46710 On ch=12 n=44 v=0
46740 On ch=12 n=45 v=100
46770 On ch=12 n=45 v=0
46800 On ch=12 n=46 v=100
46830 On ch=12 n=46 v=0
46860 On ch=12 n=47 v=100
46860 On ch=12 n=87 v=100
47220 On ch=12 n=87 v=0
47220 On ch=12 n=83 v=100
47340 On ch=12 n=83 v=0
47340 On ch=12 n=88 v=100
47700 On ch=12 n=88 v=0
47700 On ch=12 n=47 v=0
47700 On ch=12 n=42 v=100
47700 On ch=12 n=85 v=100
47820 On ch=12 n=85 v=0
47820 On ch=12 n=42 v=0
47820 On ch=12 n=90 v=100
47820 On ch=12 n=47 v=100
48180 On ch=12 n=90 v=0
48180 On ch=12 n=87 v=100
48300 On ch=12 n=87 v=0
48300 On ch=12 n=88 v=100
48420 On ch=12 n=88 v=0
48420 On ch=12 n=87 v=100
48540 On ch=12 n=87 v=0
48540 On ch=12 n=83 v=100
48660 On ch=12 n=83 v=0
48660 On ch=12 n=47 v=0
48660 On ch=12 n=85 v=100
48660 On ch=12 n=42 v=100
48780 On ch=12 n=42 v=0
48780 On ch=12 n=85 v=0
48780 On ch=12 n=87 v=100
48780 On ch=12 n=47 v=100
49140 On ch=12 n=87 v=0
49140 On ch=12 n=83 v=100
49260 On ch=12 n=83 v=0
49260 On ch=12 n=88 v=100
49620 On ch=12 n=88 v=0
49620 On ch=12 n=47 v=0
49620 On ch=12 n=85 v=100
49620 On ch=12 n=42 v=100
49740 On ch=12 n=42 v=0
49740 On ch=12 n=85 v=0
49740 On ch=12 n=90 v=100
49740 On ch=12 n=47 v=100
50100 On ch=12 n=90 v=0
50100 On ch=12 n=87 v=100
50220 On ch=12 n=87 v=0
50220 On ch=12 n=88 v=100
50340 On ch=12 n=88 v=0
50340 On ch=12 n=87 v=100
50460 On ch=12 n=87 v=0
50460 On ch=12 n=83 v=100
50580 On ch=12 n=83 v=0
50580 On ch=12 n=47 v=0
50580 On ch=12 n=85 v=100
50580 On ch=12 n=42 v=100
50700 On ch=12 n=42 v=0
50700 On ch=12 n=85 v=0
50700 On ch=12 n=55 v=100
51180 On ch=12 n=55 v=0
51180 On ch=12 n=52 v=100
51660 On ch=12 n=52 v=0
51660 On ch=12 n=59 v=100
52620 On ch=12 n=59 v=0
52620 On ch=12 n=55 v=100
53100 On ch=12 n=55 v=0
53100 On ch=12 n=52 v=100
53580 On ch=12 n=52 v=0
53580 On ch=12 n=59 v=100
55500 On ch=12 n=59 v=0
55500 On ch=12 n=63 v=100
55500 On ch=12 n=59 v=100
55500 On ch=12 n=47 v=100
55620 On ch=12 n=59 v=0
55620 On ch=12 n=63 v=0
55680 On ch=12 n=59 v=100
55680 On ch=12 n=63 v=100
55725 On ch=12 n=63 v=0
55725 On ch=12 n=59 v=0
55740 On ch=12 n=63 v=100
55740 On ch=12 n=59 v=100
55845 On ch=12 n=59 v=0
55845 On ch=12 n=63 v=0
55860 On ch=12 n=63 v=100
55860 On ch=12 n=59 v=100
55905 On ch=12 n=59 v=0
55905 On ch=12 n=63 v=0
55920 On ch=12 n=64 v=100
55920 On ch=12 n=59 v=100
56010 On ch=12 n=59 v=0
56010 On ch=12 n=64 v=0
56040 On ch=12 n=59 v=100
56040 On ch=12 n=64 v=100
56085 On ch=12 n=64 v=0
56085 On ch=12 n=59 v=0
56100 On ch=12 n=64 v=100
56100 On ch=12 n=59 v=100
56310 On ch=12 n=59 v=0
56310 On ch=12 n=64 v=0
56340 On ch=12 n=47 v=0
56340 On ch=12 n=59 v=100
56340 On ch=12 n=64 v=100
56340 On ch=12 n=42 v=100
56445 On ch=12 n=64 v=0
56445 On ch=12 n=59 v=0
56460 On ch=12 n=42 v=0
56460 On ch=12 n=59 v=100
56460 On ch=12 n=47 v=100
56460 On ch=12 n=63 v=100
56580 On ch=12 n=63 v=0
56580 On ch=12 n=59 v=0
56640 On ch=12 n=59 v=100
56640 On ch=12 n=63 v=100
56685 On ch=12 n=63 v=0
56685 On ch=12 n=59 v=0
56700 On ch=12 n=59 v=100
56700 On ch=12 n=63 v=100
56805 On ch=12 n=63 v=0
56805 On ch=12 n=59 v=0
56820 On ch=12 n=63 v=100
56820 On ch=12 n=59 v=100
56865 On ch=12 n=59 v=0
56865 On ch=12 n=63 v=0
56880 On ch=12 n=64 v=100
56880 On ch=12 n=59 v=100
56970 On ch=12 n=59 v=0
56970 On ch=12 n=64 v=0
57000 On ch=12 n=64 v=100
57000 On ch=12 n=59 v=100
57045 On ch=12 n=59 v=0
57045 On ch=12 n=64 v=0
57060 On ch=12 n=59 v=100
57060 On ch=12 n=64 v=100
57270 On ch=12 n=64 v=0
57270 On ch=12 n=59 v=0
57300 On ch=12 n=47 v=0
57300 On ch=12 n=59 v=100
57300 On ch=12 n=64 v=100
57300 On ch=12 n=42 v=100
57405 On ch=12 n=64 v=0
57405 On ch=12 n=59 v=0
57420 On ch=12 n=42 v=0
57420 On ch=12 n=59 v=100
57420 On ch=12 n=47 v=100
57420 On ch=12 n=63 v=100
57540 On ch=12 n=63 v=0
57540 On ch=12 n=59 v=0
57600 On ch=12 n=63 v=100
57600 On ch=12 n=59 v=100
57645 On ch=12 n=59 v=0
57645 On ch=12 n=63 v=0
57660 On ch=12 n=63 v=100
57660 On ch=12 n=59 v=100
57765 On ch=12 n=59 v=0
57765 On ch=12 n=63 v=0
57780 On ch=12 n=59 v=100
57780 On ch=12 n=63 v=100
57825 On ch=12 n=63 v=0
57825 On ch=12 n=59 v=0
57840 On ch=12 n=64 v=100
57840 On ch=12 n=59 v=100
57930 On ch=12 n=59 v=0
57930 On ch=12 n=64 v=0
57960 On ch=12 n=59 v=100
57960 On ch=12 n=64 v=100
58005 On ch=12 n=64 v=0
58005 On ch=12 n=59 v=0
58020 On ch=12 n=59 v=100
58020 On ch=12 n=64 v=100
58230 On ch=12 n=64 v=0
58230 On ch=12 n=59 v=0
58260 On ch=12 n=47 v=0
58260 On ch=12 n=59 v=100
58260 On ch=12 n=64 v=100
58260 On ch=12 n=42 v=100
58365 On ch=12 n=64 v=0
58365 On ch=12 n=59 v=0
58380 On ch=12 n=42 v=0
58380 On ch=12 n=63 v=100
58380 On ch=12 n=59 v=100
58380 On ch=12 n=47 v=100
58500 On ch=12 n=59 v=0
58500 On ch=12 n=63 v=0
58560 On ch=12 n=59 v=100
58560 On ch=12 n=63 v=100
58605 On ch=12 n=63 v=0
58605 On ch=12 n=59 v=0
58620 On ch=12 n=59 v=100
58620 On ch=12 n=63 v=100
58725 On ch=12 n=63 v=0
58725 On ch=12 n=59 v=0
58740 On ch=12 n=59 v=100
58740 On ch=12 n=63 v=100
58785 On ch=12 n=63 v=0
58785 On ch=12 n=59 v=0
58800 On ch=12 n=64 v=100
58800 On ch=12 n=59 v=100
58890 On ch=12 n=59 v=0
58890 On ch=12 n=64 v=0
58920 On ch=12 n=59 v=100
58920 On ch=12 n=64 v=100
58965 On ch=12 n=64 v=0
58965 On ch=12 n=59 v=0
58980 On ch=12 n=59 v=100
58980 On ch=12 n=64 v=100
59190 On ch=12 n=64 v=0
59190 On ch=12 n=59 v=0
59220 On ch=12 n=47 v=0
59220 On ch=12 n=64 v=100
59220 On ch=12 n=59 v=100
59220 On ch=12 n=42 v=100
59325 On ch=12 n=59 v=0
59325 On ch=12 n=64 v=0
59340 On ch=12 n=42 v=0
59340 On ch=12 n=63 v=100
59340 On ch=12 n=59 v=100
59340 On ch=12 n=47 v=100
59460 On ch=12 n=59 v=0
59460 On ch=12 n=63 v=0
59520 On ch=12 n=59 v=100
59520 On ch=12 n=63 v=100
59565 On ch=12 n=63 v=0
59565 On ch=12 n=59 v=0
59580 On ch=12 n=63 v=100
59580 On ch=12 n=59 v=100
59685 On ch=12 n=59 v=0
59685 On ch=12 n=63 v=0
59700 On ch=12 n=63 v=100
59700 On ch=12 n=59 v=100
59745 On ch=12 n=59 v=0
59745 On ch=12 n=63 v=0
59760 On ch=12 n=64 v=100
59760 On ch=12 n=59 v=100
59850 On ch=12 n=59 v=0
59850 On ch=12 n=64 v=0
59880 On ch=12 n=64 v=100
59880 On ch=12 n=59 v=100
59925 On ch=12 n=59 v=0
59925 On ch=12 n=64 v=0
59940 On ch=12 n=64 v=100
59940 On ch=12 n=59 v=100
60150 On ch=12 n=59 v=0
60150 On ch=12 n=64 v=0
60180 On ch=12 n=47 v=0
60180 On ch=12 n=64 v=100
60180 On ch=12 n=42 v=100
60180 On ch=12 n=59 v=100
60285 On ch=12 n=59 v=0
60285 On ch=12 n=64 v=0
60300 On ch=12 n=42 v=0
60300 On ch=12 n=59 v=100
60300 On ch=12 n=47 v=100
60300 On ch=12 n=63 v=100
60420 On ch=12 n=63 v=0
60420 On ch=12 n=59 v=0
60480 On ch=12 n=63 v=100
60480 On ch=12 n=59 v=100
60525 On ch=12 n=59 v=0
60525 On ch=12 n=63 v=0
60540 On ch=12 n=59 v=100
60540 On ch=12 n=63 v=100
60645 On ch=12 n=63 v=0
60645 On ch=12 n=59 v=0
60660 On ch=12 n=59 v=100
60660 On ch=12 n=63 v=100
60705 On ch=12 n=63 v=0
60705 On ch=12 n=59 v=0
60720 On ch=12 n=59 v=100
60720 On ch=12 n=64 v=100
60810 On ch=12 n=64 v=0
60810 On ch=12 n=59 v=0
60840 On ch=12 n=64 v=100
60840 On ch=12 n=59 v=100
60885 On ch=12 n=59 v=0
60885 On ch=12 n=64 v=0
60900 On ch=12 n=59 v=100
60900 On ch=12 n=64 v=100
61110 On ch=12 n=64 v=0
61110 On ch=12 n=59 v=0
61140 On ch=12 n=47 v=0
61140 On ch=12 n=42 v=100
61140 On ch=12 n=59 v=100
61140 On ch=12 n=64 v=100
61245 On ch=12 n=64 v=0
61245 On ch=12 n=59 v=0
61260 On ch=12 n=42 v=0
61260 On ch=12 n=63 v=100
61260 On ch=12 n=59 v=100
61260 On ch=12 n=47 v=100
61380 On ch=12 n=59 v=0
61380 On ch=12 n=63 v=0
61440 On ch=12 n=59 v=100
61440 On ch=12 n=63 v=100
61485 On ch=12 n=63 v=0
61485 On ch=12 n=59 v=0
61500 On ch=12 n=59 v=100
61500 On ch=12 n=63 v=100
61605 On ch=12 n=63 v=0
61605 On ch=12 n=59 v=0
61620 On ch=12 n=59 v=100
61620 On ch=12 n=63 v=100
61665 On ch=12 n=63 v=0
61665 On ch=12 n=59 v=0
61680 On ch=12 n=64 v=100
61680 On ch=12 n=59 v=100
61770 On ch=12 n=59 v=0
61770 On ch=12 n=64 v=0
61800 On ch=12 n=64 v=100
61800 On ch=12 n=59 v=100
61845 On ch=12 n=59 v=0
61845 On ch=12 n=64 v=0
61860 On ch=12 n=59 v=100
61860 On ch=12 n=64 v=100
62070 On ch=12 n=64 v=0
62070 On ch=12 n=59 v=0
62100 On ch=12 n=47 v=0
62100 On ch=12 n=59 v=100
62100 On ch=12 n=64 v=100
62100 On ch=12 n=42 v=100
62205 On ch=12 n=64 v=0
62205 On ch=12 n=59 v=0
62220 On ch=12 n=42 v=0
62220 On ch=12 n=55 v=100
62370 On ch=12 n=55 v=0
62400 On ch=12 n=57 v=100
62550 On ch=12 n=57 v=0
62580 On ch=12 n=59 v=100
62730 On ch=12 n=59 v=0
62760 On ch=12 n=54 v=100
62910 On ch=12 n=54 v=0
62940 On ch=12 n=52 v=100
63030 On ch=12 n=52 v=0
63060 On ch=12 n=50 v=100
63150 On ch=12 n=50 v=0
63180 On ch=12 n=56 v=100
63315 On ch=12 n=56 v=0
63360 On ch=12 n=54 v=100
63495 On ch=12 n=54 v=0
63540 On ch=12 n=52 v=100
63675 On ch=12 n=52 v=0
63720 On ch=12 n=49 v=100
63855 On ch=12 n=49 v=0
63900 On ch=12 n=52 v=100
64060 Par ch=12 c=7 v=60
64133 Par ch=12 c=7 v=61
64140 On ch=12 n=52 v=0
64140 On ch=12 n=54 v=100
64206 Par ch=12 c=7 v=62
64280 Par ch=12 c=7 v=63
64353 Par ch=12 c=7 v=64
64426 Par ch=12 c=7 v=65
64500 Par ch=12 c=7 v=66
64573 Par ch=12 c=7 v=67
64646 Par ch=12 c=7 v=68
64720 Par ch=12 c=7 v=69
64793 Par ch=12 c=7 v=70
64866 Par ch=12 c=7 v=71
64940 Par ch=12 c=7 v=72
65013 Par ch=12 c=7 v=73
65086 Par ch=12 c=7 v=74
65160 Par ch=12 c=7 v=75
65233 Par ch=12 c=7 v=76
65306 Par ch=12 c=7 v=77
65380 Par ch=12 c=7 v=78
65453 Par ch=12 c=7 v=79
65526 Par ch=12 c=7 v=80
65580 On ch=12 n=54 v=0
65596 Par ch=12 c=7 v=81
65596 Meta TrkEnd
TrkEnd
MTrk
0 Par ch=13 c=93 v=0
0 Par ch=13 c=91 v=40
180 Par ch=13 c=0 v=0
181 Par ch=13 c=32 v=0
182 PrCh ch=13 p=48
183 Par ch=13 c=7 v=100
183 Par ch=13 c=10 v=64
480 Par ch=13 c=10 v=70
20645 Par ch=13 c=7 v=66
21000 On ch=13 n=75 v=88
21120 On ch=13 n=75 v=0
21120 On ch=13 n=73 v=84
21240 On ch=13 n=73 v=0
21240 On ch=13 n=71 v=82
21360 On ch=13 n=71 v=0
21360 On ch=13 n=66 v=81
21480 On ch=13 n=66 v=0
21480 On ch=13 n=63 v=79
21600 On ch=13 n=63 v=0
21600 On ch=13 n=74 v=88
21780 On ch=13 n=74 v=0
21780 On ch=13 n=73 v=88
21960 On ch=13 n=73 v=0
21960 On ch=13 n=71 v=88
22080 On ch=13 n=71 v=0
22080 On ch=13 n=76 v=88
22260 On ch=13 n=76 v=0
22260 On ch=13 n=78 v=89
22440 On ch=13 n=78 v=0
22440 On ch=13 n=80 v=89
22560 On ch=13 n=80 v=0
22560 On ch=13 n=78 v=99
23040 On ch=13 n=76 v=120
23055 On ch=13 n=76 v=0
23100 On ch=13 n=75 v=119
23115 On ch=13 n=75 v=0
23160 On ch=13 n=76 v=115
23175 On ch=13 n=76 v=0
23220 On ch=13 n=75 v=113
23235 On ch=13 n=75 v=0
23280 On ch=13 n=76 v=113
23295 On ch=13 n=76 v=0
23340 On ch=13 n=75 v=113
23355 On ch=13 n=75 v=0
23400 On ch=13 n=76 v=113
23415 On ch=13 n=76 v=0
23460 On ch=13 n=75 v=85
24000 On ch=13 n=75 v=0
24000 On ch=13 n=73 v=119
24015 On ch=13 n=73 v=0
24060 On ch=13 n=71 v=118
24075 On ch=13 n=71 v=0
24120 On ch=13 n=73 v=116
24135 On ch=13 n=73 v=0
24180 On ch=13 n=71 v=114
24195 On ch=13 n=71 v=0
24240 On ch=13 n=73 v=112
24255 On ch=13 n=73 v=0
24300 On ch=13 n=71 v=112
24315 On ch=13 n=71 v=0
24360 On ch=13 n=68 v=111
24375 On ch=13 n=68 v=0
24420 On ch=13 n=71 v=84
24480 On ch=13 n=78 v=0
25680 On ch=13 n=71 v=0
39240 On ch=13 n=75 v=62
39360 On ch=13 n=75 v=0
39360 On ch=13 n=73 v=62
39480 On ch=13 n=73 v=0
39480 On ch=13 n=71 v=62
39600 On ch=13 n=71 v=0
39600 On ch=13 n=66 v=62
39720 On ch=13 n=66 v=0
39720 On ch=13 n=63 v=62
39840 On ch=13 n=63 v=0
39840 On ch=13 n=74 v=62
40020 On ch=13 n=74 v=0
40020 On ch=13 n=73 v=62
40200 On ch=13 n=73 v=0
40200 On ch=13 n=71 v=62
40320 On ch=13 n=71 v=0
40320 On ch=13 n=76 v=65
40500 On ch=13 n=76 v=0
40500 On ch=13 n=78 v=68
40680 On ch=13 n=78 v=0
40680 On ch=13 n=80 v=70
40800 On ch=13 n=80 v=0
40800 On ch=13 n=78 v=76
41280 On ch=13 n=76 v=119
41295 On ch=13 n=76 v=0
41340 On ch=13 n=75 v=116
41355 On ch=13 n=75 v=0
41400 On ch=13 n=76 v=113
41415 On ch=13 n=76 v=0
41460 On ch=13 n=75 v=111
41475 On ch=13 n=75 v=0
41520 On ch=13 n=76 v=109
41535 On ch=13 n=76 v=0
41580 On ch=13 n=75 v=110
41595 On ch=13 n=75 v=0
41640 On ch=13 n=76 v=111
41655 On ch=13 n=76 v=0
41700 On ch=13 n=75 v=86
42240 On ch=13 n=75 v=0
42240 On ch=13 n=76 v=116
42255 On ch=13 n=76 v=0
42300 On ch=13 n=75 v=111
42315 On ch=13 n=75 v=0
42360 On ch=13 n=76 v=108
42375 On ch=13 n=76 v=0
42420 On ch=13 n=75 v=103
42435 On ch=13 n=75 v=0
42480 On ch=13 n=76 v=99
42495 On ch=13 n=76 v=0
42540 On ch=13 n=75 v=99
42555 On ch=13 n=75 v=0
42600 On ch=13 n=71 v=99
42615 On ch=13 n=71 v=0
42660 On ch=13 n=73 v=85
42720 On ch=13 n=78 v=0
43200 On ch=13 n=73 v=0
43200 On ch=13 n=74 v=111
43215 On ch=13 n=74 v=0
43260 On ch=13 n=73 v=107
43275 On ch=13 n=73 v=0
43320 On ch=13 n=74 v=103
43335 On ch=13 n=74 v=0
43380 On ch=13 n=73 v=99
43395 On ch=13 n=73 v=0
43440 On ch=13 n=74 v=98
43455 On ch=13 n=74 v=0
43500 On ch=13 n=73 v=98
43515 On ch=13 n=73 v=0
43560 On ch=13 n=69 v=100
43575 On ch=13 n=69 v=0
43620 On ch=13 n=71 v=69
44160 On ch=13 n=71 v=0
44160 On ch=13 n=73 v=111
44175 On ch=13 n=73 v=0
44220 On ch=13 n=71 v=109
44235 On ch=13 n=71 v=0
44280 On ch=13 n=73 v=103
44295 On ch=13 n=73 v=0
44340 On ch=13 n=71 v=102
44355 On ch=13 n=71 v=0
44400 On ch=13 n=73 v=99
44415 On ch=13 n=73 v=0
44460 On ch=13 n=71 v=97
44475 On ch=13 n=71 v=0
44520 On ch=13 n=69 v=96
44535 On ch=13 n=69 v=0
44580 On ch=13 n=70 v=96
44595 On ch=13 n=70 v=0
44640 On ch=13 n=71 v=69
45120 On ch=13 n=71 v=0
45120 On ch=13 n=71 v=65
45150 On ch=13 n=71 v=0
45180 On ch=13 n=66 v=69
45210 On ch=13 n=66 v=0
45240 On ch=13 n=71 v=74
45270 On ch=13 n=71 v=0
45300 On ch=13 n=75 v=78
45330 On ch=13 n=75 v=0
45360 On ch=13 n=71 v=79
45390 On ch=13 n=71 v=0
45420 On ch=13 n=75 v=87
45465 On ch=13 n=75 v=0
45480 On ch=13 n=78 v=95
45525 On ch=13 n=78 v=0
45540 On ch=13 n=87 v=108
45585 On ch=13 n=87 v=0
45600 On ch=13 n=90 v=82
46560 On ch=13 n=90 v=0
52020 On ch=13 n=75 v=98
52140 On ch=13 n=75 v=0
52140 On ch=13 n=73 v=99
52260 On ch=13 n=73 v=0
52260 On ch=13 n=71 v=99
52380 On ch=13 n=71 v=0
52380 On ch=13 n=66 v=99
52500 On ch=13 n=66 v=0
52500 On ch=13 n=63 v=99
52620 On ch=13 n=63 v=0
52620 On ch=13 n=74 v=99
52800 On ch=13 n=74 v=0
52800 On ch=13 n=73 v=100
52980 On ch=13 n=73 v=0
52980 On ch=13 n=71 v=100
53100 On ch=13 n=71 v=0
53100 On ch=13 n=76 v=98
53280 On ch=13 n=76 v=0
53280 On ch=13 n=78 v=99
53460 On ch=13 n=78 v=0
53460 On ch=13 n=80 v=105
53580 On ch=13 n=80 v=0
53580 On ch=13 n=78 v=103
55500 On ch=13 n=78 v=0
56430 On ch=13 n=80 v=92
56445 On ch=13 n=80 v=0
56445 On ch=13 n=82 v=97
56460 On ch=13 n=82 v=0
56460 On ch=13 n=83 v=101
56460 On ch=13 n=71 v=101
56610 On ch=13 n=83 v=0
56625 On ch=13 n=71 v=0
56640 On ch=13 n=66 v=105
56640 On ch=13 n=78 v=105
56700 On ch=13 n=78 v=0
56700 On ch=13 n=66 v=0
56700 On ch=13 n=78 v=105
56700 On ch=13 n=66 v=105
56820 On ch=13 n=66 v=0
56820 On ch=13 n=78 v=0
56820 On ch=13 n=71 v=105
56820 On ch=13 n=83 v=105
56880 On ch=13 n=83 v=0
56880 On ch=13 n=71 v=0
56880 On ch=13 n=83 v=105
56880 On ch=13 n=71 v=105
56970 On ch=13 n=71 v=0
56970 On ch=13 n=83 v=0
57000 On ch=13 n=64 v=105
57000 On ch=13 n=76 v=105
57060 On ch=13 n=76 v=0
57060 On ch=13 n=64 v=0
57060 On ch=13 n=64 v=105
57060 On ch=13 n=76 v=105
57300 On ch=13 n=76 v=0
57300 On ch=13 n=64 v=0
57300 On ch=13 n=63 v=105
57300 On ch=13 n=75 v=105
58380 On ch=13 n=75 v=0
58380 On ch=13 n=63 v=0
58380 On ch=13 n=83 v=97
58380 On ch=13 n=71 v=97
58545 On ch=13 n=71 v=0
58545 On ch=13 n=83 v=0
58560 On ch=13 n=66 v=98
58560 On ch=13 n=78 v=98
58620 On ch=13 n=78 v=0
58620 On ch=13 n=66 v=0
58620 On ch=13 n=78 v=99
58620 On ch=13 n=66 v=99
58740 On ch=13 n=66 v=0
58740 On ch=13 n=78 v=0
58740 On ch=13 n=71 v=100
58740 On ch=13 n=83 v=100
58800 On ch=13 n=83 v=0
58800 On ch=13 n=71 v=0
58800 On ch=13 n=83 v=100
58800 On ch=13 n=71 v=100
58890 On ch=13 n=71 v=0
58890 On ch=13 n=83 v=0
58920 On ch=13 n=75 v=101
58920 On ch=13 n=87 v=101
58980 On ch=13 n=87 v=0
58980 On ch=13 n=75 v=0
59040 On ch=13 n=87 v=101
59040 On ch=13 n=75 v=101
59160 On ch=13 n=75 v=0
59160 On ch=13 n=87 v=0
59160 On ch=13 n=76 v=101
59160 On ch=13 n=88 v=101
59205 On ch=13 n=88 v=0
59205 On ch=13 n=76 v=0
59220 On ch=13 n=87 v=102
59220 On ch=13 n=75 v=102
59250 On ch=13 n=75 v=0
59250 On ch=13 n=87 v=0
59280 On ch=13 n=76 v=102
59280 On ch=13 n=88 v=102
59310 On ch=13 n=88 v=0
59310 On ch=13 n=76 v=0
59340 On ch=13 n=87 v=102
59340 On ch=13 n=75 v=102
60255 On ch=13 n=87 v=0
60300 On ch=13 n=75 v=0
60300 On ch=13 n=83 v=97
60300 On ch=13 n=71 v=97
60450 On ch=13 n=83 v=0
60465 On ch=13 n=71 v=0
60480 On ch=13 n=66 v=97
60480 On ch=13 n=78 v=97
60540 On ch=13 n=78 v=0
60540 On ch=13 n=66 v=0
60540 On ch=13 n=78 v=97
60540 On ch=13 n=66 v=97
60660 On ch=13 n=66 v=0
60660 On ch=13 n=78 v=0
60660 On ch=13 n=71 v=97
60660 On ch=13 n=83 v=97
60720 On ch=13 n=83 v=0
60720 On ch=13 n=71 v=0
60720 On ch=13 n=83 v=97
60720 On ch=13 n=71 v=97
60795 On ch=13 n=71 v=0
60795 On ch=13 n=83 v=0
60840 On ch=13 n=64 v=97
60840 On ch=13 n=76 v=97
60900 On ch=13 n=76 v=0
60900 On ch=13 n=64 v=0
60900 On ch=13 n=76 v=97
60900 On ch=13 n=64 v=97
61140 On ch=13 n=64 v=0
61140 On ch=13 n=76 v=0
61140 On ch=13 n=63 v=97
61140 On ch=13 n=75 v=97
61980 On ch=13 n=75 v=0
62100 On ch=13 n=79 v=39
62130 On ch=13 n=79 v=0
62130 On ch=13 n=81 v=56
62160 On ch=13 n=81 v=0
62160 On ch=13 n=83 v=74
62190 On ch=13 n=83 v=0
62190 On ch=13 n=85 v=91
62220 On ch=13 n=85 v=0
62220 On ch=13 n=63 v=0
62220 On ch=13 n=86 v=109
62400 On ch=13 n=86 v=0
62400 On ch=13 n=85 v=101
62580 On ch=13 n=85 v=0
62580 On ch=13 n=83 v=100
62760 On ch=13 n=83 v=0
62760 On ch=13 n=81 v=98
62940 On ch=13 n=81 v=0
62940 On ch=13 n=79 v=97
63045 On ch=13 n=79 v=0
63060 On ch=13 n=78 v=96
63165 On ch=13 n=78 v=0
63180 On ch=13 n=83 v=101
63360 On ch=13 n=83 v=0
63360 On ch=13 n=81 v=99
63540 On ch=13 n=81 v=0
63540 On ch=13 n=80 v=96
63720 On ch=13 n=80 v=0
63720 On ch=13 n=78 v=93
63900 On ch=13 n=78 v=0
63900 On ch=13 n=76 v=90
64020 On ch=13 n=76 v=0
64020 On ch=13 n=71 v=88
64140 On ch=13 n=71 v=0
64140 On ch=13 n=47 v=100
64140 Par ch=13 c=7 v=70
64140 On ch=13 n=78 v=86
64166 Par ch=13 c=7 v=71
64193 Par ch=13 c=7 v=72
64220 Par ch=13 c=7 v=73
64246 Par ch=13 c=7 v=74
64273 Par ch=13 c=7 v=75
64300 Par ch=13 c=7 v=76
64323 Par ch=13 c=7 v=77
64350 Par ch=13 c=7 v=78
64376 Par ch=13 c=7 v=79
64403 Par ch=13 c=7 v=80
64430 Par ch=13 c=7 v=81
64456 Par ch=13 c=7 v=82
64483 Par ch=13 c=7 v=83
64506 Par ch=13 c=7 v=84
64533 Par ch=13 c=7 v=85
64560 Par ch=13 c=7 v=86
64586 Par ch=13 c=7 v=87
64613 Par ch=13 c=7 v=88
64640 Par ch=13 c=7 v=89
64666 Par ch=13 c=7 v=90
64690 Par ch=13 c=7 v=91
64716 Par ch=13 c=7 v=92
64743 Par ch=13 c=7 v=93
64770 Par ch=13 c=7 v=94
64796 Par ch=13 c=7 v=95
64823 Par ch=13 c=7 v=96
64850 Par ch=13 c=7 v=97
64873 Par ch=13 c=7 v=98
64900 Par ch=13 c=7 v=99
64926 Par ch=13 c=7 v=100
64953 Par ch=13 c=7 v=101
64980 Par ch=13 c=7 v=102
65006 Par ch=13 c=7 v=103
65033 Par ch=13 c=7 v=104
65056 Par ch=13 c=7 v=105
65083 Par ch=13 c=7 v=106
65110 Par ch=13 c=7 v=107
65136 Par ch=13 c=7 v=108
65163 Par ch=13 c=7 v=109
65190 Par ch=13 c=7 v=110
65216 Par ch=13 c=7 v=111
65240 Par ch=13 c=7 v=112
65266 Par ch=13 c=7 v=113
65293 Par ch=13 c=7 v=114
65320 Par ch=13 c=7 v=115
65346 Par ch=13 c=7 v=116
65373 Par ch=13 c=7 v=117
65400 Par ch=13 c=7 v=118
65423 Par ch=13 c=7 v=119
65450 Par ch=13 c=7 v=120
65476 Par ch=13 c=7 v=121
65503 Par ch=13 c=7 v=122
65530 Par ch=13 c=7 v=123
65556 Par ch=13 c=7 v=124
65580 On ch=13 n=78 v=0
65580 On ch=13 n=47 v=0
65583 Par ch=13 c=7 v=125
65606 Par ch=13 c=7 v=126
65606 Meta TrkEnd
TrkEnd
MTrk
0 Par ch=14 c=93 v=0
0 Par ch=14 c=91 v=40
3 Par ch=14 c=91 v=123
185 Par ch=14 c=0 v=0
186 Par ch=14 c=32 v=0
187 PrCh ch=14 p=73
188 Par ch=14 c=7 v=127
188 Par ch=14 c=10 v=64
480 Par ch=14 c=7 v=90
6360 Pb ch=14 v=4352
6360 On ch=14 n=63 v=100
6363 Pb ch=14 v=4992
6366 Pb ch=14 v=5632
6370 Pb ch=14 v=6272
6373 Pb ch=14 v=6912
6376 Pb ch=14 v=7552
6380 Pb ch=14 v=8320
6420 On ch=14 n=63 v=0
6420 On ch=14 n=64 v=100
6480 On ch=14 n=64 v=0
6480 On ch=14 n=63 v=100
6600 On ch=14 n=63 v=0
6600 On ch=14 n=59 v=100
6660 On ch=14 n=59 v=0
6660 On ch=14 n=54 v=100
7320 On ch=14 n=54 v=0
7320 Pb ch=14 v=4224
7320 On ch=14 n=63 v=100
7323 Pb ch=14 v=4864
7326 Pb ch=14 v=5504
7330 Pb ch=14 v=6272
7333 Pb ch=14 v=6912
7336 Pb ch=14 v=7552
7340 Pb ch=14 v=8320
7380 On ch=14 n=63 v=0
7380 On ch=14 n=64 v=100
7440 On ch=14 n=64 v=0
7440 On ch=14 n=63 v=100
7560 On ch=14 n=63 v=0
7560 On ch=14 n=64 v=100
7616 Pb ch=14 v=4224
7620 On ch=14 n=64 v=0
7620 Pb ch=14 v=4864
7620 On ch=14 n=66 v=100
7623 Pb ch=14 v=5504
7626 Pb ch=14 v=6272
7630 Pb ch=14 v=6912
7633 Pb ch=14 v=7552
7636 Pb ch=14 v=8320
7740 On ch=14 n=66 v=0
7740 On ch=14 n=64 v=100
7860 On ch=14 n=64 v=0
7860 On ch=14 n=63 v=100
7920 Pb ch=14 v=8320
7923 Pb ch=14 v=6784
7926 Pb ch=14 v=5120
7930 Pb ch=14 v=3456
7933 Pb ch=14 v=1792
7936 Pb ch=14 v=128
7980 On ch=14 n=63 v=0
7980 Pb ch=14 v=8320
7980 On ch=14 n=59 v=100
8280 On ch=14 n=59 v=0
8280 Pb ch=14 v=6784
8280 On ch=14 n=63 v=100
8283 Pb ch=14 v=7168
8286 Pb ch=14 v=7552
8290 Pb ch=14 v=7936
8293 Pb ch=14 v=8320
8340 On ch=14 n=63 v=0
8340 On ch=14 n=64 v=100
8400 On ch=14 n=64 v=0
8400 On ch=14 n=63 v=100
8520 On ch=14 n=63 v=0
8520 On ch=14 n=59 v=100
8580 On ch=14 n=59 v=0
8580 On ch=14 n=54 v=100
9240 On ch=14 n=54 v=0
9240 Pb ch=14 v=5248
9240 On ch=14 n=63 v=100
9243 Pb ch=14 v=5760
9246 Pb ch=14 v=6400
9250 Pb ch=14 v=7040
9253 Pb ch=14 v=7680
9256 Pb ch=14 v=8320
9300 On ch=14 n=63 v=0
9300 On ch=14 n=64 v=100
9360 On ch=14 n=64 v=0
9360 On ch=14 n=63 v=100
9480 On ch=14 n=63 v=0
9480 On ch=14 n=64 v=100
9540 On ch=14 n=64 v=0
9540 Pb ch=14 v=4352
9540 On ch=14 n=66 v=100
9543 Pb ch=14 v=4864
9546 Pb ch=14 v=5376
9550 Pb ch=14 v=6016
9553 Pb ch=14 v=6528
9556 Pb ch=14 v=7168
9560 Pb ch=14 v=7680
9563 Pb ch=14 v=8320
9660 On ch=14 n=66 v=0
9660 On ch=14 n=64 v=100
9780 On ch=14 n=64 v=0
9780 Pb ch=14 v=16383
9780 On ch=14 n=61 v=100
9820 Pb ch=14 v=16383
9823 Pb ch=14 v=15744
9826 Pb ch=14 v=14976
9830 Pb ch=14 v=14208
9833 Pb ch=14 v=13568
9836 Pb ch=14 v=12800
9840 Pb ch=14 v=12032
9843 Pb ch=14 v=11264
9846 Pb ch=14 v=10624
9850 Pb ch=14 v=9856
9853 Pb ch=14 v=9088
9856 Pb ch=14 v=8320
9900 On ch=14 n=61 v=0
9900 On ch=14 n=59 v=100
10200 On ch=14 n=59 v=0
10200 Pb ch=14 v=2304
10200 On ch=14 n=66 v=110
10203 Pb ch=14 v=3456
10206 Pb ch=14 v=4608
10210 Pb ch=14 v=5888
10213 Pb ch=14 v=7040
10216 Pb ch=14 v=8320
10260 On ch=14 n=66 v=0
10260 On ch=14 n=66 v=113
10380 On ch=14 n=66 v=0
10380 On ch=14 n=67 v=109
10440 On ch=14 n=67 v=0
10440 On ch=14 n=66 v=109
10560 On ch=14 n=66 v=0
10560 On ch=14 n=64 v=100
10620 On ch=14 n=64 v=0
10620 On ch=14 n=69 v=100
10623 Pb ch=14 v=128
10643 Pb ch=14 v=128
10646 Pb ch=14 v=1408
10650 Pb ch=14 v=2816
10653 Pb ch=14 v=4224
10656 Pb ch=14 v=5504
10660 Pb ch=14 v=6912
10663 Pb ch=14 v=8320
10740 On ch=14 n=69 v=0
10740 On ch=14 n=69 v=104
11160 On ch=14 n=69 v=0
11160 On ch=14 n=62 v=105
11220 On ch=14 n=62 v=0
11220 On ch=14 n=62 v=105
11336 Pb ch=14 v=16383
11340 On ch=14 n=62 v=0
11340 On ch=14 n=62 v=107
11376 Pb ch=14 v=16383
11380 Pb ch=14 v=15872
11383 Pb ch=14 v=15232
11386 Pb ch=14 v=14592
11390 Pb ch=14 v=13952
11393 Pb ch=14 v=13312
11396 Pb ch=14 v=12672
11400 Pb ch=14 v=12160
11403 Pb ch=14 v=11520
11406 Pb ch=14 v=10880
11410 Pb ch=14 v=10240
11413 Pb ch=14 v=9600
11416 Pb ch=14 v=8960
11420 Pb ch=14 v=8320
11460 On ch=14 n=62 v=0
11460 On ch=14 n=62 v=107
11520 On ch=14 n=62 v=0
11520 On ch=14 n=62 v=100
11640 On ch=14 n=62 v=0
11640 Pb ch=14 v=3968
11640 On ch=14 n=66 v=107
11643 Pb ch=14 v=4736
11646 Pb ch=14 v=5632
11650 Pb ch=14 v=6528
11653 Pb ch=14 v=7424
11656 Pb ch=14 v=8320
11700 On ch=14 n=66 v=0
11700 On ch=14 n=66 v=108
12120 On ch=14 n=66 v=0
12120 On ch=14 n=66 v=104
12180 On ch=14 n=66 v=0
12180 On ch=14 n=66 v=103
12300 On ch=14 n=66 v=0
12300 On ch=14 n=67 v=106
12420 On ch=14 n=67 v=0
12420 On ch=14 n=66 v=107
12480 On ch=14 n=66 v=0
12480 On ch=14 n=64 v=108
12600 On ch=14 n=64 v=0
12600 Pb ch=14 v=128
12600 On ch=14 n=69 v=100
12603 Pb ch=14 v=1280
12606 Pb ch=14 v=2432
12610 Pb ch=14 v=3584
12613 Pb ch=14 v=4736
12616 Pb ch=14 v=5888
12620 Pb ch=14 v=7040
12623 Pb ch=14 v=8320
12656 Pb ch=14 v=4096
12660 On ch=14 n=69 v=0
12660 Pb ch=14 v=4736
12660 On ch=14 n=69 v=112
12663 Pb ch=14 v=5504
12666 Pb ch=14 v=6144
12670 Pb ch=14 v=6912
12673 Pb ch=14 v=7552
12676 Pb ch=14 v=8320
13080 On ch=14 n=69 v=0
13080 On ch=14 n=62 v=100
13140 On ch=14 n=62 v=0
13140 On ch=14 n=62 v=100
13256 Pb ch=14 v=16383
13260 On ch=14 n=62 v=0
13260 On ch=14 n=62 v=100
13320 Pb ch=14 v=16383
13323 Pb ch=14 v=15488
13326 Pb ch=14 v=14592
13330 Pb ch=14 v=13696
13333 Pb ch=14 v=12800
13336 Pb ch=14 v=11904
13340 Pb ch=14 v=11008
13343 Pb ch=14 v=10112
13346 Pb ch=14 v=9216
13350 Pb ch=14 v=8320
13440 On ch=14 n=62 v=0
13440 On ch=14 n=62 v=100
13620 On ch=14 n=62 v=0
13620 Pb ch=14 v=1664
13620 On ch=14 n=66 v=114
13623 Pb ch=14 v=2176
13626 Pb ch=14 v=2816
13630 Pb ch=14 v=3456
13633 Pb ch=14 v=3968
13636 Pb ch=14 v=4608
13640 Pb ch=14 v=5248
13643 Pb ch=14 v=5888
13646 Pb ch=14 v=6400
13650 Pb ch=14 v=7040
13653 Pb ch=14 v=7680
13656 Pb ch=14 v=8320
13920 On ch=14 n=66 v=0
13920 Pb ch=14 v=1664
13920 On ch=14 n=66 v=111
13923 Pb ch=14 v=2304
13926 Pb ch=14 v=3072
13930 Pb ch=14 v=3840
13933 Pb ch=14 v=4608
13936 Pb ch=14 v=5248
13940 Pb ch=14 v=6016
13943 Pb ch=14 v=6784
13946 Pb ch=14 v=7552
13950 Pb ch=14 v=8320
15840 On ch=14 n=66 v=0
15840 Pb ch=14 v=4224
15840 On ch=14 n=71 v=100
15843 Pb ch=14 v=4608
15846 Pb ch=14 v=4992
15850 Pb ch=14 v=5376
15853 Pb ch=14 v=5760
15856 Pb ch=14 v=6272
15860 Pb ch=14 v=6656
15863 Pb ch=14 v=7040
15866 Pb ch=14 v=7424
15870 Pb ch=14 v=7808
15873 Pb ch=14 v=8320
16020 On ch=14 n=71 v=0
16020 On ch=14 n=66 v=90
16080 On ch=14 n=66 v=0
16080 On ch=14 n=66 v=90
16200 On ch=14 n=66 v=0
16200 On ch=14 n=71 v=90
16260 On ch=14 n=71 v=0
16260 Pb ch=14 v=4864
16260 On ch=14 n=71 v=94
16263 Pb ch=14 v=5248
16266 Pb ch=14 v=5760
16270 Pb ch=14 v=6272
16273 Pb ch=14 v=6784
16276 Pb ch=14 v=7296
16280 Pb ch=14 v=7808
16283 Pb ch=14 v=8320
16380 On ch=14 n=71 v=0
16380 On ch=14 n=64 v=87
16500 On ch=14 n=64 v=0
16500 Pb ch=14 v=4992
16500 On ch=14 n=64 v=84
16503 Pb ch=14 v=5376
16506 Pb ch=14 v=5760
16510 Pb ch=14 v=6144
16513 Pb ch=14 v=6656
16516 Pb ch=14 v=7040
16520 Pb ch=14 v=7424
16523 Pb ch=14 v=7808
16526 Pb ch=14 v=8320
16800 On ch=14 n=64 v=0
16980 Pb ch=14 v=3200
16980 On ch=14 n=66 v=111
16983 Pb ch=14 v=3840
16986 Pb ch=14 v=4608
16990 Pb ch=14 v=5376
16993 Pb ch=14 v=6016
16996 Pb ch=14 v=6784
17000 Pb ch=14 v=7552
17003 Pb ch=14 v=8320
17040 On ch=14 n=66 v=0
17040 On ch=14 n=71 v=113
17160 On ch=14 n=71 v=0
17160 On ch=14 n=75 v=119
17280 On ch=14 n=75 v=0
17280 Pb ch=14 v=3968
17280 On ch=14 n=76 v=127
17283 Pb ch=14 v=4608
17286 Pb ch=14 v=5376
17290 Pb ch=14 v=6144
17293 Pb ch=14 v=6784
17296 Pb ch=14 v=7552
17300 Pb ch=14 v=8320
17400 On ch=14 n=76 v=0
17400 On ch=14 n=75 v=123
17446 Pb ch=14 v=13696
17450 Pb ch=14 v=13056
17453 Pb ch=14 v=12416
17456 Pb ch=14 v=11776
17460 Pb ch=14 v=11008
17463 Pb ch=14 v=10368
17466 Pb ch=14 v=9728
17470 Pb ch=14 v=9088
17473 Pb ch=14 v=8320
17520 On ch=14 n=75 v=0
17520 On ch=14 n=71 v=119
17760 On ch=14 n=71 v=0
17760 On ch=14 n=71 v=100
17940 On ch=14 n=71 v=0
17940 On ch=14 n=66 v=100
18000 On ch=14 n=66 v=0
18000 On ch=14 n=66 v=100
18120 On ch=14 n=66 v=0
18120 On ch=14 n=71 v=100
18180 On ch=14 n=71 v=0
18180 Pb ch=14 v=6656
18180 On ch=14 n=71 v=100
18183 Pb ch=14 v=7040
18186 Pb ch=14 v=7424
18190 Pb ch=14 v=7808
18193 Pb ch=14 v=8320
18300 On ch=14 n=71 v=0
18300 On ch=14 n=64 v=100
18420 On ch=14 n=64 v=0
18420 On ch=14 n=64 v=100
18720 On ch=14 n=64 v=0
18900 On ch=14 n=66 v=100
18903 Pb ch=14 v=2944
18906 Pb ch=14 v=3712
18910 Pb ch=14 v=4480
18913 Pb ch=14 v=5248
18916 Pb ch=14 v=6016
18920 Pb ch=14 v=6784
18923 Pb ch=14 v=7552
18926 Pb ch=14 v=8320
18960 On ch=14 n=66 v=0
18960 On ch=14 n=71 v=100
19080 On ch=14 n=71 v=0
19080 Pb ch=14 v=4352
19080 On ch=14 n=75 v=127
19083 Pb ch=14 v=4736
19086 Pb ch=14 v=5248
19090 Pb ch=14 v=5760
19093 Pb ch=14 v=6272
19096 Pb ch=14 v=6784
19100 Pb ch=14 v=7296
19103 Pb ch=14 v=7808
19106 Pb ch=14 v=8320
19200 On ch=14 n=75 v=0
19200 On ch=14 n=76 v=122
19320 On ch=14 n=76 v=0
19320 On ch=14 n=75 v=116
19356 Pb ch=14 v=14336
19360 Pb ch=14 v=13952
19363 Pb ch=14 v=13568
19366 Pb ch=14 v=13056
19370 Pb ch=14 v=12672
19373 Pb ch=14 v=12288
19376 Pb ch=14 v=11776
19380 Pb ch=14 v=11392
19383 Pb ch=14 v=11008
19386 Pb ch=14 v=10496
19390 Pb ch=14 v=10112
19393 Pb ch=14 v=9728
19396 Pb ch=14 v=9216
19400 Pb ch=14 v=8832
19403 Pb ch=14 v=8320
19440 On ch=14 n=75 v=0
19440 On ch=14 n=71 v=114
19680 On ch=14 n=71 v=0
19860 On ch=14 n=71 v=118
19863 Pb ch=14 v=512
19866 Pb ch=14 v=1280
19870 Pb ch=14 v=2048
19873 Pb ch=14 v=2816
19876 Pb ch=14 v=3584
19880 Pb ch=14 v=4352
19883 Pb ch=14 v=5120
19886 Pb ch=14 v=5888
19890 Pb ch=14 v=6656
19893 Pb ch=14 v=7424
19896 Pb ch=14 v=8320
19980 On ch=14 n=71 v=0
19980 On ch=14 n=69 v=119
20100 On ch=14 n=69 v=0
20100 On ch=14 n=67 v=116
20160 On ch=14 n=67 v=0
20160 Pb ch=14 v=16383
20160 On ch=14 n=64 v=116
20216 Pb ch=14 v=16256
20220 Pb ch=14 v=15360
20223 Pb ch=14 v=14336
20226 Pb ch=14 v=13312
20230 Pb ch=14 v=12288
20233 Pb ch=14 v=11392
20236 Pb ch=14 v=10368
20240 Pb ch=14 v=9344
20243 Pb ch=14 v=8320
20460 On ch=14 n=64 v=0
20460 Pb ch=14 v=2816
20460 On ch=14 n=64 v=100
20463 Pb ch=14 v=3456
20466 Pb ch=14 v=4096
20470 Pb ch=14 v=4864
20473 Pb ch=14 v=5504
20476 Pb ch=14 v=6144
20480 Pb ch=14 v=6912
20483 Pb ch=14 v=7552
20486 Pb ch=14 v=8320
20580 On ch=14 n=64 v=0
20580 On ch=14 n=59 v=100
20640 On ch=14 n=59 v=0
20640 On ch=14 n=64 v=100
20760 On ch=14 n=64 v=0
20760 On ch=14 n=66 v=109
21600 On ch=14 n=66 v=0
21600 On ch=14 n=67 v=113
21780 On ch=14 n=67 v=0
21780 On ch=14 n=66 v=110
21960 On ch=14 n=66 v=0
21960 On ch=14 n=64 v=104
22080 On ch=14 n=64 v=0
22080 On ch=14 n=62 v=103
22260 On ch=14 n=62 v=0
22260 On ch=14 n=61 v=100
22440 On ch=14 n=61 v=0
22440 On ch=14 n=57 v=100
22560 On ch=14 n=57 v=0
22560 Pb ch=14 v=1792
22560 On ch=14 n=61 v=100
22563 Pb ch=14 v=2816
22566 Pb ch=14 v=3968
22570 Pb ch=14 v=4992
22573 Pb ch=14 v=6144
22576 Pb ch=14 v=7168
22580 Pb ch=14 v=8320
22680 On ch=14 n=61 v=0
22680 On ch=14 n=59 v=93
24120 On ch=14 n=59 v=0
24600 Pb ch=14 v=5376
24600 On ch=14 n=63 v=100
24603 Pb ch=14 v=5760
24606 Pb ch=14 v=6272
24610 Pb ch=14 v=6784
24613 Pb ch=14 v=7296
24616 Pb ch=14 v=7808
24620 Pb ch=14 v=8320
24660 On ch=14 n=63 v=0
24660 On ch=14 n=64 v=100
24720 On ch=14 n=64 v=0
24720 On ch=14 n=63 v=100
24840 On ch=14 n=63 v=0
24840 On ch=14 n=59 v=100
24900 On ch=14 n=59 v=0
24900 On ch=14 n=54 v=100
25440 On ch=14 n=54 v=0
25560 Pb ch=14 v=6272
25560 On ch=14 n=63 v=100
25563 Pb ch=14 v=6528
25566 Pb ch=14 v=6912
25570 Pb ch=14 v=7296
25573 Pb ch=14 v=7552
25576 Pb ch=14 v=7936
25580 Pb ch=14 v=8320
25620 On ch=14 n=63 v=0
25620 On ch=14 n=64 v=100
25680 On ch=14 n=64 v=0
25680 On ch=14 n=63 v=100
25740 On ch=14 n=63 v=0
25740 On ch=14 n=64 v=100
25860 On ch=14 n=64 v=0
25860 On ch=14 n=66 v=100
25980 On ch=14 n=66 v=0
25980 On ch=14 n=64 v=100
26100 On ch=14 n=64 v=0
26100 On ch=14 n=63 v=100
26160 Pb ch=14 v=8320
26163 Pb ch=14 v=7936
26166 Pb ch=14 v=7424
26170 Pb ch=14 v=6912
26173 Pb ch=14 v=6400
26176 Pb ch=14 v=6016
26180 Pb ch=14 v=5504
26183 Pb ch=14 v=4992
26186 Pb ch=14 v=4480
26190 Pb ch=14 v=4096
26193 Pb ch=14 v=3584
26196 Pb ch=14 v=3072
26200 Pb ch=14 v=2560
26203 Pb ch=14 v=2176
26206 Pb ch=14 v=1664
26210 Pb ch=14 v=1152
26213 Pb ch=14 v=640
26216 Pb ch=14 v=128
26220 On ch=14 n=63 v=0
26220 Pb ch=14 v=8192
26220 On ch=14 n=59 v=100
26400 On ch=14 n=59 v=0
26520 On ch=14 n=63 v=100
26580 On ch=14 n=63 v=0
26580 On ch=14 n=64 v=100
26640 On ch=14 n=64 v=0
26640 On ch=14 n=63 v=100
26760 On ch=14 n=63 v=0
26760 On ch=14 n=59 v=100
26820 On ch=14 n=59 v=0
26820 On ch=14 n=54 v=100
27480 On ch=14 n=54 v=0
27480 On ch=14 n=63 v=100
27540 On ch=14 n=63 v=0
27540 On ch=14 n=64 v=100
27600 On ch=14 n=64 v=0
27600 On ch=14 n=63 v=100
27660 On ch=14 n=63 v=0
27660 On ch=14 n=64 v=100
27780 On ch=14 n=64 v=0
27780 Pb ch=14 v=4224
27780 On ch=14 n=66 v=100
27783 Pb ch=14 v=4608
27786 Pb ch=14 v=5120
27790 Pb ch=14 v=5504
27793 Pb ch=14 v=6016
27796 Pb ch=14 v=6400
27800 Pb ch=14 v=6912
27803 Pb ch=14 v=7296
27806 Pb ch=14 v=7808
27810 Pb ch=14 v=8320
27900 On ch=14 n=66 v=0
27900 On ch=14 n=64 v=100
28020 On ch=14 n=64 v=0
28020 On ch=14 n=63 v=100
28080 Pb ch=14 v=8320
28083 Pb ch=14 v=7936
28086 Pb ch=14 v=7424
28090 Pb ch=14 v=7040
28093 Pb ch=14 v=6528
28096 Pb ch=14 v=6144
28100 Pb ch=14 v=5632
28103 Pb ch=14 v=5248
28106 Pb ch=14 v=4736
28110 Pb ch=14 v=4352
28113 Pb ch=14 v=3840
28116 Pb ch=14 v=3456
28120 Pb ch=14 v=2944
28123 Pb ch=14 v=2560
28126 Pb ch=14 v=2048
28130 Pb ch=14 v=1664
28133 Pb ch=14 v=1152
28136 Pb ch=14 v=768
28140 On ch=14 n=63 v=0
28140 Pb ch=14 v=256
28140 On ch=14 n=59 v=100
28143 Pb ch=14 v=8320
28146 Pb ch=14 v=8320
28440 On ch=14 n=59 v=0
28440 On ch=14 n=66 v=110
28500 On ch=14 n=66 v=0
28500 On ch=14 n=66 v=113
28620 On ch=14 n=66 v=0
28620 On ch=14 n=67 v=109
28740 On ch=14 n=67 v=0
28740 On ch=14 n=66 v=109
28800 On ch=14 n=66 v=0
28800 On ch=14 n=64 v=100
28920 On ch=14 n=64 v=0
28920 Pb ch=14 v=128
28920 On ch=14 n=69 v=100
28923 Pb ch=14 v=1408
28926 Pb ch=14 v=2816
28930 Pb ch=14 v=4224
28933 Pb ch=14 v=5504
28936 Pb ch=14 v=6912
28940 Pb ch=14 v=8320
28980 On ch=14 n=69 v=0
28980 On ch=14 n=69 v=104
29400 On ch=14 n=69 v=0
29400 On ch=14 n=62 v=105
29460 On ch=14 n=62 v=0
29460 On ch=14 n=62 v=105
29580 On ch=14 n=62 v=0
29580 On ch=14 n=62 v=107
29583 Pb ch=14 v=16383
29640 Pb ch=14 v=16383
29643 Pb ch=14 v=15232
29646 Pb ch=14 v=14080
29650 Pb ch=14 v=12928
29653 Pb ch=14 v=11776
29656 Pb ch=14 v=10624
29660 Pb ch=14 v=9472
29663 Pb ch=14 v=8320
29700 On ch=14 n=62 v=0
29700 On ch=14 n=62 v=107
29760 On ch=14 n=62 v=0
29760 Pb ch=14 v=128
29760 On ch=14 n=62 v=100
29763 Pb ch=14 v=896
29766 Pb ch=14 v=1664
29770 Pb ch=14 v=2560
29773 Pb ch=14 v=3328
29776 Pb ch=14 v=4224
29780 Pb ch=14 v=4992
29783 Pb ch=14 v=5760
29786 Pb ch=14 v=6656
29790 Pb ch=14 v=7424
29793 Pb ch=14 v=8320
29880 On ch=14 n=62 v=0
29880 On ch=14 n=66 v=100
29940 On ch=14 n=66 v=0
29940 On ch=14 n=66 v=108
30240 On ch=14 n=66 v=0
30360 On ch=14 n=66 v=104
30420 On ch=14 n=66 v=0
30420 On ch=14 n=66 v=103
30540 On ch=14 n=66 v=0
30540 On ch=14 n=67 v=106
30660 On ch=14 n=67 v=0
30660 On ch=14 n=66 v=107
30720 On ch=14 n=66 v=0
30720 Pb ch=14 v=5248
30720 Pb ch=14 v=8320
30720 On ch=14 n=64 v=108
30723 Pb ch=14 v=5760
30726 Pb ch=14 v=6400
30730 Pb ch=14 v=7040
30733 Pb ch=14 v=7680
30736 Pb ch=14 v=8320
30840 On ch=14 n=64 v=0
30840 Pb ch=14 v=128
30840 Pb ch=14 v=128
30840 On ch=14 n=69 v=100
30843 Pb ch=14 v=1664
30843 Pb ch=14 v=1664
30846 Pb ch=14 v=3328
30846 Pb ch=14 v=3328
30850 Pb ch=14 v=4992
30850 Pb ch=14 v=4992
30853 Pb ch=14 v=6656
30853 Pb ch=14 v=6656
30856 Pb ch=14 v=8320
30856 Pb ch=14 v=8320
30900 On ch=14 n=69 v=0
30900 Pb ch=14 v=6400
30900 Pb ch=14 v=4224
30900 On ch=14 n=69 v=112
30903 Pb ch=14 v=6784
30903 Pb ch=14 v=5248
30906 Pb ch=14 v=7168
30906 Pb ch=14 v=6272
30910 Pb ch=14 v=7552
30910 Pb ch=14 v=7296
30913 Pb ch=14 v=7936
30913 Pb ch=14 v=8320
30916 Pb ch=14 v=8320
31320 On ch=14 n=69 v=0
31320 On ch=14 n=62 v=100
31380 On ch=14 n=62 v=0
31380 On ch=14 n=62 v=100
31500 On ch=14 n=62 v=0
31500 Pb ch=14 v=1280
31500 On ch=14 n=64 v=100
31503 Pb ch=14 v=2176
31506 Pb ch=14 v=3200
31510 Pb ch=14 v=4224
31513 Pb ch=14 v=5248
31516 Pb ch=14 v=6272
31520 Pb ch=14 v=7296
31523 Pb ch=14 v=8320
31620 On ch=14 n=64 v=0
31620 On ch=14 n=62 v=100
31680 On ch=14 n=62 v=0
31680 On ch=14 n=62 v=100
31860 On ch=14 n=62 v=0
31860 Pb ch=14 v=1152
31860 On ch=14 n=66 v=114
31863 Pb ch=14 v=2560
31866 Pb ch=14 v=3968
31870 Pb ch=14 v=5376
31873 Pb ch=14 v=6784
31876 Pb ch=14 v=8320
32160 On ch=14 n=66 v=0
32160 On ch=14 n=66 v=111
34080 On ch=14 n=66 v=0
34080 Pb ch=14 v=128
34080 On ch=14 n=71 v=100
34083 Pb ch=14 v=1280
34086 Pb ch=14 v=2432
34090 Pb ch=14 v=3584
34093 Pb ch=14 v=4736
34096 Pb ch=14 v=5888
34100 Pb ch=14 v=7040
34103 Pb ch=14 v=8320
34260 On ch=14 n=71 v=0
34260 On ch=14 n=66 v=90
34320 On ch=14 n=66 v=0
34320 On ch=14 n=66 v=90
34440 On ch=14 n=66 v=0
34440 On ch=14 n=71 v=90
34500 On ch=14 n=71 v=0
34500 On ch=14 n=71 v=94
34620 On ch=14 n=71 v=0
34620 On ch=14 n=64 v=87
34740 On ch=14 n=64 v=0
34740 Pb ch=14 v=4224
34740 On ch=14 n=64 v=84
34743 Pb ch=14 v=4864
34746 Pb ch=14 v=5504
34750 Pb ch=14 v=6272
34753 Pb ch=14 v=6912
34756 Pb ch=14 v=7552
34760 Pb ch=14 v=8320
35040 On ch=14 n=64 v=0
35220 Pb ch=14 v=2816
35220 On ch=14 n=66 v=111
35223 Pb ch=14 v=3328
35226 Pb ch=14 v=3968
35230 Pb ch=14 v=4608
35233 Pb ch=14 v=5248
35236 Pb ch=14 v=5760
35240 Pb ch=14 v=6400
35243 Pb ch=14 v=7040
35246 Pb ch=14 v=7680
35250 Pb ch=14 v=8320
35280 On ch=14 n=66 v=0
35280 On ch=14 n=71 v=113
35400 On ch=14 n=71 v=0
35400 Pb ch=14 v=2816
35400 On ch=14 n=75 v=119
35403 Pb ch=14 v=3584
35406 Pb ch=14 v=4352
35410 Pb ch=14 v=5120
35413 Pb ch=14 v=5888
35416 Pb ch=14 v=6656
35420 Pb ch=14 v=7424
35423 Pb ch=14 v=8320
35520 On ch=14 n=75 v=0
35520 Pb ch=14 v=3200
35520 On ch=14 n=76 v=127
35523 Pb ch=14 v=3840
35526 Pb ch=14 v=4480
35530 Pb ch=14 v=5120
35533 Pb ch=14 v=5760
35536 Pb ch=14 v=6400
35540 Pb ch=14 v=7040
35543 Pb ch=14 v=7680
35546 Pb ch=14 v=8320
35640 On ch=14 n=76 v=0
35640 On ch=14 n=75 v=123
35686 Pb ch=14 v=14720
35690 Pb ch=14 v=14080
35693 Pb ch=14 v=13312
35696 Pb ch=14 v=12672
35700 Pb ch=14 v=11904
35703 Pb ch=14 v=11264
35706 Pb ch=14 v=10496
35710 Pb ch=14 v=9856
35713 Pb ch=14 v=9088
35716 Pb ch=14 v=8320
35760 On ch=14 n=75 v=0
35760 On ch=14 n=71 v=119
36000 On ch=14 n=71 v=0
36000 On ch=14 n=71 v=100
36180 On ch=14 n=71 v=0
36180 On ch=14 n=66 v=100
36240 On ch=14 n=66 v=0
36240 On ch=14 n=66 v=100
36360 On ch=14 n=66 v=0
36360 On ch=14 n=71 v=100
36420 On ch=14 n=71 v=0
36420 Pb ch=14 v=4096
36420 On ch=14 n=71 v=100
36423 Pb ch=14 v=4608
36426 Pb ch=14 v=5120
36430 Pb ch=14 v=5632
36433 Pb ch=14 v=6144
36436 Pb ch=14 v=6656
36440 Pb ch=14 v=7168
36443 Pb ch=14 v=7680
36446 Pb ch=14 v=8320
36540 On ch=14 n=71 v=0
36540 On ch=14 n=64 v=100
36660 On ch=14 n=64 v=0
36660 On ch=14 n=64 v=100
36960 On ch=14 n=64 v=0
37140 On ch=14 n=66 v=100
37143 Pb ch=14 v=5120
37146 Pb ch=14 v=5632
37150 Pb ch=14 v=6144
37153 Pb ch=14 v=6656
37156 Pb ch=14 v=7168
37160 Pb ch=14 v=7680
37163 Pb ch=14 v=8320
37200 On ch=14 n=66 v=0
37200 On ch=14 n=71 v=100
37320 On ch=14 n=71 v=0
37320 On ch=14 n=75 v=127
37440 On ch=14 n=75 v=0
37440 On ch=14 n=76 v=122
37560 On ch=14 n=76 v=0
37560 On ch=14 n=75 v=116
37593 Pb ch=14 v=14848
37596 Pb ch=14 v=14464
37600 Pb ch=14 v=14080
37603 Pb ch=14 v=13568
37606 Pb ch=14 v=13184
37610 Pb ch=14 v=12672
37613 Pb ch=14 v=12288
37616 Pb ch=14 v=11904
37620 Pb ch=14 v=11392
37623 Pb ch=14 v=11008
37626 Pb ch=14 v=10496
37630 Pb ch=14 v=10112
37633 Pb ch=14 v=9728
37636 Pb ch=14 v=9216
37640 Pb ch=14 v=8832
37643 Pb ch=14 v=8320
37680 On ch=14 n=75 v=0
37680 On ch=14 n=71 v=114
37920 On ch=14 n=71 v=0
38100 Pb ch=14 v=256
38100 On ch=14 n=71 v=118
38103 Pb ch=14 v=1024
38106 Pb ch=14 v=1792
38110 Pb ch=14 v=2560
38113 Pb ch=14 v=3456
38116 Pb ch=14 v=4224
38120 Pb ch=14 v=4992
38123 Pb ch=14 v=5888
38126 Pb ch=14 v=6656
38130 Pb ch=14 v=7424
38133 Pb ch=14 v=8320
38220 On ch=14 n=71 v=0
38220 On ch=14 n=69 v=119
38340 On ch=14 n=69 v=0
38340 On ch=14 n=67 v=116
38400 On ch=14 n=67 v=0
38400 Pb ch=14 v=16383
38400 On ch=14 n=64 v=115
38453 Pb ch=14 v=16383
38456 Pb ch=14 v=15488
38460 Pb ch=14 v=14592
38463 Pb ch=14 v=13696
38466 Pb ch=14 v=12800
38470 Pb ch=14 v=11904
38473 Pb ch=14 v=11008
38476 Pb ch=14 v=10112
38480 Pb ch=14 v=9216
38483 Pb ch=14 v=8320
38700 On ch=14 n=64 v=0
38700 On ch=14 n=64 v=100
38820 On ch=14 n=64 v=0
38820 On ch=14 n=59 v=100
38880 On ch=14 n=59 v=0
38880 On ch=14 n=64 v=100
39000 On ch=14 n=64 v=0
39000 Pb ch=14 v=5120
39000 On ch=14 n=66 v=109
39003 Pb ch=14 v=5376
39006 Pb ch=14 v=5760
39010 Pb ch=14 v=6144
39013 Pb ch=14 v=6528
39016 Pb ch=14 v=6784
39020 Pb ch=14 v=7168
39023 Pb ch=14 v=7552
39026 Pb ch=14 v=7936
39030 Pb ch=14 v=8320
39840 On ch=14 n=66 v=0
39840 On ch=14 n=67 v=113
40020 On ch=14 n=67 v=0
40020 On ch=14 n=66 v=110
40200 On ch=14 n=66 v=0
40200 On ch=14 n=64 v=104
40320 On ch=14 n=64 v=0
40320 On ch=14 n=62 v=103
40500 On ch=14 n=62 v=0
40500 On ch=14 n=61 v=100
40680 On ch=14 n=61 v=0
40680 On ch=14 n=57 v=100
40800 On ch=14 n=57 v=0
40800 Pb ch=14 v=5248
40800 On ch=14 n=61 v=100
40803 Pb ch=14 v=5632
40806 Pb ch=14 v=6016
40810 Pb ch=14 v=6528
40813 Pb ch=14 v=6912
40816 Pb ch=14 v=7424
40820 Pb ch=14 v=7808
40823 Pb ch=14 v=8320
40920 On ch=14 n=61 v=0
40920 On ch=14 n=59 v=93
41760 On ch=14 n=59 v=0
46860 Pb ch=14 v=4096
46860 Pb ch=14 v=4352
46860 On ch=14 n=71 v=116
46863 Pb ch=14 v=4864
46863 Pb ch=14 v=4736
46866 Pb ch=14 v=5760
46866 Pb ch=14 v=5248
46870 Pb ch=14 v=6528
46870 Pb ch=14 v=5760
46873 Pb ch=14 v=7424
46873 Pb ch=14 v=6272
46876 Pb ch=14 v=8320
46876 Pb ch=14 v=6784
46880 Pb ch=14 v=7296
46883 Pb ch=14 v=7808
46886 Pb ch=14 v=8320
47040 On ch=14 n=71 v=0
47040 On ch=14 n=66 v=115
47100 On ch=14 n=66 v=0
47100 On ch=14 n=66 v=114
47220 On ch=14 n=66 v=0
47220 On ch=14 n=71 v=113
47280 On ch=14 n=71 v=0
47280 Pb ch=14 v=5504
47280 On ch=14 n=71 v=113
47283 Pb ch=14 v=5888
47286 Pb ch=14 v=6400
47290 Pb ch=14 v=6912
47293 Pb ch=14 v=7296
47296 Pb ch=14 v=7808
47300 Pb ch=14 v=8320
47400 On ch=14 n=71 v=0
47400 On ch=14 n=64 v=112
47520 On ch=14 n=64 v=0
47520 On ch=14 n=64 v=111
47820 On ch=14 n=64 v=0
48000 Pb ch=14 v=5248
48000 On ch=14 n=66 v=111
48003 Pb ch=14 v=5632
48006 Pb ch=14 v=6016
48010 Pb ch=14 v=6528
48013 Pb ch=14 v=6912
48016 Pb ch=14 v=7424
48020 Pb ch=14 v=7808
48023 Pb ch=14 v=8320
48060 On ch=14 n=66 v=0
48060 On ch=14 n=71 v=113
48180 On ch=14 n=71 v=0
48180 On ch=14 n=75 v=119
48300 On ch=14 n=75 v=0
48300 Pb ch=14 v=5632
48300 On ch=14 n=76 v=127
48303 Pb ch=14 v=6016
48306 Pb ch=14 v=6528
48310 Pb ch=14 v=6912
48313 Pb ch=14 v=7424
48316 Pb ch=14 v=7808
48320 Pb ch=14 v=8320
48420 On ch=14 n=76 v=0
48420 On ch=14 n=75 v=123
48473 Pb ch=14 v=16383
48476 Pb ch=14 v=15232
48480 Pb ch=14 v=14080
48483 Pb ch=14 v=12928
48486 Pb ch=14 v=11776
48490 Pb ch=14 v=10624
48493 Pb ch=14 v=9472
48496 Pb ch=14 v=8320
48540 On ch=14 n=75 v=0
48540 On ch=14 n=71 v=119
48780 On ch=14 n=71 v=0
48780 Pb ch=14 v=4864
48780 Pb ch=14 v=4096
48780 On ch=14 n=71 v=115
48783 Pb ch=14 v=5504
48783 Pb ch=14 v=4864
48786 Pb ch=14 v=6144
48786 Pb ch=14 v=5760
48790 Pb ch=14 v=6912
48790 Pb ch=14 v=6528
48793 Pb ch=14 v=7552
48793 Pb ch=14 v=7424
48796 Pb ch=14 v=8320
48796 Pb ch=14 v=8320
48960 On ch=14 n=71 v=0
48960 On ch=14 n=66 v=115
49020 On ch=14 n=66 v=0
49020 On ch=14 n=66 v=116
49140 On ch=14 n=66 v=0
49140 On ch=14 n=71 v=116
49200 On ch=14 n=71 v=0
49200 On ch=14 n=71 v=116
49320 On ch=14 n=71 v=0
49320 On ch=14 n=64 v=117
49440 On ch=14 n=64 v=0
49440 On ch=14 n=64 v=117
49740 On ch=14 n=64 v=0
49920 Pb ch=14 v=1792
49920 On ch=14 n=66 v=100
49923 Pb ch=14 v=2560
49926 Pb ch=14 v=3328
49930 Pb ch=14 v=4224
49933 Pb ch=14 v=4992
49936 Pb ch=14 v=5760
49940 Pb ch=14 v=6656
49943 Pb ch=14 v=7424
49946 Pb ch=14 v=8320
49980 On ch=14 n=66 v=0
49980 On ch=14 n=71 v=100
50100 On ch=14 n=71 v=0
50100 Pb ch=14 v=4224
50100 On ch=14 n=75 v=127
50103 Pb ch=14 v=4992
50106 Pb ch=14 v=5760
50110 Pb ch=14 v=6656
50113 Pb ch=14 v=7424
50116 Pb ch=14 v=8320
50220 On ch=14 n=75 v=0
50220 On ch=14 n=76 v=122
50340 On ch=14 n=76 v=0
50340 Pb ch=14 v=10880
50340 On ch=14 n=75 v=116
50343 Pb ch=14 v=10112
50346 Pb ch=14 v=9216
50350 Pb ch=14 v=8320
50373 Pb ch=14 v=16383
50376 Pb ch=14 v=15872
50380 Pb ch=14 v=15360
50383 Pb ch=14 v=14848
50386 Pb ch=14 v=14336
50390 Pb ch=14 v=13696
50393 Pb ch=14 v=13184
50396 Pb ch=14 v=12672
50400 Pb ch=14 v=12160
50403 Pb ch=14 v=11648
50406 Pb ch=14 v=11008
50410 Pb ch=14 v=10496
50413 Pb ch=14 v=9984
50416 Pb ch=14 v=9472
50420 Pb ch=14 v=8960
50423 Pb ch=14 v=8320
50460 On ch=14 n=75 v=0
50460 On ch=14 n=71 v=114
50835 On ch=14 n=71 v=0
50880 Pb ch=14 v=2048
50880 Pb ch=14 v=2432
50880 On ch=14 n=71 v=118
50883 Pb ch=14 v=2944
50883 Pb ch=14 v=3072
50886 Pb ch=14 v=3840
50886 Pb ch=14 v=3840
50890 Pb ch=14 v=4736
50890 Pb ch=14 v=4608
50893 Pb ch=14 v=5632
50893 Pb ch=14 v=5376
50896 Pb ch=14 v=6528
50896 Pb ch=14 v=6016
50900 Pb ch=14 v=7424
50900 Pb ch=14 v=6784
50903 Pb ch=14 v=8320
50903 Pb ch=14 v=7552
50906 Pb ch=14 v=8320
51000 On ch=14 n=71 v=0
51000 On ch=14 n=69 v=119
51120 On ch=14 n=69 v=0
51120 On ch=14 n=67 v=116
51180 On ch=14 n=67 v=0
51180 Pb ch=14 v=16383
51180 On ch=14 n=64 v=115
51233 Pb ch=14 v=16256
51236 Pb ch=14 v=14976
51240 Pb ch=14 v=13696
51243 Pb ch=14 v=12288
51246 Pb ch=14 v=11008
51250 Pb ch=14 v=9728
51253 Pb ch=14 v=8320
51480 On ch=14 n=64 v=0
51480 On ch=14 n=64 v=100
51600 On ch=14 n=64 v=0
51600 On ch=14 n=59 v=100
51660 On ch=14 n=59 v=0
51660 On ch=14 n=64 v=100
51780 On ch=14 n=64 v=0
51780 On ch=14 n=66 v=109
52620 On ch=14 n=66 v=0
52620 Pb ch=14 v=6144
52620 On ch=14 n=67 v=122
52623 Pb ch=14 v=6656
52626 Pb ch=14 v=7168
52630 Pb ch=14 v=7680
52633 Pb ch=14 v=8320
52800 On ch=14 n=67 v=0
52800 On ch=14 n=66 v=122
52980 On ch=14 n=66 v=0
52980 On ch=14 n=64 v=121
53100 On ch=14 n=64 v=0
53100 On ch=14 n=62 v=120
53280 On ch=14 n=62 v=0
53280 On ch=14 n=61 v=120
53460 On ch=14 n=61 v=0
53460 On ch=14 n=57 v=119
53580 On ch=14 n=57 v=0
53580 Pb ch=14 v=4608
53580 On ch=14 n=61 v=118
53583 Pb ch=14 v=5120
53586 Pb ch=14 v=5632
53590 Pb ch=14 v=6144
53593 Pb ch=14 v=6656
53596 Pb ch=14 v=7168
53600 Pb ch=14 v=7680
53603 Pb ch=14 v=8320
53700 On ch=14 n=61 v=0
53700 On ch=14 n=59 v=118
54540 On ch=14 n=59 v=0
55500 Pb ch=14 v=2176
55500 On ch=14 n=71 v=119
55503 Pb ch=14 v=2944
55506 Pb ch=14 v=3840
55510 Pb ch=14 v=4736
55513 Pb ch=14 v=5632
55516 Pb ch=14 v=6528
55520 Pb ch=14 v=7424
55523 Pb ch=14 v=8320
55680 On ch=14 n=71 v=0
55680 On ch=14 n=66 v=119
55740 On ch=14 n=66 v=0
55740 On ch=14 n=66 v=119
55860 On ch=14 n=66 v=0
55860 On ch=14 n=71 v=119
55920 On ch=14 n=71 v=0
55920 On ch=14 n=71 v=119
56040 On ch=14 n=71 v=0
56040 On ch=14 n=64 v=119
56160 On ch=14 n=64 v=0
56160 Pb ch=14 v=2176
56160 On ch=14 n=64 v=119
56163 Pb ch=14 v=2944
56166 Pb ch=14 v=3840
56170 Pb ch=14 v=4736
56173 Pb ch=14 v=5632
56176 Pb ch=14 v=6528
56180 Pb ch=14 v=7424
56183 Pb ch=14 v=8320
56390 Pb ch=14 v=16383
56393 Pb ch=14 v=15488
56396 Pb ch=14 v=14592
56400 Pb ch=14 v=13696
56400 Pb ch=14 v=16383
56403 Pb ch=14 v=12800
56403 Pb ch=14 v=15616
56406 Pb ch=14 v=11904
56406 Pb ch=14 v=14848
56410 Pb ch=14 v=11008
56410 Pb ch=14 v=14080
56413 Pb ch=14 v=10112
56413 Pb ch=14 v=13184
56416 Pb ch=14 v=9216
56416 Pb ch=14 v=12416
56420 Pb ch=14 v=8320
56420 Pb ch=14 v=11648
56423 Pb ch=14 v=10752
56426 Pb ch=14 v=9984
56430 Pb ch=14 v=9216
56433 Pb ch=14 v=8320
56460 On ch=14 n=64 v=0
56460 On ch=14 n=63 v=119
57420 On ch=14 n=63 v=0
57420 Pb ch=14 v=2432
57420 On ch=14 n=71 v=119
57423 Pb ch=14 v=3200
57426 Pb ch=14 v=4096
57430 Pb ch=14 v=4864
57433 Pb ch=14 v=5760
57436 Pb ch=14 v=6528
57440 Pb ch=14 v=7424
57443 Pb ch=14 v=8320
57600 On ch=14 n=71 v=0
57600 On ch=14 n=66 v=119
57660 On ch=14 n=66 v=0
57660 On ch=14 n=66 v=119
57780 On ch=14 n=66 v=0
57780 On ch=14 n=71 v=119
57840 On ch=14 n=71 v=0
57840 On ch=14 n=71 v=119
57960 On ch=14 n=71 v=0
57960 On ch=14 n=75 v=119
58020 On ch=14 n=75 v=0
58080 Pb ch=14 v=16383
58080 On ch=14 n=75 v=119
58083 Pb ch=14 v=15104
58086 Pb ch=14 v=13696
58090 Pb ch=14 v=12416
58093 Pb ch=14 v=11008
58096 Pb ch=14 v=9728
58100 Pb ch=14 v=8320
58343 Pb ch=14 v=8320
58346 Pb ch=14 v=9856
58350 Pb ch=14 v=11520
58353 Pb ch=14 v=13056
58356 Pb ch=14 v=14720
58360 Pb ch=14 v=16383
58366 Pb ch=14 v=12416
58370 Pb ch=14 v=12032
58373 Pb ch=14 v=11520
58376 Pb ch=14 v=11136
58376 Pb ch=14 v=16383
58380 Pb ch=14 v=10624
58380 Pb ch=14 v=15488
58383 Pb ch=14 v=10240
58383 Pb ch=14 v=14464
58386 Pb ch=14 v=9728
58386 Pb ch=14 v=13440
58390 Pb ch=14 v=9344
58390 Pb ch=14 v=12416
58393 Pb ch=14 v=8832
58393 Pb ch=14 v=11392
58396 Pb ch=14 v=8320
58396 Pb ch=14 v=10368
58400 Pb ch=14 v=9344
58403 Pb ch=14 v=8320
59340 On ch=14 n=75 v=0
59340 Pb ch=14 v=4736
59340 On ch=14 n=71 v=117
59343 Pb ch=14 v=5632
59346 Pb ch=14 v=6528
59350 Pb ch=14 v=7424
59353 Pb ch=14 v=8320
59520 On ch=14 n=71 v=0
59520 On ch=14 n=66 v=117
59580 On ch=14 n=66 v=0
59580 On ch=14 n=66 v=117
59700 On ch=14 n=66 v=0
59700 On ch=14 n=71 v=117
59760 On ch=14 n=71 v=0
59760 On ch=14 n=71 v=117
59880 On ch=14 n=71 v=0
59880 On ch=14 n=64 v=117
60000 On ch=14 n=64 v=0
60000 On ch=14 n=64 v=117
60240 On ch=14 n=64 v=0
60240 Pb ch=14 v=16383
60240 On ch=14 n=64 v=117
60243 Pb ch=14 v=15488
60246 Pb ch=14 v=14464
60250 Pb ch=14 v=13440
60253 Pb ch=14 v=12416
60256 Pb ch=14 v=11392
60260 Pb ch=14 v=10368
60263 Pb ch=14 v=9344
60266 Pb ch=14 v=8320
60300 On ch=14 n=64 v=0
60300 On ch=14 n=63 v=117
61260 On ch=14 n=63 v=0
61260 On ch=14 n=71 v=117
61440 On ch=14 n=71 v=0
61440 On ch=14 n=66 v=117
61500 On ch=14 n=66 v=0
61500 On ch=14 n=66 v=117
61620 On ch=14 n=66 v=0
61620 On ch=14 n=71 v=117
61680 On ch=14 n=71 v=0
61680 On ch=14 n=71 v=117
61800 On ch=14 n=71 v=0
61800 On ch=14 n=75 v=117
61860 On ch=14 n=75 v=0
61860 On ch=14 n=75 v=117
62220 On ch=14 n=75 v=0
62220 Par ch=14 c=7 v=101
62220 On ch=14 n=74 v=114
62255 Par ch=14 c=7 v=100
62285 Par ch=14 c=7 v=99
62315 Par ch=14 c=7 v=98
62345 Par ch=14 c=7 v=97
62375 Par ch=14 c=7 v=96
62410 Par ch=14 c=7 v=95
62440 Par ch=14 c=7 v=94
62470 Par ch=14 c=7 v=93
62500 Par ch=14 c=7 v=92
62530 Par ch=14 c=7 v=91
62565 Par ch=14 c=7 v=90
62595 Par ch=14 c=7 v=89
62625 Par ch=14 c=7 v=88
62655 Par ch=14 c=7 v=87
62685 Par ch=14 c=7 v=86
62720 Par ch=14 c=7 v=85
62750 Par ch=14 c=7 v=84
62780 Par ch=14 c=7 v=83
62810 Par ch=14 c=7 v=82
62840 Par ch=14 c=7 v=81
62875 Par ch=14 c=7 v=80
62905 Par ch=14 c=7 v=79
62935 Par ch=14 c=7 v=78
62965 Par ch=14 c=7 v=77
62995 Par ch=14 c=7 v=76
63030 Par ch=14 c=7 v=75
63060 Par ch=14 c=7 v=74
63090 Par ch=14 c=7 v=73
63120 Par ch=14 c=7 v=72
63150 Par ch=14 c=7 v=71
63185 Par ch=14 c=7 v=70
63215 Par ch=14 c=7 v=69
63245 Par ch=14 c=7 v=68
63275 Par ch=14 c=7 v=67
63305 Par ch=14 c=7 v=66
63340 Par ch=14 c=7 v=65
63370 Par ch=14 c=7 v=64
63400 Par ch=14 c=7 v=63
63430 Par ch=14 c=7 v=62
63460 Par ch=14 c=7 v=61
63495 Par ch=14 c=7 v=60
63525 Par ch=14 c=7 v=59
63555 Par ch=14 c=7 v=58
63585 Par ch=14 c=7 v=57
63615 Par ch=14 c=7 v=56
63650 Par ch=14 c=7 v=55
63680 Par ch=14 c=7 v=54
63710 Par ch=14 c=7 v=53
63740 Par ch=14 c=7 v=52
63770 Par ch=14 c=7 v=51
63805 Par ch=14 c=7 v=50
63835 Par ch=14 c=7 v=49
63865 Par ch=14 c=7 v=48
63895 Par ch=14 c=7 v=47
63925 Par ch=14 c=7 v=46
63960 Par ch=14 c=7 v=45
63990 Par ch=14 c=7 v=44
64020 Par ch=14 c=7 v=43
64050 Par ch=14 c=7 v=42
64080 Par ch=14 c=7 v=41
64115 Par ch=14 c=7 v=40
64145 Par ch=14 c=7 v=39
64175 Par ch=14 c=7 v=38
64205 Par ch=14 c=7 v=37
64235 Par ch=14 c=7 v=36
64270 Par ch=14 c=7 v=35
64300 Par ch=14 c=7 v=34
64330 Par ch=14 c=7 v=33
64360 Par ch=14 c=7 v=32
64390 Par ch=14 c=7 v=31
64425 Par ch=14 c=7 v=30
64455 Par ch=14 c=7 v=29
64485 Par ch=14 c=7 v=28
64515 Par ch=14 c=7 v=27
64545 Par ch=14 c=7 v=26
64580 Par ch=14 c=7 v=25
64610 Par ch=14 c=7 v=24
64640 Par ch=14 c=7 v=23
64670 Par ch=14 c=7 v=22
64700 Par ch=14 c=7 v=21
64730 Par ch=14 c=7 v=20
64745 Par ch=14 c=7 v=20
64750 Par ch=14 c=7 v=19
64770 Par ch=14 c=7 v=18
64790 Par ch=14 c=7 v=17
64806 Par ch=14 c=7 v=16
64826 Par ch=14 c=7 v=15
64846 Par ch=14 c=7 v=14
64866 Par ch=14 c=7 v=13
64886 Par ch=14 c=7 v=12
64903 Par ch=14 c=7 v=11
64923 Par ch=14 c=7 v=10
64943 Par ch=14 c=7 v=9
64963 Par ch=14 c=7 v=8
64980 On ch=14 n=74 v=0
64983 Par ch=14 c=7 v=7
65003 Par ch=14 c=7 v=6
65020 Par ch=14 c=7 v=5
65040 Par ch=14 c=7 v=4
65060 Par ch=14 c=7 v=3
65080 Par ch=14 c=7 v=2
65100 Par ch=14 c=7 v=1
65116 Par ch=14 c=7 v=0
65116 Meta TrkEnd
TrkEnd
MTrk
0 Par ch=15 c=93 v=0
0 Par ch=15 c=91 v=40
190 Par ch=15 c=0 v=0
191 Par ch=15 c=32 v=0
192 PrCh ch=15 p=0
193 Par ch=15 c=7 v=100
193 Par ch=15 c=10 v=64
193 Meta TrkEnd
TrkEnd
MTrk
0 Par ch=16 c=93 v=0
0 Par ch=16 c=91 v=40
195 Par ch=16 c=0 v=0
196 Par ch=16 c=32 v=0
197 PrCh ch=16 p=68
198 Par ch=16 c=7 v=100
198 Par ch=16 c=10 v=64
476 Par ch=16 c=10 v=49
483 Par ch=16 c=10 v=46
20950 Par ch=16 c=7 v=98
20953 Par ch=16 c=7 v=97
21000 On ch=16 n=75 v=77
21120 On ch=16 n=75 v=0
21120 On ch=16 n=73 v=84
21240 On ch=16 n=73 v=0
21240 On ch=16 n=71 v=85
21360 On ch=16 n=71 v=0
21360 On ch=16 n=66 v=88
21480 On ch=16 n=66 v=0
21480 On ch=16 n=63 v=90
21600 On ch=16 n=63 v=0
21600 On ch=16 n=62 v=93
22080 On ch=16 n=62 v=0
22080 On ch=16 n=64 v=100
22560 On ch=16 n=64 v=0
22560 On ch=16 n=66 v=100
23520 On ch=16 n=66 v=0
24000 Par ch=16 c=91 v=124
25198 Pb ch=16 v=8080
25200 On ch=16 n=66 v=74
25213 Pb ch=16 v=8192
25320 On ch=16 n=66 v=0
25320 On ch=16 n=80 v=72
25440 On ch=16 n=80 v=0
25440 On ch=16 n=78 v=68
26160 On ch=16 n=78 v=0
26160 On ch=16 n=76 v=70
26280 On ch=16 n=76 v=0
26280 On ch=16 n=78 v=70
26400 On ch=16 n=78 v=0
26401 On ch=16 n=75 v=71
26611 Par ch=16 c=1 v=1
26622 Par ch=16 c=1 v=3
26640 Par ch=16 c=1 v=5
26657 Par ch=16 c=1 v=7
26670 Par ch=16 c=1 v=9
26707 Par ch=16 c=1 v=10
26726 Par ch=16 c=1 v=12
26740 Par ch=16 c=1 v=14
26751 Par ch=16 c=1 v=16
26753 Par ch=16 c=1 v=14
26756 Par ch=16 c=1 v=16
26772 Par ch=16 c=1 v=18
26781 Par ch=16 c=1 v=20
26803 Par ch=16 c=1 v=21
26842 Par ch=16 c=1 v=23
26923 Par ch=16 c=1 v=21
26929 Par ch=16 c=1 v=20
26932 Par ch=16 c=1 v=16
26934 Par ch=16 c=1 v=14
26937 Par ch=16 c=1 v=12
26938 Par ch=16 c=1 v=10
26942 Par ch=16 c=1 v=9
26947 Par ch=16 c=1 v=7
26955 Par ch=16 c=1 v=5
26958 Par ch=16 c=1 v=3
26960 Par ch=16 c=1 v=1
26963 Par ch=16 c=1 v=0
26964 Par ch=16 c=1 v=0
27120 On ch=16 n=66 v=72
27121 On ch=16 n=75 v=0
27240 On ch=16 n=66 v=0
27240 On ch=16 n=80 v=70
27362 On ch=16 n=80 v=0
27364 On ch=16 n=78 v=69
27583 Par ch=16 c=1 v=1
27585 Par ch=16 c=1 v=0
27587 Par ch=16 c=1 v=1
27591 Par ch=16 c=1 v=3
27598 Par ch=16 c=1 v=5
27620 Par ch=16 c=1 v=7
27642 Par ch=16 c=1 v=9
27644 Par ch=16 c=1 v=7
27647 Par ch=16 c=1 v=9
27689 Par ch=16 c=1 v=10
27716 Par ch=16 c=1 v=12
27722 Par ch=16 c=1 v=14
27727 Par ch=16 c=1 v=16
27731 Par ch=16 c=1 v=18
27742 Par ch=16 c=1 v=20
27758 Par ch=16 c=1 v=21
27768 Par ch=16 c=1 v=23
27780 Par ch=16 c=1 v=25
27788 Par ch=16 c=1 v=27
27794 Par ch=16 c=1 v=29
27799 Par ch=16 c=1 v=31
27806 Par ch=16 c=1 v=32
27814 Par ch=16 c=1 v=34
27819 Par ch=16 c=1 v=36
27825 Par ch=16 c=1 v=38
27886 Par ch=16 c=1 v=36
27888 Par ch=16 c=1 v=38
27890 Par ch=16 c=1 v=36
27897 Par ch=16 c=1 v=34
27899 Par ch=16 c=1 v=32
27903 Par ch=16 c=1 v=31
27908 Par ch=16 c=1 v=29
27912 Par ch=16 c=1 v=27
27918 Par ch=16 c=1 v=25
27923 Par ch=16 c=1 v=23
27943 Par ch=16 c=1 v=21
27947 Par ch=16 c=1 v=23
27949 Par ch=16 c=1 v=21
28065 Par ch=16 c=1 v=18
28067 Par ch=16 c=1 v=14
28069 Par ch=16 c=1 v=7
28071 Par ch=16 c=1 v=0
28072 Par ch=16 c=1 v=0
28080 On ch=16 n=76 v=68
28081 On ch=16 n=78 v=0
28200 On ch=16 n=76 v=0
28205 On ch=16 n=78 v=67
28320 On ch=16 n=81 v=70
28325 On ch=16 n=78 v=0
28474 Par ch=16 c=1 v=1
28476 Par ch=16 c=1 v=3
28483 Par ch=16 c=1 v=5
28519 Par ch=16 c=1 v=7
28528 Par ch=16 c=1 v=9
28537 Par ch=16 c=1 v=10
28541 Par ch=16 c=1 v=12
28544 Par ch=16 c=1 v=14
28548 Par ch=16 c=1 v=16
28550 Par ch=16 c=1 v=18
28554 Par ch=16 c=1 v=20
28563 Par ch=16 c=1 v=21
28566 Par ch=16 c=1 v=20
28570 Par ch=16 c=1 v=21
28575 Par ch=16 c=1 v=20
28579 Par ch=16 c=1 v=21
28583 Par ch=16 c=1 v=20
28585 Par ch=16 c=1 v=21
28588 Par ch=16 c=1 v=20
28593 Par ch=16 c=1 v=21
28628 Par ch=16 c=1 v=23
28630 Par ch=16 c=1 v=21
28633 Par ch=16 c=1 v=23
28643 Par ch=16 c=1 v=25
28795 Par ch=16 c=1 v=27
28823 Par ch=16 c=1 v=29
28843 Par ch=16 c=1 v=31
28853 Par ch=16 c=1 v=32
28899 Par ch=16 c=1 v=34
28920 On ch=16 n=81 v=0
28920 On ch=16 n=81 v=71
28932 Par ch=16 c=1 v=36
28934 Par ch=16 c=1 v=34
28935 On ch=16 n=81 v=0
28955 Par ch=16 c=1 v=36
28980 On ch=16 n=79 v=70
28995 On ch=16 n=79 v=0
29040 On ch=16 n=78 v=69
29055 On ch=16 n=78 v=0
29100 On ch=16 n=74 v=69
29108 Par ch=16 c=1 v=32
29110 Par ch=16 c=1 v=31
29113 Par ch=16 c=1 v=29
29115 On ch=16 n=74 v=0
29115 Par ch=16 c=1 v=27
29117 Par ch=16 c=1 v=25
29119 Par ch=16 c=1 v=23
29122 Par ch=16 c=1 v=21
29123 Par ch=16 c=1 v=20
29126 Par ch=16 c=1 v=16
29128 Par ch=16 c=1 v=12
29130 Par ch=16 c=1 v=9
29132 Par ch=16 c=1 v=3
29135 Par ch=16 c=1 v=0
29135 Par ch=16 c=1 v=0
29160 On ch=16 n=71 v=68
29175 On ch=16 n=71 v=0
29220 On ch=16 n=69 v=68
29235 On ch=16 n=69 v=0
29280 On ch=16 n=78 v=68
29940 On ch=16 n=78 v=0
29940 On ch=16 n=79 v=65
29955 On ch=16 n=79 v=0
30000 On ch=16 n=78 v=65
30015 On ch=16 n=78 v=0
30060 On ch=16 n=74 v=65
30075 On ch=16 n=74 v=0
30120 On ch=16 n=71 v=64
30135 On ch=16 n=71 v=0
30180 On ch=16 n=69 v=64
30195 On ch=16 n=69 v=0
30240 On ch=16 n=81 v=70
30840 On ch=16 n=81 v=0
30840 On ch=16 n=81 v=61
30855 On ch=16 n=81 v=0
30900 On ch=16 n=80 v=61
30915 On ch=16 n=80 v=0
30960 On ch=16 n=81 v=61
30975 On ch=16 n=81 v=0
31020 On ch=16 n=76 v=63
31035 On ch=16 n=76 v=0
31080 On ch=16 n=73 v=63
31095 On ch=16 n=73 v=0
31140 On ch=16 n=69 v=65
31155 On ch=16 n=69 v=0
31200 On ch=16 n=78 v=74
31860 On ch=16 n=78 v=0
31860 On ch=16 n=79 v=75
31875 On ch=16 n=79 v=0
31920 On ch=16 n=78 v=71
31935 On ch=16 n=78 v=0
31980 On ch=16 n=74 v=70
31995 On ch=16 n=74 v=0
32040 On ch=16 n=71 v=67
32055 On ch=16 n=71 v=0
32100 On ch=16 n=69 v=67
32115 On ch=16 n=69 v=0
39240 On ch=16 n=75 v=89
39360 On ch=16 n=75 v=0
39360 On ch=16 n=73 v=89
39480 On ch=16 n=73 v=0
39480 On ch=16 n=71 v=89
39600 On ch=16 n=71 v=0
39600 On ch=16 n=66 v=89
39720 On ch=16 n=66 v=0
39720 On ch=16 n=63 v=89
39840 On ch=16 n=63 v=0
39840 On ch=16 n=62 v=89
40320 On ch=16 n=62 v=0
40320 On ch=16 n=64 v=89
40800 On ch=16 n=64 v=0
40800 On ch=16 n=66 v=89
41760 On ch=16 n=66 v=0
45600 On ch=16 n=81 v=61
46560 On ch=16 n=81 v=0
52020 On ch=16 n=75 v=87
52140 On ch=16 n=75 v=0
52140 On ch=16 n=73 v=87
52260 On ch=16 n=73 v=0
52260 On ch=16 n=71 v=87
52286 Par ch=16 c=1 v=0
52370 Par ch=16 c=1 v=1
52380 On ch=16 n=71 v=0
52380 On ch=16 n=66 v=88
52453 Par ch=16 c=1 v=2
52500 On ch=16 n=66 v=0
52500 On ch=16 n=63 v=88
52533 Par ch=16 c=1 v=3
52616 Par ch=16 c=1 v=4
52620 On ch=16 n=63 v=0
52620 On ch=16 n=62 v=89
52696 Par ch=16 c=1 v=5
52780 Par ch=16 c=1 v=6
52860 Par ch=16 c=1 v=7
52943 Par ch=16 c=1 v=8
53023 Par ch=16 c=1 v=9
53100 On ch=16 n=62 v=0
53100 On ch=16 n=64 v=90
53106 Par ch=16 c=1 v=10
53186 Par ch=16 c=1 v=11
53270 Par ch=16 c=1 v=12
53353 Par ch=16 c=1 v=13
53433 Par ch=16 c=1 v=14
53516 Par ch=16 c=1 v=15
53580 On ch=16 n=64 v=0
53580 On ch=16 n=66 v=92
53596 Par ch=16 c=1 v=16
53680 Par ch=16 c=1 v=17
53760 Par ch=16 c=1 v=18
53843 Par ch=16 c=1 v=19
53923 Par ch=16 c=1 v=20
54006 Par ch=16 c=1 v=21
54086 Par ch=16 c=1 v=22
54540 On ch=16 n=66 v=0
56446 Par ch=16 c=7 v=81
56460 On ch=16 n=71 v=100
56640 On ch=16 n=71 v=0
56640 On ch=16 n=66 v=100
56700 On ch=16 n=66 v=0
56700 On ch=16 n=66 v=100
56820 On ch=16 n=66 v=0
56820 On ch=16 n=71 v=100
56880 On ch=16 n=71 v=0
56880 On ch=16 n=71 v=100
57000 On ch=16 n=71 v=0
57000 On ch=16 n=64 v=100
57120 On ch=16 n=64 v=0
57120 On ch=16 n=64 v=100
57240 On ch=16 n=64 v=0
57240 On ch=16 n=64 v=100
57300 On ch=16 n=64 v=0
57300 On ch=16 n=63 v=100
58380 On ch=16 n=63 v=0
58380 On ch=16 n=71 v=100
58560 On ch=16 n=71 v=0
58560 On ch=16 n=66 v=100
58620 On ch=16 n=66 v=0
58620 On ch=16 n=66 v=100
58740 On ch=16 n=66 v=0
58740 On ch=16 n=71 v=100
58800 On ch=16 n=71 v=0
58800 On ch=16 n=71 v=100
58920 On ch=16 n=71 v=0
58920 On ch=16 n=75 v=100
59040 On ch=16 n=75 v=0
59040 On ch=16 n=75 v=100
59160 On ch=16 n=75 v=0
59160 On ch=16 n=76 v=100
59220 On ch=16 n=76 v=0
59220 On ch=16 n=75 v=100
59280 On ch=16 n=75 v=0
59280 On ch=16 n=76 v=100
59340 On ch=16 n=76 v=0
59340 On ch=16 n=75 v=100
60300 On ch=16 n=75 v=0
60300 On ch=16 n=71 v=100
60480 On ch=16 n=71 v=0
60480 On ch=16 n=66 v=100
60540 On ch=16 n=66 v=0
60540 On ch=16 n=66 v=100
60660 On ch=16 n=66 v=0
60660 On ch=16 n=71 v=100
60720 On ch=16 n=71 v=0
60720 On ch=16 n=71 v=100
60840 On ch=16 n=71 v=0
60840 On ch=16 n=64 v=100
60960 On ch=16 n=64 v=0
60960 On ch=16 n=64 v=100
61080 On ch=16 n=64 v=0
61080 On ch=16 n=64 v=100
61140 On ch=16 n=64 v=0
61140 On ch=16 n=63 v=100
62220 On ch=16 n=63 v=0
62220 On ch=16 n=74 v=100
62400 On ch=16 n=74 v=0
62400 On ch=16 n=73 v=100
62580 On ch=16 n=73 v=0
62580 On ch=16 n=71 v=100
62760 On ch=16 n=71 v=0
62760 On ch=16 n=69 v=100
62940 On ch=16 n=69 v=0
62940 On ch=16 n=67 v=100
63060 On ch=16 n=67 v=0
63060 On ch=16 n=66 v=100
63180 On ch=16 n=66 v=0
63180 On ch=16 n=71 v=100
63360 On ch=16 n=71 v=0
63360 On ch=16 n=69 v=100
63540 On ch=16 n=69 v=0
63540 On ch=16 n=68 v=100
63720 On ch=16 n=68 v=0
63720 On ch=16 n=66 v=100
63900 On ch=16 n=66 v=0
63900 On ch=16 n=64 v=100
64020 On ch=16 n=64 v=0
64020 On ch=16 n=59 v=100
64130 Par ch=16 c=7 v=83
64140 On ch=16 n=59 v=0
64140 On ch=16 n=78 v=79
64173 Par ch=16 c=7 v=84
64213 Par ch=16 c=7 v=85
64253 Par ch=16 c=7 v=86
64293 Par ch=16 c=7 v=87
64333 Par ch=16 c=7 v=88
64373 Par ch=16 c=7 v=89
64413 Par ch=16 c=7 v=90
64453 Par ch=16 c=7 v=91
64493 Par ch=16 c=7 v=92
64533 Par ch=16 c=7 v=93
64573 Par ch=16 c=7 v=94
64613 Par ch=16 c=7 v=95
64656 Par ch=16 c=7 v=96
64696 Par ch=16 c=7 v=97
64736 Par ch=16 c=7 v=98
64776 Par ch=16 c=7 v=99
64816 Par ch=16 c=7 v=100
64856 Par ch=16 c=7 v=101
64896 Par ch=16 c=7 v=102
64936 Par ch=16 c=7 v=103
64976 Par ch=16 c=7 v=104
65016 Par ch=16 c=7 v=105
65056 Par ch=16 c=7 v=106
65096 Par ch=16 c=7 v=107
65140 Par ch=16 c=7 v=108
65180 Par ch=16 c=7 v=109
65220 Par ch=16 c=7 v=110
65260 Par ch=16 c=7 v=111
65300 Par ch=16 c=7 v=112
65340 Par ch=16 c=7 v=113
65380 Par ch=16 c=7 v=114
65420 Par ch=16 c=7 v=115
65460 Par ch=16 c=7 v=116
65500 Par ch=16 c=7 v=117
65540 Par ch=16 c=7 v=118
65580 On ch=16 n=78 v=0
65580 Par ch=16 c=7 v=119
65580 Meta TrkEnd
TrkEnd
