/* XPM */
static char * seq66_xpm[] = {
"64 64 560 2",
"  	c None",
". 	c #5B5C5C",
"+ 	c #000000",
"@ 	c #2B2B2B",
"# 	c #000404",
"$ 	c #1B1D1D",
"% 	c #484748",
"& 	c #343634",
"* 	c #343334",
"= 	c #3B3B3D",
"- 	c #0D0E0E",
"; 	c #040B0B",
"> 	c #000606",
", 	c #1A1919",
"' 	c #3A3A3A",
") 	c #575A5A",
"! 	c #141414",
"~ 	c #090A0A",
"{ 	c #061313",
"] 	c #411C1C",
"^ 	c #130F0F",
"/ 	c #030B0B",
"( 	c #0C0B0B",
"_ 	c #1C1C1C",
": 	c #3D3C3C",
"< 	c #161616",
"[ 	c #000304",
"} 	c #152121",
"| 	c #000505",
"1 	c #222222",
"2 	c #4E4E4E",
"3 	c #050405",
"4 	c #1C2929",
"5 	c #9E3030",
"6 	c #602A2A",
"7 	c #041717",
"8 	c #000101",
"9 	c #080808",
"0 	c #1E1E1E",
"a 	c #555252",
"b 	c #6E6C6D",
"c 	c #615E60",
"d 	c #010101",
"e 	c #090D0D",
"f 	c #454646",
"g 	c #9D2A2A",
"h 	c #FCF4F4",
"i 	c #FFFFFF",
"j 	c #6B1515",
"k 	c #091C1C",
"l 	c #080707",
"m 	c #111313",
"n 	c #434141",
"o 	c #515151",
"p 	c #101010",
"q 	c #030404",
"r 	c #122527",
"s 	c #641F1F",
"t 	c #874747",
"u 	c #000A0A",
"v 	c #494949",
"w 	c #1D2E2E",
"x 	c #7A3B3B",
"y 	c #252828",
"z 	c #000303",
"A 	c #020303",
"B 	c #010505",
"C 	c #1F2B2B",
"D 	c #6D4545",
"E 	c #EAD0D0",
"F 	c #914848",
"G 	c #1E3131",
"H 	c #060B0B",
"I 	c #0E1416",
"J 	c #4A4444",
"K 	c #9F5858",
"L 	c #8D2B2B",
"M 	c #020E0E",
"N 	c #414141",
"O 	c #090E10",
"P 	c #FCF5F5",
"Q 	c #9F2C2C",
"R 	c #774D4D",
"S 	c #71696A",
"T 	c #645E5C",
"U 	c #675A5C",
"V 	c #6C6161",
"W 	c #795E5E",
"X 	c #921313",
"Y 	c #DFBEBE",
"Z 	c #820606",
"` 	c #797575",
" .	c #776E6E",
"..	c #7B7778",
"+.	c #7E2728",
"@.	c #9A1F1F",
"#.	c #893738",
"$.	c #070B0B",
"%.	c #161414",
"&.	c #6B6B6B",
"*.	c #302C2E",
"=.	c #502A2A",
"-.	c #FFF4F4",
";.	c #8B3838",
">.	c #7F7F7F",
",.	c #363536",
"'.	c #592F2F",
").	c #F8E0E0",
"!.	c #C29090",
"~.	c #C28C8C",
"{.	c #C79595",
"].	c #B98181",
"^.	c #EBD8D8",
"/.	c #C29191",
"(.	c #C79292",
"_.	c #AC5252",
":.	c #BD8181",
"<.	c #BA8080",
"[.	c #A33E3E",
"}.	c #071516",
"|.	c #504D4E",
"1.	c #151414",
"2.	c #6C191A",
"3.	c #B97878",
"4.	c #070202",
"5.	c #A03939",
"6.	c #FCCECE",
"7.	c #AE8E8E",
"8.	c #E5CDCD",
"9.	c #281E1F",
"0.	c #000201",
"a.	c #3B3B3B",
"b.	c #100F0F",
"c.	c #010D0D",
"d.	c #903434",
"e.	c #B77272",
"f.	c #616060",
"g.	c #A13737",
"h.	c #FBE0E0",
"i.	c #AC8787",
"j.	c #E7F4F4",
"k.	c #EBCDCD",
"l.	c #3D3434",
"m.	c #404040",
"n.	c #121212",
"o.	c #B05B5B",
"p.	c #B97777",
"q.	c #DCEBEB",
"r.	c #A03636",
"s.	c #FAEBEB",
"t.	c #AB8686",
"u.	c #F1EAEA",
"v.	c #D3AEAE",
"w.	c #081212",
"x.	c #1B1B1B",
"y.	c #5E5C5C",
"z.	c #182A2A",
"A.	c #DADBDB",
"B.	c #CB9696",
"C.	c #B54949",
"D.	c #CB9292",
"E.	c #B34A4D",
"F.	c #E7EBEB",
"G.	c #B87575",
"H.	c #B54646",
"I.	c #DFBFBF",
"J.	c #F8E8E8",
"K.	c #AC8686",
"L.	c #EEE7E7",
"M.	c #5D2222",
"N.	c #6D4F4F",
"O.	c #B87274",
"P.	c #A13638",
"Q.	c #AD8688",
"R.	c #A63232",
"S.	c #000707",
"T.	c #3C3B3C",
"U.	c #191919",
"V.	c #AC3234",
"W.	c #E7D0D0",
"X.	c #FFE5E5",
"Y.	c #FDDADA",
"Z.	c #FCE0E0",
"`.	c #2A1B1C",
" +	c #101112",
".+	c #211D1D",
"++	c #FAD8D8",
"@+	c #A13636",
"#+	c #848787",
"$+	c #F8C8C8",
"%+	c #FDF3F3",
"&+	c #F8CECE",
"*+	c #C2A9A9",
"=+	c #944A4A",
"-+	c #393939",
";+	c #752E2E",
">+	c #FEF5F5",
",+	c #9F3636",
"'+	c #E8D3D3",
")+	c #FCE8E8",
"!+	c #1C1212",
"~+	c #080A0A",
"{+	c #121111",
"]+	c #250A0A",
"^+	c #EBDDDD",
"/+	c #8D8383",
"(+	c #FFFAFA",
"_+	c #8C3638",
":+	c #000202",
"<+	c #4A4848",
"[+	c #5D5D5D",
"}+	c #801A1A",
"|+	c #B87273",
"1+	c #A4383A",
"2+	c #FDEBEB",
"3+	c #AF898A",
"4+	c #453232",
"5+	c #0A0D0D",
"6+	c #F1E2E2",
"7+	c #C2B7B7",
"8+	c #E4E0E0",
"9+	c #C2B2B2",
"0+	c #C2B7B8",
"a+	c #F7DADA",
"b+	c #F3E5E5",
"c+	c #E1DBDB",
"d+	c #EEE8E8",
"e+	c #D7BCBC",
"f+	c #E0DBDB",
"g+	c #E2D3D3",
"h+	c #FDFCFC",
"i+	c #070000",
"j+	c #1C1B1C",
"k+	c #242826",
"l+	c #110304",
"m+	c #672D2D",
"n+	c #7E3B3B",
"o+	c #803A3A",
"p+	c #7E3A3B",
"q+	c #7E3A3C",
"r+	c #7E3A3A",
"s+	c #803A3C",
"t+	c #7D3A3A",
"u+	c #7F3B3A",
"v+	c #813332",
"w+	c #7F2A2A",
"x+	c #7E2A2A",
"y+	c #7F2B2B",
"z+	c #802B2B",
"A+	c #812A2B",
"B+	c #7F3434",
"C+	c #7C3B3B",
"D+	c #823535",
"E+	c #7F292A",
"F+	c #7F3535",
"G+	c #7F3B3B",
"H+	c #7F3A3B",
"I+	c #823030",
"J+	c #7E2B2B",
"K+	c #813D3E",
"L+	c #827676",
"M+	c #828483",
"N+	c #7E8787",
"O+	c #7E3636",
"P+	c #803C3C",
"Q+	c #7E3C3C",
"R+	c #833D3D",
"S+	c #4E2121",
"T+	c #020000",
"U+	c #3F3C3F",
"V+	c #060B07",
"W+	c #12190C",
"X+	c #131A0C",
"Y+	c #141A0C",
"Z+	c #14190C",
"`+	c #171C0F",
" @	c #161A0D",
".@	c #151A0C",
"+@	c #13180A",
"@@	c #141306",
"#@	c #141205",
"$@	c #131305",
"%@	c #13190C",
"&@	c #15190C",
"*@	c #10160B",
"=@	c #12110C",
"-@	c #181848",
";@	c #121223",
">@	c #282626",
",@	c #282845",
"'@	c #DCDCFA",
")@	c #16162C",
"!@	c #090907",
"~@	c #4B4A39",
"{@	c #BFBFE5",
"]@	c #D4D2C9",
"^@	c #46453A",
"/@	c #DBDBF4",
"(@	c #626173",
"_@	c #D9D8D7",
":@	c #17162C",
"<@	c #11100C",
"[@	c #212147",
"}@	c #CECED2",
"|@	c #15152B",
"1@	c #171817",
"2@	c #14130F",
"3@	c #2F2F6B",
"4@	c #EDEDE8",
"5@	c #CBCBEB",
"6@	c #121329",
"7@	c #413F40",
"8@	c #1E1C1C",
"9@	c #050500",
"0@	c #2C2C9F",
"a@	c #CECDFA",
"b@	c #DEDEEC",
"c@	c #0E0E23",
"d@	c #0F0D0D",
"e@	c #1B1B19",
"f@	c #0B0B15",
"g@	c #F5F5FA",
"h@	c #C8C8E2",
"i@	c #383665",
"j@	c #030301",
"k@	c #4B4B4B",
"l@	c #2B2B70",
"m@	c #424148",
"n@	c #B4B4D3",
"o@	c #040407",
"p@	c #1E1D1E",
"q@	c #141420",
"r@	c #FCFCFD",
"s@	c #E3E2DE",
"t@	c #DCDCFC",
"u@	c #272739",
"v@	c #373637",
"w@	c #30306A",
"x@	c #E5E5F1",
"y@	c #BEBEEA",
"z@	c #BCBCD9",
"A@	c #090802",
"B@	c #212121",
"C@	c #090909",
"D@	c #27272B",
"E@	c #D2D1F0",
"F@	c #2C2B53",
"G@	c #363433",
"H@	c #0D0D0D",
"I@	c #D8D8E4",
"J@	c #DCDCF8",
"K@	c #C4C3E2",
"L@	c #E8E8F7",
"M@	c #EBEBF8",
"N@	c #262613",
"O@	c #171618",
"P@	c #23221A",
"Q@	c #E5E5DA",
"R@	c #464548",
"S@	c #84838B",
"T@	c #DCDBEC",
"U@	c #FAFAFD",
"V@	c #9595B5",
"W@	c #1D1D1E",
"X@	c #ECECF1",
"Y@	c #E8E8F8",
"Z@	c #202034",
"`@	c #242220",
" #	c #151515",
".#	c #141404",
"+#	c #2E2E95",
"@#	c #6E6E6E",
"##	c #54535E",
"$#	c #EFEED9",
"%#	c #1F1E21",
"&#	c #2F2D2C",
"*#	c #252626",
"=#	c #E9E9F5",
"-#	c #F5F5FC",
";#	c #868583",
">#	c #C5C4E4",
",#	c #C6C7E9",
"'#	c #BDBDE9",
")#	c #E3E3E2",
"!#	c #2D2D53",
"~#	c #050503",
"{#	c #1A1A1A",
"]#	c #2D2C18",
"^#	c #CFCFE6",
"/#	c #E8E8FA",
"(#	c #BEBEEE",
"_#	c #1F2066",
":#	c #0F0F3E",
"<#	c #414199",
"[#	c #E2E2EC",
"}#	c #DBDBE9",
"|#	c #28287F",
"1#	c #686868",
"2#	c #080841",
"3#	c #E7E7FD",
"4#	c #7373AA",
"5#	c #10100B",
"6#	c #434343",
"7#	c #2E2E29",
"8#	c #201E58",
"9#	c #E4E4EE",
"0#	c #161510",
"a#	c #2B2B2F",
"b#	c #31312B",
"c#	c #14144F",
"d#	c #A2A2C4",
"e#	c #EBEBFC",
"f#	c #414096",
"g#	c #0F0F0A",
"h#	c #444342",
"i#	c #20201C",
"j#	c #12123D",
"k#	c #1E1E78",
"l#	c #010200",
"m#	c #7C7A7A",
"n#	c #131211",
"o#	c #24231E",
"p#	c #EEEEDD",
"q#	c #7D7D7B",
"r#	c #DDDCE5",
"s#	c #BFBFFB",
"t#	c #272860",
"u#	c #2F2E2E",
"v#	c #CECEE6",
"w#	c #606060",
"x#	c #DFDFEF",
"y#	c #222234",
"z#	c #282827",
"A#	c #040303",
"B#	c #323222",
"C#	c #F0EFE0",
"D#	c #E6E6E9",
"E#	c #FAFAFE",
"F#	c #3C3C9E",
"G#	c #020200",
"H#	c #4C4949",
"I#	c #CECEEA",
"J#	c #D9D9DE",
"K#	c #393948",
"L#	c #0E0E0C",
"M#	c #020203",
"N#	c #242414",
"O#	c #E8E8F3",
"P#	c #C5C5E5",
"Q#	c #292981",
"R#	c #2E2E2E",
"S#	c #171717",
"T#	c #20203D",
"U#	c #CDCDF0",
"V#	c #BEBDE5",
"W#	c #E3E2ED",
"X#	c #C8C8C0",
"Y#	c #C9C8E8",
"Z#	c #F5F5FB",
"`#	c #404090",
" $	c #111102",
".$	c #222123",
"+$	c #24233C",
"@$	c #E1E1F9",
"#$	c #F8F8FC",
"$$	c #DCDBF6",
"%$	c #383678",
"&$	c #0E0E05",
"*$	c #100F10",
"=$	c #16141B",
"-$	c #5A5A91",
";$	c #BFBFF2",
">$	c #DCDCF7",
",$	c #BDBDE0",
"'$	c #1D1D30",
")$	c #030302",
"!$	c #161515",
"~$	c #323033",
"{$	c #E6E6ED",
"]$	c #C0C0DE",
"^$	c #484847",
"/$	c #050507",
"($	c #2B2A2B",
"_$	c #040404",
":$	c #1B1910",
"<$	c #454449",
"[$	c #242476",
"}$	c #C7C7E8",
"|$	c #9898C0",
"1$	c #121171",
"2$	c #2A2A66",
"3$	c #484844",
"4$	c #121007",
"5$	c #737373",
"6$	c #383638",
"7$	c #0A0A0A",
"8$	c #050504",
"9$	c #14130E",
"0$	c #070600",
"a$	c #100E00",
"b$	c #3C3A28",
"c$	c #282746",
"d$	c #272771",
"e$	c #E8E8F1",
"f$	c #21216D",
"g$	c #3E3E4B",
"h$	c #393929",
"i$	c #0D0C00",
"j$	c #0B0B04",
"k$	c #0A0A02",
"l$	c #0E0F0F",
"m$	c #1F1F1F",
"n$	c #646162",
"o$	c #3C393A",
"p$	c #292828",
"q$	c #090804",
"r$	c #0F0E07",
"s$	c #070700",
"t$	c #3E3D30",
"u$	c #141454",
"v$	c #35359A",
"w$	c #E8E8FC",
"x$	c #39398B",
"y$	c #13142D",
"z$	c #39392A",
"A$	c #101007",
"B$	c #17160F",
"C$	c #060603",
"D$	c #0E0E0E",
"E$	c #313131",
"F$	c #111111",
"G$	c #363636",
"H$	c #1D1C17",
"I$	c #060600",
"J$	c #1E1F2C",
"K$	c #343462",
"L$	c #222268",
"M$	c #1A1A2C",
"N$	c #030401",
"O$	c #1F1E1B",
"P$	c #242424",
"Q$	c #2E2D2D",
"R$	c #3E3E3E",
"S$	c #1A1A19",
"T$	c #040400",
"U$	c #040414",
"V$	c #0E0E2D",
"W$	c #C0C0DA",
"X$	c #24243D",
"Y$	c #090918",
"Z$	c #0C0C0A",
"`$	c #282828",
" %	c #000003",
".%	c #15141B",
"+%	c #A8A7C1",
"@%	c #232339",
"#%	c #030308",
"$%	c #6E6C6C",
"%%	c #383838",
"&%	c #6F6C6F",
"                                                                                                                                ",
"                                                                                                                                ",
"                      . +                                     @ # $                                   % & *                     ",
"                    = - ; > , '                         ) ! ~ { ] ^ / ( _                         : < [ } | 1                   ",
"                  2 3 4 5 6 7 8 9 0 a b           c _ d e + f g h i j k + l m n           o _ p q + r s i t u 0                 ",
"                v + w i i i i x y + z A + + + + + B + C D E i i i i i i F G H 8 + + + + + z + I J K i i i i L M <               ",
"              N + O i i i i i i i P Q R S T U V W X i i i i i i i i i i i i i Y Z `  ...+.@.i i i i i i i i i #.$.%.&.          ",
"            *.+ =.i i i i i i i i i i i i i i i i i i i i i i i i i i i i i i i i i i i i i i i i i i i i i i -.;.m + >.        ",
"          ,.+ '.).i i i i i i i i i i Y !.~.{.~.~.].i i i ^./.~.{.~.~.(.i i i _.:.~.~.{.~.<.i i i i i i i i i i i [.}.+ |.      ",
"        1.8 2.i i i i i i i i i i i i 3.4.4.4.4.4.4.i i i 5.4.4.4.4.4.4.6.i i 7.4.4.4.4.4.4.i i i i i i i i i i i i 8.9.0.a.    ",
"      b.c.d.i i i i i i i i i i i i i e.4.f.4.4.4.4.i i i g.4.4.4.4.4.4.h.i i i.4.4.4.j.4.4.i i i i i i i i i i i i i k.l.+ m.  ",
"    n.+ o.i i i i i i i i i i i i i i p.4.q.i i i i i i i r.4.4.s.i i i i i i t.4.4.i i u.4.i i i i i i i i i i i i i i v.w.x.  ",
"    y.p z.i i i i i i i i i i i i i i p.4.A.B.C.D.E.i i i r.4.F.G.H.D.I.J.i i K.4.4.i i L.4.i i i i i i i i i i i i i i M.#     ",
"      1 + N.i i i i i i i i i i i i i O.4.4.4.4.4.4.i i i P.4.4.4.4.4.4.6.i i Q.4.4.i i L.4.i i i i i i i i i i i i i R.S.T.    ",
"        U.+ V.i i i i i i i i i i i i W.X.Y.Y.Y.4.4.i i i r.4.4.4.4.4.4.Z.i i K.4.4.i i L.4.i i i i i i i i i i i i i `. +      ",
"          + .+++i i i i i i i i i i i i i i i i 4.4.i i i @+4.#+i $+%+&+i i i K.4.4.i i *+4.i i i i i i i i i i i i =++ -+      ",
"          ' + ;+i i i i i i i i i i i i >+i i i 4.4.i i i ,+4.4.i i i i i i i t.4.4.i i '+4.i i i i i i i i i i i )+!+~+        ",
"            {+]+i i i i i i i i i i i ^+4.4.4.4.4.4.i i i P.4.4.4.4.4./+(+i i t.4.4.4.4.4.4.i i i i i i i i i i i _+:+<+        ",
"            [+z }+i i i i i i i i i i |+4.4.4.4.4.4.i i i 1+4.4.4.4.4.4.2+i i 3+4.4.4.4.4.4.i i i i i i i i i i i 4++           ",
"              5+] i i i i i i i i i i 6+7+8+8+8+9+0+a+i i b+c+8+8+8+8+d+i i i e+8+8+f+g+4.4.i i i i i i i i i i h+i+j+          ",
"              k+l+m+n+o+p+q+r+r+s+t+u+v+w+x+y+y+z+A+B+n+C+D+E+w+w+z+y+y+F+G+H+I+z+J+w+K+L+M+N+O+P+P+P+o+Q+r+r+R+S+T+U+          ",
"                A V+W+X+X+Y+X+Y+Y+X+Z+Z+X+`+ @Y+X+X+Y+Y+Y+X+Y+Y+.@Y+Y+Y+Y+X+X+X+Y+X+Y++@@@#@$@Y+%@&@Z+X+Z+Y+Y+*@0.+             ",
"                =@-@i i i i i i i i i i i i i i i i i i i i i i i i i i i i i i i i i i i i i i i i i i i i i i ;@>@            ",
"                + ,@i i i i i i i i i i i '@i i i i i i i i i i i i i i i i i i i i '@i i i i i i i i i i i i i )@!@            ",
"                + ~@i i i i i i i i i i i {@]@i i i i i i i i i i i i i i i i i i i {@]@i i i i i i i i i i i i )@+             ",
"                + ^@i i i i i i i i i /@(@4.4._@i i i i i i i i i i i i i i i i /@(@4.4._@i i i i i i i i i i i :@+             ",
"                <@[@i i i i i i i i i i 4.4.4.4.}@i i i i i i i i i i i i i i i i 4.4.4.4.}@i i i i i i i i i i |@1@            ",
"                2@3@i i i i i i i i i 4.4.4.4.4@5@i i i i i i i i i i i i i i i 4.4.4.4.4@5@i i i i i i i i i i 6@7@            ",
"              8@9@0@i i i i i i a@i 4.4.4.4.4.b@i i i i i i i i i i i i i a@i 4.4.4.4.4.b@i i i i i i i i i i i c@d@            ",
"              e@f@i i i i i i i g@4.4.4.4.4.h@i i i i i i i i i i i i i i g@4.4.4.4.4.h@i i i i i i i i i i i i i@j@            ",
"            k@+ l@i i i i i i i m@4.4.4.4.4.i i i i i i i i i i i i i i i m@4.4.4.4.4.i i i i i i i i i i i i i n@o@-+          ",
"            p@q@i i i i i i i r@4.4.4.4.s@i i i i i i i i i i i i i i i r@4.4.4.4.s@i i i i i i i i i i i i i i t@u@+           ",
"          v@+ w@i i i i i i i x@4.4.4.4.y@i i i i i i i i i i i i i i i x@4.4.4.4.y@i i i i i i i i i i i i i i i z@A@B@        ",
"          C@D@i i i i i i i i 4.4.4.4.E@i i i i i i i i i i i i i i i i 4.4.4.4.E@i i i i i i i i i i i i i i i i i F@+ G@      ",
"        H@+ I@i i i i i i J@K@4.4.4.4.i L@i i M@i i i i i i i i i i J@K@4.4.4.4.i L@i i M@i i i i i i i i i i i i i i N@O@      ",
"        d P@i i i i i i i i Q@4.4.4.4.R@S@4.4.4.4.T@U@i i i i i i i i Q@4.4.4.4.R@S@4.4.4.4.T@U@i i i i i i i i i i i V@+ W@    ",
"      0 + X@i i i i i i i i 4.4.4.4.4.4.4.4.4.4.4.4.4.4.i i i i i i i 4.4.4.4.4.4.4.4.4.4.4.4.4.4.i i i i i i i i i i Y@Z@`@    ",
"       #.#i i i i i i i i i 4.4.4.4.4.4.4.4.4.4.4.4.4.4.i i i i i i i 4.4.4.4.4.4.4.4.4.4.4.4.4.4.i i i i i i i i i i i +#+ @#  ",
"      + ##i i i i i i i i $#4.4.4.4.4.4.4.4.4.4.4.4.4.4.4.i i i i i $#4.4.4.4.4.4.4.4.4.4.4.4.4.4.4.i i i i i i i i i i i %#&#  ",
"    *#+ =#i i i i i i i -#4.4.4.4.4.4.;#>#,#'#i 4.4.4.4.4.)#i i i -#4.4.4.4.4.4.;#>#,#'#i 4.4.4.4.4.)#i i i i i i i i i i !#~#  ",
"    {#]#i i i i i i i i ^#4.4.4.4.4.4.i /#i i i i i 4.4.4.4.(#i i ^#4.4.4.4.4.4.i /#i i i i i 4.4.4.4.(#i i i i i i i i i _#+   ",
"    + :#i i i i i i i i <#4.4.4.4.4.i i i i i i i i i 4.4.4.[#i i <#4.4.4.4.4.i i i i i i i i i 4.4.4.[#i }#i i i i i i i |#9@1#",
"    + 2#i i i i i i i i i 4.4.4.4.i i i i i i i i i i 4.4.4.4.i 3#i 4.4.4.4.i i i i i i i i i i 4.4.4.4.i i i i i i i i i 4#5#6#",
"    7#8#i i i i i i i i i 4.4.4.4.i i i i i i i i i i 4.4.4.4.i i i 4.4.4.4.i i i i i i i i i i 4.4.4.4.i i i i i i i i i 9#0#a#",
"    b#c#i i i i i i i i d#4.4.4.4.U@i i i i i i i i e#4.4.4.4.i i d#4.4.4.4.U@i i i i i i i i e#4.4.4.4.i i i i i i i i i f#g#h#",
"    i#j#i i i i i i i i U@4.4.4.4.i i i i i i i i i i 4.4.4.4.i i U@4.4.4.4.i i i i i i i i i i 4.4.4.4.i i i i i i i i i k#l#m#",
"    n#o#i i i i i i i i i p#4.4.4.q#i i i i i i i i r#4.4.4.4.i i i p#4.4.4.q#i i i i i i i i r#4.4.4.4.i i i i i i i i s#t#+   ",
"    u#+ v#i i i i i i i i i 4.4.4.4.w#i i i i x#4.4.4.4.4.4.i i i i i 4.4.4.4.w#i i i i x#4.4.4.4.4.4.i i i i i i i i i i y#z#  ",
"      A#B#i i i i i i i i i C#4.4.4.4.4.4.4.4.4.4.4.4.4.4.D#E#i i i i C#4.4.4.4.4.4.4.4.4.4.4.4.4.4.D#E#i i i i i i i i F#G#H#  ",
"      0 + I#i i i i i i i i i 4.4.4.4.4.4.4.4.4.4.4.4.4.J#/@i i i i i i 4.4.4.4.4.4.4.4.4.4.4.4.4.J#/@i i i i i i i i i K#L#    ",
"        M#N#i i i i i i i i i i O#4.4.4.4.4.4.4.4.4.4.P#/@i i i i i i i i O#4.4.4.4.4.4.4.4.4.4.P#/@i i i i i i i i i Q#+ R#    ",
"        S#+ T#U#i i i i i i i i i V#W#4.4.4.4.4.X#Y#Z#i i i i i i i i i i i V#W#4.4.4.4.4.X#Y#Z#i i i i i i i i i i `# $.$      ",
"          v + +$i i i i i i i i i i i @$i i #$i i $$i i i i i i i i i i i i i i @$i i #$i i $$i i i i i i i i i i %$&$*$        ",
"            a.+ =$-$i i i i i i i i i i i i i i i i i i i i i i i i i i i i i i i i i i i ;$;$;$;$>$i i i i i ,$'$)$U.          ",
"                !$+ ~${$i i i i i i i i i i i i i i i i i i i i i i i i i i i i i i i i i i i i i i i i i ]$^$/$+ >@            ",
"                  ($_$+ :$<$[$i }$i i i i i i i i i i i i i i i i i i i i i i i i i i i i i i i |$1$2$3$4$+ + {#5$              ",
"                      6$7$8$9$0$+ + a$b$c$d$i i i i i i i i i i i i i i i i i i i i e$f$g$h$i$+ j$k$+ + l$m$                    ",
"                            n$o$p$+ _ n.q$r$s$t$u$v$i w$i i i i i i i i i i i x$y$z$A$B$C$D$E$F$<+                              ",
"                                            G$+ H$I$J$K$i w$i i i i i i i L$M$N$O$P$Q$                                          ",
"                                                  R$S$T$U$V$W$i i i i X$Y$+ Z$                                                  ",
"                                                        `$+  %.%+%@%#%+ {#$%                                                    ",
"                                                            %%+ + + d &%                                                        ",
"                                                                                                                                ",
"                                                                                                                                "};
